%TF.GenerationSoftware,KiCad,Pcbnew,8.0.6-8.0.6-0~ubuntu22.04.1*%
%TF.CreationDate,2024-11-01T09:16:27+07:00*%
%TF.ProjectId,projectGATE,70726f6a-6563-4744-9741-54452e6b6963,rev?*%
%TF.SameCoordinates,Original*%
%TF.FileFunction,AssemblyDrawing,Top*%
%FSLAX46Y46*%
G04 Gerber Fmt 4.6, Leading zero omitted, Abs format (unit mm)*
G04 Created by KiCad (PCBNEW 8.0.6-8.0.6-0~ubuntu22.04.1) date 2024-11-01 09:16:27*
%MOMM*%
%LPD*%
G01*
G04 APERTURE LIST*
%ADD10C,0.150000*%
%ADD11C,0.100000*%
%ADD12C,0.127000*%
%ADD13C,0.200000*%
%TA.AperFunction,Profile*%
%ADD14C,0.050000*%
%TD*%
G04 APERTURE END LIST*
D10*
X170984819Y-89142857D02*
X170984819Y-89714285D01*
X170984819Y-89428571D02*
X169984819Y-89428571D01*
X169984819Y-89428571D02*
X170127676Y-89523809D01*
X170127676Y-89523809D02*
X170222914Y-89619047D01*
X170222914Y-89619047D02*
X170270533Y-89714285D01*
X170984819Y-88714285D02*
X169984819Y-88714285D01*
X169984819Y-88714285D02*
X170984819Y-88142857D01*
X170984819Y-88142857D02*
X169984819Y-88142857D01*
X170318152Y-87238095D02*
X170984819Y-87238095D01*
X169937200Y-87476190D02*
X170651485Y-87714285D01*
X170651485Y-87714285D02*
X170651485Y-87095238D01*
X169984819Y-86523809D02*
X169984819Y-86428571D01*
X169984819Y-86428571D02*
X170032438Y-86333333D01*
X170032438Y-86333333D02*
X170080057Y-86285714D01*
X170080057Y-86285714D02*
X170175295Y-86238095D01*
X170175295Y-86238095D02*
X170365771Y-86190476D01*
X170365771Y-86190476D02*
X170603866Y-86190476D01*
X170603866Y-86190476D02*
X170794342Y-86238095D01*
X170794342Y-86238095D02*
X170889580Y-86285714D01*
X170889580Y-86285714D02*
X170937200Y-86333333D01*
X170937200Y-86333333D02*
X170984819Y-86428571D01*
X170984819Y-86428571D02*
X170984819Y-86523809D01*
X170984819Y-86523809D02*
X170937200Y-86619047D01*
X170937200Y-86619047D02*
X170889580Y-86666666D01*
X170889580Y-86666666D02*
X170794342Y-86714285D01*
X170794342Y-86714285D02*
X170603866Y-86761904D01*
X170603866Y-86761904D02*
X170365771Y-86761904D01*
X170365771Y-86761904D02*
X170175295Y-86714285D01*
X170175295Y-86714285D02*
X170080057Y-86666666D01*
X170080057Y-86666666D02*
X170032438Y-86619047D01*
X170032438Y-86619047D02*
X169984819Y-86523809D01*
X169984819Y-85571428D02*
X169984819Y-85476190D01*
X169984819Y-85476190D02*
X170032438Y-85380952D01*
X170032438Y-85380952D02*
X170080057Y-85333333D01*
X170080057Y-85333333D02*
X170175295Y-85285714D01*
X170175295Y-85285714D02*
X170365771Y-85238095D01*
X170365771Y-85238095D02*
X170603866Y-85238095D01*
X170603866Y-85238095D02*
X170794342Y-85285714D01*
X170794342Y-85285714D02*
X170889580Y-85333333D01*
X170889580Y-85333333D02*
X170937200Y-85380952D01*
X170937200Y-85380952D02*
X170984819Y-85476190D01*
X170984819Y-85476190D02*
X170984819Y-85571428D01*
X170984819Y-85571428D02*
X170937200Y-85666666D01*
X170937200Y-85666666D02*
X170889580Y-85714285D01*
X170889580Y-85714285D02*
X170794342Y-85761904D01*
X170794342Y-85761904D02*
X170603866Y-85809523D01*
X170603866Y-85809523D02*
X170365771Y-85809523D01*
X170365771Y-85809523D02*
X170175295Y-85761904D01*
X170175295Y-85761904D02*
X170080057Y-85714285D01*
X170080057Y-85714285D02*
X170032438Y-85666666D01*
X170032438Y-85666666D02*
X169984819Y-85571428D01*
X169984819Y-84904761D02*
X169984819Y-84238095D01*
X169984819Y-84238095D02*
X170984819Y-84666666D01*
X175554819Y-82181904D02*
X174554819Y-82181904D01*
X175554819Y-81610476D02*
X174983390Y-82039047D01*
X174554819Y-81610476D02*
X175126247Y-82181904D01*
X173454819Y-88238094D02*
X172454819Y-88238094D01*
X172454819Y-88238094D02*
X172454819Y-87999999D01*
X172454819Y-87999999D02*
X172502438Y-87857142D01*
X172502438Y-87857142D02*
X172597676Y-87761904D01*
X172597676Y-87761904D02*
X172692914Y-87714285D01*
X172692914Y-87714285D02*
X172883390Y-87666666D01*
X172883390Y-87666666D02*
X173026247Y-87666666D01*
X173026247Y-87666666D02*
X173216723Y-87714285D01*
X173216723Y-87714285D02*
X173311961Y-87761904D01*
X173311961Y-87761904D02*
X173407200Y-87857142D01*
X173407200Y-87857142D02*
X173454819Y-87999999D01*
X173454819Y-87999999D02*
X173454819Y-88238094D01*
X172454819Y-87333332D02*
X172454819Y-86714285D01*
X172454819Y-86714285D02*
X172835771Y-87047618D01*
X172835771Y-87047618D02*
X172835771Y-86904761D01*
X172835771Y-86904761D02*
X172883390Y-86809523D01*
X172883390Y-86809523D02*
X172931009Y-86761904D01*
X172931009Y-86761904D02*
X173026247Y-86714285D01*
X173026247Y-86714285D02*
X173264342Y-86714285D01*
X173264342Y-86714285D02*
X173359580Y-86761904D01*
X173359580Y-86761904D02*
X173407200Y-86809523D01*
X173407200Y-86809523D02*
X173454819Y-86904761D01*
X173454819Y-86904761D02*
X173454819Y-87190475D01*
X173454819Y-87190475D02*
X173407200Y-87285713D01*
X173407200Y-87285713D02*
X173359580Y-87333332D01*
X196785238Y-103457533D02*
X197394762Y-103457533D01*
X197090000Y-103762295D02*
X197090000Y-103152771D01*
X158454819Y-120738094D02*
X157454819Y-120738094D01*
X157454819Y-120738094D02*
X158169104Y-120404761D01*
X158169104Y-120404761D02*
X157454819Y-120071428D01*
X157454819Y-120071428D02*
X158454819Y-120071428D01*
X157931009Y-119261904D02*
X157931009Y-119595237D01*
X158454819Y-119595237D02*
X157454819Y-119595237D01*
X157454819Y-119595237D02*
X157454819Y-119119047D01*
X158454819Y-118166666D02*
X157978628Y-118499999D01*
X158454819Y-118738094D02*
X157454819Y-118738094D01*
X157454819Y-118738094D02*
X157454819Y-118357142D01*
X157454819Y-118357142D02*
X157502438Y-118261904D01*
X157502438Y-118261904D02*
X157550057Y-118214285D01*
X157550057Y-118214285D02*
X157645295Y-118166666D01*
X157645295Y-118166666D02*
X157788152Y-118166666D01*
X157788152Y-118166666D02*
X157883390Y-118214285D01*
X157883390Y-118214285D02*
X157931009Y-118261904D01*
X157931009Y-118261904D02*
X157978628Y-118357142D01*
X157978628Y-118357142D02*
X157978628Y-118738094D01*
X158073866Y-117738094D02*
X158073866Y-116976190D01*
X157550057Y-116547618D02*
X157502438Y-116499999D01*
X157502438Y-116499999D02*
X157454819Y-116404761D01*
X157454819Y-116404761D02*
X157454819Y-116166666D01*
X157454819Y-116166666D02*
X157502438Y-116071428D01*
X157502438Y-116071428D02*
X157550057Y-116023809D01*
X157550057Y-116023809D02*
X157645295Y-115976190D01*
X157645295Y-115976190D02*
X157740533Y-115976190D01*
X157740533Y-115976190D02*
X157883390Y-116023809D01*
X157883390Y-116023809D02*
X158454819Y-116595237D01*
X158454819Y-116595237D02*
X158454819Y-115976190D01*
X157454819Y-115071428D02*
X157454819Y-115547618D01*
X157454819Y-115547618D02*
X157931009Y-115595237D01*
X157931009Y-115595237D02*
X157883390Y-115547618D01*
X157883390Y-115547618D02*
X157835771Y-115452380D01*
X157835771Y-115452380D02*
X157835771Y-115214285D01*
X157835771Y-115214285D02*
X157883390Y-115119047D01*
X157883390Y-115119047D02*
X157931009Y-115071428D01*
X157931009Y-115071428D02*
X158026247Y-115023809D01*
X158026247Y-115023809D02*
X158264342Y-115023809D01*
X158264342Y-115023809D02*
X158359580Y-115071428D01*
X158359580Y-115071428D02*
X158407200Y-115119047D01*
X158407200Y-115119047D02*
X158454819Y-115214285D01*
X158454819Y-115214285D02*
X158454819Y-115452380D01*
X158454819Y-115452380D02*
X158407200Y-115547618D01*
X158407200Y-115547618D02*
X158359580Y-115595237D01*
X157931009Y-114261904D02*
X157931009Y-114595237D01*
X158454819Y-114595237D02*
X157454819Y-114595237D01*
X157454819Y-114595237D02*
X157454819Y-114119047D01*
X157931009Y-113404761D02*
X157978628Y-113261904D01*
X157978628Y-113261904D02*
X158026247Y-113214285D01*
X158026247Y-113214285D02*
X158121485Y-113166666D01*
X158121485Y-113166666D02*
X158264342Y-113166666D01*
X158264342Y-113166666D02*
X158359580Y-113214285D01*
X158359580Y-113214285D02*
X158407200Y-113261904D01*
X158407200Y-113261904D02*
X158454819Y-113357142D01*
X158454819Y-113357142D02*
X158454819Y-113738094D01*
X158454819Y-113738094D02*
X157454819Y-113738094D01*
X157454819Y-113738094D02*
X157454819Y-113404761D01*
X157454819Y-113404761D02*
X157502438Y-113309523D01*
X157502438Y-113309523D02*
X157550057Y-113261904D01*
X157550057Y-113261904D02*
X157645295Y-113214285D01*
X157645295Y-113214285D02*
X157740533Y-113214285D01*
X157740533Y-113214285D02*
X157835771Y-113261904D01*
X157835771Y-113261904D02*
X157883390Y-113309523D01*
X157883390Y-113309523D02*
X157931009Y-113404761D01*
X157931009Y-113404761D02*
X157931009Y-113738094D01*
X157931009Y-112404761D02*
X157931009Y-112738094D01*
X158454819Y-112738094D02*
X157454819Y-112738094D01*
X157454819Y-112738094D02*
X157454819Y-112261904D01*
X157454819Y-111404761D02*
X157454819Y-111880951D01*
X157454819Y-111880951D02*
X157931009Y-111928570D01*
X157931009Y-111928570D02*
X157883390Y-111880951D01*
X157883390Y-111880951D02*
X157835771Y-111785713D01*
X157835771Y-111785713D02*
X157835771Y-111547618D01*
X157835771Y-111547618D02*
X157883390Y-111452380D01*
X157883390Y-111452380D02*
X157931009Y-111404761D01*
X157931009Y-111404761D02*
X158026247Y-111357142D01*
X158026247Y-111357142D02*
X158264342Y-111357142D01*
X158264342Y-111357142D02*
X158359580Y-111404761D01*
X158359580Y-111404761D02*
X158407200Y-111452380D01*
X158407200Y-111452380D02*
X158454819Y-111547618D01*
X158454819Y-111547618D02*
X158454819Y-111785713D01*
X158454819Y-111785713D02*
X158407200Y-111880951D01*
X158407200Y-111880951D02*
X158359580Y-111928570D01*
X157550057Y-110976189D02*
X157502438Y-110928570D01*
X157502438Y-110928570D02*
X157454819Y-110833332D01*
X157454819Y-110833332D02*
X157454819Y-110595237D01*
X157454819Y-110595237D02*
X157502438Y-110499999D01*
X157502438Y-110499999D02*
X157550057Y-110452380D01*
X157550057Y-110452380D02*
X157645295Y-110404761D01*
X157645295Y-110404761D02*
X157740533Y-110404761D01*
X157740533Y-110404761D02*
X157883390Y-110452380D01*
X157883390Y-110452380D02*
X158454819Y-111023808D01*
X158454819Y-111023808D02*
X158454819Y-110404761D01*
X158073866Y-109976189D02*
X158073866Y-109214285D01*
X158454819Y-108214285D02*
X158454819Y-108785713D01*
X158454819Y-108499999D02*
X157454819Y-108499999D01*
X157454819Y-108499999D02*
X157597676Y-108595237D01*
X157597676Y-108595237D02*
X157692914Y-108690475D01*
X157692914Y-108690475D02*
X157740533Y-108785713D01*
X158454819Y-107785713D02*
X157454819Y-107785713D01*
X158454819Y-107214285D02*
X157883390Y-107642856D01*
X157454819Y-107214285D02*
X158026247Y-107785713D01*
X130515595Y-96841009D02*
X130848928Y-96841009D01*
X130991785Y-97364819D02*
X130515595Y-97364819D01*
X130515595Y-97364819D02*
X130515595Y-96364819D01*
X130515595Y-96364819D02*
X130991785Y-96364819D01*
X131372738Y-97317200D02*
X131515595Y-97364819D01*
X131515595Y-97364819D02*
X131753690Y-97364819D01*
X131753690Y-97364819D02*
X131848928Y-97317200D01*
X131848928Y-97317200D02*
X131896547Y-97269580D01*
X131896547Y-97269580D02*
X131944166Y-97174342D01*
X131944166Y-97174342D02*
X131944166Y-97079104D01*
X131944166Y-97079104D02*
X131896547Y-96983866D01*
X131896547Y-96983866D02*
X131848928Y-96936247D01*
X131848928Y-96936247D02*
X131753690Y-96888628D01*
X131753690Y-96888628D02*
X131563214Y-96841009D01*
X131563214Y-96841009D02*
X131467976Y-96793390D01*
X131467976Y-96793390D02*
X131420357Y-96745771D01*
X131420357Y-96745771D02*
X131372738Y-96650533D01*
X131372738Y-96650533D02*
X131372738Y-96555295D01*
X131372738Y-96555295D02*
X131420357Y-96460057D01*
X131420357Y-96460057D02*
X131467976Y-96412438D01*
X131467976Y-96412438D02*
X131563214Y-96364819D01*
X131563214Y-96364819D02*
X131801309Y-96364819D01*
X131801309Y-96364819D02*
X131944166Y-96412438D01*
X132372738Y-97364819D02*
X132372738Y-96364819D01*
X132372738Y-96364819D02*
X132753690Y-96364819D01*
X132753690Y-96364819D02*
X132848928Y-96412438D01*
X132848928Y-96412438D02*
X132896547Y-96460057D01*
X132896547Y-96460057D02*
X132944166Y-96555295D01*
X132944166Y-96555295D02*
X132944166Y-96698152D01*
X132944166Y-96698152D02*
X132896547Y-96793390D01*
X132896547Y-96793390D02*
X132848928Y-96841009D01*
X132848928Y-96841009D02*
X132753690Y-96888628D01*
X132753690Y-96888628D02*
X132372738Y-96888628D01*
X133277500Y-96364819D02*
X133896547Y-96364819D01*
X133896547Y-96364819D02*
X133563214Y-96745771D01*
X133563214Y-96745771D02*
X133706071Y-96745771D01*
X133706071Y-96745771D02*
X133801309Y-96793390D01*
X133801309Y-96793390D02*
X133848928Y-96841009D01*
X133848928Y-96841009D02*
X133896547Y-96936247D01*
X133896547Y-96936247D02*
X133896547Y-97174342D01*
X133896547Y-97174342D02*
X133848928Y-97269580D01*
X133848928Y-97269580D02*
X133801309Y-97317200D01*
X133801309Y-97317200D02*
X133706071Y-97364819D01*
X133706071Y-97364819D02*
X133420357Y-97364819D01*
X133420357Y-97364819D02*
X133325119Y-97317200D01*
X133325119Y-97317200D02*
X133277500Y-97269580D01*
X134277500Y-96460057D02*
X134325119Y-96412438D01*
X134325119Y-96412438D02*
X134420357Y-96364819D01*
X134420357Y-96364819D02*
X134658452Y-96364819D01*
X134658452Y-96364819D02*
X134753690Y-96412438D01*
X134753690Y-96412438D02*
X134801309Y-96460057D01*
X134801309Y-96460057D02*
X134848928Y-96555295D01*
X134848928Y-96555295D02*
X134848928Y-96650533D01*
X134848928Y-96650533D02*
X134801309Y-96793390D01*
X134801309Y-96793390D02*
X134229881Y-97364819D01*
X134229881Y-97364819D02*
X134848928Y-97364819D01*
X135277500Y-96983866D02*
X136039405Y-96983866D01*
X136515595Y-97364819D02*
X136515595Y-96364819D01*
X136515595Y-96364819D02*
X136753690Y-96364819D01*
X136753690Y-96364819D02*
X136896547Y-96412438D01*
X136896547Y-96412438D02*
X136991785Y-96507676D01*
X136991785Y-96507676D02*
X137039404Y-96602914D01*
X137039404Y-96602914D02*
X137087023Y-96793390D01*
X137087023Y-96793390D02*
X137087023Y-96936247D01*
X137087023Y-96936247D02*
X137039404Y-97126723D01*
X137039404Y-97126723D02*
X136991785Y-97221961D01*
X136991785Y-97221961D02*
X136896547Y-97317200D01*
X136896547Y-97317200D02*
X136753690Y-97364819D01*
X136753690Y-97364819D02*
X136515595Y-97364819D01*
X137515595Y-96841009D02*
X137848928Y-96841009D01*
X137991785Y-97364819D02*
X137515595Y-97364819D01*
X137515595Y-97364819D02*
X137515595Y-96364819D01*
X137515595Y-96364819D02*
X137991785Y-96364819D01*
X138277500Y-96364819D02*
X138610833Y-97364819D01*
X138610833Y-97364819D02*
X138944166Y-96364819D01*
X139277500Y-97364819D02*
X139277500Y-96364819D01*
X139848928Y-97364819D02*
X139420357Y-96793390D01*
X139848928Y-96364819D02*
X139277500Y-96936247D01*
X140277500Y-97364819D02*
X140277500Y-96364819D01*
X140610833Y-96364819D02*
X141182261Y-96364819D01*
X140896547Y-97364819D02*
X140896547Y-96364819D01*
X142087023Y-97269580D02*
X142039404Y-97317200D01*
X142039404Y-97317200D02*
X141896547Y-97364819D01*
X141896547Y-97364819D02*
X141801309Y-97364819D01*
X141801309Y-97364819D02*
X141658452Y-97317200D01*
X141658452Y-97317200D02*
X141563214Y-97221961D01*
X141563214Y-97221961D02*
X141515595Y-97126723D01*
X141515595Y-97126723D02*
X141467976Y-96936247D01*
X141467976Y-96936247D02*
X141467976Y-96793390D01*
X141467976Y-96793390D02*
X141515595Y-96602914D01*
X141515595Y-96602914D02*
X141563214Y-96507676D01*
X141563214Y-96507676D02*
X141658452Y-96412438D01*
X141658452Y-96412438D02*
X141801309Y-96364819D01*
X141801309Y-96364819D02*
X141896547Y-96364819D01*
X141896547Y-96364819D02*
X142039404Y-96412438D01*
X142039404Y-96412438D02*
X142087023Y-96460057D01*
X106239819Y-107153570D02*
X107239819Y-106820237D01*
X107239819Y-106820237D02*
X106239819Y-106486904D01*
X106239819Y-105963094D02*
X106239819Y-105772618D01*
X106239819Y-105772618D02*
X106287438Y-105677380D01*
X106287438Y-105677380D02*
X106382676Y-105582142D01*
X106382676Y-105582142D02*
X106573152Y-105534523D01*
X106573152Y-105534523D02*
X106906485Y-105534523D01*
X106906485Y-105534523D02*
X107096961Y-105582142D01*
X107096961Y-105582142D02*
X107192200Y-105677380D01*
X107192200Y-105677380D02*
X107239819Y-105772618D01*
X107239819Y-105772618D02*
X107239819Y-105963094D01*
X107239819Y-105963094D02*
X107192200Y-106058332D01*
X107192200Y-106058332D02*
X107096961Y-106153570D01*
X107096961Y-106153570D02*
X106906485Y-106201189D01*
X106906485Y-106201189D02*
X106573152Y-106201189D01*
X106573152Y-106201189D02*
X106382676Y-106153570D01*
X106382676Y-106153570D02*
X106287438Y-106058332D01*
X106287438Y-106058332D02*
X106239819Y-105963094D01*
X106716009Y-104772618D02*
X106716009Y-105105951D01*
X107239819Y-105105951D02*
X106239819Y-105105951D01*
X106239819Y-105105951D02*
X106239819Y-104629761D01*
X106858866Y-104248808D02*
X106858866Y-103486904D01*
X107192200Y-103058332D02*
X107239819Y-102915475D01*
X107239819Y-102915475D02*
X107239819Y-102677380D01*
X107239819Y-102677380D02*
X107192200Y-102582142D01*
X107192200Y-102582142D02*
X107144580Y-102534523D01*
X107144580Y-102534523D02*
X107049342Y-102486904D01*
X107049342Y-102486904D02*
X106954104Y-102486904D01*
X106954104Y-102486904D02*
X106858866Y-102534523D01*
X106858866Y-102534523D02*
X106811247Y-102582142D01*
X106811247Y-102582142D02*
X106763628Y-102677380D01*
X106763628Y-102677380D02*
X106716009Y-102867856D01*
X106716009Y-102867856D02*
X106668390Y-102963094D01*
X106668390Y-102963094D02*
X106620771Y-103010713D01*
X106620771Y-103010713D02*
X106525533Y-103058332D01*
X106525533Y-103058332D02*
X106430295Y-103058332D01*
X106430295Y-103058332D02*
X106335057Y-103010713D01*
X106335057Y-103010713D02*
X106287438Y-102963094D01*
X106287438Y-102963094D02*
X106239819Y-102867856D01*
X106239819Y-102867856D02*
X106239819Y-102629761D01*
X106239819Y-102629761D02*
X106287438Y-102486904D01*
X107239819Y-101534523D02*
X107239819Y-102105951D01*
X107239819Y-101820237D02*
X106239819Y-101820237D01*
X106239819Y-101820237D02*
X106382676Y-101915475D01*
X106382676Y-101915475D02*
X106477914Y-102010713D01*
X106477914Y-102010713D02*
X106525533Y-102105951D01*
X106335057Y-101153570D02*
X106287438Y-101105951D01*
X106287438Y-101105951D02*
X106239819Y-101010713D01*
X106239819Y-101010713D02*
X106239819Y-100772618D01*
X106239819Y-100772618D02*
X106287438Y-100677380D01*
X106287438Y-100677380D02*
X106335057Y-100629761D01*
X106335057Y-100629761D02*
X106430295Y-100582142D01*
X106430295Y-100582142D02*
X106525533Y-100582142D01*
X106525533Y-100582142D02*
X106668390Y-100629761D01*
X106668390Y-100629761D02*
X107239819Y-101201189D01*
X107239819Y-101201189D02*
X107239819Y-100582142D01*
X106716009Y-99820237D02*
X106763628Y-99677380D01*
X106763628Y-99677380D02*
X106811247Y-99629761D01*
X106811247Y-99629761D02*
X106906485Y-99582142D01*
X106906485Y-99582142D02*
X107049342Y-99582142D01*
X107049342Y-99582142D02*
X107144580Y-99629761D01*
X107144580Y-99629761D02*
X107192200Y-99677380D01*
X107192200Y-99677380D02*
X107239819Y-99772618D01*
X107239819Y-99772618D02*
X107239819Y-100153570D01*
X107239819Y-100153570D02*
X106239819Y-100153570D01*
X106239819Y-100153570D02*
X106239819Y-99820237D01*
X106239819Y-99820237D02*
X106287438Y-99724999D01*
X106287438Y-99724999D02*
X106335057Y-99677380D01*
X106335057Y-99677380D02*
X106430295Y-99629761D01*
X106430295Y-99629761D02*
X106525533Y-99629761D01*
X106525533Y-99629761D02*
X106620771Y-99677380D01*
X106620771Y-99677380D02*
X106668390Y-99724999D01*
X106668390Y-99724999D02*
X106716009Y-99820237D01*
X106716009Y-99820237D02*
X106716009Y-100153570D01*
X106858866Y-99153570D02*
X106858866Y-98391666D01*
X106239819Y-97439285D02*
X106239819Y-97915475D01*
X106239819Y-97915475D02*
X106716009Y-97963094D01*
X106716009Y-97963094D02*
X106668390Y-97915475D01*
X106668390Y-97915475D02*
X106620771Y-97820237D01*
X106620771Y-97820237D02*
X106620771Y-97582142D01*
X106620771Y-97582142D02*
X106668390Y-97486904D01*
X106668390Y-97486904D02*
X106716009Y-97439285D01*
X106716009Y-97439285D02*
X106811247Y-97391666D01*
X106811247Y-97391666D02*
X107049342Y-97391666D01*
X107049342Y-97391666D02*
X107144580Y-97439285D01*
X107144580Y-97439285D02*
X107192200Y-97486904D01*
X107192200Y-97486904D02*
X107239819Y-97582142D01*
X107239819Y-97582142D02*
X107239819Y-97820237D01*
X107239819Y-97820237D02*
X107192200Y-97915475D01*
X107192200Y-97915475D02*
X107144580Y-97963094D01*
X158819524Y-79019819D02*
X158819524Y-78019819D01*
X158819524Y-78019819D02*
X159200476Y-78019819D01*
X159200476Y-78019819D02*
X159295714Y-78067438D01*
X159295714Y-78067438D02*
X159343333Y-78115057D01*
X159343333Y-78115057D02*
X159390952Y-78210295D01*
X159390952Y-78210295D02*
X159390952Y-78353152D01*
X159390952Y-78353152D02*
X159343333Y-78448390D01*
X159343333Y-78448390D02*
X159295714Y-78496009D01*
X159295714Y-78496009D02*
X159200476Y-78543628D01*
X159200476Y-78543628D02*
X158819524Y-78543628D01*
X160390952Y-78924580D02*
X160343333Y-78972200D01*
X160343333Y-78972200D02*
X160200476Y-79019819D01*
X160200476Y-79019819D02*
X160105238Y-79019819D01*
X160105238Y-79019819D02*
X159962381Y-78972200D01*
X159962381Y-78972200D02*
X159867143Y-78876961D01*
X159867143Y-78876961D02*
X159819524Y-78781723D01*
X159819524Y-78781723D02*
X159771905Y-78591247D01*
X159771905Y-78591247D02*
X159771905Y-78448390D01*
X159771905Y-78448390D02*
X159819524Y-78257914D01*
X159819524Y-78257914D02*
X159867143Y-78162676D01*
X159867143Y-78162676D02*
X159962381Y-78067438D01*
X159962381Y-78067438D02*
X160105238Y-78019819D01*
X160105238Y-78019819D02*
X160200476Y-78019819D01*
X160200476Y-78019819D02*
X160343333Y-78067438D01*
X160343333Y-78067438D02*
X160390952Y-78115057D01*
X160962381Y-78448390D02*
X160867143Y-78400771D01*
X160867143Y-78400771D02*
X160819524Y-78353152D01*
X160819524Y-78353152D02*
X160771905Y-78257914D01*
X160771905Y-78257914D02*
X160771905Y-78210295D01*
X160771905Y-78210295D02*
X160819524Y-78115057D01*
X160819524Y-78115057D02*
X160867143Y-78067438D01*
X160867143Y-78067438D02*
X160962381Y-78019819D01*
X160962381Y-78019819D02*
X161152857Y-78019819D01*
X161152857Y-78019819D02*
X161248095Y-78067438D01*
X161248095Y-78067438D02*
X161295714Y-78115057D01*
X161295714Y-78115057D02*
X161343333Y-78210295D01*
X161343333Y-78210295D02*
X161343333Y-78257914D01*
X161343333Y-78257914D02*
X161295714Y-78353152D01*
X161295714Y-78353152D02*
X161248095Y-78400771D01*
X161248095Y-78400771D02*
X161152857Y-78448390D01*
X161152857Y-78448390D02*
X160962381Y-78448390D01*
X160962381Y-78448390D02*
X160867143Y-78496009D01*
X160867143Y-78496009D02*
X160819524Y-78543628D01*
X160819524Y-78543628D02*
X160771905Y-78638866D01*
X160771905Y-78638866D02*
X160771905Y-78829342D01*
X160771905Y-78829342D02*
X160819524Y-78924580D01*
X160819524Y-78924580D02*
X160867143Y-78972200D01*
X160867143Y-78972200D02*
X160962381Y-79019819D01*
X160962381Y-79019819D02*
X161152857Y-79019819D01*
X161152857Y-79019819D02*
X161248095Y-78972200D01*
X161248095Y-78972200D02*
X161295714Y-78924580D01*
X161295714Y-78924580D02*
X161343333Y-78829342D01*
X161343333Y-78829342D02*
X161343333Y-78638866D01*
X161343333Y-78638866D02*
X161295714Y-78543628D01*
X161295714Y-78543628D02*
X161248095Y-78496009D01*
X161248095Y-78496009D02*
X161152857Y-78448390D01*
X162295714Y-79019819D02*
X161724286Y-79019819D01*
X162010000Y-79019819D02*
X162010000Y-78019819D01*
X162010000Y-78019819D02*
X161914762Y-78162676D01*
X161914762Y-78162676D02*
X161819524Y-78257914D01*
X161819524Y-78257914D02*
X161724286Y-78305533D01*
X162629048Y-78019819D02*
X163295714Y-78019819D01*
X163295714Y-78019819D02*
X162867143Y-79019819D01*
X175261905Y-103454819D02*
X175261905Y-102454819D01*
X175261905Y-102454819D02*
X175595238Y-103169104D01*
X175595238Y-103169104D02*
X175928571Y-102454819D01*
X175928571Y-102454819D02*
X175928571Y-103454819D01*
X176738095Y-102931009D02*
X176404762Y-102931009D01*
X176404762Y-103454819D02*
X176404762Y-102454819D01*
X176404762Y-102454819D02*
X176880952Y-102454819D01*
X177833333Y-103454819D02*
X177500000Y-102978628D01*
X177261905Y-103454819D02*
X177261905Y-102454819D01*
X177261905Y-102454819D02*
X177642857Y-102454819D01*
X177642857Y-102454819D02*
X177738095Y-102502438D01*
X177738095Y-102502438D02*
X177785714Y-102550057D01*
X177785714Y-102550057D02*
X177833333Y-102645295D01*
X177833333Y-102645295D02*
X177833333Y-102788152D01*
X177833333Y-102788152D02*
X177785714Y-102883390D01*
X177785714Y-102883390D02*
X177738095Y-102931009D01*
X177738095Y-102931009D02*
X177642857Y-102978628D01*
X177642857Y-102978628D02*
X177261905Y-102978628D01*
X178261905Y-103073866D02*
X179023810Y-103073866D01*
X179452381Y-102550057D02*
X179500000Y-102502438D01*
X179500000Y-102502438D02*
X179595238Y-102454819D01*
X179595238Y-102454819D02*
X179833333Y-102454819D01*
X179833333Y-102454819D02*
X179928571Y-102502438D01*
X179928571Y-102502438D02*
X179976190Y-102550057D01*
X179976190Y-102550057D02*
X180023809Y-102645295D01*
X180023809Y-102645295D02*
X180023809Y-102740533D01*
X180023809Y-102740533D02*
X179976190Y-102883390D01*
X179976190Y-102883390D02*
X179404762Y-103454819D01*
X179404762Y-103454819D02*
X180023809Y-103454819D01*
X180928571Y-102454819D02*
X180452381Y-102454819D01*
X180452381Y-102454819D02*
X180404762Y-102931009D01*
X180404762Y-102931009D02*
X180452381Y-102883390D01*
X180452381Y-102883390D02*
X180547619Y-102835771D01*
X180547619Y-102835771D02*
X180785714Y-102835771D01*
X180785714Y-102835771D02*
X180880952Y-102883390D01*
X180880952Y-102883390D02*
X180928571Y-102931009D01*
X180928571Y-102931009D02*
X180976190Y-103026247D01*
X180976190Y-103026247D02*
X180976190Y-103264342D01*
X180976190Y-103264342D02*
X180928571Y-103359580D01*
X180928571Y-103359580D02*
X180880952Y-103407200D01*
X180880952Y-103407200D02*
X180785714Y-103454819D01*
X180785714Y-103454819D02*
X180547619Y-103454819D01*
X180547619Y-103454819D02*
X180452381Y-103407200D01*
X180452381Y-103407200D02*
X180404762Y-103359580D01*
X181738095Y-102931009D02*
X181404762Y-102931009D01*
X181404762Y-103454819D02*
X181404762Y-102454819D01*
X181404762Y-102454819D02*
X181880952Y-102454819D01*
X182595238Y-102931009D02*
X182738095Y-102978628D01*
X182738095Y-102978628D02*
X182785714Y-103026247D01*
X182785714Y-103026247D02*
X182833333Y-103121485D01*
X182833333Y-103121485D02*
X182833333Y-103264342D01*
X182833333Y-103264342D02*
X182785714Y-103359580D01*
X182785714Y-103359580D02*
X182738095Y-103407200D01*
X182738095Y-103407200D02*
X182642857Y-103454819D01*
X182642857Y-103454819D02*
X182261905Y-103454819D01*
X182261905Y-103454819D02*
X182261905Y-102454819D01*
X182261905Y-102454819D02*
X182595238Y-102454819D01*
X182595238Y-102454819D02*
X182690476Y-102502438D01*
X182690476Y-102502438D02*
X182738095Y-102550057D01*
X182738095Y-102550057D02*
X182785714Y-102645295D01*
X182785714Y-102645295D02*
X182785714Y-102740533D01*
X182785714Y-102740533D02*
X182738095Y-102835771D01*
X182738095Y-102835771D02*
X182690476Y-102883390D01*
X182690476Y-102883390D02*
X182595238Y-102931009D01*
X182595238Y-102931009D02*
X182261905Y-102931009D01*
X183595238Y-102931009D02*
X183261905Y-102931009D01*
X183261905Y-103454819D02*
X183261905Y-102454819D01*
X183261905Y-102454819D02*
X183738095Y-102454819D01*
X184595238Y-102454819D02*
X184119048Y-102454819D01*
X184119048Y-102454819D02*
X184071429Y-102931009D01*
X184071429Y-102931009D02*
X184119048Y-102883390D01*
X184119048Y-102883390D02*
X184214286Y-102835771D01*
X184214286Y-102835771D02*
X184452381Y-102835771D01*
X184452381Y-102835771D02*
X184547619Y-102883390D01*
X184547619Y-102883390D02*
X184595238Y-102931009D01*
X184595238Y-102931009D02*
X184642857Y-103026247D01*
X184642857Y-103026247D02*
X184642857Y-103264342D01*
X184642857Y-103264342D02*
X184595238Y-103359580D01*
X184595238Y-103359580D02*
X184547619Y-103407200D01*
X184547619Y-103407200D02*
X184452381Y-103454819D01*
X184452381Y-103454819D02*
X184214286Y-103454819D01*
X184214286Y-103454819D02*
X184119048Y-103407200D01*
X184119048Y-103407200D02*
X184071429Y-103359580D01*
X185023810Y-102550057D02*
X185071429Y-102502438D01*
X185071429Y-102502438D02*
X185166667Y-102454819D01*
X185166667Y-102454819D02*
X185404762Y-102454819D01*
X185404762Y-102454819D02*
X185500000Y-102502438D01*
X185500000Y-102502438D02*
X185547619Y-102550057D01*
X185547619Y-102550057D02*
X185595238Y-102645295D01*
X185595238Y-102645295D02*
X185595238Y-102740533D01*
X185595238Y-102740533D02*
X185547619Y-102883390D01*
X185547619Y-102883390D02*
X184976191Y-103454819D01*
X184976191Y-103454819D02*
X185595238Y-103454819D01*
X186023810Y-103073866D02*
X186785715Y-103073866D01*
X187785714Y-103454819D02*
X187214286Y-103454819D01*
X187500000Y-103454819D02*
X187500000Y-102454819D01*
X187500000Y-102454819D02*
X187404762Y-102597676D01*
X187404762Y-102597676D02*
X187309524Y-102692914D01*
X187309524Y-102692914D02*
X187214286Y-102740533D01*
X188214286Y-103454819D02*
X188214286Y-102454819D01*
X188785714Y-103454819D02*
X188357143Y-102883390D01*
X188785714Y-102454819D02*
X188214286Y-103026247D01*
X170142857Y-100641009D02*
X170285714Y-100688628D01*
X170285714Y-100688628D02*
X170333333Y-100736247D01*
X170333333Y-100736247D02*
X170380952Y-100831485D01*
X170380952Y-100831485D02*
X170380952Y-100974342D01*
X170380952Y-100974342D02*
X170333333Y-101069580D01*
X170333333Y-101069580D02*
X170285714Y-101117200D01*
X170285714Y-101117200D02*
X170190476Y-101164819D01*
X170190476Y-101164819D02*
X169809524Y-101164819D01*
X169809524Y-101164819D02*
X169809524Y-100164819D01*
X169809524Y-100164819D02*
X170142857Y-100164819D01*
X170142857Y-100164819D02*
X170238095Y-100212438D01*
X170238095Y-100212438D02*
X170285714Y-100260057D01*
X170285714Y-100260057D02*
X170333333Y-100355295D01*
X170333333Y-100355295D02*
X170333333Y-100450533D01*
X170333333Y-100450533D02*
X170285714Y-100545771D01*
X170285714Y-100545771D02*
X170238095Y-100593390D01*
X170238095Y-100593390D02*
X170142857Y-100641009D01*
X170142857Y-100641009D02*
X169809524Y-100641009D01*
X171380952Y-101069580D02*
X171333333Y-101117200D01*
X171333333Y-101117200D02*
X171190476Y-101164819D01*
X171190476Y-101164819D02*
X171095238Y-101164819D01*
X171095238Y-101164819D02*
X170952381Y-101117200D01*
X170952381Y-101117200D02*
X170857143Y-101021961D01*
X170857143Y-101021961D02*
X170809524Y-100926723D01*
X170809524Y-100926723D02*
X170761905Y-100736247D01*
X170761905Y-100736247D02*
X170761905Y-100593390D01*
X170761905Y-100593390D02*
X170809524Y-100402914D01*
X170809524Y-100402914D02*
X170857143Y-100307676D01*
X170857143Y-100307676D02*
X170952381Y-100212438D01*
X170952381Y-100212438D02*
X171095238Y-100164819D01*
X171095238Y-100164819D02*
X171190476Y-100164819D01*
X171190476Y-100164819D02*
X171333333Y-100212438D01*
X171333333Y-100212438D02*
X171380952Y-100260057D01*
X172285714Y-100164819D02*
X171809524Y-100164819D01*
X171809524Y-100164819D02*
X171761905Y-100641009D01*
X171761905Y-100641009D02*
X171809524Y-100593390D01*
X171809524Y-100593390D02*
X171904762Y-100545771D01*
X171904762Y-100545771D02*
X172142857Y-100545771D01*
X172142857Y-100545771D02*
X172238095Y-100593390D01*
X172238095Y-100593390D02*
X172285714Y-100641009D01*
X172285714Y-100641009D02*
X172333333Y-100736247D01*
X172333333Y-100736247D02*
X172333333Y-100974342D01*
X172333333Y-100974342D02*
X172285714Y-101069580D01*
X172285714Y-101069580D02*
X172238095Y-101117200D01*
X172238095Y-101117200D02*
X172142857Y-101164819D01*
X172142857Y-101164819D02*
X171904762Y-101164819D01*
X171904762Y-101164819D02*
X171809524Y-101117200D01*
X171809524Y-101117200D02*
X171761905Y-101069580D01*
X173190476Y-100498152D02*
X173190476Y-101164819D01*
X172952381Y-100117200D02*
X172714286Y-100831485D01*
X172714286Y-100831485D02*
X173333333Y-100831485D01*
X173619048Y-100164819D02*
X174285714Y-100164819D01*
X174285714Y-100164819D02*
X173857143Y-101164819D01*
X171904761Y-104050057D02*
X171809523Y-104002438D01*
X171809523Y-104002438D02*
X171714285Y-103907200D01*
X171714285Y-103907200D02*
X171571428Y-103764342D01*
X171571428Y-103764342D02*
X171476190Y-103716723D01*
X171476190Y-103716723D02*
X171380952Y-103716723D01*
X171428571Y-103954819D02*
X171333333Y-103907200D01*
X171333333Y-103907200D02*
X171238095Y-103811961D01*
X171238095Y-103811961D02*
X171190476Y-103621485D01*
X171190476Y-103621485D02*
X171190476Y-103288152D01*
X171190476Y-103288152D02*
X171238095Y-103097676D01*
X171238095Y-103097676D02*
X171333333Y-103002438D01*
X171333333Y-103002438D02*
X171428571Y-102954819D01*
X171428571Y-102954819D02*
X171619047Y-102954819D01*
X171619047Y-102954819D02*
X171714285Y-103002438D01*
X171714285Y-103002438D02*
X171809523Y-103097676D01*
X171809523Y-103097676D02*
X171857142Y-103288152D01*
X171857142Y-103288152D02*
X171857142Y-103621485D01*
X171857142Y-103621485D02*
X171809523Y-103811961D01*
X171809523Y-103811961D02*
X171714285Y-103907200D01*
X171714285Y-103907200D02*
X171619047Y-103954819D01*
X171619047Y-103954819D02*
X171428571Y-103954819D01*
X172238095Y-103050057D02*
X172285714Y-103002438D01*
X172285714Y-103002438D02*
X172380952Y-102954819D01*
X172380952Y-102954819D02*
X172619047Y-102954819D01*
X172619047Y-102954819D02*
X172714285Y-103002438D01*
X172714285Y-103002438D02*
X172761904Y-103050057D01*
X172761904Y-103050057D02*
X172809523Y-103145295D01*
X172809523Y-103145295D02*
X172809523Y-103240533D01*
X172809523Y-103240533D02*
X172761904Y-103383390D01*
X172761904Y-103383390D02*
X172190476Y-103954819D01*
X172190476Y-103954819D02*
X172809523Y-103954819D01*
X196925238Y-74957533D02*
X197534762Y-74957533D01*
X197230000Y-75262295D02*
X197230000Y-74652771D01*
X158819524Y-108049819D02*
X158819524Y-107049819D01*
X158819524Y-107049819D02*
X159200476Y-107049819D01*
X159200476Y-107049819D02*
X159295714Y-107097438D01*
X159295714Y-107097438D02*
X159343333Y-107145057D01*
X159343333Y-107145057D02*
X159390952Y-107240295D01*
X159390952Y-107240295D02*
X159390952Y-107383152D01*
X159390952Y-107383152D02*
X159343333Y-107478390D01*
X159343333Y-107478390D02*
X159295714Y-107526009D01*
X159295714Y-107526009D02*
X159200476Y-107573628D01*
X159200476Y-107573628D02*
X158819524Y-107573628D01*
X160390952Y-107954580D02*
X160343333Y-108002200D01*
X160343333Y-108002200D02*
X160200476Y-108049819D01*
X160200476Y-108049819D02*
X160105238Y-108049819D01*
X160105238Y-108049819D02*
X159962381Y-108002200D01*
X159962381Y-108002200D02*
X159867143Y-107906961D01*
X159867143Y-107906961D02*
X159819524Y-107811723D01*
X159819524Y-107811723D02*
X159771905Y-107621247D01*
X159771905Y-107621247D02*
X159771905Y-107478390D01*
X159771905Y-107478390D02*
X159819524Y-107287914D01*
X159819524Y-107287914D02*
X159867143Y-107192676D01*
X159867143Y-107192676D02*
X159962381Y-107097438D01*
X159962381Y-107097438D02*
X160105238Y-107049819D01*
X160105238Y-107049819D02*
X160200476Y-107049819D01*
X160200476Y-107049819D02*
X160343333Y-107097438D01*
X160343333Y-107097438D02*
X160390952Y-107145057D01*
X160962381Y-107478390D02*
X160867143Y-107430771D01*
X160867143Y-107430771D02*
X160819524Y-107383152D01*
X160819524Y-107383152D02*
X160771905Y-107287914D01*
X160771905Y-107287914D02*
X160771905Y-107240295D01*
X160771905Y-107240295D02*
X160819524Y-107145057D01*
X160819524Y-107145057D02*
X160867143Y-107097438D01*
X160867143Y-107097438D02*
X160962381Y-107049819D01*
X160962381Y-107049819D02*
X161152857Y-107049819D01*
X161152857Y-107049819D02*
X161248095Y-107097438D01*
X161248095Y-107097438D02*
X161295714Y-107145057D01*
X161295714Y-107145057D02*
X161343333Y-107240295D01*
X161343333Y-107240295D02*
X161343333Y-107287914D01*
X161343333Y-107287914D02*
X161295714Y-107383152D01*
X161295714Y-107383152D02*
X161248095Y-107430771D01*
X161248095Y-107430771D02*
X161152857Y-107478390D01*
X161152857Y-107478390D02*
X160962381Y-107478390D01*
X160962381Y-107478390D02*
X160867143Y-107526009D01*
X160867143Y-107526009D02*
X160819524Y-107573628D01*
X160819524Y-107573628D02*
X160771905Y-107668866D01*
X160771905Y-107668866D02*
X160771905Y-107859342D01*
X160771905Y-107859342D02*
X160819524Y-107954580D01*
X160819524Y-107954580D02*
X160867143Y-108002200D01*
X160867143Y-108002200D02*
X160962381Y-108049819D01*
X160962381Y-108049819D02*
X161152857Y-108049819D01*
X161152857Y-108049819D02*
X161248095Y-108002200D01*
X161248095Y-108002200D02*
X161295714Y-107954580D01*
X161295714Y-107954580D02*
X161343333Y-107859342D01*
X161343333Y-107859342D02*
X161343333Y-107668866D01*
X161343333Y-107668866D02*
X161295714Y-107573628D01*
X161295714Y-107573628D02*
X161248095Y-107526009D01*
X161248095Y-107526009D02*
X161152857Y-107478390D01*
X162295714Y-108049819D02*
X161724286Y-108049819D01*
X162010000Y-108049819D02*
X162010000Y-107049819D01*
X162010000Y-107049819D02*
X161914762Y-107192676D01*
X161914762Y-107192676D02*
X161819524Y-107287914D01*
X161819524Y-107287914D02*
X161724286Y-107335533D01*
X162629048Y-107049819D02*
X163295714Y-107049819D01*
X163295714Y-107049819D02*
X162867143Y-108049819D01*
X160248095Y-103449819D02*
X160248095Y-104259342D01*
X160248095Y-104259342D02*
X160295714Y-104354580D01*
X160295714Y-104354580D02*
X160343333Y-104402200D01*
X160343333Y-104402200D02*
X160438571Y-104449819D01*
X160438571Y-104449819D02*
X160629047Y-104449819D01*
X160629047Y-104449819D02*
X160724285Y-104402200D01*
X160724285Y-104402200D02*
X160771904Y-104354580D01*
X160771904Y-104354580D02*
X160819523Y-104259342D01*
X160819523Y-104259342D02*
X160819523Y-103449819D01*
X161200476Y-103449819D02*
X161819523Y-103449819D01*
X161819523Y-103449819D02*
X161486190Y-103830771D01*
X161486190Y-103830771D02*
X161629047Y-103830771D01*
X161629047Y-103830771D02*
X161724285Y-103878390D01*
X161724285Y-103878390D02*
X161771904Y-103926009D01*
X161771904Y-103926009D02*
X161819523Y-104021247D01*
X161819523Y-104021247D02*
X161819523Y-104259342D01*
X161819523Y-104259342D02*
X161771904Y-104354580D01*
X161771904Y-104354580D02*
X161724285Y-104402200D01*
X161724285Y-104402200D02*
X161629047Y-104449819D01*
X161629047Y-104449819D02*
X161343333Y-104449819D01*
X161343333Y-104449819D02*
X161248095Y-104402200D01*
X161248095Y-104402200D02*
X161200476Y-104354580D01*
X165454819Y-120738094D02*
X164454819Y-120738094D01*
X164454819Y-120738094D02*
X165169104Y-120404761D01*
X165169104Y-120404761D02*
X164454819Y-120071428D01*
X164454819Y-120071428D02*
X165454819Y-120071428D01*
X164931009Y-119261904D02*
X164931009Y-119595237D01*
X165454819Y-119595237D02*
X164454819Y-119595237D01*
X164454819Y-119595237D02*
X164454819Y-119119047D01*
X165454819Y-118166666D02*
X164978628Y-118499999D01*
X165454819Y-118738094D02*
X164454819Y-118738094D01*
X164454819Y-118738094D02*
X164454819Y-118357142D01*
X164454819Y-118357142D02*
X164502438Y-118261904D01*
X164502438Y-118261904D02*
X164550057Y-118214285D01*
X164550057Y-118214285D02*
X164645295Y-118166666D01*
X164645295Y-118166666D02*
X164788152Y-118166666D01*
X164788152Y-118166666D02*
X164883390Y-118214285D01*
X164883390Y-118214285D02*
X164931009Y-118261904D01*
X164931009Y-118261904D02*
X164978628Y-118357142D01*
X164978628Y-118357142D02*
X164978628Y-118738094D01*
X165073866Y-117738094D02*
X165073866Y-116976190D01*
X164550057Y-116547618D02*
X164502438Y-116499999D01*
X164502438Y-116499999D02*
X164454819Y-116404761D01*
X164454819Y-116404761D02*
X164454819Y-116166666D01*
X164454819Y-116166666D02*
X164502438Y-116071428D01*
X164502438Y-116071428D02*
X164550057Y-116023809D01*
X164550057Y-116023809D02*
X164645295Y-115976190D01*
X164645295Y-115976190D02*
X164740533Y-115976190D01*
X164740533Y-115976190D02*
X164883390Y-116023809D01*
X164883390Y-116023809D02*
X165454819Y-116595237D01*
X165454819Y-116595237D02*
X165454819Y-115976190D01*
X164454819Y-115071428D02*
X164454819Y-115547618D01*
X164454819Y-115547618D02*
X164931009Y-115595237D01*
X164931009Y-115595237D02*
X164883390Y-115547618D01*
X164883390Y-115547618D02*
X164835771Y-115452380D01*
X164835771Y-115452380D02*
X164835771Y-115214285D01*
X164835771Y-115214285D02*
X164883390Y-115119047D01*
X164883390Y-115119047D02*
X164931009Y-115071428D01*
X164931009Y-115071428D02*
X165026247Y-115023809D01*
X165026247Y-115023809D02*
X165264342Y-115023809D01*
X165264342Y-115023809D02*
X165359580Y-115071428D01*
X165359580Y-115071428D02*
X165407200Y-115119047D01*
X165407200Y-115119047D02*
X165454819Y-115214285D01*
X165454819Y-115214285D02*
X165454819Y-115452380D01*
X165454819Y-115452380D02*
X165407200Y-115547618D01*
X165407200Y-115547618D02*
X165359580Y-115595237D01*
X164931009Y-114261904D02*
X164931009Y-114595237D01*
X165454819Y-114595237D02*
X164454819Y-114595237D01*
X164454819Y-114595237D02*
X164454819Y-114119047D01*
X164931009Y-113404761D02*
X164978628Y-113261904D01*
X164978628Y-113261904D02*
X165026247Y-113214285D01*
X165026247Y-113214285D02*
X165121485Y-113166666D01*
X165121485Y-113166666D02*
X165264342Y-113166666D01*
X165264342Y-113166666D02*
X165359580Y-113214285D01*
X165359580Y-113214285D02*
X165407200Y-113261904D01*
X165407200Y-113261904D02*
X165454819Y-113357142D01*
X165454819Y-113357142D02*
X165454819Y-113738094D01*
X165454819Y-113738094D02*
X164454819Y-113738094D01*
X164454819Y-113738094D02*
X164454819Y-113404761D01*
X164454819Y-113404761D02*
X164502438Y-113309523D01*
X164502438Y-113309523D02*
X164550057Y-113261904D01*
X164550057Y-113261904D02*
X164645295Y-113214285D01*
X164645295Y-113214285D02*
X164740533Y-113214285D01*
X164740533Y-113214285D02*
X164835771Y-113261904D01*
X164835771Y-113261904D02*
X164883390Y-113309523D01*
X164883390Y-113309523D02*
X164931009Y-113404761D01*
X164931009Y-113404761D02*
X164931009Y-113738094D01*
X164931009Y-112404761D02*
X164931009Y-112738094D01*
X165454819Y-112738094D02*
X164454819Y-112738094D01*
X164454819Y-112738094D02*
X164454819Y-112261904D01*
X164454819Y-111404761D02*
X164454819Y-111880951D01*
X164454819Y-111880951D02*
X164931009Y-111928570D01*
X164931009Y-111928570D02*
X164883390Y-111880951D01*
X164883390Y-111880951D02*
X164835771Y-111785713D01*
X164835771Y-111785713D02*
X164835771Y-111547618D01*
X164835771Y-111547618D02*
X164883390Y-111452380D01*
X164883390Y-111452380D02*
X164931009Y-111404761D01*
X164931009Y-111404761D02*
X165026247Y-111357142D01*
X165026247Y-111357142D02*
X165264342Y-111357142D01*
X165264342Y-111357142D02*
X165359580Y-111404761D01*
X165359580Y-111404761D02*
X165407200Y-111452380D01*
X165407200Y-111452380D02*
X165454819Y-111547618D01*
X165454819Y-111547618D02*
X165454819Y-111785713D01*
X165454819Y-111785713D02*
X165407200Y-111880951D01*
X165407200Y-111880951D02*
X165359580Y-111928570D01*
X164550057Y-110976189D02*
X164502438Y-110928570D01*
X164502438Y-110928570D02*
X164454819Y-110833332D01*
X164454819Y-110833332D02*
X164454819Y-110595237D01*
X164454819Y-110595237D02*
X164502438Y-110499999D01*
X164502438Y-110499999D02*
X164550057Y-110452380D01*
X164550057Y-110452380D02*
X164645295Y-110404761D01*
X164645295Y-110404761D02*
X164740533Y-110404761D01*
X164740533Y-110404761D02*
X164883390Y-110452380D01*
X164883390Y-110452380D02*
X165454819Y-111023808D01*
X165454819Y-111023808D02*
X165454819Y-110404761D01*
X165073866Y-109976189D02*
X165073866Y-109214285D01*
X165454819Y-108214285D02*
X165454819Y-108785713D01*
X165454819Y-108499999D02*
X164454819Y-108499999D01*
X164454819Y-108499999D02*
X164597676Y-108595237D01*
X164597676Y-108595237D02*
X164692914Y-108690475D01*
X164692914Y-108690475D02*
X164740533Y-108785713D01*
X165454819Y-107785713D02*
X164454819Y-107785713D01*
X165454819Y-107214285D02*
X164883390Y-107642856D01*
X164454819Y-107214285D02*
X165026247Y-107785713D01*
X170472857Y-72141009D02*
X170615714Y-72188628D01*
X170615714Y-72188628D02*
X170663333Y-72236247D01*
X170663333Y-72236247D02*
X170710952Y-72331485D01*
X170710952Y-72331485D02*
X170710952Y-72474342D01*
X170710952Y-72474342D02*
X170663333Y-72569580D01*
X170663333Y-72569580D02*
X170615714Y-72617200D01*
X170615714Y-72617200D02*
X170520476Y-72664819D01*
X170520476Y-72664819D02*
X170139524Y-72664819D01*
X170139524Y-72664819D02*
X170139524Y-71664819D01*
X170139524Y-71664819D02*
X170472857Y-71664819D01*
X170472857Y-71664819D02*
X170568095Y-71712438D01*
X170568095Y-71712438D02*
X170615714Y-71760057D01*
X170615714Y-71760057D02*
X170663333Y-71855295D01*
X170663333Y-71855295D02*
X170663333Y-71950533D01*
X170663333Y-71950533D02*
X170615714Y-72045771D01*
X170615714Y-72045771D02*
X170568095Y-72093390D01*
X170568095Y-72093390D02*
X170472857Y-72141009D01*
X170472857Y-72141009D02*
X170139524Y-72141009D01*
X171710952Y-72569580D02*
X171663333Y-72617200D01*
X171663333Y-72617200D02*
X171520476Y-72664819D01*
X171520476Y-72664819D02*
X171425238Y-72664819D01*
X171425238Y-72664819D02*
X171282381Y-72617200D01*
X171282381Y-72617200D02*
X171187143Y-72521961D01*
X171187143Y-72521961D02*
X171139524Y-72426723D01*
X171139524Y-72426723D02*
X171091905Y-72236247D01*
X171091905Y-72236247D02*
X171091905Y-72093390D01*
X171091905Y-72093390D02*
X171139524Y-71902914D01*
X171139524Y-71902914D02*
X171187143Y-71807676D01*
X171187143Y-71807676D02*
X171282381Y-71712438D01*
X171282381Y-71712438D02*
X171425238Y-71664819D01*
X171425238Y-71664819D02*
X171520476Y-71664819D01*
X171520476Y-71664819D02*
X171663333Y-71712438D01*
X171663333Y-71712438D02*
X171710952Y-71760057D01*
X172615714Y-71664819D02*
X172139524Y-71664819D01*
X172139524Y-71664819D02*
X172091905Y-72141009D01*
X172091905Y-72141009D02*
X172139524Y-72093390D01*
X172139524Y-72093390D02*
X172234762Y-72045771D01*
X172234762Y-72045771D02*
X172472857Y-72045771D01*
X172472857Y-72045771D02*
X172568095Y-72093390D01*
X172568095Y-72093390D02*
X172615714Y-72141009D01*
X172615714Y-72141009D02*
X172663333Y-72236247D01*
X172663333Y-72236247D02*
X172663333Y-72474342D01*
X172663333Y-72474342D02*
X172615714Y-72569580D01*
X172615714Y-72569580D02*
X172568095Y-72617200D01*
X172568095Y-72617200D02*
X172472857Y-72664819D01*
X172472857Y-72664819D02*
X172234762Y-72664819D01*
X172234762Y-72664819D02*
X172139524Y-72617200D01*
X172139524Y-72617200D02*
X172091905Y-72569580D01*
X173520476Y-71998152D02*
X173520476Y-72664819D01*
X173282381Y-71617200D02*
X173044286Y-72331485D01*
X173044286Y-72331485D02*
X173663333Y-72331485D01*
X173949048Y-71664819D02*
X174615714Y-71664819D01*
X174615714Y-71664819D02*
X174187143Y-72664819D01*
X172234761Y-75550057D02*
X172139523Y-75502438D01*
X172139523Y-75502438D02*
X172044285Y-75407200D01*
X172044285Y-75407200D02*
X171901428Y-75264342D01*
X171901428Y-75264342D02*
X171806190Y-75216723D01*
X171806190Y-75216723D02*
X171710952Y-75216723D01*
X171758571Y-75454819D02*
X171663333Y-75407200D01*
X171663333Y-75407200D02*
X171568095Y-75311961D01*
X171568095Y-75311961D02*
X171520476Y-75121485D01*
X171520476Y-75121485D02*
X171520476Y-74788152D01*
X171520476Y-74788152D02*
X171568095Y-74597676D01*
X171568095Y-74597676D02*
X171663333Y-74502438D01*
X171663333Y-74502438D02*
X171758571Y-74454819D01*
X171758571Y-74454819D02*
X171949047Y-74454819D01*
X171949047Y-74454819D02*
X172044285Y-74502438D01*
X172044285Y-74502438D02*
X172139523Y-74597676D01*
X172139523Y-74597676D02*
X172187142Y-74788152D01*
X172187142Y-74788152D02*
X172187142Y-75121485D01*
X172187142Y-75121485D02*
X172139523Y-75311961D01*
X172139523Y-75311961D02*
X172044285Y-75407200D01*
X172044285Y-75407200D02*
X171949047Y-75454819D01*
X171949047Y-75454819D02*
X171758571Y-75454819D01*
X173139523Y-75454819D02*
X172568095Y-75454819D01*
X172853809Y-75454819D02*
X172853809Y-74454819D01*
X172853809Y-74454819D02*
X172758571Y-74597676D01*
X172758571Y-74597676D02*
X172663333Y-74692914D01*
X172663333Y-74692914D02*
X172568095Y-74740533D01*
X171674819Y-117642857D02*
X171674819Y-118214285D01*
X171674819Y-117928571D02*
X170674819Y-117928571D01*
X170674819Y-117928571D02*
X170817676Y-118023809D01*
X170817676Y-118023809D02*
X170912914Y-118119047D01*
X170912914Y-118119047D02*
X170960533Y-118214285D01*
X171674819Y-117214285D02*
X170674819Y-117214285D01*
X170674819Y-117214285D02*
X171674819Y-116642857D01*
X171674819Y-116642857D02*
X170674819Y-116642857D01*
X171008152Y-115738095D02*
X171674819Y-115738095D01*
X170627200Y-115976190D02*
X171341485Y-116214285D01*
X171341485Y-116214285D02*
X171341485Y-115595238D01*
X170674819Y-115023809D02*
X170674819Y-114928571D01*
X170674819Y-114928571D02*
X170722438Y-114833333D01*
X170722438Y-114833333D02*
X170770057Y-114785714D01*
X170770057Y-114785714D02*
X170865295Y-114738095D01*
X170865295Y-114738095D02*
X171055771Y-114690476D01*
X171055771Y-114690476D02*
X171293866Y-114690476D01*
X171293866Y-114690476D02*
X171484342Y-114738095D01*
X171484342Y-114738095D02*
X171579580Y-114785714D01*
X171579580Y-114785714D02*
X171627200Y-114833333D01*
X171627200Y-114833333D02*
X171674819Y-114928571D01*
X171674819Y-114928571D02*
X171674819Y-115023809D01*
X171674819Y-115023809D02*
X171627200Y-115119047D01*
X171627200Y-115119047D02*
X171579580Y-115166666D01*
X171579580Y-115166666D02*
X171484342Y-115214285D01*
X171484342Y-115214285D02*
X171293866Y-115261904D01*
X171293866Y-115261904D02*
X171055771Y-115261904D01*
X171055771Y-115261904D02*
X170865295Y-115214285D01*
X170865295Y-115214285D02*
X170770057Y-115166666D01*
X170770057Y-115166666D02*
X170722438Y-115119047D01*
X170722438Y-115119047D02*
X170674819Y-115023809D01*
X170674819Y-114071428D02*
X170674819Y-113976190D01*
X170674819Y-113976190D02*
X170722438Y-113880952D01*
X170722438Y-113880952D02*
X170770057Y-113833333D01*
X170770057Y-113833333D02*
X170865295Y-113785714D01*
X170865295Y-113785714D02*
X171055771Y-113738095D01*
X171055771Y-113738095D02*
X171293866Y-113738095D01*
X171293866Y-113738095D02*
X171484342Y-113785714D01*
X171484342Y-113785714D02*
X171579580Y-113833333D01*
X171579580Y-113833333D02*
X171627200Y-113880952D01*
X171627200Y-113880952D02*
X171674819Y-113976190D01*
X171674819Y-113976190D02*
X171674819Y-114071428D01*
X171674819Y-114071428D02*
X171627200Y-114166666D01*
X171627200Y-114166666D02*
X171579580Y-114214285D01*
X171579580Y-114214285D02*
X171484342Y-114261904D01*
X171484342Y-114261904D02*
X171293866Y-114309523D01*
X171293866Y-114309523D02*
X171055771Y-114309523D01*
X171055771Y-114309523D02*
X170865295Y-114261904D01*
X170865295Y-114261904D02*
X170770057Y-114214285D01*
X170770057Y-114214285D02*
X170722438Y-114166666D01*
X170722438Y-114166666D02*
X170674819Y-114071428D01*
X170674819Y-113404761D02*
X170674819Y-112738095D01*
X170674819Y-112738095D02*
X171674819Y-113166666D01*
X176244819Y-110681904D02*
X175244819Y-110681904D01*
X176244819Y-110110476D02*
X175673390Y-110539047D01*
X175244819Y-110110476D02*
X175816247Y-110681904D01*
X174144819Y-117738094D02*
X173144819Y-117738094D01*
X173144819Y-117738094D02*
X173144819Y-117499999D01*
X173144819Y-117499999D02*
X173192438Y-117357142D01*
X173192438Y-117357142D02*
X173287676Y-117261904D01*
X173287676Y-117261904D02*
X173382914Y-117214285D01*
X173382914Y-117214285D02*
X173573390Y-117166666D01*
X173573390Y-117166666D02*
X173716247Y-117166666D01*
X173716247Y-117166666D02*
X173906723Y-117214285D01*
X173906723Y-117214285D02*
X174001961Y-117261904D01*
X174001961Y-117261904D02*
X174097200Y-117357142D01*
X174097200Y-117357142D02*
X174144819Y-117499999D01*
X174144819Y-117499999D02*
X174144819Y-117738094D01*
X173478152Y-116309523D02*
X174144819Y-116309523D01*
X173097200Y-116547618D02*
X173811485Y-116785713D01*
X173811485Y-116785713D02*
X173811485Y-116166666D01*
X166454819Y-95738094D02*
X165454819Y-95738094D01*
X165454819Y-95738094D02*
X166169104Y-95404761D01*
X166169104Y-95404761D02*
X165454819Y-95071428D01*
X165454819Y-95071428D02*
X166454819Y-95071428D01*
X165931009Y-94261904D02*
X165931009Y-94595237D01*
X166454819Y-94595237D02*
X165454819Y-94595237D01*
X165454819Y-94595237D02*
X165454819Y-94119047D01*
X166454819Y-93166666D02*
X165978628Y-93499999D01*
X166454819Y-93738094D02*
X165454819Y-93738094D01*
X165454819Y-93738094D02*
X165454819Y-93357142D01*
X165454819Y-93357142D02*
X165502438Y-93261904D01*
X165502438Y-93261904D02*
X165550057Y-93214285D01*
X165550057Y-93214285D02*
X165645295Y-93166666D01*
X165645295Y-93166666D02*
X165788152Y-93166666D01*
X165788152Y-93166666D02*
X165883390Y-93214285D01*
X165883390Y-93214285D02*
X165931009Y-93261904D01*
X165931009Y-93261904D02*
X165978628Y-93357142D01*
X165978628Y-93357142D02*
X165978628Y-93738094D01*
X166073866Y-92738094D02*
X166073866Y-91976190D01*
X165550057Y-91547618D02*
X165502438Y-91499999D01*
X165502438Y-91499999D02*
X165454819Y-91404761D01*
X165454819Y-91404761D02*
X165454819Y-91166666D01*
X165454819Y-91166666D02*
X165502438Y-91071428D01*
X165502438Y-91071428D02*
X165550057Y-91023809D01*
X165550057Y-91023809D02*
X165645295Y-90976190D01*
X165645295Y-90976190D02*
X165740533Y-90976190D01*
X165740533Y-90976190D02*
X165883390Y-91023809D01*
X165883390Y-91023809D02*
X166454819Y-91595237D01*
X166454819Y-91595237D02*
X166454819Y-90976190D01*
X165454819Y-90071428D02*
X165454819Y-90547618D01*
X165454819Y-90547618D02*
X165931009Y-90595237D01*
X165931009Y-90595237D02*
X165883390Y-90547618D01*
X165883390Y-90547618D02*
X165835771Y-90452380D01*
X165835771Y-90452380D02*
X165835771Y-90214285D01*
X165835771Y-90214285D02*
X165883390Y-90119047D01*
X165883390Y-90119047D02*
X165931009Y-90071428D01*
X165931009Y-90071428D02*
X166026247Y-90023809D01*
X166026247Y-90023809D02*
X166264342Y-90023809D01*
X166264342Y-90023809D02*
X166359580Y-90071428D01*
X166359580Y-90071428D02*
X166407200Y-90119047D01*
X166407200Y-90119047D02*
X166454819Y-90214285D01*
X166454819Y-90214285D02*
X166454819Y-90452380D01*
X166454819Y-90452380D02*
X166407200Y-90547618D01*
X166407200Y-90547618D02*
X166359580Y-90595237D01*
X165931009Y-89261904D02*
X165931009Y-89595237D01*
X166454819Y-89595237D02*
X165454819Y-89595237D01*
X165454819Y-89595237D02*
X165454819Y-89119047D01*
X165931009Y-88404761D02*
X165978628Y-88261904D01*
X165978628Y-88261904D02*
X166026247Y-88214285D01*
X166026247Y-88214285D02*
X166121485Y-88166666D01*
X166121485Y-88166666D02*
X166264342Y-88166666D01*
X166264342Y-88166666D02*
X166359580Y-88214285D01*
X166359580Y-88214285D02*
X166407200Y-88261904D01*
X166407200Y-88261904D02*
X166454819Y-88357142D01*
X166454819Y-88357142D02*
X166454819Y-88738094D01*
X166454819Y-88738094D02*
X165454819Y-88738094D01*
X165454819Y-88738094D02*
X165454819Y-88404761D01*
X165454819Y-88404761D02*
X165502438Y-88309523D01*
X165502438Y-88309523D02*
X165550057Y-88261904D01*
X165550057Y-88261904D02*
X165645295Y-88214285D01*
X165645295Y-88214285D02*
X165740533Y-88214285D01*
X165740533Y-88214285D02*
X165835771Y-88261904D01*
X165835771Y-88261904D02*
X165883390Y-88309523D01*
X165883390Y-88309523D02*
X165931009Y-88404761D01*
X165931009Y-88404761D02*
X165931009Y-88738094D01*
X165931009Y-87404761D02*
X165931009Y-87738094D01*
X166454819Y-87738094D02*
X165454819Y-87738094D01*
X165454819Y-87738094D02*
X165454819Y-87261904D01*
X165454819Y-86404761D02*
X165454819Y-86880951D01*
X165454819Y-86880951D02*
X165931009Y-86928570D01*
X165931009Y-86928570D02*
X165883390Y-86880951D01*
X165883390Y-86880951D02*
X165835771Y-86785713D01*
X165835771Y-86785713D02*
X165835771Y-86547618D01*
X165835771Y-86547618D02*
X165883390Y-86452380D01*
X165883390Y-86452380D02*
X165931009Y-86404761D01*
X165931009Y-86404761D02*
X166026247Y-86357142D01*
X166026247Y-86357142D02*
X166264342Y-86357142D01*
X166264342Y-86357142D02*
X166359580Y-86404761D01*
X166359580Y-86404761D02*
X166407200Y-86452380D01*
X166407200Y-86452380D02*
X166454819Y-86547618D01*
X166454819Y-86547618D02*
X166454819Y-86785713D01*
X166454819Y-86785713D02*
X166407200Y-86880951D01*
X166407200Y-86880951D02*
X166359580Y-86928570D01*
X165550057Y-85976189D02*
X165502438Y-85928570D01*
X165502438Y-85928570D02*
X165454819Y-85833332D01*
X165454819Y-85833332D02*
X165454819Y-85595237D01*
X165454819Y-85595237D02*
X165502438Y-85499999D01*
X165502438Y-85499999D02*
X165550057Y-85452380D01*
X165550057Y-85452380D02*
X165645295Y-85404761D01*
X165645295Y-85404761D02*
X165740533Y-85404761D01*
X165740533Y-85404761D02*
X165883390Y-85452380D01*
X165883390Y-85452380D02*
X166454819Y-86023808D01*
X166454819Y-86023808D02*
X166454819Y-85404761D01*
X166073866Y-84976189D02*
X166073866Y-84214285D01*
X166454819Y-83214285D02*
X166454819Y-83785713D01*
X166454819Y-83499999D02*
X165454819Y-83499999D01*
X165454819Y-83499999D02*
X165597676Y-83595237D01*
X165597676Y-83595237D02*
X165692914Y-83690475D01*
X165692914Y-83690475D02*
X165740533Y-83785713D01*
X166454819Y-82785713D02*
X165454819Y-82785713D01*
X166454819Y-82214285D02*
X165883390Y-82642856D01*
X165454819Y-82214285D02*
X166026247Y-82785713D01*
X156454819Y-95738094D02*
X155454819Y-95738094D01*
X155454819Y-95738094D02*
X156169104Y-95404761D01*
X156169104Y-95404761D02*
X155454819Y-95071428D01*
X155454819Y-95071428D02*
X156454819Y-95071428D01*
X155931009Y-94261904D02*
X155931009Y-94595237D01*
X156454819Y-94595237D02*
X155454819Y-94595237D01*
X155454819Y-94595237D02*
X155454819Y-94119047D01*
X156454819Y-93166666D02*
X155978628Y-93499999D01*
X156454819Y-93738094D02*
X155454819Y-93738094D01*
X155454819Y-93738094D02*
X155454819Y-93357142D01*
X155454819Y-93357142D02*
X155502438Y-93261904D01*
X155502438Y-93261904D02*
X155550057Y-93214285D01*
X155550057Y-93214285D02*
X155645295Y-93166666D01*
X155645295Y-93166666D02*
X155788152Y-93166666D01*
X155788152Y-93166666D02*
X155883390Y-93214285D01*
X155883390Y-93214285D02*
X155931009Y-93261904D01*
X155931009Y-93261904D02*
X155978628Y-93357142D01*
X155978628Y-93357142D02*
X155978628Y-93738094D01*
X156073866Y-92738094D02*
X156073866Y-91976190D01*
X155550057Y-91547618D02*
X155502438Y-91499999D01*
X155502438Y-91499999D02*
X155454819Y-91404761D01*
X155454819Y-91404761D02*
X155454819Y-91166666D01*
X155454819Y-91166666D02*
X155502438Y-91071428D01*
X155502438Y-91071428D02*
X155550057Y-91023809D01*
X155550057Y-91023809D02*
X155645295Y-90976190D01*
X155645295Y-90976190D02*
X155740533Y-90976190D01*
X155740533Y-90976190D02*
X155883390Y-91023809D01*
X155883390Y-91023809D02*
X156454819Y-91595237D01*
X156454819Y-91595237D02*
X156454819Y-90976190D01*
X155454819Y-90071428D02*
X155454819Y-90547618D01*
X155454819Y-90547618D02*
X155931009Y-90595237D01*
X155931009Y-90595237D02*
X155883390Y-90547618D01*
X155883390Y-90547618D02*
X155835771Y-90452380D01*
X155835771Y-90452380D02*
X155835771Y-90214285D01*
X155835771Y-90214285D02*
X155883390Y-90119047D01*
X155883390Y-90119047D02*
X155931009Y-90071428D01*
X155931009Y-90071428D02*
X156026247Y-90023809D01*
X156026247Y-90023809D02*
X156264342Y-90023809D01*
X156264342Y-90023809D02*
X156359580Y-90071428D01*
X156359580Y-90071428D02*
X156407200Y-90119047D01*
X156407200Y-90119047D02*
X156454819Y-90214285D01*
X156454819Y-90214285D02*
X156454819Y-90452380D01*
X156454819Y-90452380D02*
X156407200Y-90547618D01*
X156407200Y-90547618D02*
X156359580Y-90595237D01*
X155931009Y-89261904D02*
X155931009Y-89595237D01*
X156454819Y-89595237D02*
X155454819Y-89595237D01*
X155454819Y-89595237D02*
X155454819Y-89119047D01*
X155931009Y-88404761D02*
X155978628Y-88261904D01*
X155978628Y-88261904D02*
X156026247Y-88214285D01*
X156026247Y-88214285D02*
X156121485Y-88166666D01*
X156121485Y-88166666D02*
X156264342Y-88166666D01*
X156264342Y-88166666D02*
X156359580Y-88214285D01*
X156359580Y-88214285D02*
X156407200Y-88261904D01*
X156407200Y-88261904D02*
X156454819Y-88357142D01*
X156454819Y-88357142D02*
X156454819Y-88738094D01*
X156454819Y-88738094D02*
X155454819Y-88738094D01*
X155454819Y-88738094D02*
X155454819Y-88404761D01*
X155454819Y-88404761D02*
X155502438Y-88309523D01*
X155502438Y-88309523D02*
X155550057Y-88261904D01*
X155550057Y-88261904D02*
X155645295Y-88214285D01*
X155645295Y-88214285D02*
X155740533Y-88214285D01*
X155740533Y-88214285D02*
X155835771Y-88261904D01*
X155835771Y-88261904D02*
X155883390Y-88309523D01*
X155883390Y-88309523D02*
X155931009Y-88404761D01*
X155931009Y-88404761D02*
X155931009Y-88738094D01*
X155931009Y-87404761D02*
X155931009Y-87738094D01*
X156454819Y-87738094D02*
X155454819Y-87738094D01*
X155454819Y-87738094D02*
X155454819Y-87261904D01*
X155454819Y-86404761D02*
X155454819Y-86880951D01*
X155454819Y-86880951D02*
X155931009Y-86928570D01*
X155931009Y-86928570D02*
X155883390Y-86880951D01*
X155883390Y-86880951D02*
X155835771Y-86785713D01*
X155835771Y-86785713D02*
X155835771Y-86547618D01*
X155835771Y-86547618D02*
X155883390Y-86452380D01*
X155883390Y-86452380D02*
X155931009Y-86404761D01*
X155931009Y-86404761D02*
X156026247Y-86357142D01*
X156026247Y-86357142D02*
X156264342Y-86357142D01*
X156264342Y-86357142D02*
X156359580Y-86404761D01*
X156359580Y-86404761D02*
X156407200Y-86452380D01*
X156407200Y-86452380D02*
X156454819Y-86547618D01*
X156454819Y-86547618D02*
X156454819Y-86785713D01*
X156454819Y-86785713D02*
X156407200Y-86880951D01*
X156407200Y-86880951D02*
X156359580Y-86928570D01*
X155550057Y-85976189D02*
X155502438Y-85928570D01*
X155502438Y-85928570D02*
X155454819Y-85833332D01*
X155454819Y-85833332D02*
X155454819Y-85595237D01*
X155454819Y-85595237D02*
X155502438Y-85499999D01*
X155502438Y-85499999D02*
X155550057Y-85452380D01*
X155550057Y-85452380D02*
X155645295Y-85404761D01*
X155645295Y-85404761D02*
X155740533Y-85404761D01*
X155740533Y-85404761D02*
X155883390Y-85452380D01*
X155883390Y-85452380D02*
X156454819Y-86023808D01*
X156454819Y-86023808D02*
X156454819Y-85404761D01*
X156073866Y-84976189D02*
X156073866Y-84214285D01*
X156454819Y-83214285D02*
X156454819Y-83785713D01*
X156454819Y-83499999D02*
X155454819Y-83499999D01*
X155454819Y-83499999D02*
X155597676Y-83595237D01*
X155597676Y-83595237D02*
X155692914Y-83690475D01*
X155692914Y-83690475D02*
X155740533Y-83785713D01*
X156454819Y-82785713D02*
X155454819Y-82785713D01*
X156454819Y-82214285D02*
X155883390Y-82642856D01*
X155454819Y-82214285D02*
X156026247Y-82785713D01*
D11*
%TO.C,D3*%
X171650000Y-84400000D02*
X171650000Y-89600000D01*
X171650000Y-89600000D02*
X174350000Y-89600000D01*
X173000000Y-81920000D02*
X173000000Y-84400000D01*
X173000000Y-92080000D02*
X173000000Y-89600000D01*
X174350000Y-84400000D02*
X171650000Y-84400000D01*
X174350000Y-85080000D02*
X171650000Y-85080000D01*
X174350000Y-85180000D02*
X171650000Y-85180000D01*
X174350000Y-85280000D02*
X171650000Y-85280000D01*
X174350000Y-89600000D02*
X174350000Y-84400000D01*
%TO.C,D2*%
X192690000Y-104780000D02*
X192690000Y-102220000D01*
X192690000Y-102220000D02*
G75*
G02*
X192690000Y-104780000I1499562J-1280000D01*
G01*
%TO.C,U4*%
X109210000Y-122500000D02*
X109210000Y-126900000D01*
X109210000Y-126900000D02*
X119210000Y-126900000D01*
X112360000Y-126900000D02*
X112360000Y-125630000D01*
X116060000Y-126900000D02*
X116060000Y-125630000D01*
X119210000Y-122500000D02*
X109210000Y-122500000D01*
X119210000Y-125630000D02*
X109210000Y-125630000D01*
X119210000Y-126900000D02*
X119210000Y-122500000D01*
D12*
%TO.C,R7*%
X156700000Y-112600000D02*
X156700000Y-119400000D01*
X156700000Y-119400000D02*
X158000000Y-119400000D01*
X158000000Y-111100000D02*
X158000000Y-112600000D01*
X158000000Y-112600000D02*
X156700000Y-112600000D01*
X158000000Y-119400000D02*
X159300000Y-119400000D01*
X158000000Y-120900000D02*
X158000000Y-119400000D01*
X159300000Y-112600000D02*
X158000000Y-112600000D01*
X159300000Y-119400000D02*
X159300000Y-112600000D01*
%TO.C,U1*%
X122600000Y-75460000D02*
X122600000Y-123660000D01*
X122600000Y-123660000D02*
X132480000Y-123660000D01*
X127550000Y-69260000D02*
X145550000Y-69260000D01*
X127550000Y-75460000D02*
X122600000Y-75460000D01*
X127550000Y-75460000D02*
X127550000Y-69260000D01*
X132480000Y-123660000D02*
X132480000Y-124560000D01*
X132480000Y-124560000D02*
X140610000Y-124560000D01*
X140610000Y-123660000D02*
X150500000Y-123660000D01*
X140610000Y-124560000D02*
X140610000Y-123660000D01*
X145550000Y-69260000D02*
X145550000Y-75460000D01*
X145550000Y-75460000D02*
X127550000Y-75460000D01*
X150500000Y-75460000D02*
X145550000Y-75460000D01*
X150500000Y-123660000D02*
X150500000Y-75460000D01*
D13*
X122080000Y-76590000D02*
G75*
G02*
X121880000Y-76590000I-100000J0D01*
G01*
X121880000Y-76590000D02*
G75*
G02*
X122080000Y-76590000I100000J0D01*
G01*
D12*
%TO.C,PS1*%
X93890000Y-83200000D02*
X119290000Y-83200000D01*
X93890000Y-121300000D02*
X93890000Y-83200000D01*
X119290000Y-83200000D02*
X119290000Y-121300000D01*
X119290000Y-121300000D02*
X93890000Y-121300000D01*
D13*
X116790000Y-82250000D02*
G75*
G02*
X116590000Y-82250000I-100000J0D01*
G01*
X116590000Y-82250000D02*
G75*
G02*
X116790000Y-82250000I100000J0D01*
G01*
D12*
%TO.C,J2*%
X201000000Y-79380000D02*
X211600000Y-79380000D01*
X201000000Y-94620000D02*
X201000000Y-79380000D01*
X211600000Y-79380000D02*
X211600000Y-94620000D01*
X211600000Y-94620000D02*
X201000000Y-94620000D01*
D13*
X200100000Y-92080000D02*
G75*
G02*
X199900000Y-92080000I-100000J0D01*
G01*
X199900000Y-92080000D02*
G75*
G02*
X200100000Y-92080000I100000J0D01*
G01*
D11*
%TO.C,U2*%
X157835000Y-73425000D02*
X158835000Y-72425000D01*
X157835000Y-77505000D02*
X157835000Y-73425000D01*
X158835000Y-72425000D02*
X164185000Y-72425000D01*
X164185000Y-72425000D02*
X164185000Y-77505000D01*
X164185000Y-77505000D02*
X157835000Y-77505000D01*
D12*
%TO.C,R12*%
X179290000Y-103500000D02*
X180790000Y-103500000D01*
X180790000Y-102200000D02*
X180790000Y-103500000D01*
X180790000Y-103500000D02*
X180790000Y-104800000D01*
X180790000Y-104800000D02*
X187590000Y-104800000D01*
X187590000Y-102200000D02*
X180790000Y-102200000D01*
X187590000Y-103500000D02*
X187590000Y-102200000D01*
X187590000Y-104800000D02*
X187590000Y-103500000D01*
X189090000Y-103500000D02*
X187590000Y-103500000D01*
%TO.C,K2*%
X179550000Y-107250000D02*
X198650000Y-107250000D01*
X179550000Y-122750000D02*
X179550000Y-107250000D01*
X198650000Y-107250000D02*
X198650000Y-122750000D01*
X198650000Y-122750000D02*
X179550000Y-122750000D01*
D11*
%TO.C,Q2*%
X173770000Y-101750000D02*
X170270000Y-101750000D01*
X172000000Y-105980000D02*
G75*
G02*
X170246375Y-101746375I0J2480000D01*
G01*
X173753625Y-101746375D02*
G75*
G02*
X172000000Y-105980000I-1753625J-1753625D01*
G01*
%TO.C,D1*%
X192830000Y-76280000D02*
X192830000Y-73720000D01*
X192830000Y-73720000D02*
G75*
G02*
X192830000Y-76280000I1499562J-1280000D01*
G01*
D12*
%TO.C,J1*%
X93880000Y-71150000D02*
X104040000Y-71150000D01*
X93880000Y-81750000D02*
X93880000Y-71150000D01*
X104040000Y-71150000D02*
X104040000Y-81750000D01*
X104040000Y-81750000D02*
X93880000Y-81750000D01*
D13*
X101600000Y-82750000D02*
G75*
G02*
X101400000Y-82750000I-100000J0D01*
G01*
X101400000Y-82750000D02*
G75*
G02*
X101600000Y-82750000I100000J0D01*
G01*
D11*
%TO.C,U3*%
X157835000Y-102455000D02*
X158835000Y-101455000D01*
X157835000Y-106535000D02*
X157835000Y-102455000D01*
X158835000Y-101455000D02*
X164185000Y-101455000D01*
X164185000Y-101455000D02*
X164185000Y-106535000D01*
X164185000Y-106535000D02*
X157835000Y-106535000D01*
D12*
%TO.C,R10*%
X179200000Y-75000000D02*
X180700000Y-75000000D01*
X180700000Y-73700000D02*
X180700000Y-75000000D01*
X180700000Y-75000000D02*
X180700000Y-76300000D01*
X180700000Y-76300000D02*
X187500000Y-76300000D01*
X187500000Y-73700000D02*
X180700000Y-73700000D01*
X187500000Y-75000000D02*
X187500000Y-73700000D01*
X187500000Y-76300000D02*
X187500000Y-75000000D01*
X189000000Y-75000000D02*
X187500000Y-75000000D01*
%TO.C,K1*%
X179450000Y-79250000D02*
X198550000Y-79250000D01*
X179450000Y-94750000D02*
X179450000Y-79250000D01*
X198550000Y-79250000D02*
X198550000Y-94750000D01*
X198550000Y-94750000D02*
X179450000Y-94750000D01*
%TO.C,R11*%
X163500000Y-112600000D02*
X163500000Y-119400000D01*
X163500000Y-119400000D02*
X164800000Y-119400000D01*
X164800000Y-111100000D02*
X164800000Y-112600000D01*
X164800000Y-112600000D02*
X163500000Y-112600000D01*
X164800000Y-119400000D02*
X166100000Y-119400000D01*
X164800000Y-120900000D02*
X164800000Y-119400000D01*
X166100000Y-112600000D02*
X164800000Y-112600000D01*
X166100000Y-119400000D02*
X166100000Y-112600000D01*
D11*
%TO.C,Q1*%
X174100000Y-73250000D02*
X170600000Y-73250000D01*
X172330000Y-77480000D02*
G75*
G02*
X170576375Y-73246375I0J2480000D01*
G01*
X174083625Y-73246375D02*
G75*
G02*
X172330000Y-77480000I-1753625J-1753625D01*
G01*
%TO.C,D4*%
X172340000Y-112900000D02*
X172340000Y-118100000D01*
X172340000Y-118100000D02*
X175040000Y-118100000D01*
X173690000Y-110420000D02*
X173690000Y-112900000D01*
X173690000Y-120580000D02*
X173690000Y-118100000D01*
X175040000Y-112900000D02*
X172340000Y-112900000D01*
X175040000Y-113580000D02*
X172340000Y-113580000D01*
X175040000Y-113680000D02*
X172340000Y-113680000D01*
X175040000Y-113780000D02*
X172340000Y-113780000D01*
X175040000Y-118100000D02*
X175040000Y-112900000D01*
D12*
%TO.C,J3*%
X201000000Y-107380000D02*
X211600000Y-107380000D01*
X201000000Y-122620000D02*
X201000000Y-107380000D01*
X211600000Y-107380000D02*
X211600000Y-122620000D01*
X211600000Y-122620000D02*
X201000000Y-122620000D01*
D13*
X200100000Y-120080000D02*
G75*
G02*
X199900000Y-120080000I-100000J0D01*
G01*
X199900000Y-120080000D02*
G75*
G02*
X200100000Y-120080000I100000J0D01*
G01*
D12*
%TO.C,R9*%
X165300000Y-83600000D02*
X165300000Y-90400000D01*
X165300000Y-90400000D02*
X166600000Y-90400000D01*
X166600000Y-82100000D02*
X166600000Y-83600000D01*
X166600000Y-83600000D02*
X165300000Y-83600000D01*
X166600000Y-90400000D02*
X167900000Y-90400000D01*
X166600000Y-91900000D02*
X166600000Y-90400000D01*
X167900000Y-83600000D02*
X166600000Y-83600000D01*
X167900000Y-90400000D02*
X167900000Y-83600000D01*
%TO.C,R8*%
X155100000Y-83600000D02*
X155100000Y-90400000D01*
X155100000Y-90400000D02*
X156400000Y-90400000D01*
X156400000Y-82100000D02*
X156400000Y-83600000D01*
X156400000Y-83600000D02*
X155100000Y-83600000D01*
X156400000Y-90400000D02*
X157700000Y-90400000D01*
X156400000Y-91900000D02*
X156400000Y-90400000D01*
X157700000Y-83600000D02*
X156400000Y-83600000D01*
X157700000Y-90400000D02*
X157700000Y-83600000D01*
%TD*%
D11*
%TO.C,D3*%
X171900000Y-80820000D02*
X171900000Y-83020000D01*
X174100000Y-83020000D01*
X174100000Y-80820000D01*
X171900000Y-80820000D01*
X173000000Y-90980000D02*
X173000000Y-90980000D01*
X173000000Y-93180000D02*
G75*
G02*
X173000000Y-90980000I0J1100000D01*
G01*
X173000000Y-93180000D02*
X173000000Y-93180000D01*
X173000000Y-93180000D02*
G75*
G03*
X173000000Y-90980000I0J1100000D01*
G01*
%TD*%
%TO.C,D2*%
X196214000Y-103500000D02*
G75*
G02*
X194706000Y-103500000I-754000J0D01*
G01*
X194706000Y-103500000D02*
G75*
G02*
X196214000Y-103500000I754000J0D01*
G01*
X193674000Y-103500000D02*
G75*
G02*
X192166000Y-103500000I-754000J0D01*
G01*
X192166000Y-103500000D02*
G75*
G02*
X193674000Y-103500000I754000J0D01*
G01*
%TD*%
%TO.C,U4*%
X115797500Y-122750000D02*
X115797500Y-124750000D01*
X117702500Y-124750000D01*
X117702500Y-122750000D01*
X115797500Y-122750000D01*
X115162500Y-123797500D02*
X115162500Y-123702500D01*
X113257500Y-123702500D02*
G75*
G02*
X115162500Y-123702500I952500J0D01*
G01*
X113257500Y-123702500D02*
X113257500Y-123797500D01*
X113257500Y-123797500D02*
G75*
G03*
X115162500Y-123797500I952500J0D01*
G01*
X112622500Y-123797500D02*
X112622500Y-123702500D01*
X110717500Y-123702500D02*
G75*
G02*
X112622500Y-123702500I952500J0D01*
G01*
X110717500Y-123702500D02*
X110717500Y-123797500D01*
X110717500Y-123797500D02*
G75*
G03*
X112622500Y-123797500I952500J0D01*
G01*
%TD*%
%TO.C,R7*%
X158600000Y-121500000D02*
G75*
G02*
X157400000Y-121500000I-600000J0D01*
G01*
X157400000Y-121500000D02*
G75*
G02*
X158600000Y-121500000I600000J0D01*
G01*
X158600000Y-110500000D02*
G75*
G02*
X157400000Y-110500000I-600000J0D01*
G01*
X157400000Y-110500000D02*
G75*
G02*
X158600000Y-110500000I600000J0D01*
G01*
%TD*%
%TO.C,U1*%
X123085000Y-75945000D02*
X123085000Y-77475000D01*
X124615000Y-77475000D01*
X124615000Y-75945000D01*
X123085000Y-75945000D01*
X124615000Y-79250000D02*
G75*
G02*
X123085000Y-79250000I-765000J0D01*
G01*
X123085000Y-79250000D02*
G75*
G02*
X124615000Y-79250000I765000J0D01*
G01*
X124615000Y-81790000D02*
G75*
G02*
X123085000Y-81790000I-765000J0D01*
G01*
X123085000Y-81790000D02*
G75*
G02*
X124615000Y-81790000I765000J0D01*
G01*
X124615000Y-84330000D02*
G75*
G02*
X123085000Y-84330000I-765000J0D01*
G01*
X123085000Y-84330000D02*
G75*
G02*
X124615000Y-84330000I765000J0D01*
G01*
X124615000Y-86870000D02*
G75*
G02*
X123085000Y-86870000I-765000J0D01*
G01*
X123085000Y-86870000D02*
G75*
G02*
X124615000Y-86870000I765000J0D01*
G01*
X124615000Y-89410000D02*
G75*
G02*
X123085000Y-89410000I-765000J0D01*
G01*
X123085000Y-89410000D02*
G75*
G02*
X124615000Y-89410000I765000J0D01*
G01*
X124615000Y-91950000D02*
G75*
G02*
X123085000Y-91950000I-765000J0D01*
G01*
X123085000Y-91950000D02*
G75*
G02*
X124615000Y-91950000I765000J0D01*
G01*
X124615000Y-94490000D02*
G75*
G02*
X123085000Y-94490000I-765000J0D01*
G01*
X123085000Y-94490000D02*
G75*
G02*
X124615000Y-94490000I765000J0D01*
G01*
X124615000Y-97030000D02*
G75*
G02*
X123085000Y-97030000I-765000J0D01*
G01*
X123085000Y-97030000D02*
G75*
G02*
X124615000Y-97030000I765000J0D01*
G01*
X124615000Y-99570000D02*
G75*
G02*
X123085000Y-99570000I-765000J0D01*
G01*
X123085000Y-99570000D02*
G75*
G02*
X124615000Y-99570000I765000J0D01*
G01*
X124615000Y-102110000D02*
G75*
G02*
X123085000Y-102110000I-765000J0D01*
G01*
X123085000Y-102110000D02*
G75*
G02*
X124615000Y-102110000I765000J0D01*
G01*
X124615000Y-104650000D02*
G75*
G02*
X123085000Y-104650000I-765000J0D01*
G01*
X123085000Y-104650000D02*
G75*
G02*
X124615000Y-104650000I765000J0D01*
G01*
X124615000Y-107190000D02*
G75*
G02*
X123085000Y-107190000I-765000J0D01*
G01*
X123085000Y-107190000D02*
G75*
G02*
X124615000Y-107190000I765000J0D01*
G01*
X124615000Y-109730000D02*
G75*
G02*
X123085000Y-109730000I-765000J0D01*
G01*
X123085000Y-109730000D02*
G75*
G02*
X124615000Y-109730000I765000J0D01*
G01*
X124615000Y-112270000D02*
G75*
G02*
X123085000Y-112270000I-765000J0D01*
G01*
X123085000Y-112270000D02*
G75*
G02*
X124615000Y-112270000I765000J0D01*
G01*
X124615000Y-114810000D02*
G75*
G02*
X123085000Y-114810000I-765000J0D01*
G01*
X123085000Y-114810000D02*
G75*
G02*
X124615000Y-114810000I765000J0D01*
G01*
X124615000Y-117350000D02*
G75*
G02*
X123085000Y-117350000I-765000J0D01*
G01*
X123085000Y-117350000D02*
G75*
G02*
X124615000Y-117350000I765000J0D01*
G01*
X124615000Y-119890000D02*
G75*
G02*
X123085000Y-119890000I-765000J0D01*
G01*
X123085000Y-119890000D02*
G75*
G02*
X124615000Y-119890000I765000J0D01*
G01*
X124615000Y-122430000D02*
G75*
G02*
X123085000Y-122430000I-765000J0D01*
G01*
X123085000Y-122430000D02*
G75*
G02*
X124615000Y-122430000I765000J0D01*
G01*
X150015000Y-122430000D02*
G75*
G02*
X148485000Y-122430000I-765000J0D01*
G01*
X148485000Y-122430000D02*
G75*
G02*
X150015000Y-122430000I765000J0D01*
G01*
X150015000Y-119890000D02*
G75*
G02*
X148485000Y-119890000I-765000J0D01*
G01*
X148485000Y-119890000D02*
G75*
G02*
X150015000Y-119890000I765000J0D01*
G01*
X150015000Y-117350000D02*
G75*
G02*
X148485000Y-117350000I-765000J0D01*
G01*
X148485000Y-117350000D02*
G75*
G02*
X150015000Y-117350000I765000J0D01*
G01*
X150015000Y-114810000D02*
G75*
G02*
X148485000Y-114810000I-765000J0D01*
G01*
X148485000Y-114810000D02*
G75*
G02*
X150015000Y-114810000I765000J0D01*
G01*
X150015000Y-112270000D02*
G75*
G02*
X148485000Y-112270000I-765000J0D01*
G01*
X148485000Y-112270000D02*
G75*
G02*
X150015000Y-112270000I765000J0D01*
G01*
X150015000Y-109730000D02*
G75*
G02*
X148485000Y-109730000I-765000J0D01*
G01*
X148485000Y-109730000D02*
G75*
G02*
X150015000Y-109730000I765000J0D01*
G01*
X150015000Y-107190000D02*
G75*
G02*
X148485000Y-107190000I-765000J0D01*
G01*
X148485000Y-107190000D02*
G75*
G02*
X150015000Y-107190000I765000J0D01*
G01*
X150015000Y-104650000D02*
G75*
G02*
X148485000Y-104650000I-765000J0D01*
G01*
X148485000Y-104650000D02*
G75*
G02*
X150015000Y-104650000I765000J0D01*
G01*
X150015000Y-102110000D02*
G75*
G02*
X148485000Y-102110000I-765000J0D01*
G01*
X148485000Y-102110000D02*
G75*
G02*
X150015000Y-102110000I765000J0D01*
G01*
X150015000Y-99570000D02*
G75*
G02*
X148485000Y-99570000I-765000J0D01*
G01*
X148485000Y-99570000D02*
G75*
G02*
X150015000Y-99570000I765000J0D01*
G01*
X150015000Y-97030000D02*
G75*
G02*
X148485000Y-97030000I-765000J0D01*
G01*
X148485000Y-97030000D02*
G75*
G02*
X150015000Y-97030000I765000J0D01*
G01*
X150015000Y-94490000D02*
G75*
G02*
X148485000Y-94490000I-765000J0D01*
G01*
X148485000Y-94490000D02*
G75*
G02*
X150015000Y-94490000I765000J0D01*
G01*
X150015000Y-91950000D02*
G75*
G02*
X148485000Y-91950000I-765000J0D01*
G01*
X148485000Y-91950000D02*
G75*
G02*
X150015000Y-91950000I765000J0D01*
G01*
X150015000Y-89410000D02*
G75*
G02*
X148485000Y-89410000I-765000J0D01*
G01*
X148485000Y-89410000D02*
G75*
G02*
X150015000Y-89410000I765000J0D01*
G01*
X150015000Y-86870000D02*
G75*
G02*
X148485000Y-86870000I-765000J0D01*
G01*
X148485000Y-86870000D02*
G75*
G02*
X150015000Y-86870000I765000J0D01*
G01*
X150015000Y-84330000D02*
G75*
G02*
X148485000Y-84330000I-765000J0D01*
G01*
X148485000Y-84330000D02*
G75*
G02*
X150015000Y-84330000I765000J0D01*
G01*
X150015000Y-81790000D02*
G75*
G02*
X148485000Y-81790000I-765000J0D01*
G01*
X148485000Y-81790000D02*
G75*
G02*
X150015000Y-81790000I765000J0D01*
G01*
X150015000Y-79250000D02*
G75*
G02*
X148485000Y-79250000I-765000J0D01*
G01*
X148485000Y-79250000D02*
G75*
G02*
X150015000Y-79250000I765000J0D01*
G01*
X150015000Y-76710000D02*
G75*
G02*
X148485000Y-76710000I-765000J0D01*
G01*
X148485000Y-76710000D02*
G75*
G02*
X150015000Y-76710000I765000J0D01*
G01*
%TD*%
%TO.C,PS1*%
X115625000Y-84625000D02*
X115625000Y-86875000D01*
X117875000Y-86875000D01*
X117875000Y-84625000D01*
X115625000Y-84625000D01*
X97555000Y-85750000D02*
G75*
G02*
X95305000Y-85750000I-1125000J0D01*
G01*
X95305000Y-85750000D02*
G75*
G02*
X97555000Y-85750000I1125000J0D01*
G01*
X107715000Y-118750000D02*
G75*
G02*
X105465000Y-118750000I-1125000J0D01*
G01*
X105465000Y-118750000D02*
G75*
G02*
X107715000Y-118750000I1125000J0D01*
G01*
X117875000Y-118750000D02*
G75*
G02*
X115625000Y-118750000I-1125000J0D01*
G01*
X115625000Y-118750000D02*
G75*
G02*
X117875000Y-118750000I1125000J0D01*
G01*
%TD*%
%TO.C,J2*%
X204800000Y-90880000D02*
X204800000Y-93280000D01*
X207200000Y-93280000D01*
X207200000Y-90880000D01*
X204800000Y-90880000D01*
X207200000Y-87000000D02*
G75*
G02*
X204800000Y-87000000I-1200000J0D01*
G01*
X204800000Y-87000000D02*
G75*
G02*
X207200000Y-87000000I1200000J0D01*
G01*
X207200000Y-81920000D02*
G75*
G02*
X204800000Y-81920000I-1200000J0D01*
G01*
X204800000Y-81920000D02*
G75*
G02*
X207200000Y-81920000I1200000J0D01*
G01*
%TD*%
%TO.C,U2*%
X156400000Y-72895000D02*
X156400000Y-74495000D01*
X158000000Y-74495000D01*
X158000000Y-72895000D01*
X156400000Y-72895000D01*
X156400000Y-76235000D02*
X156400000Y-76235000D01*
X158000000Y-76235000D02*
G75*
G02*
X156400000Y-76235000I-800000J0D01*
G01*
X158000000Y-76235000D02*
X158000000Y-76235000D01*
X158000000Y-76235000D02*
G75*
G03*
X156400000Y-76235000I-800000J0D01*
G01*
X164020000Y-76235000D02*
X164020000Y-76235000D01*
X165620000Y-76235000D02*
G75*
G02*
X164020000Y-76235000I-800000J0D01*
G01*
X165620000Y-76235000D02*
X165620000Y-76235000D01*
X165620000Y-76235000D02*
G75*
G03*
X164020000Y-76235000I-800000J0D01*
G01*
X164020000Y-73695000D02*
X164020000Y-73695000D01*
X165620000Y-73695000D02*
G75*
G02*
X164020000Y-73695000I-800000J0D01*
G01*
X165620000Y-73695000D02*
X165620000Y-73695000D01*
X165620000Y-73695000D02*
G75*
G03*
X164020000Y-73695000I-800000J0D01*
G01*
%TD*%
%TO.C,R12*%
X190290000Y-103500000D02*
G75*
G02*
X189090000Y-103500000I-600000J0D01*
G01*
X189090000Y-103500000D02*
G75*
G02*
X190290000Y-103500000I600000J0D01*
G01*
X179290000Y-103500000D02*
G75*
G02*
X178090000Y-103500000I-600000J0D01*
G01*
X178090000Y-103500000D02*
G75*
G02*
X179290000Y-103500000I600000J0D01*
G01*
%TD*%
%TO.C,K2*%
X182010000Y-108010000D02*
X182010000Y-109990000D01*
X183990000Y-109990000D01*
X183990000Y-108010000D01*
X182010000Y-108010000D01*
X183990000Y-121000000D02*
G75*
G02*
X182010000Y-121000000I-990000J0D01*
G01*
X182010000Y-121000000D02*
G75*
G02*
X183990000Y-121000000I990000J0D01*
G01*
X181967500Y-115000000D02*
G75*
G02*
X180032500Y-115000000I-967500J0D01*
G01*
X180032500Y-115000000D02*
G75*
G02*
X181967500Y-115000000I967500J0D01*
G01*
X196190000Y-109000000D02*
G75*
G02*
X194210000Y-109000000I-990000J0D01*
G01*
X194210000Y-109000000D02*
G75*
G02*
X196190000Y-109000000I990000J0D01*
G01*
X196190000Y-121000000D02*
G75*
G02*
X194210000Y-121000000I-990000J0D01*
G01*
X194210000Y-121000000D02*
G75*
G02*
X196190000Y-121000000I990000J0D01*
G01*
%TD*%
%TO.C,Q2*%
X172745000Y-102750000D02*
X172745000Y-104250000D01*
X173795000Y-104250000D01*
X173795000Y-102750000D01*
X172745000Y-102750000D01*
X172525000Y-103725000D02*
X172525000Y-103275000D01*
X171475000Y-103275000D02*
G75*
G02*
X172525000Y-103275000I525000J0D01*
G01*
X171475000Y-103275000D02*
X171475000Y-103725000D01*
X171475000Y-103725000D02*
G75*
G03*
X172525000Y-103725000I525000J0D01*
G01*
X171255000Y-103725000D02*
X171255000Y-103275000D01*
X170205000Y-103275000D02*
G75*
G02*
X171255000Y-103275000I525000J0D01*
G01*
X170205000Y-103275000D02*
X170205000Y-103725000D01*
X170205000Y-103725000D02*
G75*
G03*
X171255000Y-103725000I525000J0D01*
G01*
%TD*%
%TO.C,D1*%
X196354000Y-75000000D02*
G75*
G02*
X194846000Y-75000000I-754000J0D01*
G01*
X194846000Y-75000000D02*
G75*
G02*
X196354000Y-75000000I754000J0D01*
G01*
X193814000Y-75000000D02*
G75*
G02*
X192306000Y-75000000I-754000J0D01*
G01*
X192306000Y-75000000D02*
G75*
G02*
X193814000Y-75000000I754000J0D01*
G01*
%TD*%
%TO.C,J1*%
X100300000Y-75550000D02*
X100300000Y-77950000D01*
X102700000Y-77950000D01*
X102700000Y-75550000D01*
X100300000Y-75550000D01*
X97620000Y-76750000D02*
G75*
G02*
X95220000Y-76750000I-1200000J0D01*
G01*
X95220000Y-76750000D02*
G75*
G02*
X97620000Y-76750000I1200000J0D01*
G01*
%TD*%
%TO.C,U3*%
X156400000Y-101925000D02*
X156400000Y-103525000D01*
X158000000Y-103525000D01*
X158000000Y-101925000D01*
X156400000Y-101925000D01*
X156400000Y-105265000D02*
X156400000Y-105265000D01*
X158000000Y-105265000D02*
G75*
G02*
X156400000Y-105265000I-800000J0D01*
G01*
X158000000Y-105265000D02*
X158000000Y-105265000D01*
X158000000Y-105265000D02*
G75*
G03*
X156400000Y-105265000I-800000J0D01*
G01*
X164020000Y-105265000D02*
X164020000Y-105265000D01*
X165620000Y-105265000D02*
G75*
G02*
X164020000Y-105265000I-800000J0D01*
G01*
X165620000Y-105265000D02*
X165620000Y-105265000D01*
X165620000Y-105265000D02*
G75*
G03*
X164020000Y-105265000I-800000J0D01*
G01*
X164020000Y-102725000D02*
X164020000Y-102725000D01*
X165620000Y-102725000D02*
G75*
G02*
X164020000Y-102725000I-800000J0D01*
G01*
X165620000Y-102725000D02*
X165620000Y-102725000D01*
X165620000Y-102725000D02*
G75*
G03*
X164020000Y-102725000I-800000J0D01*
G01*
%TD*%
%TO.C,R10*%
X190200000Y-75000000D02*
G75*
G02*
X189000000Y-75000000I-600000J0D01*
G01*
X189000000Y-75000000D02*
G75*
G02*
X190200000Y-75000000I600000J0D01*
G01*
X179200000Y-75000000D02*
G75*
G02*
X178000000Y-75000000I-600000J0D01*
G01*
X178000000Y-75000000D02*
G75*
G02*
X179200000Y-75000000I600000J0D01*
G01*
%TD*%
%TO.C,K1*%
X181910000Y-80010000D02*
X181910000Y-81990000D01*
X183890000Y-81990000D01*
X183890000Y-80010000D01*
X181910000Y-80010000D01*
X183890000Y-93000000D02*
G75*
G02*
X181910000Y-93000000I-990000J0D01*
G01*
X181910000Y-93000000D02*
G75*
G02*
X183890000Y-93000000I990000J0D01*
G01*
X181867500Y-87000000D02*
G75*
G02*
X179932500Y-87000000I-967500J0D01*
G01*
X179932500Y-87000000D02*
G75*
G02*
X181867500Y-87000000I967500J0D01*
G01*
X196090000Y-81000000D02*
G75*
G02*
X194110000Y-81000000I-990000J0D01*
G01*
X194110000Y-81000000D02*
G75*
G02*
X196090000Y-81000000I990000J0D01*
G01*
X196090000Y-93000000D02*
G75*
G02*
X194110000Y-93000000I-990000J0D01*
G01*
X194110000Y-93000000D02*
G75*
G02*
X196090000Y-93000000I990000J0D01*
G01*
%TD*%
%TO.C,R11*%
X165400000Y-110500000D02*
G75*
G02*
X164200000Y-110500000I-600000J0D01*
G01*
X164200000Y-110500000D02*
G75*
G02*
X165400000Y-110500000I600000J0D01*
G01*
X165400000Y-121500000D02*
G75*
G02*
X164200000Y-121500000I-600000J0D01*
G01*
X164200000Y-121500000D02*
G75*
G02*
X165400000Y-121500000I600000J0D01*
G01*
%TD*%
%TO.C,Q1*%
X173075000Y-74250000D02*
X173075000Y-75750000D01*
X174125000Y-75750000D01*
X174125000Y-74250000D01*
X173075000Y-74250000D01*
X172855000Y-75225000D02*
X172855000Y-74775000D01*
X171805000Y-74775000D02*
G75*
G02*
X172855000Y-74775000I525000J0D01*
G01*
X171805000Y-74775000D02*
X171805000Y-75225000D01*
X171805000Y-75225000D02*
G75*
G03*
X172855000Y-75225000I525000J0D01*
G01*
X171585000Y-75225000D02*
X171585000Y-74775000D01*
X170535000Y-74775000D02*
G75*
G02*
X171585000Y-74775000I525000J0D01*
G01*
X170535000Y-74775000D02*
X170535000Y-75225000D01*
X170535000Y-75225000D02*
G75*
G03*
X171585000Y-75225000I525000J0D01*
G01*
%TD*%
%TO.C,D4*%
X172590000Y-109320000D02*
X172590000Y-111520000D01*
X174790000Y-111520000D01*
X174790000Y-109320000D01*
X172590000Y-109320000D01*
X173690000Y-119480000D02*
X173690000Y-119480000D01*
X173690000Y-121680000D02*
G75*
G02*
X173690000Y-119480000I0J1100000D01*
G01*
X173690000Y-121680000D02*
X173690000Y-121680000D01*
X173690000Y-121680000D02*
G75*
G03*
X173690000Y-119480000I0J1100000D01*
G01*
%TD*%
%TO.C,J3*%
X204800000Y-118880000D02*
X204800000Y-121280000D01*
X207200000Y-121280000D01*
X207200000Y-118880000D01*
X204800000Y-118880000D01*
X207200000Y-115000000D02*
G75*
G02*
X204800000Y-115000000I-1200000J0D01*
G01*
X204800000Y-115000000D02*
G75*
G02*
X207200000Y-115000000I1200000J0D01*
G01*
X207200000Y-109920000D02*
G75*
G02*
X204800000Y-109920000I-1200000J0D01*
G01*
X204800000Y-109920000D02*
G75*
G02*
X207200000Y-109920000I1200000J0D01*
G01*
%TD*%
%TO.C,R9*%
X167200000Y-92500000D02*
G75*
G02*
X166000000Y-92500000I-600000J0D01*
G01*
X166000000Y-92500000D02*
G75*
G02*
X167200000Y-92500000I600000J0D01*
G01*
X167200000Y-81500000D02*
G75*
G02*
X166000000Y-81500000I-600000J0D01*
G01*
X166000000Y-81500000D02*
G75*
G02*
X167200000Y-81500000I600000J0D01*
G01*
%TD*%
%TO.C,R8*%
X157000000Y-81500000D02*
G75*
G02*
X155800000Y-81500000I-600000J0D01*
G01*
X155800000Y-81500000D02*
G75*
G02*
X157000000Y-81500000I600000J0D01*
G01*
X157000000Y-92500000D02*
G75*
G02*
X155800000Y-92500000I-600000J0D01*
G01*
X155800000Y-92500000D02*
G75*
G02*
X157000000Y-92500000I600000J0D01*
G01*
%TD*%
D14*
X92000000Y-129000000D02*
G75*
G02*
X90000000Y-129000000I-1000000J0D01*
G01*
X90000000Y-129000000D02*
G75*
G02*
X92000000Y-129000000I1000000J0D01*
G01*
X92000000Y-70000000D02*
G75*
G02*
X90000000Y-70000000I-1000000J0D01*
G01*
X90000000Y-70000000D02*
G75*
G02*
X92000000Y-70000000I1000000J0D01*
G01*
X214000000Y-70000000D02*
G75*
G02*
X212000000Y-70000000I-1000000J0D01*
G01*
X212000000Y-70000000D02*
G75*
G02*
X214000000Y-70000000I1000000J0D01*
G01*
X214000000Y-129000000D02*
G75*
G02*
X212000000Y-129000000I-1000000J0D01*
G01*
X212000000Y-129000000D02*
G75*
G02*
X214000000Y-129000000I1000000J0D01*
G01*
X89000000Y-68000000D02*
X215000000Y-68000000D01*
X215000000Y-131000000D01*
X89000000Y-131000000D01*
X89000000Y-68000000D01*
M02*
