%TF.GenerationSoftware,KiCad,Pcbnew,8.0.6-8.0.6-0~ubuntu22.04.1*%
%TF.CreationDate,2024-11-01T09:16:27+07:00*%
%TF.ProjectId,projectGATE,70726f6a-6563-4744-9741-54452e6b6963,rev?*%
%TF.SameCoordinates,Original*%
%TF.FileFunction,AssemblyDrawing,Bot*%
%FSLAX46Y46*%
G04 Gerber Fmt 4.6, Leading zero omitted, Abs format (unit mm)*
G04 Created by KiCad (PCBNEW 8.0.6-8.0.6-0~ubuntu22.04.1) date 2024-11-01 09:16:27*
%MOMM*%
%LPD*%
G01*
G04 APERTURE LIST*
%ADD10C,0.100000*%
%TA.AperFunction,Profile*%
%ADD11C,0.050000*%
%TD*%
G04 APERTURE END LIST*
D10*
%TO.C,D3*%
X171900000Y-80820000D02*
X171900000Y-83020000D01*
X174100000Y-83020000D01*
X174100000Y-80820000D01*
X171900000Y-80820000D01*
X173000000Y-90980000D02*
X173000000Y-90980000D01*
X173000000Y-93180000D02*
G75*
G02*
X173000000Y-90980000I0J1100000D01*
G01*
X173000000Y-93180000D02*
X173000000Y-93180000D01*
X173000000Y-93180000D02*
G75*
G03*
X173000000Y-90980000I0J1100000D01*
G01*
%TD*%
%TO.C,D2*%
X196214000Y-103500000D02*
G75*
G02*
X194706000Y-103500000I-754000J0D01*
G01*
X194706000Y-103500000D02*
G75*
G02*
X196214000Y-103500000I754000J0D01*
G01*
X193674000Y-103500000D02*
G75*
G02*
X192166000Y-103500000I-754000J0D01*
G01*
X192166000Y-103500000D02*
G75*
G02*
X193674000Y-103500000I754000J0D01*
G01*
%TD*%
%TO.C,U4*%
X115797500Y-122750000D02*
X115797500Y-124750000D01*
X117702500Y-124750000D01*
X117702500Y-122750000D01*
X115797500Y-122750000D01*
X115162500Y-123797500D02*
X115162500Y-123702500D01*
X113257500Y-123702500D02*
G75*
G02*
X115162500Y-123702500I952500J0D01*
G01*
X113257500Y-123702500D02*
X113257500Y-123797500D01*
X113257500Y-123797500D02*
G75*
G03*
X115162500Y-123797500I952500J0D01*
G01*
X112622500Y-123797500D02*
X112622500Y-123702500D01*
X110717500Y-123702500D02*
G75*
G02*
X112622500Y-123702500I952500J0D01*
G01*
X110717500Y-123702500D02*
X110717500Y-123797500D01*
X110717500Y-123797500D02*
G75*
G03*
X112622500Y-123797500I952500J0D01*
G01*
%TD*%
%TO.C,R7*%
X158600000Y-121500000D02*
G75*
G02*
X157400000Y-121500000I-600000J0D01*
G01*
X157400000Y-121500000D02*
G75*
G02*
X158600000Y-121500000I600000J0D01*
G01*
X158600000Y-110500000D02*
G75*
G02*
X157400000Y-110500000I-600000J0D01*
G01*
X157400000Y-110500000D02*
G75*
G02*
X158600000Y-110500000I600000J0D01*
G01*
%TD*%
%TO.C,U1*%
X123085000Y-75945000D02*
X123085000Y-77475000D01*
X124615000Y-77475000D01*
X124615000Y-75945000D01*
X123085000Y-75945000D01*
X124615000Y-79250000D02*
G75*
G02*
X123085000Y-79250000I-765000J0D01*
G01*
X123085000Y-79250000D02*
G75*
G02*
X124615000Y-79250000I765000J0D01*
G01*
X124615000Y-81790000D02*
G75*
G02*
X123085000Y-81790000I-765000J0D01*
G01*
X123085000Y-81790000D02*
G75*
G02*
X124615000Y-81790000I765000J0D01*
G01*
X124615000Y-84330000D02*
G75*
G02*
X123085000Y-84330000I-765000J0D01*
G01*
X123085000Y-84330000D02*
G75*
G02*
X124615000Y-84330000I765000J0D01*
G01*
X124615000Y-86870000D02*
G75*
G02*
X123085000Y-86870000I-765000J0D01*
G01*
X123085000Y-86870000D02*
G75*
G02*
X124615000Y-86870000I765000J0D01*
G01*
X124615000Y-89410000D02*
G75*
G02*
X123085000Y-89410000I-765000J0D01*
G01*
X123085000Y-89410000D02*
G75*
G02*
X124615000Y-89410000I765000J0D01*
G01*
X124615000Y-91950000D02*
G75*
G02*
X123085000Y-91950000I-765000J0D01*
G01*
X123085000Y-91950000D02*
G75*
G02*
X124615000Y-91950000I765000J0D01*
G01*
X124615000Y-94490000D02*
G75*
G02*
X123085000Y-94490000I-765000J0D01*
G01*
X123085000Y-94490000D02*
G75*
G02*
X124615000Y-94490000I765000J0D01*
G01*
X124615000Y-97030000D02*
G75*
G02*
X123085000Y-97030000I-765000J0D01*
G01*
X123085000Y-97030000D02*
G75*
G02*
X124615000Y-97030000I765000J0D01*
G01*
X124615000Y-99570000D02*
G75*
G02*
X123085000Y-99570000I-765000J0D01*
G01*
X123085000Y-99570000D02*
G75*
G02*
X124615000Y-99570000I765000J0D01*
G01*
X124615000Y-102110000D02*
G75*
G02*
X123085000Y-102110000I-765000J0D01*
G01*
X123085000Y-102110000D02*
G75*
G02*
X124615000Y-102110000I765000J0D01*
G01*
X124615000Y-104650000D02*
G75*
G02*
X123085000Y-104650000I-765000J0D01*
G01*
X123085000Y-104650000D02*
G75*
G02*
X124615000Y-104650000I765000J0D01*
G01*
X124615000Y-107190000D02*
G75*
G02*
X123085000Y-107190000I-765000J0D01*
G01*
X123085000Y-107190000D02*
G75*
G02*
X124615000Y-107190000I765000J0D01*
G01*
X124615000Y-109730000D02*
G75*
G02*
X123085000Y-109730000I-765000J0D01*
G01*
X123085000Y-109730000D02*
G75*
G02*
X124615000Y-109730000I765000J0D01*
G01*
X124615000Y-112270000D02*
G75*
G02*
X123085000Y-112270000I-765000J0D01*
G01*
X123085000Y-112270000D02*
G75*
G02*
X124615000Y-112270000I765000J0D01*
G01*
X124615000Y-114810000D02*
G75*
G02*
X123085000Y-114810000I-765000J0D01*
G01*
X123085000Y-114810000D02*
G75*
G02*
X124615000Y-114810000I765000J0D01*
G01*
X124615000Y-117350000D02*
G75*
G02*
X123085000Y-117350000I-765000J0D01*
G01*
X123085000Y-117350000D02*
G75*
G02*
X124615000Y-117350000I765000J0D01*
G01*
X124615000Y-119890000D02*
G75*
G02*
X123085000Y-119890000I-765000J0D01*
G01*
X123085000Y-119890000D02*
G75*
G02*
X124615000Y-119890000I765000J0D01*
G01*
X124615000Y-122430000D02*
G75*
G02*
X123085000Y-122430000I-765000J0D01*
G01*
X123085000Y-122430000D02*
G75*
G02*
X124615000Y-122430000I765000J0D01*
G01*
X150015000Y-122430000D02*
G75*
G02*
X148485000Y-122430000I-765000J0D01*
G01*
X148485000Y-122430000D02*
G75*
G02*
X150015000Y-122430000I765000J0D01*
G01*
X150015000Y-119890000D02*
G75*
G02*
X148485000Y-119890000I-765000J0D01*
G01*
X148485000Y-119890000D02*
G75*
G02*
X150015000Y-119890000I765000J0D01*
G01*
X150015000Y-117350000D02*
G75*
G02*
X148485000Y-117350000I-765000J0D01*
G01*
X148485000Y-117350000D02*
G75*
G02*
X150015000Y-117350000I765000J0D01*
G01*
X150015000Y-114810000D02*
G75*
G02*
X148485000Y-114810000I-765000J0D01*
G01*
X148485000Y-114810000D02*
G75*
G02*
X150015000Y-114810000I765000J0D01*
G01*
X150015000Y-112270000D02*
G75*
G02*
X148485000Y-112270000I-765000J0D01*
G01*
X148485000Y-112270000D02*
G75*
G02*
X150015000Y-112270000I765000J0D01*
G01*
X150015000Y-109730000D02*
G75*
G02*
X148485000Y-109730000I-765000J0D01*
G01*
X148485000Y-109730000D02*
G75*
G02*
X150015000Y-109730000I765000J0D01*
G01*
X150015000Y-107190000D02*
G75*
G02*
X148485000Y-107190000I-765000J0D01*
G01*
X148485000Y-107190000D02*
G75*
G02*
X150015000Y-107190000I765000J0D01*
G01*
X150015000Y-104650000D02*
G75*
G02*
X148485000Y-104650000I-765000J0D01*
G01*
X148485000Y-104650000D02*
G75*
G02*
X150015000Y-104650000I765000J0D01*
G01*
X150015000Y-102110000D02*
G75*
G02*
X148485000Y-102110000I-765000J0D01*
G01*
X148485000Y-102110000D02*
G75*
G02*
X150015000Y-102110000I765000J0D01*
G01*
X150015000Y-99570000D02*
G75*
G02*
X148485000Y-99570000I-765000J0D01*
G01*
X148485000Y-99570000D02*
G75*
G02*
X150015000Y-99570000I765000J0D01*
G01*
X150015000Y-97030000D02*
G75*
G02*
X148485000Y-97030000I-765000J0D01*
G01*
X148485000Y-97030000D02*
G75*
G02*
X150015000Y-97030000I765000J0D01*
G01*
X150015000Y-94490000D02*
G75*
G02*
X148485000Y-94490000I-765000J0D01*
G01*
X148485000Y-94490000D02*
G75*
G02*
X150015000Y-94490000I765000J0D01*
G01*
X150015000Y-91950000D02*
G75*
G02*
X148485000Y-91950000I-765000J0D01*
G01*
X148485000Y-91950000D02*
G75*
G02*
X150015000Y-91950000I765000J0D01*
G01*
X150015000Y-89410000D02*
G75*
G02*
X148485000Y-89410000I-765000J0D01*
G01*
X148485000Y-89410000D02*
G75*
G02*
X150015000Y-89410000I765000J0D01*
G01*
X150015000Y-86870000D02*
G75*
G02*
X148485000Y-86870000I-765000J0D01*
G01*
X148485000Y-86870000D02*
G75*
G02*
X150015000Y-86870000I765000J0D01*
G01*
X150015000Y-84330000D02*
G75*
G02*
X148485000Y-84330000I-765000J0D01*
G01*
X148485000Y-84330000D02*
G75*
G02*
X150015000Y-84330000I765000J0D01*
G01*
X150015000Y-81790000D02*
G75*
G02*
X148485000Y-81790000I-765000J0D01*
G01*
X148485000Y-81790000D02*
G75*
G02*
X150015000Y-81790000I765000J0D01*
G01*
X150015000Y-79250000D02*
G75*
G02*
X148485000Y-79250000I-765000J0D01*
G01*
X148485000Y-79250000D02*
G75*
G02*
X150015000Y-79250000I765000J0D01*
G01*
X150015000Y-76710000D02*
G75*
G02*
X148485000Y-76710000I-765000J0D01*
G01*
X148485000Y-76710000D02*
G75*
G02*
X150015000Y-76710000I765000J0D01*
G01*
%TD*%
%TO.C,PS1*%
X115625000Y-84625000D02*
X115625000Y-86875000D01*
X117875000Y-86875000D01*
X117875000Y-84625000D01*
X115625000Y-84625000D01*
X97555000Y-85750000D02*
G75*
G02*
X95305000Y-85750000I-1125000J0D01*
G01*
X95305000Y-85750000D02*
G75*
G02*
X97555000Y-85750000I1125000J0D01*
G01*
X107715000Y-118750000D02*
G75*
G02*
X105465000Y-118750000I-1125000J0D01*
G01*
X105465000Y-118750000D02*
G75*
G02*
X107715000Y-118750000I1125000J0D01*
G01*
X117875000Y-118750000D02*
G75*
G02*
X115625000Y-118750000I-1125000J0D01*
G01*
X115625000Y-118750000D02*
G75*
G02*
X117875000Y-118750000I1125000J0D01*
G01*
%TD*%
%TO.C,J2*%
X204800000Y-90880000D02*
X204800000Y-93280000D01*
X207200000Y-93280000D01*
X207200000Y-90880000D01*
X204800000Y-90880000D01*
X207200000Y-87000000D02*
G75*
G02*
X204800000Y-87000000I-1200000J0D01*
G01*
X204800000Y-87000000D02*
G75*
G02*
X207200000Y-87000000I1200000J0D01*
G01*
X207200000Y-81920000D02*
G75*
G02*
X204800000Y-81920000I-1200000J0D01*
G01*
X204800000Y-81920000D02*
G75*
G02*
X207200000Y-81920000I1200000J0D01*
G01*
%TD*%
%TO.C,U2*%
X156400000Y-72895000D02*
X156400000Y-74495000D01*
X158000000Y-74495000D01*
X158000000Y-72895000D01*
X156400000Y-72895000D01*
X156400000Y-76235000D02*
X156400000Y-76235000D01*
X158000000Y-76235000D02*
G75*
G02*
X156400000Y-76235000I-800000J0D01*
G01*
X158000000Y-76235000D02*
X158000000Y-76235000D01*
X158000000Y-76235000D02*
G75*
G03*
X156400000Y-76235000I-800000J0D01*
G01*
X164020000Y-76235000D02*
X164020000Y-76235000D01*
X165620000Y-76235000D02*
G75*
G02*
X164020000Y-76235000I-800000J0D01*
G01*
X165620000Y-76235000D02*
X165620000Y-76235000D01*
X165620000Y-76235000D02*
G75*
G03*
X164020000Y-76235000I-800000J0D01*
G01*
X164020000Y-73695000D02*
X164020000Y-73695000D01*
X165620000Y-73695000D02*
G75*
G02*
X164020000Y-73695000I-800000J0D01*
G01*
X165620000Y-73695000D02*
X165620000Y-73695000D01*
X165620000Y-73695000D02*
G75*
G03*
X164020000Y-73695000I-800000J0D01*
G01*
%TD*%
%TO.C,R12*%
X190290000Y-103500000D02*
G75*
G02*
X189090000Y-103500000I-600000J0D01*
G01*
X189090000Y-103500000D02*
G75*
G02*
X190290000Y-103500000I600000J0D01*
G01*
X179290000Y-103500000D02*
G75*
G02*
X178090000Y-103500000I-600000J0D01*
G01*
X178090000Y-103500000D02*
G75*
G02*
X179290000Y-103500000I600000J0D01*
G01*
%TD*%
%TO.C,K2*%
X182010000Y-108010000D02*
X182010000Y-109990000D01*
X183990000Y-109990000D01*
X183990000Y-108010000D01*
X182010000Y-108010000D01*
X183990000Y-121000000D02*
G75*
G02*
X182010000Y-121000000I-990000J0D01*
G01*
X182010000Y-121000000D02*
G75*
G02*
X183990000Y-121000000I990000J0D01*
G01*
X181967500Y-115000000D02*
G75*
G02*
X180032500Y-115000000I-967500J0D01*
G01*
X180032500Y-115000000D02*
G75*
G02*
X181967500Y-115000000I967500J0D01*
G01*
X196190000Y-109000000D02*
G75*
G02*
X194210000Y-109000000I-990000J0D01*
G01*
X194210000Y-109000000D02*
G75*
G02*
X196190000Y-109000000I990000J0D01*
G01*
X196190000Y-121000000D02*
G75*
G02*
X194210000Y-121000000I-990000J0D01*
G01*
X194210000Y-121000000D02*
G75*
G02*
X196190000Y-121000000I990000J0D01*
G01*
%TD*%
%TO.C,Q2*%
X172745000Y-102750000D02*
X172745000Y-104250000D01*
X173795000Y-104250000D01*
X173795000Y-102750000D01*
X172745000Y-102750000D01*
X172525000Y-103725000D02*
X172525000Y-103275000D01*
X171475000Y-103275000D02*
G75*
G02*
X172525000Y-103275000I525000J0D01*
G01*
X171475000Y-103275000D02*
X171475000Y-103725000D01*
X171475000Y-103725000D02*
G75*
G03*
X172525000Y-103725000I525000J0D01*
G01*
X171255000Y-103725000D02*
X171255000Y-103275000D01*
X170205000Y-103275000D02*
G75*
G02*
X171255000Y-103275000I525000J0D01*
G01*
X170205000Y-103275000D02*
X170205000Y-103725000D01*
X170205000Y-103725000D02*
G75*
G03*
X171255000Y-103725000I525000J0D01*
G01*
%TD*%
%TO.C,D1*%
X196354000Y-75000000D02*
G75*
G02*
X194846000Y-75000000I-754000J0D01*
G01*
X194846000Y-75000000D02*
G75*
G02*
X196354000Y-75000000I754000J0D01*
G01*
X193814000Y-75000000D02*
G75*
G02*
X192306000Y-75000000I-754000J0D01*
G01*
X192306000Y-75000000D02*
G75*
G02*
X193814000Y-75000000I754000J0D01*
G01*
%TD*%
%TO.C,J1*%
X100300000Y-75550000D02*
X100300000Y-77950000D01*
X102700000Y-77950000D01*
X102700000Y-75550000D01*
X100300000Y-75550000D01*
X97620000Y-76750000D02*
G75*
G02*
X95220000Y-76750000I-1200000J0D01*
G01*
X95220000Y-76750000D02*
G75*
G02*
X97620000Y-76750000I1200000J0D01*
G01*
%TD*%
%TO.C,U3*%
X156400000Y-101925000D02*
X156400000Y-103525000D01*
X158000000Y-103525000D01*
X158000000Y-101925000D01*
X156400000Y-101925000D01*
X156400000Y-105265000D02*
X156400000Y-105265000D01*
X158000000Y-105265000D02*
G75*
G02*
X156400000Y-105265000I-800000J0D01*
G01*
X158000000Y-105265000D02*
X158000000Y-105265000D01*
X158000000Y-105265000D02*
G75*
G03*
X156400000Y-105265000I-800000J0D01*
G01*
X164020000Y-105265000D02*
X164020000Y-105265000D01*
X165620000Y-105265000D02*
G75*
G02*
X164020000Y-105265000I-800000J0D01*
G01*
X165620000Y-105265000D02*
X165620000Y-105265000D01*
X165620000Y-105265000D02*
G75*
G03*
X164020000Y-105265000I-800000J0D01*
G01*
X164020000Y-102725000D02*
X164020000Y-102725000D01*
X165620000Y-102725000D02*
G75*
G02*
X164020000Y-102725000I-800000J0D01*
G01*
X165620000Y-102725000D02*
X165620000Y-102725000D01*
X165620000Y-102725000D02*
G75*
G03*
X164020000Y-102725000I-800000J0D01*
G01*
%TD*%
%TO.C,R10*%
X190200000Y-75000000D02*
G75*
G02*
X189000000Y-75000000I-600000J0D01*
G01*
X189000000Y-75000000D02*
G75*
G02*
X190200000Y-75000000I600000J0D01*
G01*
X179200000Y-75000000D02*
G75*
G02*
X178000000Y-75000000I-600000J0D01*
G01*
X178000000Y-75000000D02*
G75*
G02*
X179200000Y-75000000I600000J0D01*
G01*
%TD*%
%TO.C,K1*%
X181910000Y-80010000D02*
X181910000Y-81990000D01*
X183890000Y-81990000D01*
X183890000Y-80010000D01*
X181910000Y-80010000D01*
X183890000Y-93000000D02*
G75*
G02*
X181910000Y-93000000I-990000J0D01*
G01*
X181910000Y-93000000D02*
G75*
G02*
X183890000Y-93000000I990000J0D01*
G01*
X181867500Y-87000000D02*
G75*
G02*
X179932500Y-87000000I-967500J0D01*
G01*
X179932500Y-87000000D02*
G75*
G02*
X181867500Y-87000000I967500J0D01*
G01*
X196090000Y-81000000D02*
G75*
G02*
X194110000Y-81000000I-990000J0D01*
G01*
X194110000Y-81000000D02*
G75*
G02*
X196090000Y-81000000I990000J0D01*
G01*
X196090000Y-93000000D02*
G75*
G02*
X194110000Y-93000000I-990000J0D01*
G01*
X194110000Y-93000000D02*
G75*
G02*
X196090000Y-93000000I990000J0D01*
G01*
%TD*%
%TO.C,R11*%
X165400000Y-110500000D02*
G75*
G02*
X164200000Y-110500000I-600000J0D01*
G01*
X164200000Y-110500000D02*
G75*
G02*
X165400000Y-110500000I600000J0D01*
G01*
X165400000Y-121500000D02*
G75*
G02*
X164200000Y-121500000I-600000J0D01*
G01*
X164200000Y-121500000D02*
G75*
G02*
X165400000Y-121500000I600000J0D01*
G01*
%TD*%
%TO.C,Q1*%
X173075000Y-74250000D02*
X173075000Y-75750000D01*
X174125000Y-75750000D01*
X174125000Y-74250000D01*
X173075000Y-74250000D01*
X172855000Y-75225000D02*
X172855000Y-74775000D01*
X171805000Y-74775000D02*
G75*
G02*
X172855000Y-74775000I525000J0D01*
G01*
X171805000Y-74775000D02*
X171805000Y-75225000D01*
X171805000Y-75225000D02*
G75*
G03*
X172855000Y-75225000I525000J0D01*
G01*
X171585000Y-75225000D02*
X171585000Y-74775000D01*
X170535000Y-74775000D02*
G75*
G02*
X171585000Y-74775000I525000J0D01*
G01*
X170535000Y-74775000D02*
X170535000Y-75225000D01*
X170535000Y-75225000D02*
G75*
G03*
X171585000Y-75225000I525000J0D01*
G01*
%TD*%
%TO.C,D4*%
X172590000Y-109320000D02*
X172590000Y-111520000D01*
X174790000Y-111520000D01*
X174790000Y-109320000D01*
X172590000Y-109320000D01*
X173690000Y-119480000D02*
X173690000Y-119480000D01*
X173690000Y-121680000D02*
G75*
G02*
X173690000Y-119480000I0J1100000D01*
G01*
X173690000Y-121680000D02*
X173690000Y-121680000D01*
X173690000Y-121680000D02*
G75*
G03*
X173690000Y-119480000I0J1100000D01*
G01*
%TD*%
%TO.C,J3*%
X204800000Y-118880000D02*
X204800000Y-121280000D01*
X207200000Y-121280000D01*
X207200000Y-118880000D01*
X204800000Y-118880000D01*
X207200000Y-115000000D02*
G75*
G02*
X204800000Y-115000000I-1200000J0D01*
G01*
X204800000Y-115000000D02*
G75*
G02*
X207200000Y-115000000I1200000J0D01*
G01*
X207200000Y-109920000D02*
G75*
G02*
X204800000Y-109920000I-1200000J0D01*
G01*
X204800000Y-109920000D02*
G75*
G02*
X207200000Y-109920000I1200000J0D01*
G01*
%TD*%
%TO.C,R9*%
X167200000Y-92500000D02*
G75*
G02*
X166000000Y-92500000I-600000J0D01*
G01*
X166000000Y-92500000D02*
G75*
G02*
X167200000Y-92500000I600000J0D01*
G01*
X167200000Y-81500000D02*
G75*
G02*
X166000000Y-81500000I-600000J0D01*
G01*
X166000000Y-81500000D02*
G75*
G02*
X167200000Y-81500000I600000J0D01*
G01*
%TD*%
%TO.C,R8*%
X157000000Y-81500000D02*
G75*
G02*
X155800000Y-81500000I-600000J0D01*
G01*
X155800000Y-81500000D02*
G75*
G02*
X157000000Y-81500000I600000J0D01*
G01*
X157000000Y-92500000D02*
G75*
G02*
X155800000Y-92500000I-600000J0D01*
G01*
X155800000Y-92500000D02*
G75*
G02*
X157000000Y-92500000I600000J0D01*
G01*
%TD*%
D11*
X92000000Y-129000000D02*
G75*
G02*
X90000000Y-129000000I-1000000J0D01*
G01*
X90000000Y-129000000D02*
G75*
G02*
X92000000Y-129000000I1000000J0D01*
G01*
X92000000Y-70000000D02*
G75*
G02*
X90000000Y-70000000I-1000000J0D01*
G01*
X90000000Y-70000000D02*
G75*
G02*
X92000000Y-70000000I1000000J0D01*
G01*
X214000000Y-70000000D02*
G75*
G02*
X212000000Y-70000000I-1000000J0D01*
G01*
X212000000Y-70000000D02*
G75*
G02*
X214000000Y-70000000I1000000J0D01*
G01*
X214000000Y-129000000D02*
G75*
G02*
X212000000Y-129000000I-1000000J0D01*
G01*
X212000000Y-129000000D02*
G75*
G02*
X214000000Y-129000000I1000000J0D01*
G01*
X89000000Y-68000000D02*
X215000000Y-68000000D01*
X215000000Y-131000000D01*
X89000000Y-131000000D01*
X89000000Y-68000000D01*
M02*
