%TF.GenerationSoftware,KiCad,Pcbnew,8.0.6-8.0.6-0~ubuntu22.04.1*%
%TF.CreationDate,2024-11-01T09:16:27+07:00*%
%TF.ProjectId,projectGATE,70726f6a-6563-4744-9741-54452e6b6963,rev?*%
%TF.SameCoordinates,Original*%
%TF.FileFunction,Legend,Top*%
%TF.FilePolarity,Positive*%
%FSLAX46Y46*%
G04 Gerber Fmt 4.6, Leading zero omitted, Abs format (unit mm)*
G04 Created by KiCad (PCBNEW 8.0.6-8.0.6-0~ubuntu22.04.1) date 2024-11-01 09:16:27*
%MOMM*%
%LPD*%
G01*
G04 APERTURE LIST*
G04 Aperture macros list*
%AMRoundRect*
0 Rectangle with rounded corners*
0 $1 Rounding radius*
0 $2 $3 $4 $5 $6 $7 $8 $9 X,Y pos of 4 corners*
0 Add a 4 corners polygon primitive as box body*
4,1,4,$2,$3,$4,$5,$6,$7,$8,$9,$2,$3,0*
0 Add four circle primitives for the rounded corners*
1,1,$1+$1,$2,$3*
1,1,$1+$1,$4,$5*
1,1,$1+$1,$6,$7*
1,1,$1+$1,$8,$9*
0 Add four rect primitives between the rounded corners*
20,1,$1+$1,$2,$3,$4,$5,0*
20,1,$1+$1,$4,$5,$6,$7,0*
20,1,$1+$1,$6,$7,$8,$9,0*
20,1,$1+$1,$8,$9,$2,$3,0*%
G04 Aperture macros list end*
%ADD10C,0.150000*%
%ADD11C,0.120000*%
%ADD12C,0.200000*%
%ADD13C,0.220000*%
%ADD14C,0.127000*%
%ADD15C,0.300000*%
%ADD16R,2.200000X2.200000*%
%ADD17O,2.200000X2.200000*%
%ADD18C,1.712000*%
%ADD19R,1.905000X2.000000*%
%ADD20O,1.905000X2.000000*%
%ADD21C,1.404000*%
%ADD22RoundRect,0.102000X-0.765000X-0.765000X0.765000X-0.765000X0.765000X0.765000X-0.765000X0.765000X0*%
%ADD23C,1.734000*%
%ADD24RoundRect,0.102000X-1.125000X1.125000X-1.125000X-1.125000X1.125000X-1.125000X1.125000X1.125000X0*%
%ADD25C,2.454000*%
%ADD26RoundRect,0.102000X1.200000X-1.200000X1.200000X1.200000X-1.200000X1.200000X-1.200000X-1.200000X0*%
%ADD27C,2.604000*%
%ADD28R,1.600000X1.600000*%
%ADD29O,1.600000X1.600000*%
%ADD30RoundRect,0.102000X-0.990000X-0.990000X0.990000X-0.990000X0.990000X0.990000X-0.990000X0.990000X0*%
%ADD31C,2.184000*%
%ADD32C,2.139000*%
%ADD33R,1.050000X1.500000*%
%ADD34O,1.050000X1.500000*%
%ADD35RoundRect,0.102000X1.200000X1.200000X-1.200000X1.200000X-1.200000X-1.200000X1.200000X-1.200000X0*%
%TA.AperFunction,Profile*%
%ADD36C,0.050000*%
%TD*%
G04 APERTURE END LIST*
D10*
X175924819Y-87738094D02*
X174924819Y-87738094D01*
X174924819Y-87738094D02*
X174924819Y-87499999D01*
X174924819Y-87499999D02*
X174972438Y-87357142D01*
X174972438Y-87357142D02*
X175067676Y-87261904D01*
X175067676Y-87261904D02*
X175162914Y-87214285D01*
X175162914Y-87214285D02*
X175353390Y-87166666D01*
X175353390Y-87166666D02*
X175496247Y-87166666D01*
X175496247Y-87166666D02*
X175686723Y-87214285D01*
X175686723Y-87214285D02*
X175781961Y-87261904D01*
X175781961Y-87261904D02*
X175877200Y-87357142D01*
X175877200Y-87357142D02*
X175924819Y-87499999D01*
X175924819Y-87499999D02*
X175924819Y-87738094D01*
X174924819Y-86833332D02*
X174924819Y-86214285D01*
X174924819Y-86214285D02*
X175305771Y-86547618D01*
X175305771Y-86547618D02*
X175305771Y-86404761D01*
X175305771Y-86404761D02*
X175353390Y-86309523D01*
X175353390Y-86309523D02*
X175401009Y-86261904D01*
X175401009Y-86261904D02*
X175496247Y-86214285D01*
X175496247Y-86214285D02*
X175734342Y-86214285D01*
X175734342Y-86214285D02*
X175829580Y-86261904D01*
X175829580Y-86261904D02*
X175877200Y-86309523D01*
X175877200Y-86309523D02*
X175924819Y-86404761D01*
X175924819Y-86404761D02*
X175924819Y-86690475D01*
X175924819Y-86690475D02*
X175877200Y-86785713D01*
X175877200Y-86785713D02*
X175829580Y-86833332D01*
X175554819Y-82181904D02*
X174554819Y-82181904D01*
X175554819Y-81610476D02*
X174983390Y-82039047D01*
X174554819Y-81610476D02*
X175126247Y-82181904D01*
X193451905Y-107089819D02*
X193451905Y-106089819D01*
X193451905Y-106089819D02*
X193690000Y-106089819D01*
X193690000Y-106089819D02*
X193832857Y-106137438D01*
X193832857Y-106137438D02*
X193928095Y-106232676D01*
X193928095Y-106232676D02*
X193975714Y-106327914D01*
X193975714Y-106327914D02*
X194023333Y-106518390D01*
X194023333Y-106518390D02*
X194023333Y-106661247D01*
X194023333Y-106661247D02*
X193975714Y-106851723D01*
X193975714Y-106851723D02*
X193928095Y-106946961D01*
X193928095Y-106946961D02*
X193832857Y-107042200D01*
X193832857Y-107042200D02*
X193690000Y-107089819D01*
X193690000Y-107089819D02*
X193451905Y-107089819D01*
X194404286Y-106185057D02*
X194451905Y-106137438D01*
X194451905Y-106137438D02*
X194547143Y-106089819D01*
X194547143Y-106089819D02*
X194785238Y-106089819D01*
X194785238Y-106089819D02*
X194880476Y-106137438D01*
X194880476Y-106137438D02*
X194928095Y-106185057D01*
X194928095Y-106185057D02*
X194975714Y-106280295D01*
X194975714Y-106280295D02*
X194975714Y-106375533D01*
X194975714Y-106375533D02*
X194928095Y-106518390D01*
X194928095Y-106518390D02*
X194356667Y-107089819D01*
X194356667Y-107089819D02*
X194975714Y-107089819D01*
X196785238Y-103457533D02*
X197394762Y-103457533D01*
X197090000Y-103762295D02*
X197090000Y-103152771D01*
X111598095Y-125719819D02*
X111598095Y-126529342D01*
X111598095Y-126529342D02*
X111645714Y-126624580D01*
X111645714Y-126624580D02*
X111693333Y-126672200D01*
X111693333Y-126672200D02*
X111788571Y-126719819D01*
X111788571Y-126719819D02*
X111979047Y-126719819D01*
X111979047Y-126719819D02*
X112074285Y-126672200D01*
X112074285Y-126672200D02*
X112121904Y-126624580D01*
X112121904Y-126624580D02*
X112169523Y-126529342D01*
X112169523Y-126529342D02*
X112169523Y-125719819D01*
X113074285Y-126053152D02*
X113074285Y-126719819D01*
X112836190Y-125672200D02*
X112598095Y-126386485D01*
X112598095Y-126386485D02*
X113217142Y-126386485D01*
X158454819Y-117166666D02*
X157978628Y-117499999D01*
X158454819Y-117738094D02*
X157454819Y-117738094D01*
X157454819Y-117738094D02*
X157454819Y-117357142D01*
X157454819Y-117357142D02*
X157502438Y-117261904D01*
X157502438Y-117261904D02*
X157550057Y-117214285D01*
X157550057Y-117214285D02*
X157645295Y-117166666D01*
X157645295Y-117166666D02*
X157788152Y-117166666D01*
X157788152Y-117166666D02*
X157883390Y-117214285D01*
X157883390Y-117214285D02*
X157931009Y-117261904D01*
X157931009Y-117261904D02*
X157978628Y-117357142D01*
X157978628Y-117357142D02*
X157978628Y-117738094D01*
X157454819Y-116833332D02*
X157454819Y-116166666D01*
X157454819Y-116166666D02*
X158454819Y-116595237D01*
X135788095Y-99014819D02*
X135788095Y-99824342D01*
X135788095Y-99824342D02*
X135835714Y-99919580D01*
X135835714Y-99919580D02*
X135883333Y-99967200D01*
X135883333Y-99967200D02*
X135978571Y-100014819D01*
X135978571Y-100014819D02*
X136169047Y-100014819D01*
X136169047Y-100014819D02*
X136264285Y-99967200D01*
X136264285Y-99967200D02*
X136311904Y-99919580D01*
X136311904Y-99919580D02*
X136359523Y-99824342D01*
X136359523Y-99824342D02*
X136359523Y-99014819D01*
X137359523Y-100014819D02*
X136788095Y-100014819D01*
X137073809Y-100014819D02*
X137073809Y-99014819D01*
X137073809Y-99014819D02*
X136978571Y-99157676D01*
X136978571Y-99157676D02*
X136883333Y-99252914D01*
X136883333Y-99252914D02*
X136788095Y-99300533D01*
X110439819Y-102909285D02*
X109439819Y-102909285D01*
X109439819Y-102909285D02*
X109439819Y-102528333D01*
X109439819Y-102528333D02*
X109487438Y-102433095D01*
X109487438Y-102433095D02*
X109535057Y-102385476D01*
X109535057Y-102385476D02*
X109630295Y-102337857D01*
X109630295Y-102337857D02*
X109773152Y-102337857D01*
X109773152Y-102337857D02*
X109868390Y-102385476D01*
X109868390Y-102385476D02*
X109916009Y-102433095D01*
X109916009Y-102433095D02*
X109963628Y-102528333D01*
X109963628Y-102528333D02*
X109963628Y-102909285D01*
X110392200Y-101956904D02*
X110439819Y-101814047D01*
X110439819Y-101814047D02*
X110439819Y-101575952D01*
X110439819Y-101575952D02*
X110392200Y-101480714D01*
X110392200Y-101480714D02*
X110344580Y-101433095D01*
X110344580Y-101433095D02*
X110249342Y-101385476D01*
X110249342Y-101385476D02*
X110154104Y-101385476D01*
X110154104Y-101385476D02*
X110058866Y-101433095D01*
X110058866Y-101433095D02*
X110011247Y-101480714D01*
X110011247Y-101480714D02*
X109963628Y-101575952D01*
X109963628Y-101575952D02*
X109916009Y-101766428D01*
X109916009Y-101766428D02*
X109868390Y-101861666D01*
X109868390Y-101861666D02*
X109820771Y-101909285D01*
X109820771Y-101909285D02*
X109725533Y-101956904D01*
X109725533Y-101956904D02*
X109630295Y-101956904D01*
X109630295Y-101956904D02*
X109535057Y-101909285D01*
X109535057Y-101909285D02*
X109487438Y-101861666D01*
X109487438Y-101861666D02*
X109439819Y-101766428D01*
X109439819Y-101766428D02*
X109439819Y-101528333D01*
X109439819Y-101528333D02*
X109487438Y-101385476D01*
X110439819Y-100433095D02*
X110439819Y-101004523D01*
X110439819Y-100718809D02*
X109439819Y-100718809D01*
X109439819Y-100718809D02*
X109582676Y-100814047D01*
X109582676Y-100814047D02*
X109677914Y-100909285D01*
X109677914Y-100909285D02*
X109725533Y-101004523D01*
X160248095Y-70819819D02*
X160248095Y-71629342D01*
X160248095Y-71629342D02*
X160295714Y-71724580D01*
X160295714Y-71724580D02*
X160343333Y-71772200D01*
X160343333Y-71772200D02*
X160438571Y-71819819D01*
X160438571Y-71819819D02*
X160629047Y-71819819D01*
X160629047Y-71819819D02*
X160724285Y-71772200D01*
X160724285Y-71772200D02*
X160771904Y-71724580D01*
X160771904Y-71724580D02*
X160819523Y-71629342D01*
X160819523Y-71629342D02*
X160819523Y-70819819D01*
X161248095Y-70915057D02*
X161295714Y-70867438D01*
X161295714Y-70867438D02*
X161390952Y-70819819D01*
X161390952Y-70819819D02*
X161629047Y-70819819D01*
X161629047Y-70819819D02*
X161724285Y-70867438D01*
X161724285Y-70867438D02*
X161771904Y-70915057D01*
X161771904Y-70915057D02*
X161819523Y-71010295D01*
X161819523Y-71010295D02*
X161819523Y-71105533D01*
X161819523Y-71105533D02*
X161771904Y-71248390D01*
X161771904Y-71248390D02*
X161200476Y-71819819D01*
X161200476Y-71819819D02*
X161819523Y-71819819D01*
X183547142Y-103954819D02*
X183213809Y-103478628D01*
X182975714Y-103954819D02*
X182975714Y-102954819D01*
X182975714Y-102954819D02*
X183356666Y-102954819D01*
X183356666Y-102954819D02*
X183451904Y-103002438D01*
X183451904Y-103002438D02*
X183499523Y-103050057D01*
X183499523Y-103050057D02*
X183547142Y-103145295D01*
X183547142Y-103145295D02*
X183547142Y-103288152D01*
X183547142Y-103288152D02*
X183499523Y-103383390D01*
X183499523Y-103383390D02*
X183451904Y-103431009D01*
X183451904Y-103431009D02*
X183356666Y-103478628D01*
X183356666Y-103478628D02*
X182975714Y-103478628D01*
X184499523Y-103954819D02*
X183928095Y-103954819D01*
X184213809Y-103954819D02*
X184213809Y-102954819D01*
X184213809Y-102954819D02*
X184118571Y-103097676D01*
X184118571Y-103097676D02*
X184023333Y-103192914D01*
X184023333Y-103192914D02*
X183928095Y-103240533D01*
X184880476Y-103050057D02*
X184928095Y-103002438D01*
X184928095Y-103002438D02*
X185023333Y-102954819D01*
X185023333Y-102954819D02*
X185261428Y-102954819D01*
X185261428Y-102954819D02*
X185356666Y-103002438D01*
X185356666Y-103002438D02*
X185404285Y-103050057D01*
X185404285Y-103050057D02*
X185451904Y-103145295D01*
X185451904Y-103145295D02*
X185451904Y-103240533D01*
X185451904Y-103240533D02*
X185404285Y-103383390D01*
X185404285Y-103383390D02*
X184832857Y-103954819D01*
X184832857Y-103954819D02*
X185451904Y-103954819D01*
X189261835Y-113454863D02*
X189261835Y-112454769D01*
X189833317Y-113454863D02*
X189404706Y-112883381D01*
X189833317Y-112454769D02*
X189261835Y-113026251D01*
X190214306Y-112550016D02*
X190261929Y-112502393D01*
X190261929Y-112502393D02*
X190357176Y-112454769D01*
X190357176Y-112454769D02*
X190595294Y-112454769D01*
X190595294Y-112454769D02*
X190690541Y-112502393D01*
X190690541Y-112502393D02*
X190738164Y-112550016D01*
X190738164Y-112550016D02*
X190785788Y-112645263D01*
X190785788Y-112645263D02*
X190785788Y-112740510D01*
X190785788Y-112740510D02*
X190738164Y-112883381D01*
X190738164Y-112883381D02*
X190166682Y-113454863D01*
X190166682Y-113454863D02*
X190785788Y-113454863D01*
X171904761Y-107610057D02*
X171809523Y-107562438D01*
X171809523Y-107562438D02*
X171714285Y-107467200D01*
X171714285Y-107467200D02*
X171571428Y-107324342D01*
X171571428Y-107324342D02*
X171476190Y-107276723D01*
X171476190Y-107276723D02*
X171380952Y-107276723D01*
X171428571Y-107514819D02*
X171333333Y-107467200D01*
X171333333Y-107467200D02*
X171238095Y-107371961D01*
X171238095Y-107371961D02*
X171190476Y-107181485D01*
X171190476Y-107181485D02*
X171190476Y-106848152D01*
X171190476Y-106848152D02*
X171238095Y-106657676D01*
X171238095Y-106657676D02*
X171333333Y-106562438D01*
X171333333Y-106562438D02*
X171428571Y-106514819D01*
X171428571Y-106514819D02*
X171619047Y-106514819D01*
X171619047Y-106514819D02*
X171714285Y-106562438D01*
X171714285Y-106562438D02*
X171809523Y-106657676D01*
X171809523Y-106657676D02*
X171857142Y-106848152D01*
X171857142Y-106848152D02*
X171857142Y-107181485D01*
X171857142Y-107181485D02*
X171809523Y-107371961D01*
X171809523Y-107371961D02*
X171714285Y-107467200D01*
X171714285Y-107467200D02*
X171619047Y-107514819D01*
X171619047Y-107514819D02*
X171428571Y-107514819D01*
X172238095Y-106610057D02*
X172285714Y-106562438D01*
X172285714Y-106562438D02*
X172380952Y-106514819D01*
X172380952Y-106514819D02*
X172619047Y-106514819D01*
X172619047Y-106514819D02*
X172714285Y-106562438D01*
X172714285Y-106562438D02*
X172761904Y-106610057D01*
X172761904Y-106610057D02*
X172809523Y-106705295D01*
X172809523Y-106705295D02*
X172809523Y-106800533D01*
X172809523Y-106800533D02*
X172761904Y-106943390D01*
X172761904Y-106943390D02*
X172190476Y-107514819D01*
X172190476Y-107514819D02*
X172809523Y-107514819D01*
X193591905Y-78589819D02*
X193591905Y-77589819D01*
X193591905Y-77589819D02*
X193830000Y-77589819D01*
X193830000Y-77589819D02*
X193972857Y-77637438D01*
X193972857Y-77637438D02*
X194068095Y-77732676D01*
X194068095Y-77732676D02*
X194115714Y-77827914D01*
X194115714Y-77827914D02*
X194163333Y-78018390D01*
X194163333Y-78018390D02*
X194163333Y-78161247D01*
X194163333Y-78161247D02*
X194115714Y-78351723D01*
X194115714Y-78351723D02*
X194068095Y-78446961D01*
X194068095Y-78446961D02*
X193972857Y-78542200D01*
X193972857Y-78542200D02*
X193830000Y-78589819D01*
X193830000Y-78589819D02*
X193591905Y-78589819D01*
X195115714Y-78589819D02*
X194544286Y-78589819D01*
X194830000Y-78589819D02*
X194830000Y-77589819D01*
X194830000Y-77589819D02*
X194734762Y-77732676D01*
X194734762Y-77732676D02*
X194639524Y-77827914D01*
X194639524Y-77827914D02*
X194544286Y-77875533D01*
X196925238Y-74957533D02*
X197534762Y-74957533D01*
X197230000Y-75262295D02*
X197230000Y-74652771D01*
X98330833Y-78314866D02*
X98330833Y-79314866D01*
X98330833Y-79314866D02*
X98264166Y-79514866D01*
X98264166Y-79514866D02*
X98130833Y-79648200D01*
X98130833Y-79648200D02*
X97930833Y-79714866D01*
X97930833Y-79714866D02*
X97797500Y-79714866D01*
X99730833Y-79714866D02*
X98930833Y-79714866D01*
X99330833Y-79714866D02*
X99330833Y-78314866D01*
X99330833Y-78314866D02*
X99197500Y-78514866D01*
X99197500Y-78514866D02*
X99064167Y-78648200D01*
X99064167Y-78648200D02*
X98930833Y-78714866D01*
X160248095Y-99849819D02*
X160248095Y-100659342D01*
X160248095Y-100659342D02*
X160295714Y-100754580D01*
X160295714Y-100754580D02*
X160343333Y-100802200D01*
X160343333Y-100802200D02*
X160438571Y-100849819D01*
X160438571Y-100849819D02*
X160629047Y-100849819D01*
X160629047Y-100849819D02*
X160724285Y-100802200D01*
X160724285Y-100802200D02*
X160771904Y-100754580D01*
X160771904Y-100754580D02*
X160819523Y-100659342D01*
X160819523Y-100659342D02*
X160819523Y-99849819D01*
X161200476Y-99849819D02*
X161819523Y-99849819D01*
X161819523Y-99849819D02*
X161486190Y-100230771D01*
X161486190Y-100230771D02*
X161629047Y-100230771D01*
X161629047Y-100230771D02*
X161724285Y-100278390D01*
X161724285Y-100278390D02*
X161771904Y-100326009D01*
X161771904Y-100326009D02*
X161819523Y-100421247D01*
X161819523Y-100421247D02*
X161819523Y-100659342D01*
X161819523Y-100659342D02*
X161771904Y-100754580D01*
X161771904Y-100754580D02*
X161724285Y-100802200D01*
X161724285Y-100802200D02*
X161629047Y-100849819D01*
X161629047Y-100849819D02*
X161343333Y-100849819D01*
X161343333Y-100849819D02*
X161248095Y-100802200D01*
X161248095Y-100802200D02*
X161200476Y-100754580D01*
X183457142Y-75454819D02*
X183123809Y-74978628D01*
X182885714Y-75454819D02*
X182885714Y-74454819D01*
X182885714Y-74454819D02*
X183266666Y-74454819D01*
X183266666Y-74454819D02*
X183361904Y-74502438D01*
X183361904Y-74502438D02*
X183409523Y-74550057D01*
X183409523Y-74550057D02*
X183457142Y-74645295D01*
X183457142Y-74645295D02*
X183457142Y-74788152D01*
X183457142Y-74788152D02*
X183409523Y-74883390D01*
X183409523Y-74883390D02*
X183361904Y-74931009D01*
X183361904Y-74931009D02*
X183266666Y-74978628D01*
X183266666Y-74978628D02*
X182885714Y-74978628D01*
X184409523Y-75454819D02*
X183838095Y-75454819D01*
X184123809Y-75454819D02*
X184123809Y-74454819D01*
X184123809Y-74454819D02*
X184028571Y-74597676D01*
X184028571Y-74597676D02*
X183933333Y-74692914D01*
X183933333Y-74692914D02*
X183838095Y-74740533D01*
X185028571Y-74454819D02*
X185123809Y-74454819D01*
X185123809Y-74454819D02*
X185219047Y-74502438D01*
X185219047Y-74502438D02*
X185266666Y-74550057D01*
X185266666Y-74550057D02*
X185314285Y-74645295D01*
X185314285Y-74645295D02*
X185361904Y-74835771D01*
X185361904Y-74835771D02*
X185361904Y-75073866D01*
X185361904Y-75073866D02*
X185314285Y-75264342D01*
X185314285Y-75264342D02*
X185266666Y-75359580D01*
X185266666Y-75359580D02*
X185219047Y-75407200D01*
X185219047Y-75407200D02*
X185123809Y-75454819D01*
X185123809Y-75454819D02*
X185028571Y-75454819D01*
X185028571Y-75454819D02*
X184933333Y-75407200D01*
X184933333Y-75407200D02*
X184885714Y-75359580D01*
X184885714Y-75359580D02*
X184838095Y-75264342D01*
X184838095Y-75264342D02*
X184790476Y-75073866D01*
X184790476Y-75073866D02*
X184790476Y-74835771D01*
X184790476Y-74835771D02*
X184838095Y-74645295D01*
X184838095Y-74645295D02*
X184885714Y-74550057D01*
X184885714Y-74550057D02*
X184933333Y-74502438D01*
X184933333Y-74502438D02*
X185028571Y-74454819D01*
X189261835Y-84454863D02*
X189261835Y-83454769D01*
X189833317Y-84454863D02*
X189404706Y-83883381D01*
X189833317Y-83454769D02*
X189261835Y-84026251D01*
X190785788Y-84454863D02*
X190214306Y-84454863D01*
X190500047Y-84454863D02*
X190500047Y-83454769D01*
X190500047Y-83454769D02*
X190404800Y-83597640D01*
X190404800Y-83597640D02*
X190309553Y-83692887D01*
X190309553Y-83692887D02*
X190214306Y-83740510D01*
X165454819Y-117642857D02*
X164978628Y-117976190D01*
X165454819Y-118214285D02*
X164454819Y-118214285D01*
X164454819Y-118214285D02*
X164454819Y-117833333D01*
X164454819Y-117833333D02*
X164502438Y-117738095D01*
X164502438Y-117738095D02*
X164550057Y-117690476D01*
X164550057Y-117690476D02*
X164645295Y-117642857D01*
X164645295Y-117642857D02*
X164788152Y-117642857D01*
X164788152Y-117642857D02*
X164883390Y-117690476D01*
X164883390Y-117690476D02*
X164931009Y-117738095D01*
X164931009Y-117738095D02*
X164978628Y-117833333D01*
X164978628Y-117833333D02*
X164978628Y-118214285D01*
X165454819Y-116690476D02*
X165454819Y-117261904D01*
X165454819Y-116976190D02*
X164454819Y-116976190D01*
X164454819Y-116976190D02*
X164597676Y-117071428D01*
X164597676Y-117071428D02*
X164692914Y-117166666D01*
X164692914Y-117166666D02*
X164740533Y-117261904D01*
X165454819Y-115738095D02*
X165454819Y-116309523D01*
X165454819Y-116023809D02*
X164454819Y-116023809D01*
X164454819Y-116023809D02*
X164597676Y-116119047D01*
X164597676Y-116119047D02*
X164692914Y-116214285D01*
X164692914Y-116214285D02*
X164740533Y-116309523D01*
X172234761Y-79110057D02*
X172139523Y-79062438D01*
X172139523Y-79062438D02*
X172044285Y-78967200D01*
X172044285Y-78967200D02*
X171901428Y-78824342D01*
X171901428Y-78824342D02*
X171806190Y-78776723D01*
X171806190Y-78776723D02*
X171710952Y-78776723D01*
X171758571Y-79014819D02*
X171663333Y-78967200D01*
X171663333Y-78967200D02*
X171568095Y-78871961D01*
X171568095Y-78871961D02*
X171520476Y-78681485D01*
X171520476Y-78681485D02*
X171520476Y-78348152D01*
X171520476Y-78348152D02*
X171568095Y-78157676D01*
X171568095Y-78157676D02*
X171663333Y-78062438D01*
X171663333Y-78062438D02*
X171758571Y-78014819D01*
X171758571Y-78014819D02*
X171949047Y-78014819D01*
X171949047Y-78014819D02*
X172044285Y-78062438D01*
X172044285Y-78062438D02*
X172139523Y-78157676D01*
X172139523Y-78157676D02*
X172187142Y-78348152D01*
X172187142Y-78348152D02*
X172187142Y-78681485D01*
X172187142Y-78681485D02*
X172139523Y-78871961D01*
X172139523Y-78871961D02*
X172044285Y-78967200D01*
X172044285Y-78967200D02*
X171949047Y-79014819D01*
X171949047Y-79014819D02*
X171758571Y-79014819D01*
X173139523Y-79014819D02*
X172568095Y-79014819D01*
X172853809Y-79014819D02*
X172853809Y-78014819D01*
X172853809Y-78014819D02*
X172758571Y-78157676D01*
X172758571Y-78157676D02*
X172663333Y-78252914D01*
X172663333Y-78252914D02*
X172568095Y-78300533D01*
X176244819Y-110681904D02*
X175244819Y-110681904D01*
X176244819Y-110110476D02*
X175673390Y-110539047D01*
X175244819Y-110110476D02*
X175816247Y-110681904D01*
X167454819Y-86166666D02*
X166978628Y-86499999D01*
X167454819Y-86738094D02*
X166454819Y-86738094D01*
X166454819Y-86738094D02*
X166454819Y-86357142D01*
X166454819Y-86357142D02*
X166502438Y-86261904D01*
X166502438Y-86261904D02*
X166550057Y-86214285D01*
X166550057Y-86214285D02*
X166645295Y-86166666D01*
X166645295Y-86166666D02*
X166788152Y-86166666D01*
X166788152Y-86166666D02*
X166883390Y-86214285D01*
X166883390Y-86214285D02*
X166931009Y-86261904D01*
X166931009Y-86261904D02*
X166978628Y-86357142D01*
X166978628Y-86357142D02*
X166978628Y-86738094D01*
X167454819Y-85690475D02*
X167454819Y-85499999D01*
X167454819Y-85499999D02*
X167407200Y-85404761D01*
X167407200Y-85404761D02*
X167359580Y-85357142D01*
X167359580Y-85357142D02*
X167216723Y-85261904D01*
X167216723Y-85261904D02*
X167026247Y-85214285D01*
X167026247Y-85214285D02*
X166645295Y-85214285D01*
X166645295Y-85214285D02*
X166550057Y-85261904D01*
X166550057Y-85261904D02*
X166502438Y-85309523D01*
X166502438Y-85309523D02*
X166454819Y-85404761D01*
X166454819Y-85404761D02*
X166454819Y-85595237D01*
X166454819Y-85595237D02*
X166502438Y-85690475D01*
X166502438Y-85690475D02*
X166550057Y-85738094D01*
X166550057Y-85738094D02*
X166645295Y-85785713D01*
X166645295Y-85785713D02*
X166883390Y-85785713D01*
X166883390Y-85785713D02*
X166978628Y-85738094D01*
X166978628Y-85738094D02*
X167026247Y-85690475D01*
X167026247Y-85690475D02*
X167073866Y-85595237D01*
X167073866Y-85595237D02*
X167073866Y-85404761D01*
X167073866Y-85404761D02*
X167026247Y-85309523D01*
X167026247Y-85309523D02*
X166978628Y-85261904D01*
X166978628Y-85261904D02*
X166883390Y-85214285D01*
X156854819Y-87166666D02*
X156378628Y-87499999D01*
X156854819Y-87738094D02*
X155854819Y-87738094D01*
X155854819Y-87738094D02*
X155854819Y-87357142D01*
X155854819Y-87357142D02*
X155902438Y-87261904D01*
X155902438Y-87261904D02*
X155950057Y-87214285D01*
X155950057Y-87214285D02*
X156045295Y-87166666D01*
X156045295Y-87166666D02*
X156188152Y-87166666D01*
X156188152Y-87166666D02*
X156283390Y-87214285D01*
X156283390Y-87214285D02*
X156331009Y-87261904D01*
X156331009Y-87261904D02*
X156378628Y-87357142D01*
X156378628Y-87357142D02*
X156378628Y-87738094D01*
X156283390Y-86595237D02*
X156235771Y-86690475D01*
X156235771Y-86690475D02*
X156188152Y-86738094D01*
X156188152Y-86738094D02*
X156092914Y-86785713D01*
X156092914Y-86785713D02*
X156045295Y-86785713D01*
X156045295Y-86785713D02*
X155950057Y-86738094D01*
X155950057Y-86738094D02*
X155902438Y-86690475D01*
X155902438Y-86690475D02*
X155854819Y-86595237D01*
X155854819Y-86595237D02*
X155854819Y-86404761D01*
X155854819Y-86404761D02*
X155902438Y-86309523D01*
X155902438Y-86309523D02*
X155950057Y-86261904D01*
X155950057Y-86261904D02*
X156045295Y-86214285D01*
X156045295Y-86214285D02*
X156092914Y-86214285D01*
X156092914Y-86214285D02*
X156188152Y-86261904D01*
X156188152Y-86261904D02*
X156235771Y-86309523D01*
X156235771Y-86309523D02*
X156283390Y-86404761D01*
X156283390Y-86404761D02*
X156283390Y-86595237D01*
X156283390Y-86595237D02*
X156331009Y-86690475D01*
X156331009Y-86690475D02*
X156378628Y-86738094D01*
X156378628Y-86738094D02*
X156473866Y-86785713D01*
X156473866Y-86785713D02*
X156664342Y-86785713D01*
X156664342Y-86785713D02*
X156759580Y-86738094D01*
X156759580Y-86738094D02*
X156807200Y-86690475D01*
X156807200Y-86690475D02*
X156854819Y-86595237D01*
X156854819Y-86595237D02*
X156854819Y-86404761D01*
X156854819Y-86404761D02*
X156807200Y-86309523D01*
X156807200Y-86309523D02*
X156759580Y-86261904D01*
X156759580Y-86261904D02*
X156664342Y-86214285D01*
X156664342Y-86214285D02*
X156473866Y-86214285D01*
X156473866Y-86214285D02*
X156378628Y-86261904D01*
X156378628Y-86261904D02*
X156331009Y-86309523D01*
X156331009Y-86309523D02*
X156283390Y-86404761D01*
D11*
%TO.C,D3*%
X171530000Y-84280000D02*
X171530000Y-89720000D01*
X171530000Y-89720000D02*
X174470000Y-89720000D01*
X173000000Y-83260000D02*
X173000000Y-84280000D01*
X173000000Y-90740000D02*
X173000000Y-89720000D01*
X174470000Y-84280000D02*
X171530000Y-84280000D01*
X174470000Y-85060000D02*
X171530000Y-85060000D01*
X174470000Y-85180000D02*
X171530000Y-85180000D01*
X174470000Y-85300000D02*
X171530000Y-85300000D01*
X174470000Y-89720000D02*
X174470000Y-84280000D01*
D12*
%TO.C,D2*%
X192590000Y-102500000D02*
X192590000Y-102180000D01*
X192590000Y-104500000D02*
X192590000Y-104820000D01*
D13*
X192589999Y-102180000D02*
G75*
G02*
X196120000Y-102730000I1599290J-1338561D01*
G01*
X196120000Y-104270000D02*
G75*
G02*
X192589999Y-104820000I-1930711J788561D01*
G01*
D11*
%TO.C,U4*%
X109090000Y-127020000D02*
X109090000Y-122379000D01*
X112359000Y-127020000D02*
X112359000Y-125510000D01*
X116060000Y-127020000D02*
X116060000Y-125510000D01*
X119330000Y-122379000D02*
X109090000Y-122379000D01*
X119330000Y-125510000D02*
X109090000Y-125510000D01*
X119330000Y-127020000D02*
X109090000Y-127020000D01*
X119330000Y-127020000D02*
X119330000Y-122379000D01*
D14*
%TO.C,R7*%
X156700000Y-112600000D02*
X156700000Y-119400000D01*
X156700000Y-119400000D02*
X158000000Y-119400000D01*
X158000000Y-111420000D02*
X158000000Y-112600000D01*
X158000000Y-112600000D02*
X156700000Y-112600000D01*
X158000000Y-119400000D02*
X159300000Y-119400000D01*
X158000000Y-120580000D02*
X158000000Y-119400000D01*
X159300000Y-112600000D02*
X158000000Y-112600000D01*
X159300000Y-119400000D02*
X159300000Y-112600000D01*
%TO.C,U1*%
X122600000Y-75460000D02*
X122600000Y-123660000D01*
X122600000Y-123660000D02*
X132480000Y-123660000D01*
X127550000Y-69260000D02*
X145550000Y-69260000D01*
X127550000Y-75460000D02*
X122600000Y-75460000D01*
X127550000Y-75460000D02*
X127550000Y-69260000D01*
X132480000Y-123660000D02*
X132480000Y-124560000D01*
X132480000Y-124560000D02*
X140610000Y-124560000D01*
X140610000Y-123660000D02*
X150500000Y-123660000D01*
X140610000Y-124560000D02*
X140610000Y-123660000D01*
X145550000Y-69260000D02*
X145550000Y-75460000D01*
X150500000Y-75460000D02*
X145550000Y-75460000D01*
X150500000Y-123660000D02*
X150500000Y-75460000D01*
D12*
X122080000Y-76590000D02*
G75*
G02*
X121880000Y-76590000I-100000J0D01*
G01*
X121880000Y-76590000D02*
G75*
G02*
X122080000Y-76590000I100000J0D01*
G01*
D14*
%TO.C,PS1*%
X93890000Y-83200000D02*
X119290000Y-83200000D01*
X93890000Y-121300000D02*
X93890000Y-83200000D01*
X119290000Y-83200000D02*
X119290000Y-121300000D01*
X119290000Y-121300000D02*
X93890000Y-121300000D01*
D12*
X116790000Y-82250000D02*
G75*
G02*
X116590000Y-82250000I-100000J0D01*
G01*
X116590000Y-82250000D02*
G75*
G02*
X116790000Y-82250000I100000J0D01*
G01*
D14*
%TO.C,J2*%
X201000000Y-79380000D02*
X211600000Y-79380000D01*
X201000000Y-94620000D02*
X201000000Y-79380000D01*
X211600000Y-79380000D02*
X211600000Y-94620000D01*
X211600000Y-94620000D02*
X201000000Y-94620000D01*
D12*
X200100000Y-92080000D02*
G75*
G02*
X199900000Y-92080000I-100000J0D01*
G01*
X199900000Y-92080000D02*
G75*
G02*
X200100000Y-92080000I100000J0D01*
G01*
D11*
%TO.C,U2*%
X158360000Y-72365000D02*
X158360000Y-77565000D01*
X158360000Y-77565000D02*
X163660000Y-77565000D01*
X160010000Y-72365000D02*
X158360000Y-72365000D01*
X163660000Y-72365000D02*
X162010000Y-72365000D01*
X163660000Y-77565000D02*
X163660000Y-72365000D01*
X162010000Y-72365000D02*
G75*
G02*
X160010000Y-72365000I-1000000J0D01*
G01*
D14*
%TO.C,R12*%
X179610000Y-103500000D02*
X180790000Y-103500000D01*
X180790000Y-102200000D02*
X180790000Y-103500000D01*
X180790000Y-103500000D02*
X180790000Y-104800000D01*
X180790000Y-104800000D02*
X187590000Y-104800000D01*
X187590000Y-102200000D02*
X180790000Y-102200000D01*
X187590000Y-103500000D02*
X187590000Y-102200000D01*
X187590000Y-104800000D02*
X187590000Y-103500000D01*
X188770000Y-103500000D02*
X187590000Y-103500000D01*
%TO.C,K2*%
X179550000Y-107250000D02*
X198650000Y-107250000D01*
X179550000Y-122750000D02*
X179550000Y-107250000D01*
X198650000Y-107250000D02*
X198650000Y-122750000D01*
X198650000Y-122750000D02*
X179550000Y-122750000D01*
D15*
X179000000Y-108881000D02*
G75*
G02*
X178800000Y-108881000I-100000J0D01*
G01*
X178800000Y-108881000D02*
G75*
G02*
X179000000Y-108881000I100000J0D01*
G01*
D11*
%TO.C,Q2*%
X173800000Y-101650000D02*
X170200000Y-101650000D01*
X172000000Y-106100000D02*
G75*
G02*
X170161522Y-101661522I0J2600000D01*
G01*
X173838478Y-101661522D02*
G75*
G02*
X172000000Y-106100001I-1838478J-1838478D01*
G01*
D12*
%TO.C,D1*%
X192730000Y-74000000D02*
X192730000Y-73680000D01*
X192730000Y-76000000D02*
X192730000Y-76320000D01*
D13*
X192729999Y-73680000D02*
G75*
G02*
X196260000Y-74230000I1599290J-1338561D01*
G01*
X196260000Y-75770000D02*
G75*
G02*
X192729999Y-76320000I-1930711J788561D01*
G01*
D14*
%TO.C,J1*%
X93880000Y-71150000D02*
X104040000Y-71150000D01*
X93880000Y-81750000D02*
X93880000Y-71150000D01*
X104040000Y-71150000D02*
X104040000Y-81750000D01*
X104040000Y-81750000D02*
X93880000Y-81750000D01*
D12*
X101600000Y-82750000D02*
G75*
G02*
X101400000Y-82750000I-100000J0D01*
G01*
X101400000Y-82750000D02*
G75*
G02*
X101600000Y-82750000I100000J0D01*
G01*
D11*
%TO.C,U3*%
X158360000Y-101395000D02*
X158360000Y-106595000D01*
X158360000Y-106595000D02*
X163660000Y-106595000D01*
X160010000Y-101395000D02*
X158360000Y-101395000D01*
X163660000Y-101395000D02*
X162010000Y-101395000D01*
X163660000Y-106595000D02*
X163660000Y-101395000D01*
X162010000Y-101395000D02*
G75*
G02*
X160010000Y-101395000I-1000000J0D01*
G01*
D14*
%TO.C,R10*%
X179520000Y-75000000D02*
X180700000Y-75000000D01*
X180700000Y-73700000D02*
X180700000Y-75000000D01*
X180700000Y-75000000D02*
X180700000Y-76300000D01*
X180700000Y-76300000D02*
X187500000Y-76300000D01*
X187500000Y-73700000D02*
X180700000Y-73700000D01*
X187500000Y-75000000D02*
X187500000Y-73700000D01*
X187500000Y-76300000D02*
X187500000Y-75000000D01*
X188680000Y-75000000D02*
X187500000Y-75000000D01*
%TO.C,K1*%
X179450000Y-79250000D02*
X198550000Y-79250000D01*
X179450000Y-94750000D02*
X179450000Y-79250000D01*
X198550000Y-79250000D02*
X198550000Y-94750000D01*
X198550000Y-94750000D02*
X179450000Y-94750000D01*
D15*
X178900000Y-80881000D02*
G75*
G02*
X178700000Y-80881000I-100000J0D01*
G01*
X178700000Y-80881000D02*
G75*
G02*
X178900000Y-80881000I100000J0D01*
G01*
D14*
%TO.C,R11*%
X163500000Y-112600000D02*
X163500000Y-119400000D01*
X163500000Y-119400000D02*
X164800000Y-119400000D01*
X164800000Y-111420000D02*
X164800000Y-112600000D01*
X164800000Y-112600000D02*
X163500000Y-112600000D01*
X164800000Y-119400000D02*
X166100000Y-119400000D01*
X164800000Y-120580000D02*
X164800000Y-119400000D01*
X166100000Y-112600000D02*
X164800000Y-112600000D01*
X166100000Y-119400000D02*
X166100000Y-112600000D01*
D11*
%TO.C,Q1*%
X174130000Y-73150000D02*
X170530000Y-73150000D01*
X172330000Y-77600000D02*
G75*
G02*
X170491522Y-73161522I0J2600000D01*
G01*
X174168478Y-73161522D02*
G75*
G02*
X172330000Y-77600001I-1838478J-1838478D01*
G01*
%TO.C,D4*%
X172220000Y-112780000D02*
X172220000Y-118220000D01*
X172220000Y-118220000D02*
X175160000Y-118220000D01*
X173690000Y-111760000D02*
X173690000Y-112780000D01*
X173690000Y-119240000D02*
X173690000Y-118220000D01*
X175160000Y-112780000D02*
X172220000Y-112780000D01*
X175160000Y-113560000D02*
X172220000Y-113560000D01*
X175160000Y-113680000D02*
X172220000Y-113680000D01*
X175160000Y-113800000D02*
X172220000Y-113800000D01*
X175160000Y-118220000D02*
X175160000Y-112780000D01*
D14*
%TO.C,J3*%
X201000000Y-107380000D02*
X211600000Y-107380000D01*
X201000000Y-122620000D02*
X201000000Y-107380000D01*
X211600000Y-107380000D02*
X211600000Y-122620000D01*
X211600000Y-122620000D02*
X201000000Y-122620000D01*
D12*
X200100000Y-120080000D02*
G75*
G02*
X199900000Y-120080000I-100000J0D01*
G01*
X199900000Y-120080000D02*
G75*
G02*
X200100000Y-120080000I100000J0D01*
G01*
D14*
%TO.C,R9*%
X165300000Y-83600000D02*
X165300000Y-90400000D01*
X165300000Y-90400000D02*
X166600000Y-90400000D01*
X166600000Y-82420000D02*
X166600000Y-83600000D01*
X166600000Y-83600000D02*
X165300000Y-83600000D01*
X166600000Y-90400000D02*
X167900000Y-90400000D01*
X166600000Y-91580000D02*
X166600000Y-90400000D01*
X167900000Y-83600000D02*
X166600000Y-83600000D01*
X167900000Y-90400000D02*
X167900000Y-83600000D01*
%TO.C,R8*%
X155100000Y-83600000D02*
X155100000Y-90400000D01*
X155100000Y-90400000D02*
X156400000Y-90400000D01*
X156400000Y-82420000D02*
X156400000Y-83600000D01*
X156400000Y-83600000D02*
X155100000Y-83600000D01*
X156400000Y-90400000D02*
X157700000Y-90400000D01*
X156400000Y-91580000D02*
X156400000Y-90400000D01*
X157700000Y-83600000D02*
X156400000Y-83600000D01*
X157700000Y-90400000D02*
X157700000Y-83600000D01*
%TD*%
%LPC*%
D16*
%TO.C,D3*%
X173000000Y-81920000D03*
D17*
X173000000Y-92080000D03*
%TD*%
D18*
%TO.C,D2*%
X195460000Y-103500000D03*
X192920000Y-103500000D03*
%TD*%
D19*
%TO.C,U4*%
X116750000Y-123750000D03*
D20*
X114210000Y-123750000D03*
X111670000Y-123750000D03*
%TD*%
D21*
%TO.C,R7*%
X158000000Y-121500000D03*
X158000000Y-110500000D03*
%TD*%
D22*
%TO.C,U1*%
X123850000Y-76710000D03*
D23*
X123850000Y-79250000D03*
X123850000Y-81790000D03*
X123850000Y-84330000D03*
X123850000Y-86870000D03*
X123850000Y-89410000D03*
X123850000Y-91950000D03*
X123850000Y-94490000D03*
X123850000Y-97030000D03*
X123850000Y-99570000D03*
X123850000Y-102110000D03*
X123850000Y-104650000D03*
X123850000Y-107190000D03*
X123850000Y-109730000D03*
X123850000Y-112270000D03*
X123850000Y-114810000D03*
X123850000Y-117350000D03*
X123850000Y-119890000D03*
X123850000Y-122430000D03*
X149250000Y-122430000D03*
X149250000Y-119890000D03*
X149250000Y-117350000D03*
X149250000Y-114810000D03*
X149250000Y-112270000D03*
X149250000Y-109730000D03*
X149250000Y-107190000D03*
X149250000Y-104650000D03*
X149250000Y-102110000D03*
X149250000Y-99570000D03*
X149250000Y-97030000D03*
X149250000Y-94490000D03*
X149250000Y-91950000D03*
X149250000Y-89410000D03*
X149250000Y-86870000D03*
X149250000Y-84330000D03*
X149250000Y-81790000D03*
X149250000Y-79250000D03*
X149250000Y-76710000D03*
%TD*%
D24*
%TO.C,PS1*%
X116750000Y-85750000D03*
D25*
X96430000Y-85750000D03*
X106590000Y-118750000D03*
X116750000Y-118750000D03*
%TD*%
D26*
%TO.C,J2*%
X206000000Y-92080000D03*
D27*
X206000000Y-87000000D03*
X206000000Y-81920000D03*
%TD*%
D28*
%TO.C,U2*%
X157200000Y-73695000D03*
D29*
X157200000Y-76235000D03*
X164820000Y-76235000D03*
X164820000Y-73695000D03*
%TD*%
D21*
%TO.C,R12*%
X189690000Y-103500000D03*
X178690000Y-103500000D03*
%TD*%
D30*
%TO.C,K2*%
X183000000Y-109000000D03*
D31*
X183000000Y-121000000D03*
D32*
X181000000Y-115000000D03*
D31*
X195200000Y-109000000D03*
X195200000Y-121000000D03*
%TD*%
D33*
%TO.C,Q2*%
X173270000Y-103500000D03*
D34*
X172000000Y-103500000D03*
X170730000Y-103500000D03*
%TD*%
D18*
%TO.C,D1*%
X195600000Y-75000000D03*
X193060000Y-75000000D03*
%TD*%
D35*
%TO.C,J1*%
X101500000Y-76750000D03*
D27*
X96420000Y-76750000D03*
%TD*%
D28*
%TO.C,U3*%
X157200000Y-102725000D03*
D29*
X157200000Y-105265000D03*
X164820000Y-105265000D03*
X164820000Y-102725000D03*
%TD*%
D21*
%TO.C,R10*%
X189600000Y-75000000D03*
X178600000Y-75000000D03*
%TD*%
D30*
%TO.C,K1*%
X182900000Y-81000000D03*
D31*
X182900000Y-93000000D03*
D32*
X180900000Y-87000000D03*
D31*
X195100000Y-81000000D03*
X195100000Y-93000000D03*
%TD*%
D21*
%TO.C,R11*%
X164800000Y-110500000D03*
X164800000Y-121500000D03*
%TD*%
D33*
%TO.C,Q1*%
X173600000Y-75000000D03*
D34*
X172330000Y-75000000D03*
X171060000Y-75000000D03*
%TD*%
D16*
%TO.C,D4*%
X173690000Y-110420000D03*
D17*
X173690000Y-120580000D03*
%TD*%
D26*
%TO.C,J3*%
X206000000Y-120080000D03*
D27*
X206000000Y-115000000D03*
X206000000Y-109920000D03*
%TD*%
D21*
%TO.C,R9*%
X166600000Y-92500000D03*
X166600000Y-81500000D03*
%TD*%
%TO.C,R8*%
X156400000Y-81500000D03*
X156400000Y-92500000D03*
%TD*%
%LPD*%
D36*
X92000000Y-129000000D02*
G75*
G02*
X90000000Y-129000000I-1000000J0D01*
G01*
X90000000Y-129000000D02*
G75*
G02*
X92000000Y-129000000I1000000J0D01*
G01*
X92000000Y-70000000D02*
G75*
G02*
X90000000Y-70000000I-1000000J0D01*
G01*
X90000000Y-70000000D02*
G75*
G02*
X92000000Y-70000000I1000000J0D01*
G01*
X214000000Y-70000000D02*
G75*
G02*
X212000000Y-70000000I-1000000J0D01*
G01*
X212000000Y-70000000D02*
G75*
G02*
X214000000Y-70000000I1000000J0D01*
G01*
X214000000Y-129000000D02*
G75*
G02*
X212000000Y-129000000I-1000000J0D01*
G01*
X212000000Y-129000000D02*
G75*
G02*
X214000000Y-129000000I1000000J0D01*
G01*
X89000000Y-68000000D02*
X215000000Y-68000000D01*
X215000000Y-131000000D01*
X89000000Y-131000000D01*
X89000000Y-68000000D01*
M02*
