%TF.GenerationSoftware,KiCad,Pcbnew,8.0.6-8.0.6-0~ubuntu22.04.1*%
%TF.CreationDate,2024-11-01T09:16:27+07:00*%
%TF.ProjectId,projectGATE,70726f6a-6563-4744-9741-54452e6b6963,rev?*%
%TF.SameCoordinates,Original*%
%TF.FileFunction,Copper,L1,Top*%
%TF.FilePolarity,Positive*%
%FSLAX46Y46*%
G04 Gerber Fmt 4.6, Leading zero omitted, Abs format (unit mm)*
G04 Created by KiCad (PCBNEW 8.0.6-8.0.6-0~ubuntu22.04.1) date 2024-11-01 09:16:27*
%MOMM*%
%LPD*%
G01*
G04 APERTURE LIST*
%TA.AperFunction,ComponentPad*%
%ADD10R,2.200000X2.200000*%
%TD*%
%TA.AperFunction,ComponentPad*%
%ADD11O,2.200000X2.200000*%
%TD*%
%TA.AperFunction,ComponentPad*%
%ADD12C,1.508000*%
%TD*%
%TA.AperFunction,ComponentPad*%
%ADD13R,1.905000X2.000000*%
%TD*%
%TA.AperFunction,ComponentPad*%
%ADD14O,1.905000X2.000000*%
%TD*%
%TA.AperFunction,ComponentPad*%
%ADD15C,1.200000*%
%TD*%
%TA.AperFunction,ComponentPad*%
%ADD16R,1.530000X1.530000*%
%TD*%
%TA.AperFunction,ComponentPad*%
%ADD17C,1.530000*%
%TD*%
%TA.AperFunction,ComponentPad*%
%ADD18R,2.250000X2.250000*%
%TD*%
%TA.AperFunction,ComponentPad*%
%ADD19C,2.250000*%
%TD*%
%TA.AperFunction,ComponentPad*%
%ADD20R,2.400000X2.400000*%
%TD*%
%TA.AperFunction,ComponentPad*%
%ADD21C,2.400000*%
%TD*%
%TA.AperFunction,ComponentPad*%
%ADD22R,1.600000X1.600000*%
%TD*%
%TA.AperFunction,ComponentPad*%
%ADD23O,1.600000X1.600000*%
%TD*%
%TA.AperFunction,ComponentPad*%
%ADD24R,1.980000X1.980000*%
%TD*%
%TA.AperFunction,ComponentPad*%
%ADD25C,1.980000*%
%TD*%
%TA.AperFunction,ComponentPad*%
%ADD26C,1.935000*%
%TD*%
%TA.AperFunction,ComponentPad*%
%ADD27R,1.050000X1.500000*%
%TD*%
%TA.AperFunction,ComponentPad*%
%ADD28O,1.050000X1.500000*%
%TD*%
%TA.AperFunction,Profile*%
%ADD29C,0.050000*%
%TD*%
G04 APERTURE END LIST*
D10*
%TO.P,D3,1,K*%
%TO.N,5V*%
X173000000Y-81920000D03*
D11*
%TO.P,D3,2,A*%
%TO.N,Net-(D3-A)*%
X173000000Y-92080000D03*
%TD*%
D12*
%TO.P,D2,1*%
%TO.N,5V*%
X195460000Y-103500000D03*
%TO.P,D2,2*%
%TO.N,Net-(D2-Pad2)*%
X192920000Y-103500000D03*
%TD*%
D13*
%TO.P,U4,1,VI*%
%TO.N,Net-(PS1-+VO)*%
X116750000Y-123750000D03*
D14*
%TO.P,U4,2,GND*%
%TO.N,GND*%
X114210000Y-123750000D03*
%TO.P,U4,3,VO*%
%TO.N,5V*%
X111670000Y-123750000D03*
%TD*%
D15*
%TO.P,R7,1*%
%TO.N,Net-(U1-IO22)*%
X158000000Y-121500000D03*
%TO.P,R7,2*%
%TO.N,Net-(R7-Pad2)*%
X158000000Y-110500000D03*
%TD*%
D16*
%TO.P,U1,1,3V3*%
%TO.N,unconnected-(U1-3V3-Pad1)*%
X123850000Y-76710000D03*
D17*
%TO.P,U1,2,EN*%
%TO.N,unconnected-(U1-EN-Pad2)*%
X123850000Y-79250000D03*
%TO.P,U1,3,SENSOR_VP*%
%TO.N,unconnected-(U1-SENSOR_VP-Pad3)*%
X123850000Y-81790000D03*
%TO.P,U1,4,SENSOR_VN*%
%TO.N,unconnected-(U1-SENSOR_VN-Pad4)*%
X123850000Y-84330000D03*
%TO.P,U1,5,IO34*%
%TO.N,unconnected-(U1-IO34-Pad5)*%
X123850000Y-86870000D03*
%TO.P,U1,6,IO35*%
%TO.N,unconnected-(U1-IO35-Pad6)*%
X123850000Y-89410000D03*
%TO.P,U1,7,IO32*%
%TO.N,unconnected-(U1-IO32-Pad7)*%
X123850000Y-91950000D03*
%TO.P,U1,8,IO33*%
%TO.N,unconnected-(U1-IO33-Pad8)*%
X123850000Y-94490000D03*
%TO.P,U1,9,IO25*%
%TO.N,unconnected-(U1-IO25-Pad9)*%
X123850000Y-97030000D03*
%TO.P,U1,10,IO26*%
%TO.N,unconnected-(U1-IO26-Pad10)*%
X123850000Y-99570000D03*
%TO.P,U1,11,IO27*%
%TO.N,unconnected-(U1-IO27-Pad11)*%
X123850000Y-102110000D03*
%TO.P,U1,12,IO14*%
%TO.N,unconnected-(U1-IO14-Pad12)*%
X123850000Y-104650000D03*
%TO.P,U1,13,IO12*%
%TO.N,unconnected-(U1-IO12-Pad13)*%
X123850000Y-107190000D03*
%TO.P,U1,14,GND1*%
%TO.N,GND*%
X123850000Y-109730000D03*
%TO.P,U1,15,IO13*%
%TO.N,unconnected-(U1-IO13-Pad15)*%
X123850000Y-112270000D03*
%TO.P,U1,16,SD2*%
%TO.N,unconnected-(U1-SD2-Pad16)*%
X123850000Y-114810000D03*
%TO.P,U1,17,SD3*%
%TO.N,unconnected-(U1-SD3-Pad17)*%
X123850000Y-117350000D03*
%TO.P,U1,18,CMD*%
%TO.N,unconnected-(U1-CMD-Pad18)*%
X123850000Y-119890000D03*
%TO.P,U1,19,EXT_5V*%
%TO.N,5V*%
X123850000Y-122430000D03*
%TO.P,U1,20,CLK*%
%TO.N,unconnected-(U1-CLK-Pad20)*%
X149250000Y-122430000D03*
%TO.P,U1,21,SD0*%
%TO.N,unconnected-(U1-SD0-Pad21)*%
X149250000Y-119890000D03*
%TO.P,U1,22,SD1*%
%TO.N,unconnected-(U1-SD1-Pad22)*%
X149250000Y-117350000D03*
%TO.P,U1,23,IO15*%
%TO.N,unconnected-(U1-IO15-Pad23)*%
X149250000Y-114810000D03*
%TO.P,U1,24,IO2*%
%TO.N,unconnected-(U1-IO2-Pad24)*%
X149250000Y-112270000D03*
%TO.P,U1,25,IO0*%
%TO.N,unconnected-(U1-IO0-Pad25)*%
X149250000Y-109730000D03*
%TO.P,U1,26,IO4*%
%TO.N,unconnected-(U1-IO4-Pad26)*%
X149250000Y-107190000D03*
%TO.P,U1,27,IO16*%
%TO.N,unconnected-(U1-IO16-Pad27)*%
X149250000Y-104650000D03*
%TO.P,U1,28,IO17*%
%TO.N,unconnected-(U1-IO17-Pad28)*%
X149250000Y-102110000D03*
%TO.P,U1,29,IO5*%
%TO.N,unconnected-(U1-IO5-Pad29)*%
X149250000Y-99570000D03*
%TO.P,U1,30,IO18*%
%TO.N,unconnected-(U1-IO18-Pad30)*%
X149250000Y-97030000D03*
%TO.P,U1,31,IO19*%
%TO.N,unconnected-(U1-IO19-Pad31)*%
X149250000Y-94490000D03*
%TO.P,U1,32,GND2*%
%TO.N,GND*%
X149250000Y-91950000D03*
%TO.P,U1,33,IO21*%
%TO.N,unconnected-(U1-IO21-Pad33)*%
X149250000Y-89410000D03*
%TO.P,U1,34,RXD0*%
%TO.N,unconnected-(U1-RXD0-Pad34)*%
X149250000Y-86870000D03*
%TO.P,U1,35,TXD0*%
%TO.N,unconnected-(U1-TXD0-Pad35)*%
X149250000Y-84330000D03*
%TO.P,U1,36,IO22*%
%TO.N,Net-(U1-IO22)*%
X149250000Y-81790000D03*
%TO.P,U1,37,IO23*%
%TO.N,Net-(U1-IO23)*%
X149250000Y-79250000D03*
%TO.P,U1,38,GND3*%
%TO.N,unconnected-(U1-GND3-Pad38)*%
X149250000Y-76710000D03*
%TD*%
D18*
%TO.P,PS1,1,AC(N)*%
%TO.N,Net-(PS1-AC(N))*%
X116750000Y-85750000D03*
D19*
%TO.P,PS1,2,AC(L)*%
%TO.N,Net-(PS1-AC(L))*%
X96430000Y-85750000D03*
%TO.P,PS1,3,-VO*%
%TO.N,GND*%
X106590000Y-118750000D03*
%TO.P,PS1,4,+VO*%
%TO.N,Net-(PS1-+VO)*%
X116750000Y-118750000D03*
%TD*%
D20*
%TO.P,J2,1,1*%
%TO.N,Net-(J2-Pad1)*%
X206000000Y-92080000D03*
D21*
%TO.P,J2,2,2*%
%TO.N,Net-(J2-Pad2)*%
X206000000Y-87000000D03*
%TO.P,J2,3,3*%
%TO.N,Net-(J2-Pad3)*%
X206000000Y-81920000D03*
%TD*%
D22*
%TO.P,U2,1*%
%TO.N,Net-(R8-Pad2)*%
X157200000Y-73695000D03*
D23*
%TO.P,U2,2*%
%TO.N,GND*%
X157200000Y-76235000D03*
%TO.P,U2,3*%
%TO.N,Net-(Q1-B)*%
X164820000Y-76235000D03*
%TO.P,U2,4*%
%TO.N,Net-(R9-Pad1)*%
X164820000Y-73695000D03*
%TD*%
D15*
%TO.P,R12,1*%
%TO.N,Net-(D2-Pad2)*%
X189690000Y-103500000D03*
%TO.P,R12,2*%
%TO.N,Net-(D4-A)*%
X178690000Y-103500000D03*
%TD*%
D24*
%TO.P,K2,A1*%
%TO.N,5V*%
X183000000Y-109000000D03*
D25*
%TO.P,K2,A2*%
%TO.N,Net-(D4-A)*%
X183000000Y-121000000D03*
D26*
%TO.P,K2,COM*%
%TO.N,Net-(J3-Pad2)*%
X181000000Y-115000000D03*
D25*
%TO.P,K2,NC*%
%TO.N,Net-(J3-Pad3)*%
X195200000Y-109000000D03*
%TO.P,K2,NO*%
%TO.N,Net-(J3-Pad1)*%
X195200000Y-121000000D03*
%TD*%
D27*
%TO.P,Q2,1,C*%
%TO.N,Net-(D4-A)*%
X173270000Y-103500000D03*
D28*
%TO.P,Q2,2,B*%
%TO.N,Net-(Q2-B)*%
X172000000Y-103500000D03*
%TO.P,Q2,3,E*%
%TO.N,GND*%
X170730000Y-103500000D03*
%TD*%
D12*
%TO.P,D1,1*%
%TO.N,5V*%
X195600000Y-75000000D03*
%TO.P,D1,2*%
%TO.N,Net-(D1-Pad2)*%
X193060000Y-75000000D03*
%TD*%
D20*
%TO.P,J1,1,1*%
%TO.N,Net-(PS1-AC(N))*%
X101500000Y-76750000D03*
D21*
%TO.P,J1,2,2*%
%TO.N,Net-(PS1-AC(L))*%
X96420000Y-76750000D03*
%TD*%
D22*
%TO.P,U3,1*%
%TO.N,Net-(R7-Pad2)*%
X157200000Y-102725000D03*
D23*
%TO.P,U3,2*%
%TO.N,GND*%
X157200000Y-105265000D03*
%TO.P,U3,3*%
%TO.N,Net-(Q2-B)*%
X164820000Y-105265000D03*
%TO.P,U3,4*%
%TO.N,Net-(R11-Pad1)*%
X164820000Y-102725000D03*
%TD*%
D15*
%TO.P,R10,1*%
%TO.N,Net-(D1-Pad2)*%
X189600000Y-75000000D03*
%TO.P,R10,2*%
%TO.N,Net-(D3-A)*%
X178600000Y-75000000D03*
%TD*%
D24*
%TO.P,K1,A1*%
%TO.N,5V*%
X182900000Y-81000000D03*
D25*
%TO.P,K1,A2*%
%TO.N,Net-(D3-A)*%
X182900000Y-93000000D03*
D26*
%TO.P,K1,COM*%
%TO.N,Net-(J2-Pad2)*%
X180900000Y-87000000D03*
D25*
%TO.P,K1,NC*%
%TO.N,Net-(J2-Pad3)*%
X195100000Y-81000000D03*
%TO.P,K1,NO*%
%TO.N,Net-(J2-Pad1)*%
X195100000Y-93000000D03*
%TD*%
D15*
%TO.P,R11,1*%
%TO.N,Net-(R11-Pad1)*%
X164800000Y-110500000D03*
%TO.P,R11,2*%
%TO.N,5V*%
X164800000Y-121500000D03*
%TD*%
D27*
%TO.P,Q1,1,C*%
%TO.N,Net-(D3-A)*%
X173600000Y-75000000D03*
D28*
%TO.P,Q1,2,B*%
%TO.N,Net-(Q1-B)*%
X172330000Y-75000000D03*
%TO.P,Q1,3,E*%
%TO.N,GND*%
X171060000Y-75000000D03*
%TD*%
D10*
%TO.P,D4,1,K*%
%TO.N,5V*%
X173690000Y-110420000D03*
D11*
%TO.P,D4,2,A*%
%TO.N,Net-(D4-A)*%
X173690000Y-120580000D03*
%TD*%
D20*
%TO.P,J3,1,1*%
%TO.N,Net-(J3-Pad1)*%
X206000000Y-120080000D03*
D21*
%TO.P,J3,2,2*%
%TO.N,Net-(J3-Pad2)*%
X206000000Y-115000000D03*
%TO.P,J3,3,3*%
%TO.N,Net-(J3-Pad3)*%
X206000000Y-109920000D03*
%TD*%
D15*
%TO.P,R9,1*%
%TO.N,Net-(R9-Pad1)*%
X166600000Y-92500000D03*
%TO.P,R9,2*%
%TO.N,5V*%
X166600000Y-81500000D03*
%TD*%
%TO.P,R8,1*%
%TO.N,Net-(U1-IO23)*%
X156400000Y-81500000D03*
%TO.P,R8,2*%
%TO.N,Net-(R8-Pad2)*%
X156400000Y-92500000D03*
%TD*%
D29*
X92000000Y-129000000D02*
G75*
G02*
X90000000Y-129000000I-1000000J0D01*
G01*
X90000000Y-129000000D02*
G75*
G02*
X92000000Y-129000000I1000000J0D01*
G01*
X92000000Y-70000000D02*
G75*
G02*
X90000000Y-70000000I-1000000J0D01*
G01*
X90000000Y-70000000D02*
G75*
G02*
X92000000Y-70000000I1000000J0D01*
G01*
X214000000Y-70000000D02*
G75*
G02*
X212000000Y-70000000I-1000000J0D01*
G01*
X212000000Y-70000000D02*
G75*
G02*
X214000000Y-70000000I1000000J0D01*
G01*
X214000000Y-129000000D02*
G75*
G02*
X212000000Y-129000000I-1000000J0D01*
G01*
X212000000Y-129000000D02*
G75*
G02*
X214000000Y-129000000I1000000J0D01*
G01*
X89000000Y-68000000D02*
X215000000Y-68000000D01*
X215000000Y-131000000D01*
X89000000Y-131000000D01*
X89000000Y-68000000D01*
M02*
