%TF.GenerationSoftware,KiCad,Pcbnew,8.0.6-8.0.6-0~ubuntu22.04.1*%
%TF.CreationDate,2024-11-04T12:04:03+07:00*%
%TF.ProjectId,projectGATE,70726f6a-6563-4744-9741-54452e6b6963,rev?*%
%TF.SameCoordinates,Original*%
%TF.FileFunction,Copper,L1,Top*%
%TF.FilePolarity,Positive*%
%FSLAX46Y46*%
G04 Gerber Fmt 4.6, Leading zero omitted, Abs format (unit mm)*
G04 Created by KiCad (PCBNEW 8.0.6-8.0.6-0~ubuntu22.04.1) date 2024-11-04 12:04:03*
%MOMM*%
%LPD*%
G01*
G04 APERTURE LIST*
%TA.AperFunction,ComponentPad*%
%ADD10R,2.200000X2.200000*%
%TD*%
%TA.AperFunction,ComponentPad*%
%ADD11O,2.200000X2.200000*%
%TD*%
%TA.AperFunction,ComponentPad*%
%ADD12R,3.000000X3.000000*%
%TD*%
%TA.AperFunction,ComponentPad*%
%ADD13C,3.000000*%
%TD*%
%TA.AperFunction,ComponentPad*%
%ADD14C,1.200000*%
%TD*%
%TA.AperFunction,ComponentPad*%
%ADD15R,1.650000X1.650000*%
%TD*%
%TA.AperFunction,ComponentPad*%
%ADD16C,1.650000*%
%TD*%
%TA.AperFunction,ComponentPad*%
%ADD17C,1.508000*%
%TD*%
%TA.AperFunction,ComponentPad*%
%ADD18R,1.600000X1.600000*%
%TD*%
%TA.AperFunction,ComponentPad*%
%ADD19O,1.600000X1.600000*%
%TD*%
%TA.AperFunction,ComponentPad*%
%ADD20R,1.530000X1.530000*%
%TD*%
%TA.AperFunction,ComponentPad*%
%ADD21C,1.530000*%
%TD*%
%TA.AperFunction,ComponentPad*%
%ADD22R,1.905000X2.000000*%
%TD*%
%TA.AperFunction,ComponentPad*%
%ADD23O,1.905000X2.000000*%
%TD*%
%TA.AperFunction,ComponentPad*%
%ADD24R,2.400000X2.400000*%
%TD*%
%TA.AperFunction,ComponentPad*%
%ADD25C,2.400000*%
%TD*%
%TA.AperFunction,ComponentPad*%
%ADD26C,2.250000*%
%TD*%
G04 APERTURE END LIST*
D10*
%TO.P,D4,1,K*%
%TO.N,5V*%
X182507500Y-124080000D03*
D11*
%TO.P,D4,2,A*%
%TO.N,Net-(D4-A)*%
X182507500Y-113920000D03*
%TD*%
D12*
%TO.P,J1,1,1*%
%TO.N,Net-(PS1-AC(N))*%
X95967500Y-88837500D03*
D13*
%TO.P,J1,2,2*%
%TO.N,Net-(PS1-AC(L))*%
X90887500Y-88837500D03*
%TD*%
D14*
%TO.P,R8,1*%
%TO.N,Net-(U1-IO23)*%
X151507500Y-96500000D03*
%TO.P,R8,2*%
%TO.N,Net-(R8-Pad2)*%
X151507500Y-107500000D03*
%TD*%
D15*
%TO.P,K1,1*%
%TO.N,5V*%
X190807500Y-106620000D03*
D16*
%TO.P,K1,4*%
%TO.N,Net-(J2-Pad2)*%
X198427500Y-106620000D03*
%TO.P,K1,6*%
%TO.N,Net-(J2-Pad1)*%
X203507500Y-106620000D03*
%TO.P,K1,8*%
%TO.N,Net-(J2-Pad3)*%
X208587500Y-106620000D03*
%TO.P,K1,9*%
%TO.N,unconnected-(K1-Pad9)*%
X208587500Y-99000000D03*
%TO.P,K1,11*%
%TO.N,unconnected-(K1-Pad11)*%
X203507500Y-99000000D03*
%TO.P,K1,13*%
%TO.N,unconnected-(K1-Pad13)*%
X198427500Y-99000000D03*
%TO.P,K1,16*%
%TO.N,Net-(D3-A)*%
X190807500Y-99000000D03*
%TD*%
D17*
%TO.P,D1,1*%
%TO.N,5V*%
X188507500Y-86000000D03*
%TO.P,D1,2*%
%TO.N,Net-(D1-Pad2)*%
X185967500Y-86000000D03*
%TD*%
D18*
%TO.P,U2,1*%
%TO.N,Net-(R8-Pad2)*%
X150887500Y-85000000D03*
D19*
%TO.P,U2,2*%
%TO.N,GND*%
X150887500Y-87540000D03*
%TO.P,U2,3*%
%TO.N,Net-(R9-Pad1)*%
X158507500Y-87540000D03*
%TO.P,U2,4*%
%TO.N,5V*%
X158507500Y-85000000D03*
%TD*%
D14*
%TO.P,R11,1*%
%TO.N,Net-(R11-Pad1)*%
X161507500Y-124500000D03*
%TO.P,R11,2*%
%TO.N,Net-(Q2-B)*%
X161507500Y-113500000D03*
%TD*%
D20*
%TO.P,U1,1,3V3*%
%TO.N,unconnected-(U1-3V3-Pad1)*%
X118000000Y-88800000D03*
D21*
%TO.P,U1,2,EN*%
%TO.N,unconnected-(U1-EN-Pad2)*%
X118000000Y-91340000D03*
%TO.P,U1,3,SENSOR_VP*%
%TO.N,unconnected-(U1-SENSOR_VP-Pad3)*%
X118000000Y-93880000D03*
%TO.P,U1,4,SENSOR_VN*%
%TO.N,unconnected-(U1-SENSOR_VN-Pad4)*%
X118000000Y-96420000D03*
%TO.P,U1,5,IO34*%
%TO.N,unconnected-(U1-IO34-Pad5)*%
X118000000Y-98960000D03*
%TO.P,U1,6,IO35*%
%TO.N,unconnected-(U1-IO35-Pad6)*%
X118000000Y-101500000D03*
%TO.P,U1,7,IO32*%
%TO.N,unconnected-(U1-IO32-Pad7)*%
X118000000Y-104040000D03*
%TO.P,U1,8,IO33*%
%TO.N,unconnected-(U1-IO33-Pad8)*%
X118000000Y-106580000D03*
%TO.P,U1,9,IO25*%
%TO.N,unconnected-(U1-IO25-Pad9)*%
X118000000Y-109120000D03*
%TO.P,U1,10,IO26*%
%TO.N,unconnected-(U1-IO26-Pad10)*%
X118000000Y-111660000D03*
%TO.P,U1,11,IO27*%
%TO.N,unconnected-(U1-IO27-Pad11)*%
X118000000Y-114200000D03*
%TO.P,U1,12,IO14*%
%TO.N,unconnected-(U1-IO14-Pad12)*%
X118000000Y-116740000D03*
%TO.P,U1,13,IO12*%
%TO.N,unconnected-(U1-IO12-Pad13)*%
X118000000Y-119280000D03*
%TO.P,U1,14,GND1*%
%TO.N,GND*%
X118000000Y-121820000D03*
%TO.P,U1,15,IO13*%
%TO.N,unconnected-(U1-IO13-Pad15)*%
X118000000Y-124360000D03*
%TO.P,U1,16,SD2*%
%TO.N,unconnected-(U1-SD2-Pad16)*%
X118000000Y-126900000D03*
%TO.P,U1,17,SD3*%
%TO.N,unconnected-(U1-SD3-Pad17)*%
X118000000Y-129440000D03*
%TO.P,U1,18,CMD*%
%TO.N,unconnected-(U1-CMD-Pad18)*%
X118000000Y-131980000D03*
%TO.P,U1,19,EXT_5V*%
%TO.N,5V*%
X118000000Y-134520000D03*
%TO.P,U1,20,CLK*%
%TO.N,unconnected-(U1-CLK-Pad20)*%
X143400000Y-134520000D03*
%TO.P,U1,21,SD0*%
%TO.N,unconnected-(U1-SD0-Pad21)*%
X143400000Y-131980000D03*
%TO.P,U1,22,SD1*%
%TO.N,unconnected-(U1-SD1-Pad22)*%
X143400000Y-129440000D03*
%TO.P,U1,23,IO15*%
%TO.N,unconnected-(U1-IO15-Pad23)*%
X143400000Y-126900000D03*
%TO.P,U1,24,IO2*%
%TO.N,unconnected-(U1-IO2-Pad24)*%
X143400000Y-124360000D03*
%TO.P,U1,25,IO0*%
%TO.N,unconnected-(U1-IO0-Pad25)*%
X143400000Y-121820000D03*
%TO.P,U1,26,IO4*%
%TO.N,unconnected-(U1-IO4-Pad26)*%
X143400000Y-119280000D03*
%TO.P,U1,27,IO16*%
%TO.N,unconnected-(U1-IO16-Pad27)*%
X143400000Y-116740000D03*
%TO.P,U1,28,IO17*%
%TO.N,unconnected-(U1-IO17-Pad28)*%
X143400000Y-114200000D03*
%TO.P,U1,29,IO5*%
%TO.N,unconnected-(U1-IO5-Pad29)*%
X143400000Y-111660000D03*
%TO.P,U1,30,IO18*%
%TO.N,unconnected-(U1-IO18-Pad30)*%
X143400000Y-109120000D03*
%TO.P,U1,31,IO19*%
%TO.N,unconnected-(U1-IO19-Pad31)*%
X143400000Y-106580000D03*
%TO.P,U1,32,GND2*%
%TO.N,GND*%
X143400000Y-104040000D03*
%TO.P,U1,33,IO21*%
%TO.N,unconnected-(U1-IO21-Pad33)*%
X143400000Y-101500000D03*
%TO.P,U1,34,RXD0*%
%TO.N,unconnected-(U1-RXD0-Pad34)*%
X143400000Y-98960000D03*
%TO.P,U1,35,TXD0*%
%TO.N,unconnected-(U1-TXD0-Pad35)*%
X143400000Y-96420000D03*
%TO.P,U1,36,IO22*%
%TO.N,Net-(U1-IO22)*%
X143400000Y-93880000D03*
%TO.P,U1,37,IO23*%
%TO.N,Net-(U1-IO23)*%
X143400000Y-91340000D03*
%TO.P,U1,38,GND3*%
%TO.N,unconnected-(U1-GND3-Pad38)*%
X143400000Y-88800000D03*
%TD*%
D14*
%TO.P,R10,1*%
%TO.N,Net-(D1-Pad2)*%
X173507500Y-96500000D03*
%TO.P,R10,2*%
%TO.N,Net-(D3-A)*%
X173507500Y-107500000D03*
%TD*%
D22*
%TO.P,Q3,1,B*%
%TO.N,Net-(Q3-B)*%
X169967500Y-86945000D03*
D23*
%TO.P,Q3,2,C*%
%TO.N,Net-(D3-A)*%
X172507500Y-86945000D03*
%TO.P,Q3,3,E*%
%TO.N,GND*%
X175047500Y-86945000D03*
%TD*%
D10*
%TO.P,D3,1,K*%
%TO.N,5V*%
X182507500Y-107160000D03*
D11*
%TO.P,D3,2,A*%
%TO.N,Net-(D3-A)*%
X182507500Y-97000000D03*
%TD*%
D17*
%TO.P,D2,1*%
%TO.N,5V*%
X189507500Y-135000000D03*
%TO.P,D2,2*%
%TO.N,Net-(D2-Pad2)*%
X186967500Y-135000000D03*
%TD*%
D22*
%TO.P,Q2,1,B*%
%TO.N,Net-(Q2-B)*%
X169967500Y-135945000D03*
D23*
%TO.P,Q2,2,C*%
%TO.N,Net-(D4-A)*%
X172507500Y-135945000D03*
%TO.P,Q2,3,E*%
%TO.N,GND*%
X175047500Y-135945000D03*
%TD*%
D14*
%TO.P,R7,1*%
%TO.N,Net-(U1-IO22)*%
X151507500Y-113500000D03*
%TO.P,R7,2*%
%TO.N,Net-(R7-Pad2)*%
X151507500Y-124500000D03*
%TD*%
D18*
%TO.P,U3,1*%
%TO.N,Net-(R7-Pad2)*%
X150807500Y-132000000D03*
D19*
%TO.P,U3,2*%
%TO.N,GND*%
X150807500Y-134540000D03*
%TO.P,U3,3*%
%TO.N,Net-(R11-Pad1)*%
X158427500Y-134540000D03*
%TO.P,U3,4*%
%TO.N,5V*%
X158427500Y-132000000D03*
%TD*%
D24*
%TO.P,J3,1,1*%
%TO.N,Net-(J3-Pad1)*%
X196840000Y-131000000D03*
D25*
%TO.P,J3,2,2*%
%TO.N,Net-(J3-Pad2)*%
X201920000Y-131000000D03*
%TO.P,J3,3,3*%
%TO.N,Net-(J3-Pad3)*%
X207000000Y-131000000D03*
%TD*%
D14*
%TO.P,R12,1*%
%TO.N,Net-(D2-Pad2)*%
X173507500Y-124500000D03*
%TO.P,R12,2*%
%TO.N,Net-(D4-A)*%
X173507500Y-113500000D03*
%TD*%
D15*
%TO.P,K2,1*%
%TO.N,5V*%
X190807500Y-121810000D03*
D16*
%TO.P,K2,4*%
%TO.N,Net-(J3-Pad2)*%
X198427500Y-121810000D03*
%TO.P,K2,6*%
%TO.N,Net-(J3-Pad1)*%
X203507500Y-121810000D03*
%TO.P,K2,8*%
%TO.N,Net-(J3-Pad3)*%
X208587500Y-121810000D03*
%TO.P,K2,9*%
%TO.N,unconnected-(K2-Pad9)*%
X208587500Y-114190000D03*
%TO.P,K2,11*%
%TO.N,unconnected-(K2-Pad11)*%
X203507500Y-114190000D03*
%TO.P,K2,13*%
%TO.N,unconnected-(K2-Pad13)*%
X198427500Y-114190000D03*
%TO.P,K2,16*%
%TO.N,Net-(D4-A)*%
X190807500Y-114190000D03*
%TD*%
D12*
%TO.P,PS1,1,AC(N)*%
%TO.N,Net-(PS1-AC(N))*%
X109587500Y-100500000D03*
D13*
%TO.P,PS1,2,AC(L)*%
%TO.N,Net-(PS1-AC(L))*%
X89267500Y-100500000D03*
D26*
%TO.P,PS1,3,-VO*%
%TO.N,GND*%
X99427500Y-133500000D03*
%TO.P,PS1,4,+VO*%
%TO.N,5V*%
X109587500Y-133500000D03*
%TD*%
D24*
%TO.P,J2,1,1*%
%TO.N,Net-(J2-Pad1)*%
X207000000Y-89000000D03*
D25*
%TO.P,J2,2,2*%
%TO.N,Net-(J2-Pad2)*%
X201920000Y-89000000D03*
%TO.P,J2,3,3*%
%TO.N,Net-(J2-Pad3)*%
X196840000Y-89000000D03*
%TD*%
D14*
%TO.P,R9,1*%
%TO.N,Net-(R9-Pad1)*%
X161507500Y-96500000D03*
%TO.P,R9,2*%
%TO.N,Net-(Q3-B)*%
X161507500Y-107500000D03*
%TD*%
M02*
