%TF.GenerationSoftware,KiCad,Pcbnew,8.0.6-8.0.6-0~ubuntu22.04.1*%
%TF.CreationDate,2024-11-04T11:52:38+07:00*%
%TF.ProjectId,projectGATE,70726f6a-6563-4744-9741-54452e6b6963,rev?*%
%TF.SameCoordinates,Original*%
%TF.FileFunction,Copper,L2,Bot*%
%TF.FilePolarity,Positive*%
%FSLAX46Y46*%
G04 Gerber Fmt 4.6, Leading zero omitted, Abs format (unit mm)*
G04 Created by KiCad (PCBNEW 8.0.6-8.0.6-0~ubuntu22.04.1) date 2024-11-04 11:52:38*
%MOMM*%
%LPD*%
G01*
G04 APERTURE LIST*
%TA.AperFunction,ComponentPad*%
%ADD10R,1.600000X1.600000*%
%TD*%
%TA.AperFunction,ComponentPad*%
%ADD11O,1.600000X1.600000*%
%TD*%
%TA.AperFunction,ComponentPad*%
%ADD12R,1.530000X1.530000*%
%TD*%
%TA.AperFunction,ComponentPad*%
%ADD13C,1.530000*%
%TD*%
%TA.AperFunction,ComponentPad*%
%ADD14C,1.200000*%
%TD*%
%TA.AperFunction,ComponentPad*%
%ADD15R,1.905000X2.000000*%
%TD*%
%TA.AperFunction,ComponentPad*%
%ADD16O,1.905000X2.000000*%
%TD*%
%TA.AperFunction,ComponentPad*%
%ADD17R,2.250000X2.250000*%
%TD*%
%TA.AperFunction,ComponentPad*%
%ADD18C,2.250000*%
%TD*%
%TA.AperFunction,ComponentPad*%
%ADD19R,1.650000X1.650000*%
%TD*%
%TA.AperFunction,ComponentPad*%
%ADD20C,1.650000*%
%TD*%
%TA.AperFunction,ComponentPad*%
%ADD21R,2.400000X2.400000*%
%TD*%
%TA.AperFunction,ComponentPad*%
%ADD22C,2.400000*%
%TD*%
%TA.AperFunction,ComponentPad*%
%ADD23R,2.200000X2.200000*%
%TD*%
%TA.AperFunction,ComponentPad*%
%ADD24O,2.200000X2.200000*%
%TD*%
%TA.AperFunction,ComponentPad*%
%ADD25C,1.508000*%
%TD*%
%TA.AperFunction,Conductor*%
%ADD26C,1.000000*%
%TD*%
G04 APERTURE END LIST*
D10*
%TO.P,U3,1*%
%TO.N,Net-(R7-Pad2)*%
X150807500Y-132000000D03*
D11*
%TO.P,U3,2*%
%TO.N,GND*%
X150807500Y-134540000D03*
%TO.P,U3,3*%
%TO.N,Net-(R11-Pad1)*%
X158427500Y-134540000D03*
%TO.P,U3,4*%
%TO.N,5V*%
X158427500Y-132000000D03*
%TD*%
D10*
%TO.P,U2,1*%
%TO.N,Net-(R8-Pad2)*%
X150887500Y-85000000D03*
D11*
%TO.P,U2,2*%
%TO.N,GND*%
X150887500Y-87540000D03*
%TO.P,U2,3*%
%TO.N,Net-(R9-Pad1)*%
X158507500Y-87540000D03*
%TO.P,U2,4*%
%TO.N,5V*%
X158507500Y-85000000D03*
%TD*%
D12*
%TO.P,U1,1,3V3*%
%TO.N,unconnected-(U1-3V3-Pad1)*%
X118000000Y-88800000D03*
D13*
%TO.P,U1,2,EN*%
%TO.N,unconnected-(U1-EN-Pad2)*%
X118000000Y-91340000D03*
%TO.P,U1,3,SENSOR_VP*%
%TO.N,unconnected-(U1-SENSOR_VP-Pad3)*%
X118000000Y-93880000D03*
%TO.P,U1,4,SENSOR_VN*%
%TO.N,unconnected-(U1-SENSOR_VN-Pad4)*%
X118000000Y-96420000D03*
%TO.P,U1,5,IO34*%
%TO.N,unconnected-(U1-IO34-Pad5)*%
X118000000Y-98960000D03*
%TO.P,U1,6,IO35*%
%TO.N,unconnected-(U1-IO35-Pad6)*%
X118000000Y-101500000D03*
%TO.P,U1,7,IO32*%
%TO.N,unconnected-(U1-IO32-Pad7)*%
X118000000Y-104040000D03*
%TO.P,U1,8,IO33*%
%TO.N,unconnected-(U1-IO33-Pad8)*%
X118000000Y-106580000D03*
%TO.P,U1,9,IO25*%
%TO.N,unconnected-(U1-IO25-Pad9)*%
X118000000Y-109120000D03*
%TO.P,U1,10,IO26*%
%TO.N,unconnected-(U1-IO26-Pad10)*%
X118000000Y-111660000D03*
%TO.P,U1,11,IO27*%
%TO.N,unconnected-(U1-IO27-Pad11)*%
X118000000Y-114200000D03*
%TO.P,U1,12,IO14*%
%TO.N,unconnected-(U1-IO14-Pad12)*%
X118000000Y-116740000D03*
%TO.P,U1,13,IO12*%
%TO.N,unconnected-(U1-IO12-Pad13)*%
X118000000Y-119280000D03*
%TO.P,U1,14,GND1*%
%TO.N,GND*%
X118000000Y-121820000D03*
%TO.P,U1,15,IO13*%
%TO.N,unconnected-(U1-IO13-Pad15)*%
X118000000Y-124360000D03*
%TO.P,U1,16,SD2*%
%TO.N,unconnected-(U1-SD2-Pad16)*%
X118000000Y-126900000D03*
%TO.P,U1,17,SD3*%
%TO.N,unconnected-(U1-SD3-Pad17)*%
X118000000Y-129440000D03*
%TO.P,U1,18,CMD*%
%TO.N,unconnected-(U1-CMD-Pad18)*%
X118000000Y-131980000D03*
%TO.P,U1,19,EXT_5V*%
%TO.N,5V*%
X118000000Y-134520000D03*
%TO.P,U1,20,CLK*%
%TO.N,unconnected-(U1-CLK-Pad20)*%
X143400000Y-134520000D03*
%TO.P,U1,21,SD0*%
%TO.N,unconnected-(U1-SD0-Pad21)*%
X143400000Y-131980000D03*
%TO.P,U1,22,SD1*%
%TO.N,unconnected-(U1-SD1-Pad22)*%
X143400000Y-129440000D03*
%TO.P,U1,23,IO15*%
%TO.N,unconnected-(U1-IO15-Pad23)*%
X143400000Y-126900000D03*
%TO.P,U1,24,IO2*%
%TO.N,unconnected-(U1-IO2-Pad24)*%
X143400000Y-124360000D03*
%TO.P,U1,25,IO0*%
%TO.N,unconnected-(U1-IO0-Pad25)*%
X143400000Y-121820000D03*
%TO.P,U1,26,IO4*%
%TO.N,unconnected-(U1-IO4-Pad26)*%
X143400000Y-119280000D03*
%TO.P,U1,27,IO16*%
%TO.N,unconnected-(U1-IO16-Pad27)*%
X143400000Y-116740000D03*
%TO.P,U1,28,IO17*%
%TO.N,unconnected-(U1-IO17-Pad28)*%
X143400000Y-114200000D03*
%TO.P,U1,29,IO5*%
%TO.N,unconnected-(U1-IO5-Pad29)*%
X143400000Y-111660000D03*
%TO.P,U1,30,IO18*%
%TO.N,unconnected-(U1-IO18-Pad30)*%
X143400000Y-109120000D03*
%TO.P,U1,31,IO19*%
%TO.N,unconnected-(U1-IO19-Pad31)*%
X143400000Y-106580000D03*
%TO.P,U1,32,GND2*%
%TO.N,GND*%
X143400000Y-104040000D03*
%TO.P,U1,33,IO21*%
%TO.N,unconnected-(U1-IO21-Pad33)*%
X143400000Y-101500000D03*
%TO.P,U1,34,RXD0*%
%TO.N,unconnected-(U1-RXD0-Pad34)*%
X143400000Y-98960000D03*
%TO.P,U1,35,TXD0*%
%TO.N,unconnected-(U1-TXD0-Pad35)*%
X143400000Y-96420000D03*
%TO.P,U1,36,IO22*%
%TO.N,Net-(U1-IO22)*%
X143400000Y-93880000D03*
%TO.P,U1,37,IO23*%
%TO.N,Net-(U1-IO23)*%
X143400000Y-91340000D03*
%TO.P,U1,38,GND3*%
%TO.N,unconnected-(U1-GND3-Pad38)*%
X143400000Y-88800000D03*
%TD*%
D14*
%TO.P,R11,1*%
%TO.N,Net-(R11-Pad1)*%
X161507500Y-124500000D03*
%TO.P,R11,2*%
%TO.N,Net-(Q2-B)*%
X161507500Y-113500000D03*
%TD*%
%TO.P,R10,1*%
%TO.N,Net-(D1-Pad2)*%
X173507500Y-96500000D03*
%TO.P,R10,2*%
%TO.N,Net-(D3-A)*%
X173507500Y-107500000D03*
%TD*%
%TO.P,R9,1*%
%TO.N,Net-(R9-Pad1)*%
X161507500Y-96500000D03*
%TO.P,R9,2*%
%TO.N,Net-(Q3-B)*%
X161507500Y-107500000D03*
%TD*%
%TO.P,R8,1*%
%TO.N,Net-(U1-IO23)*%
X151507500Y-96500000D03*
%TO.P,R8,2*%
%TO.N,Net-(R8-Pad2)*%
X151507500Y-107500000D03*
%TD*%
%TO.P,R7,1*%
%TO.N,Net-(U1-IO22)*%
X151507500Y-113500000D03*
%TO.P,R7,2*%
%TO.N,Net-(R7-Pad2)*%
X151507500Y-124500000D03*
%TD*%
D15*
%TO.P,Q3,1,B*%
%TO.N,Net-(Q3-B)*%
X169967500Y-86945000D03*
D16*
%TO.P,Q3,2,C*%
%TO.N,Net-(D3-A)*%
X172507500Y-86945000D03*
%TO.P,Q3,3,E*%
%TO.N,GND*%
X175047500Y-86945000D03*
%TD*%
D15*
%TO.P,Q2,1,B*%
%TO.N,Net-(Q2-B)*%
X169967500Y-135945000D03*
D16*
%TO.P,Q2,2,C*%
%TO.N,Net-(D4-A)*%
X172507500Y-135945000D03*
%TO.P,Q2,3,E*%
%TO.N,GND*%
X175047500Y-135945000D03*
%TD*%
D17*
%TO.P,PS1,1,AC(N)*%
%TO.N,Net-(PS1-AC(N))*%
X109587500Y-100500000D03*
D18*
%TO.P,PS1,4,+VO*%
%TO.N,5V*%
X109587500Y-133500000D03*
%TO.P,PS1,2,AC(L)*%
%TO.N,Net-(PS1-AC(L))*%
X89267500Y-100500000D03*
%TO.P,PS1,3,-VO*%
%TO.N,GND*%
X99427500Y-133500000D03*
%TD*%
D19*
%TO.P,K2,1*%
%TO.N,5V*%
X190807500Y-121810000D03*
D20*
%TO.P,K2,4*%
%TO.N,Net-(J3-Pad2)*%
X198427500Y-121810000D03*
%TO.P,K2,6*%
%TO.N,Net-(J3-Pad1)*%
X203507500Y-121810000D03*
%TO.P,K2,8*%
%TO.N,Net-(J3-Pad3)*%
X208587500Y-121810000D03*
%TO.P,K2,9*%
%TO.N,unconnected-(K2-Pad9)*%
X208587500Y-114190000D03*
%TO.P,K2,11*%
%TO.N,unconnected-(K2-Pad11)*%
X203507500Y-114190000D03*
%TO.P,K2,13*%
%TO.N,unconnected-(K2-Pad13)*%
X198427500Y-114190000D03*
%TO.P,K2,16*%
%TO.N,Net-(D4-A)*%
X190807500Y-114190000D03*
%TD*%
D19*
%TO.P,K1,1*%
%TO.N,5V*%
X190807500Y-106620000D03*
D20*
%TO.P,K1,4*%
%TO.N,Net-(J2-Pad2)*%
X198427500Y-106620000D03*
%TO.P,K1,6*%
%TO.N,Net-(J2-Pad1)*%
X203507500Y-106620000D03*
%TO.P,K1,8*%
%TO.N,Net-(J2-Pad3)*%
X208587500Y-106620000D03*
%TO.P,K1,9*%
%TO.N,unconnected-(K1-Pad9)*%
X208587500Y-99000000D03*
%TO.P,K1,11*%
%TO.N,unconnected-(K1-Pad11)*%
X203507500Y-99000000D03*
%TO.P,K1,13*%
%TO.N,unconnected-(K1-Pad13)*%
X198427500Y-99000000D03*
%TO.P,K1,16*%
%TO.N,Net-(D3-A)*%
X190807500Y-99000000D03*
%TD*%
D21*
%TO.P,J3,1,1*%
%TO.N,Net-(J3-Pad1)*%
X196840000Y-131000000D03*
D22*
%TO.P,J3,2,2*%
%TO.N,Net-(J3-Pad2)*%
X201920000Y-131000000D03*
%TO.P,J3,3,3*%
%TO.N,Net-(J3-Pad3)*%
X207000000Y-131000000D03*
%TD*%
D21*
%TO.P,J2,1,1*%
%TO.N,Net-(J2-Pad1)*%
X207000000Y-89000000D03*
D22*
%TO.P,J2,2,2*%
%TO.N,Net-(J2-Pad2)*%
X201920000Y-89000000D03*
%TO.P,J2,3,3*%
%TO.N,Net-(J2-Pad3)*%
X196840000Y-89000000D03*
%TD*%
D21*
%TO.P,J1,1,1*%
%TO.N,Net-(PS1-AC(N))*%
X95967500Y-88837500D03*
D22*
%TO.P,J1,2,2*%
%TO.N,Net-(PS1-AC(L))*%
X90887500Y-88837500D03*
%TD*%
D23*
%TO.P,D4,1,K*%
%TO.N,5V*%
X182507500Y-124080000D03*
D24*
%TO.P,D4,2,A*%
%TO.N,Net-(D4-A)*%
X182507500Y-113920000D03*
%TD*%
D23*
%TO.P,D3,1,K*%
%TO.N,5V*%
X182507500Y-107160000D03*
D24*
%TO.P,D3,2,A*%
%TO.N,Net-(D3-A)*%
X182507500Y-97000000D03*
%TD*%
D25*
%TO.P,D2,1*%
%TO.N,5V*%
X189507500Y-135000000D03*
%TO.P,D2,2*%
%TO.N,Net-(D2-Pad2)*%
X186967500Y-135000000D03*
%TD*%
D14*
%TO.P,R12,1*%
%TO.N,Net-(D2-Pad2)*%
X173507500Y-124500000D03*
%TO.P,R12,2*%
%TO.N,Net-(D4-A)*%
X173507500Y-113500000D03*
%TD*%
D25*
%TO.P,D1,1*%
%TO.N,5V*%
X188507500Y-86000000D03*
%TO.P,D1,2*%
%TO.N,Net-(D1-Pad2)*%
X185967500Y-86000000D03*
%TD*%
D26*
%TO.N,Net-(J3-Pad3)*%
X208587500Y-121810000D02*
X208587500Y-129412500D01*
X208587500Y-129412500D02*
X207000000Y-131000000D01*
%TO.N,Net-(J3-Pad2)*%
X198427500Y-121810000D02*
X201920000Y-125302500D01*
X201920000Y-125302500D02*
X201920000Y-131000000D01*
%TO.N,Net-(J3-Pad1)*%
X196507500Y-119000000D02*
X200697500Y-119000000D01*
X200697500Y-119000000D02*
X203507500Y-121810000D01*
%TO.N,Net-(J2-Pad3)*%
X195000000Y-107000000D02*
X195000000Y-90840000D01*
X195000000Y-90840000D02*
X196840000Y-89000000D01*
%TO.N,Net-(J2-Pad2)*%
X198427500Y-106620000D02*
X201000000Y-104047500D01*
X201000000Y-104047500D02*
X201000000Y-89920000D01*
X201000000Y-89920000D02*
X201920000Y-89000000D01*
%TO.N,Net-(J2-Pad1)*%
X206000000Y-104127500D02*
X206000000Y-90000000D01*
X206000000Y-90000000D02*
X207000000Y-89000000D01*
%TO.N,Net-(J2-Pad3)*%
X208587500Y-106620000D02*
X205207500Y-110000000D01*
X205207500Y-110000000D02*
X198000000Y-110000000D01*
X198000000Y-110000000D02*
X195000000Y-107000000D01*
X196347500Y-89160000D02*
X196347500Y-89000000D01*
%TO.N,Net-(J2-Pad1)*%
X203507500Y-106620000D02*
X206000000Y-104127500D01*
%TO.N,Net-(PS1-AC(N))*%
X95967500Y-88837500D02*
X107630000Y-100500000D01*
X107630000Y-100500000D02*
X109587500Y-100500000D01*
%TO.N,5V*%
X211507500Y-83000000D02*
X209507500Y-81000000D01*
X209507500Y-141000000D02*
X211507500Y-139000000D01*
X211507500Y-139000000D02*
X211507500Y-83000000D01*
X187507500Y-141000000D02*
X209507500Y-141000000D01*
X209507500Y-81000000D02*
X186507500Y-81000000D01*
X118000000Y-134520000D02*
X118000000Y-140087500D01*
X118000000Y-140087500D02*
X117087500Y-141000000D01*
%TO.N,Net-(PS1-AC(L))*%
X90887500Y-88837500D02*
X90887500Y-98880000D01*
X90887500Y-98880000D02*
X89267500Y-100500000D01*
%TO.N,Net-(J3-Pad1)*%
X194507500Y-121000000D02*
X194507500Y-129160000D01*
X196507500Y-119000000D02*
X194507500Y-121000000D01*
X194507500Y-129160000D02*
X196347500Y-131000000D01*
%TO.N,GND*%
X173102500Y-83000000D02*
X165507500Y-83000000D01*
X156507500Y-117000000D02*
X154507500Y-119000000D01*
X175047500Y-84945000D02*
X173102500Y-83000000D01*
X175047500Y-86945000D02*
X175047500Y-84945000D01*
X156507500Y-107000000D02*
X156507500Y-117000000D01*
X164507500Y-99000000D02*
X156507500Y-107000000D01*
X165507500Y-83000000D02*
X164507500Y-84000000D01*
X164507500Y-84000000D02*
X164507500Y-99000000D01*
X149507500Y-119000000D02*
X154507500Y-119000000D01*
X154507500Y-119000000D02*
X162507500Y-119000000D01*
%TO.N,5V*%
X191127500Y-106620000D02*
X193507500Y-109000000D01*
X190807500Y-106620000D02*
X191127500Y-106620000D01*
X193507500Y-119110000D02*
X190807500Y-121810000D01*
X193507500Y-109000000D02*
X193507500Y-119110000D01*
%TO.N,Net-(D4-A)*%
X182507500Y-113920000D02*
X190537500Y-113920000D01*
X190537500Y-113920000D02*
X190807500Y-114190000D01*
X173507500Y-113500000D02*
X182087500Y-113500000D01*
X182087500Y-113500000D02*
X182507500Y-113920000D01*
%TO.N,5V*%
X182507500Y-124080000D02*
X188537500Y-124080000D01*
X188537500Y-124080000D02*
X190807500Y-121810000D01*
X182587500Y-124080000D02*
X189507500Y-131000000D01*
X182507500Y-124080000D02*
X182587500Y-124080000D01*
X189507500Y-131000000D02*
X189507500Y-135000000D01*
%TO.N,Net-(D2-Pad2)*%
X173507500Y-124500000D02*
X184007500Y-135000000D01*
X184007500Y-135000000D02*
X186967500Y-135000000D01*
%TO.N,Net-(D4-A)*%
X170507500Y-115000000D02*
X170507500Y-132000000D01*
X172507500Y-134000000D02*
X172507500Y-135945000D01*
X173507500Y-113500000D02*
X172007500Y-113500000D01*
X172007500Y-113500000D02*
X170507500Y-115000000D01*
X170507500Y-132000000D02*
X172507500Y-134000000D01*
%TO.N,GND*%
X150807500Y-134540000D02*
X149047500Y-134540000D01*
X149047500Y-134540000D02*
X147507500Y-133000000D01*
X175047500Y-137460000D02*
X175047500Y-135945000D01*
X147507500Y-133000000D02*
X147507500Y-121000000D01*
X173507500Y-139000000D02*
X175047500Y-137460000D01*
X147507500Y-121000000D02*
X149507500Y-119000000D01*
X164507500Y-137000000D02*
X166507500Y-139000000D01*
X162507500Y-119000000D02*
X164507500Y-121000000D01*
X164507500Y-121000000D02*
X164507500Y-137000000D01*
X166507500Y-139000000D02*
X173507500Y-139000000D01*
%TO.N,Net-(Q2-B)*%
X167507500Y-116000000D02*
X167507500Y-134000000D01*
X161507500Y-113500000D02*
X165007500Y-113500000D01*
X165007500Y-113500000D02*
X167507500Y-116000000D01*
X167507500Y-134000000D02*
X169452500Y-135945000D01*
X169452500Y-135945000D02*
X169967500Y-135945000D01*
%TO.N,Net-(R11-Pad1)*%
X161507500Y-124500000D02*
X161507500Y-132591370D01*
X161507500Y-132591370D02*
X159558870Y-134540000D01*
X159558870Y-134540000D02*
X158427500Y-134540000D01*
%TO.N,Net-(R7-Pad2)*%
X151507500Y-124500000D02*
X151507500Y-131300000D01*
X151507500Y-131300000D02*
X150807500Y-132000000D01*
%TO.N,GND*%
X133507500Y-134000000D02*
X137507500Y-138000000D01*
X133507500Y-125000000D02*
X133507500Y-134000000D01*
X125620000Y-121820000D02*
X130327500Y-121820000D01*
X130327500Y-121820000D02*
X133507500Y-125000000D01*
X137507500Y-138000000D02*
X147347500Y-138000000D01*
X147347500Y-138000000D02*
X150807500Y-134540000D01*
%TO.N,Net-(Q3-B)*%
X167507500Y-95000000D02*
X167507500Y-103000000D01*
X169967500Y-86945000D02*
X169967500Y-92540000D01*
X169967500Y-92540000D02*
X167507500Y-95000000D01*
X167507500Y-103000000D02*
X163007500Y-107500000D01*
X163007500Y-107500000D02*
X161507500Y-107500000D01*
%TO.N,Net-(D3-A)*%
X170507500Y-102000000D02*
X171507500Y-103000000D01*
X171507500Y-103000000D02*
X172507500Y-103000000D01*
X172507500Y-93000000D02*
X170507500Y-95000000D01*
X172507500Y-86945000D02*
X172507500Y-93000000D01*
X170507500Y-95000000D02*
X170507500Y-102000000D01*
X172507500Y-103000000D02*
X178507500Y-97000000D01*
X178507500Y-97000000D02*
X182507500Y-97000000D01*
%TO.N,Net-(D1-Pad2)*%
X185967500Y-86000000D02*
X184007500Y-86000000D01*
X184007500Y-86000000D02*
X173507500Y-96500000D01*
%TO.N,Net-(D3-A)*%
X182507500Y-97000000D02*
X179507500Y-100000000D01*
X179507500Y-100000000D02*
X179507500Y-105000000D01*
X179507500Y-105000000D02*
X177007500Y-107500000D01*
X177007500Y-107500000D02*
X173507500Y-107500000D01*
%TO.N,5V*%
X188507500Y-86000000D02*
X192632500Y-90125000D01*
X192632500Y-90125000D02*
X192632500Y-104795000D01*
X192632500Y-104795000D02*
X190807500Y-106620000D01*
X190807500Y-106620000D02*
X183047500Y-106620000D01*
X183047500Y-106620000D02*
X182507500Y-107160000D01*
%TO.N,Net-(D3-A)*%
X190807500Y-99000000D02*
X184507500Y-99000000D01*
X184507500Y-99000000D02*
X182507500Y-97000000D01*
%TO.N,5V*%
X158507500Y-85000000D02*
X162507500Y-81000000D01*
X162507500Y-81000000D02*
X186507500Y-81000000D01*
X186507500Y-81000000D02*
X188507500Y-83000000D01*
X188507500Y-83000000D02*
X188507500Y-86000000D01*
X154507500Y-141000000D02*
X187507500Y-141000000D01*
X187507500Y-141000000D02*
X189507500Y-139000000D01*
X189507500Y-139000000D02*
X189507500Y-135000000D01*
%TO.N,Net-(Q3-B)*%
X169967500Y-86945000D02*
X169562500Y-86945000D01*
%TO.N,Net-(R9-Pad1)*%
X158507500Y-87540000D02*
X158507500Y-93500000D01*
X158507500Y-93500000D02*
X161507500Y-96500000D01*
%TO.N,Net-(R8-Pad2)*%
X150887500Y-85000000D02*
X152687500Y-85000000D01*
X152687500Y-85000000D02*
X154507500Y-86820000D01*
X154507500Y-86820000D02*
X154507500Y-105000000D01*
X154507500Y-105000000D02*
X152007500Y-107500000D01*
X152007500Y-107500000D02*
X151507500Y-107500000D01*
%TO.N,GND*%
X140507500Y-101147500D02*
X140507500Y-87000000D01*
X143400000Y-104040000D02*
X140507500Y-101147500D01*
X140507500Y-87000000D02*
X141507500Y-86000000D01*
X141507500Y-86000000D02*
X148216130Y-86000000D01*
X148216130Y-86000000D02*
X149756130Y-87540000D01*
X149756130Y-87540000D02*
X150887500Y-87540000D01*
%TO.N,Net-(U1-IO22)*%
X143400000Y-93880000D02*
X148507500Y-98987500D01*
X148507500Y-98987500D02*
X148507500Y-111000000D01*
X148507500Y-111000000D02*
X151007500Y-113500000D01*
X151007500Y-113500000D02*
X151507500Y-113500000D01*
%TO.N,Net-(U1-IO23)*%
X143400000Y-91340000D02*
X146347500Y-91340000D01*
X146347500Y-91340000D02*
X151507500Y-96500000D01*
%TO.N,GND*%
X118000000Y-121820000D02*
X125620000Y-121820000D01*
X125620000Y-121820000D02*
X143400000Y-104040000D01*
%TO.N,5V*%
X156507500Y-132788630D02*
X156507500Y-139000000D01*
X157296130Y-132000000D02*
X156507500Y-132788630D01*
X158427500Y-132000000D02*
X157296130Y-132000000D01*
X117087500Y-141000000D02*
X154507500Y-141000000D01*
X156507500Y-139000000D02*
X154507500Y-141000000D01*
X109587500Y-133500000D02*
X117087500Y-141000000D01*
%TO.N,GND*%
X99427500Y-133500000D02*
X111107500Y-121820000D01*
X111107500Y-121820000D02*
X118000000Y-121820000D01*
%TD*%
%TA.AperFunction,Conductor*%
%TO.N,GND*%
G36*
X211514300Y-77018954D02*
G01*
X211595082Y-77072930D01*
X211649058Y-77153712D01*
X211668012Y-77249000D01*
X211649058Y-77344288D01*
X211647060Y-77348974D01*
X211578365Y-77505584D01*
X211575936Y-77511122D01*
X211575935Y-77511125D01*
X211514894Y-77752168D01*
X211514892Y-77752176D01*
X211494357Y-78000000D01*
X211514892Y-78247823D01*
X211514894Y-78247831D01*
X211575935Y-78488874D01*
X211575936Y-78488878D01*
X211675825Y-78716603D01*
X211675828Y-78716608D01*
X211811830Y-78924778D01*
X211811836Y-78924785D01*
X211980248Y-79107730D01*
X211980252Y-79107733D01*
X211980256Y-79107738D01*
X211980260Y-79107741D01*
X211980261Y-79107742D01*
X212176485Y-79260470D01*
X212176487Y-79260471D01*
X212176491Y-79260474D01*
X212395190Y-79378828D01*
X212426396Y-79389541D01*
X212630378Y-79459569D01*
X212630382Y-79459569D01*
X212630386Y-79459571D01*
X212875665Y-79500500D01*
X213124335Y-79500500D01*
X213369614Y-79459571D01*
X213369618Y-79459569D01*
X213369621Y-79459569D01*
X213423907Y-79440932D01*
X213604810Y-79378828D01*
X213632489Y-79363848D01*
X213725309Y-79335166D01*
X213822044Y-79344187D01*
X213907963Y-79389541D01*
X213969987Y-79464322D01*
X213998671Y-79557146D01*
X214000000Y-79582837D01*
X214000000Y-142460456D01*
X213981046Y-142555744D01*
X213927070Y-142636526D01*
X213846288Y-142690502D01*
X213751000Y-142709456D01*
X213655712Y-142690502D01*
X213632489Y-142679445D01*
X213524811Y-142621172D01*
X213289621Y-142540430D01*
X213289610Y-142540428D01*
X213044335Y-142499500D01*
X212795665Y-142499500D01*
X212550389Y-142540428D01*
X212550378Y-142540430D01*
X212315188Y-142621172D01*
X212096485Y-142739529D01*
X211900261Y-142892257D01*
X211900248Y-142892269D01*
X211731836Y-143075214D01*
X211731830Y-143075221D01*
X211595828Y-143283391D01*
X211595825Y-143283396D01*
X211495936Y-143511121D01*
X211495935Y-143511125D01*
X211434894Y-143752168D01*
X211434892Y-143752176D01*
X211414357Y-144000000D01*
X211434892Y-144247823D01*
X211434894Y-144247831D01*
X211487195Y-144454361D01*
X211495937Y-144488881D01*
X211567040Y-144650980D01*
X211587959Y-144745854D01*
X211570978Y-144841514D01*
X211518683Y-144923393D01*
X211439034Y-144979028D01*
X211344158Y-144999947D01*
X211339012Y-145000000D01*
X88500988Y-145000000D01*
X88405700Y-144981046D01*
X88324918Y-144927070D01*
X88270942Y-144846288D01*
X88251988Y-144751000D01*
X88270942Y-144655712D01*
X88272939Y-144651025D01*
X88344063Y-144488881D01*
X88405108Y-144247821D01*
X88425643Y-144000000D01*
X88405108Y-143752179D01*
X88344063Y-143511119D01*
X88244173Y-143283393D01*
X88190997Y-143202001D01*
X88108169Y-143075221D01*
X88108163Y-143075214D01*
X87939751Y-142892269D01*
X87939747Y-142892265D01*
X87939744Y-142892262D01*
X87939738Y-142892257D01*
X87743514Y-142739529D01*
X87743510Y-142739526D01*
X87743509Y-142739526D01*
X87632489Y-142679445D01*
X87524811Y-142621172D01*
X87289621Y-142540430D01*
X87289610Y-142540428D01*
X87044335Y-142499500D01*
X86795665Y-142499500D01*
X86550389Y-142540428D01*
X86550378Y-142540430D01*
X86329851Y-142616139D01*
X86233571Y-142629153D01*
X86139641Y-142604331D01*
X86062359Y-142545453D01*
X86013492Y-142461482D01*
X86000000Y-142380631D01*
X86000000Y-133499994D01*
X97797475Y-133499994D01*
X97797475Y-133500005D01*
X97817542Y-133754989D01*
X97877253Y-134003703D01*
X97877256Y-134003711D01*
X97975134Y-134240010D01*
X98108781Y-134458103D01*
X98112033Y-134461911D01*
X98749920Y-133824022D01*
X98762859Y-133855258D01*
X98844937Y-133978097D01*
X98949403Y-134082563D01*
X99072242Y-134164641D01*
X99103474Y-134177578D01*
X98465587Y-134815466D01*
X98469383Y-134818709D01*
X98469401Y-134818721D01*
X98687484Y-134952363D01*
X98923788Y-135050243D01*
X98923796Y-135050246D01*
X99172510Y-135109957D01*
X99427494Y-135130025D01*
X99427506Y-135130025D01*
X99682489Y-135109957D01*
X99931203Y-135050246D01*
X99931211Y-135050243D01*
X100167510Y-134952365D01*
X100385606Y-134818716D01*
X100385608Y-134818714D01*
X100389411Y-134815466D01*
X99751523Y-134177578D01*
X99782758Y-134164641D01*
X99905597Y-134082563D01*
X100010063Y-133978097D01*
X100092141Y-133855258D01*
X100105078Y-133824023D01*
X100742966Y-134461911D01*
X100746214Y-134458108D01*
X100746216Y-134458106D01*
X100879865Y-134240010D01*
X100977743Y-134003711D01*
X100977746Y-134003703D01*
X101037457Y-133754989D01*
X101057525Y-133500005D01*
X101057525Y-133500000D01*
X107457033Y-133500000D01*
X107476876Y-133790104D01*
X107508961Y-133944500D01*
X107536036Y-134074793D01*
X107614083Y-134294394D01*
X107633415Y-134348788D01*
X107767184Y-134606950D01*
X107767187Y-134606955D01*
X107767188Y-134606956D01*
X107934873Y-134844512D01*
X108133343Y-135057022D01*
X108358902Y-135240527D01*
X108437261Y-135288178D01*
X108586301Y-135378812D01*
X108607347Y-135391610D01*
X108874050Y-135507456D01*
X108874057Y-135507458D01*
X108874056Y-135507458D01*
X108963344Y-135532474D01*
X109154044Y-135585906D01*
X109154048Y-135585906D01*
X109154050Y-135585907D01*
X109390932Y-135618465D01*
X109442112Y-135625500D01*
X109487833Y-135625500D01*
X109583121Y-135644454D01*
X109663902Y-135698429D01*
X116109990Y-142144518D01*
X116109993Y-142144520D01*
X116109999Y-142144526D01*
X116220657Y-142224923D01*
X116220658Y-142224923D01*
X116220659Y-142224924D01*
X116301066Y-142283343D01*
X116511508Y-142390568D01*
X116736132Y-142463553D01*
X116969408Y-142500500D01*
X116969412Y-142500500D01*
X209625588Y-142500500D01*
X209625592Y-142500500D01*
X209858868Y-142463553D01*
X210083492Y-142390568D01*
X210293934Y-142283343D01*
X210485010Y-142144517D01*
X212652017Y-139977510D01*
X212790843Y-139786434D01*
X212898068Y-139575992D01*
X212971053Y-139351369D01*
X213008000Y-139118092D01*
X213008000Y-138881908D01*
X213008000Y-82881908D01*
X212971053Y-82648632D01*
X212898068Y-82424008D01*
X212790843Y-82213566D01*
X212652017Y-82022490D01*
X210485010Y-79855483D01*
X210293934Y-79716657D01*
X210083492Y-79609432D01*
X210083489Y-79609431D01*
X210083484Y-79609429D01*
X209954984Y-79567677D01*
X209858868Y-79536447D01*
X209858866Y-79536446D01*
X209858864Y-79536446D01*
X209625603Y-79499501D01*
X209625594Y-79499500D01*
X209625592Y-79499500D01*
X186625592Y-79499500D01*
X162389408Y-79499500D01*
X162389405Y-79499500D01*
X162389396Y-79499501D01*
X162156135Y-79536446D01*
X161931515Y-79609429D01*
X161931510Y-79609431D01*
X161721066Y-79716657D01*
X161529992Y-79855481D01*
X158207270Y-83178201D01*
X158126488Y-83232177D01*
X158104595Y-83240068D01*
X157847858Y-83319262D01*
X157847857Y-83319262D01*
X157604727Y-83436348D01*
X157381757Y-83588366D01*
X157183937Y-83771916D01*
X157015689Y-83982892D01*
X157015688Y-83982892D01*
X156880757Y-84216601D01*
X156880756Y-84216604D01*
X156782167Y-84467801D01*
X156782163Y-84467812D01*
X156722116Y-84730899D01*
X156701951Y-85000000D01*
X156722116Y-85269100D01*
X156782163Y-85532187D01*
X156782167Y-85532198D01*
X156824588Y-85640283D01*
X156880757Y-85783398D01*
X157015685Y-86017102D01*
X157015689Y-86017107D01*
X157093557Y-86114751D01*
X157138150Y-86201068D01*
X157146315Y-86297880D01*
X157116811Y-86390446D01*
X157093557Y-86425249D01*
X157015689Y-86522892D01*
X157015688Y-86522892D01*
X156880757Y-86756601D01*
X156880756Y-86756604D01*
X156782167Y-87007801D01*
X156782163Y-87007812D01*
X156722116Y-87270899D01*
X156701951Y-87540000D01*
X156722116Y-87809100D01*
X156782163Y-88072187D01*
X156782167Y-88072198D01*
X156801876Y-88122414D01*
X156880713Y-88323287D01*
X156880756Y-88323395D01*
X156880760Y-88323404D01*
X156973641Y-88484279D01*
X157004870Y-88576278D01*
X157007000Y-88608778D01*
X157007000Y-93618087D01*
X157007001Y-93618103D01*
X157043946Y-93851364D01*
X157043947Y-93851368D01*
X157116932Y-94075992D01*
X157224157Y-94286434D01*
X157362983Y-94477510D01*
X158740954Y-95855481D01*
X160015638Y-97130165D01*
X160069614Y-97210947D01*
X160077033Y-97228858D01*
X160208658Y-97443652D01*
X160208660Y-97443654D01*
X160208663Y-97443657D01*
X160208664Y-97443659D01*
X160372276Y-97635224D01*
X160563841Y-97798836D01*
X160563845Y-97798839D01*
X160563847Y-97798841D01*
X160724604Y-97897352D01*
X160778641Y-97930466D01*
X161011389Y-98026873D01*
X161256352Y-98085683D01*
X161328108Y-98091330D01*
X161507495Y-98105449D01*
X161507500Y-98105449D01*
X161507505Y-98105449D01*
X161664467Y-98093095D01*
X161758648Y-98085683D01*
X162003611Y-98026873D01*
X162236359Y-97930466D01*
X162364206Y-97852121D01*
X162451152Y-97798841D01*
X162451154Y-97798839D01*
X162451153Y-97798839D01*
X162451159Y-97798836D01*
X162642724Y-97635224D01*
X162806336Y-97443659D01*
X162806339Y-97443653D01*
X162806341Y-97443652D01*
X162879749Y-97323860D01*
X162937966Y-97228859D01*
X163034373Y-96996111D01*
X163093183Y-96751148D01*
X163112949Y-96500000D01*
X163093183Y-96248852D01*
X163034373Y-96003889D01*
X162937966Y-95771141D01*
X162876785Y-95671303D01*
X162806341Y-95556347D01*
X162806339Y-95556345D01*
X162806336Y-95556341D01*
X162642724Y-95364776D01*
X162451159Y-95201164D01*
X162451157Y-95201163D01*
X162451154Y-95201160D01*
X162451152Y-95201158D01*
X162236358Y-95069533D01*
X162218447Y-95062114D01*
X162137666Y-95008138D01*
X162137665Y-95008138D01*
X160080930Y-92951402D01*
X160026954Y-92870620D01*
X160008000Y-92775332D01*
X160008000Y-88608778D01*
X160026954Y-88513490D01*
X160041359Y-88484279D01*
X160134243Y-88323398D01*
X160232834Y-88072195D01*
X160292883Y-87809103D01*
X160313049Y-87540000D01*
X160292883Y-87270897D01*
X160254126Y-87101090D01*
X160232836Y-87007812D01*
X160232834Y-87007809D01*
X160232834Y-87007805D01*
X160134243Y-86756602D01*
X159999315Y-86522898D01*
X159999313Y-86522895D01*
X159999311Y-86522892D01*
X159999309Y-86522891D01*
X159993551Y-86515671D01*
X159921442Y-86425249D01*
X159876850Y-86338933D01*
X159868684Y-86242122D01*
X159898187Y-86149555D01*
X159921443Y-86114750D01*
X159999315Y-86017102D01*
X160134243Y-85783398D01*
X160232834Y-85532195D01*
X160256945Y-85426556D01*
X160296626Y-85337875D01*
X160323626Y-85305899D01*
X163056097Y-82573430D01*
X163136879Y-82519454D01*
X163232167Y-82500500D01*
X185782833Y-82500500D01*
X185878121Y-82519454D01*
X185958903Y-82573430D01*
X186934070Y-83548597D01*
X186988046Y-83629379D01*
X187007000Y-83724667D01*
X187007000Y-84156966D01*
X186988046Y-84252254D01*
X186934070Y-84333036D01*
X186853288Y-84387012D01*
X186758000Y-84405966D01*
X186662712Y-84387012D01*
X186649966Y-84381309D01*
X186610289Y-84362202D01*
X186359014Y-84284693D01*
X186359008Y-84284692D01*
X186143793Y-84252254D01*
X186098983Y-84245500D01*
X186098982Y-84245500D01*
X185836018Y-84245500D01*
X185836017Y-84245500D01*
X185575985Y-84284693D01*
X185324710Y-84362202D01*
X185324705Y-84362204D01*
X185090814Y-84474841D01*
X184996739Y-84499108D01*
X184982777Y-84499500D01*
X183889408Y-84499500D01*
X183889405Y-84499500D01*
X183889396Y-84499501D01*
X183656135Y-84536446D01*
X183431515Y-84609429D01*
X183431510Y-84609431D01*
X183221066Y-84716657D01*
X183029992Y-84855481D01*
X174406978Y-93478493D01*
X174326196Y-93532469D01*
X174230908Y-93551423D01*
X174135620Y-93532469D01*
X174054838Y-93478493D01*
X174000862Y-93397711D01*
X173981908Y-93302423D01*
X173984973Y-93263478D01*
X174008000Y-93118092D01*
X174008000Y-92881908D01*
X174008000Y-88499357D01*
X174026954Y-88404069D01*
X174080930Y-88323287D01*
X174161712Y-88269311D01*
X174257000Y-88250357D01*
X174352288Y-88269311D01*
X174370044Y-88277496D01*
X174489941Y-88338586D01*
X174707374Y-88409234D01*
X174797500Y-88423509D01*
X174797500Y-87435747D01*
X174835208Y-87457518D01*
X174975091Y-87495000D01*
X175119909Y-87495000D01*
X175259792Y-87457518D01*
X175297500Y-87435747D01*
X175297500Y-88423509D01*
X175387625Y-88409234D01*
X175605058Y-88338586D01*
X175605063Y-88338584D01*
X175808780Y-88234786D01*
X175993736Y-88100407D01*
X176155407Y-87938736D01*
X176289786Y-87753780D01*
X176393584Y-87550063D01*
X176393586Y-87550058D01*
X176464234Y-87332624D01*
X176486033Y-87195000D01*
X175538248Y-87195000D01*
X175560018Y-87157292D01*
X175597500Y-87017409D01*
X175597500Y-86872591D01*
X175560018Y-86732708D01*
X175538248Y-86695000D01*
X176486032Y-86695000D01*
X176464234Y-86557375D01*
X176393586Y-86339941D01*
X176393584Y-86339936D01*
X176289786Y-86136219D01*
X176155407Y-85951263D01*
X175993736Y-85789592D01*
X175808779Y-85655213D01*
X175808780Y-85655213D01*
X175605063Y-85551415D01*
X175605058Y-85551413D01*
X175387639Y-85480769D01*
X175387627Y-85480766D01*
X175297500Y-85466490D01*
X175297500Y-86454252D01*
X175259792Y-86432482D01*
X175119909Y-86395000D01*
X174975091Y-86395000D01*
X174835208Y-86432482D01*
X174797500Y-86454252D01*
X174797500Y-85466490D01*
X174797499Y-85466490D01*
X174707372Y-85480766D01*
X174707360Y-85480769D01*
X174489941Y-85551413D01*
X174489936Y-85551415D01*
X174277507Y-85659653D01*
X174276295Y-85657275D01*
X174201602Y-85684813D01*
X174104523Y-85680977D01*
X174016301Y-85640283D01*
X173985434Y-85612120D01*
X173984756Y-85612799D01*
X173978996Y-85607039D01*
X173978993Y-85607035D01*
X173797965Y-85426007D01*
X173797960Y-85426003D01*
X173797959Y-85426002D01*
X173594867Y-85270163D01*
X173594852Y-85270153D01*
X173532040Y-85233889D01*
X173373143Y-85142150D01*
X173373141Y-85142149D01*
X173373139Y-85142148D01*
X173373135Y-85142146D01*
X173225639Y-85081051D01*
X173136618Y-85044178D01*
X172889329Y-84977917D01*
X172889324Y-84977916D01*
X172889327Y-84977916D01*
X172635506Y-84944500D01*
X172379494Y-84944500D01*
X172125674Y-84977916D01*
X171878388Y-85044176D01*
X171878376Y-85044180D01*
X171694718Y-85120253D01*
X171599430Y-85139207D01*
X171504142Y-85120253D01*
X171484146Y-85110911D01*
X171293053Y-85011093D01*
X171293052Y-85011092D01*
X171293049Y-85011091D01*
X171097418Y-84955114D01*
X170978037Y-84944500D01*
X170978035Y-84944500D01*
X168956968Y-84944500D01*
X168956956Y-84944501D01*
X168837585Y-84955113D01*
X168641954Y-85011090D01*
X168641946Y-85011093D01*
X168461597Y-85105299D01*
X168461592Y-85105302D01*
X168303893Y-85233889D01*
X168303889Y-85233893D01*
X168175302Y-85391592D01*
X168175299Y-85391597D01*
X168081093Y-85571946D01*
X168081090Y-85571954D01*
X168025115Y-85767578D01*
X168025114Y-85767582D01*
X168014500Y-85886963D01*
X168014500Y-88003031D01*
X168014501Y-88003043D01*
X168025113Y-88122414D01*
X168025113Y-88122417D01*
X168025114Y-88122418D01*
X168069677Y-88278157D01*
X168081090Y-88318045D01*
X168081093Y-88318053D01*
X168139171Y-88429239D01*
X168175302Y-88498407D01*
X168303891Y-88656109D01*
X168375353Y-88714379D01*
X168437225Y-88789283D01*
X168465722Y-88882165D01*
X168467000Y-88907357D01*
X168467000Y-91815333D01*
X168448046Y-91910621D01*
X168394070Y-91991403D01*
X166362981Y-94022492D01*
X166324113Y-94075989D01*
X166224157Y-94213566D01*
X166128222Y-94401850D01*
X166128221Y-94401850D01*
X166116934Y-94424002D01*
X166116929Y-94424015D01*
X166043946Y-94648635D01*
X166007001Y-94881896D01*
X166007000Y-94881912D01*
X166007000Y-102275333D01*
X165988046Y-102370621D01*
X165934070Y-102451403D01*
X162458903Y-105926570D01*
X162378121Y-105980546D01*
X162282833Y-105999500D01*
X162116811Y-105999500D01*
X162021523Y-105980546D01*
X162003617Y-105973129D01*
X162003610Y-105973126D01*
X161758645Y-105914316D01*
X161507505Y-105894551D01*
X161507495Y-105894551D01*
X161256354Y-105914316D01*
X161011391Y-105973126D01*
X161011383Y-105973129D01*
X160778641Y-106069533D01*
X160778635Y-106069537D01*
X160563847Y-106201158D01*
X160563845Y-106201160D01*
X160372279Y-106364773D01*
X160372273Y-106364779D01*
X160208660Y-106556345D01*
X160208658Y-106556347D01*
X160077037Y-106771135D01*
X160077033Y-106771141D01*
X159980629Y-107003883D01*
X159980626Y-107003891D01*
X159921816Y-107248854D01*
X159902051Y-107499994D01*
X159902051Y-107500005D01*
X159921816Y-107751145D01*
X159980626Y-107996108D01*
X159980629Y-107996116D01*
X160077033Y-108228858D01*
X160077037Y-108228864D01*
X160208658Y-108443652D01*
X160208660Y-108443654D01*
X160208663Y-108443657D01*
X160208664Y-108443659D01*
X160372276Y-108635224D01*
X160563841Y-108798836D01*
X160563845Y-108798839D01*
X160563847Y-108798841D01*
X160713537Y-108890570D01*
X160778641Y-108930466D01*
X161011389Y-109026873D01*
X161256352Y-109085683D01*
X161328108Y-109091330D01*
X161507495Y-109105449D01*
X161507500Y-109105449D01*
X161507505Y-109105449D01*
X161664467Y-109093095D01*
X161758648Y-109085683D01*
X162003611Y-109026873D01*
X162013696Y-109022695D01*
X162021523Y-109019454D01*
X162116811Y-109000500D01*
X163125588Y-109000500D01*
X163125592Y-109000500D01*
X163358868Y-108963553D01*
X163583492Y-108890568D01*
X163793934Y-108783343D01*
X163985010Y-108644517D01*
X168652017Y-103977510D01*
X168790843Y-103786434D01*
X168898068Y-103575992D01*
X168971053Y-103351368D01*
X168999310Y-103172954D01*
X169032936Y-103081809D01*
X169098885Y-103010465D01*
X169187115Y-102969790D01*
X169284195Y-102965975D01*
X169375345Y-102999602D01*
X169421309Y-103035836D01*
X170529990Y-104144518D01*
X170529993Y-104144520D01*
X170669108Y-104245593D01*
X170669107Y-104245593D01*
X170689622Y-104260497D01*
X170721067Y-104283343D01*
X170931508Y-104390568D01*
X171156132Y-104463553D01*
X171389408Y-104500500D01*
X171389409Y-104500500D01*
X171389412Y-104500500D01*
X172625588Y-104500500D01*
X172625592Y-104500500D01*
X172858868Y-104463553D01*
X173083492Y-104390568D01*
X173293934Y-104283343D01*
X173485010Y-104144517D01*
X177581930Y-100047595D01*
X177662712Y-99993620D01*
X177758000Y-99974666D01*
X177853288Y-99993620D01*
X177934070Y-100047596D01*
X177988046Y-100128378D01*
X178007000Y-100223666D01*
X178007000Y-104275333D01*
X177988046Y-104370621D01*
X177934070Y-104451403D01*
X176458903Y-105926570D01*
X176378121Y-105980546D01*
X176282833Y-105999500D01*
X174116811Y-105999500D01*
X174021523Y-105980546D01*
X174003617Y-105973129D01*
X174003610Y-105973126D01*
X173758645Y-105914316D01*
X173507505Y-105894551D01*
X173507495Y-105894551D01*
X173256354Y-105914316D01*
X173011391Y-105973126D01*
X173011383Y-105973129D01*
X172778641Y-106069533D01*
X172778635Y-106069537D01*
X172563847Y-106201158D01*
X172563845Y-106201160D01*
X172372279Y-106364773D01*
X172372273Y-106364779D01*
X172208660Y-106556345D01*
X172208658Y-106556347D01*
X172077037Y-106771135D01*
X172077033Y-106771141D01*
X171980629Y-107003883D01*
X171980626Y-107003891D01*
X171921816Y-107248854D01*
X171902051Y-107499994D01*
X171902051Y-107500005D01*
X171921816Y-107751145D01*
X171980626Y-107996108D01*
X171980629Y-107996116D01*
X172077033Y-108228858D01*
X172077037Y-108228864D01*
X172208658Y-108443652D01*
X172208660Y-108443654D01*
X172208663Y-108443657D01*
X172208664Y-108443659D01*
X172372276Y-108635224D01*
X172563841Y-108798836D01*
X172563845Y-108798839D01*
X172563847Y-108798841D01*
X172713537Y-108890570D01*
X172778641Y-108930466D01*
X173011389Y-109026873D01*
X173256352Y-109085683D01*
X173328108Y-109091330D01*
X173507495Y-109105449D01*
X173507500Y-109105449D01*
X173507505Y-109105449D01*
X173664467Y-109093095D01*
X173758648Y-109085683D01*
X174003611Y-109026873D01*
X174013696Y-109022695D01*
X174021523Y-109019454D01*
X174116811Y-109000500D01*
X177125588Y-109000500D01*
X177125592Y-109000500D01*
X177358868Y-108963553D01*
X177583492Y-108890568D01*
X177793934Y-108783343D01*
X177985010Y-108644517D01*
X179981933Y-106647592D01*
X180062712Y-106593619D01*
X180158000Y-106574665D01*
X180253288Y-106593619D01*
X180334070Y-106647595D01*
X180388046Y-106728377D01*
X180407000Y-106823665D01*
X180407000Y-108318031D01*
X180407001Y-108318043D01*
X180417613Y-108437414D01*
X180417613Y-108437417D01*
X180417614Y-108437418D01*
X180429955Y-108480546D01*
X180473590Y-108633045D01*
X180473593Y-108633053D01*
X180560190Y-108798836D01*
X180567802Y-108813407D01*
X180696391Y-108971109D01*
X180854093Y-109099698D01*
X181034451Y-109193909D01*
X181230082Y-109249886D01*
X181349463Y-109260500D01*
X183665536Y-109260499D01*
X183784918Y-109249886D01*
X183980549Y-109193909D01*
X184160907Y-109099698D01*
X184318609Y-108971109D01*
X184447198Y-108813407D01*
X184541409Y-108633049D01*
X184597386Y-108437418D01*
X184605385Y-108347446D01*
X184632704Y-108254212D01*
X184693623Y-108178529D01*
X184778867Y-108131919D01*
X184853407Y-108120500D01*
X189139070Y-108120500D01*
X189234358Y-108139454D01*
X189296423Y-108176521D01*
X189429086Y-108284693D01*
X189429089Y-108284695D01*
X189429093Y-108284698D01*
X189609451Y-108378909D01*
X189805082Y-108434886D01*
X189924463Y-108445500D01*
X190727832Y-108445499D01*
X190823120Y-108464453D01*
X190903901Y-108518429D01*
X190903902Y-108518429D01*
X191934070Y-109548597D01*
X191988046Y-109629379D01*
X192007000Y-109724667D01*
X192007000Y-112345214D01*
X191988046Y-112440502D01*
X191934070Y-112521284D01*
X191853288Y-112575260D01*
X191758000Y-112594214D01*
X191662712Y-112575260D01*
X191649964Y-112569556D01*
X191476298Y-112485924D01*
X191214857Y-112405279D01*
X191214851Y-112405278D01*
X191055712Y-112381292D01*
X190944303Y-112364500D01*
X190944302Y-112364500D01*
X190670698Y-112364500D01*
X190670697Y-112364500D01*
X190596260Y-112375719D01*
X190400149Y-112405278D01*
X190400146Y-112405278D01*
X190400145Y-112405279D01*
X190389908Y-112408437D01*
X190316511Y-112419500D01*
X184080011Y-112419500D01*
X183984723Y-112400546D01*
X183922870Y-112363652D01*
X183912826Y-112355481D01*
X183742189Y-112216657D01*
X183721646Y-112199944D01*
X183476126Y-112050639D01*
X183212557Y-111936155D01*
X182935851Y-111858627D01*
X182651181Y-111819500D01*
X182651178Y-111819500D01*
X182363822Y-111819500D01*
X182363818Y-111819500D01*
X182079148Y-111858627D01*
X181802442Y-111936155D01*
X181704067Y-111978886D01*
X181609116Y-111999464D01*
X181604865Y-111999500D01*
X174116811Y-111999500D01*
X174021523Y-111980546D01*
X174003617Y-111973129D01*
X174003610Y-111973126D01*
X173758645Y-111914316D01*
X173507505Y-111894551D01*
X173507495Y-111894551D01*
X173256354Y-111914316D01*
X173011389Y-111973126D01*
X173011382Y-111973129D01*
X172993477Y-111980546D01*
X172898189Y-111999500D01*
X171889408Y-111999500D01*
X171889405Y-111999500D01*
X171889396Y-111999501D01*
X171656135Y-112036446D01*
X171431515Y-112109429D01*
X171431510Y-112109431D01*
X171221066Y-112216657D01*
X171029992Y-112355481D01*
X169362980Y-114022493D01*
X169224161Y-114213558D01*
X169224155Y-114213568D01*
X169194706Y-114271367D01*
X169116932Y-114424007D01*
X169116930Y-114424012D01*
X169043946Y-114648634D01*
X169015689Y-114827042D01*
X168982062Y-114918191D01*
X168916113Y-114989534D01*
X168827882Y-115030209D01*
X168730802Y-115034023D01*
X168639653Y-115000396D01*
X168593685Y-114964158D01*
X168485010Y-114855482D01*
X168485010Y-114855483D01*
X165985010Y-112355483D01*
X165793934Y-112216657D01*
X165583492Y-112109432D01*
X165583489Y-112109431D01*
X165583484Y-112109429D01*
X165402546Y-112050639D01*
X165358868Y-112036447D01*
X165358866Y-112036446D01*
X165358864Y-112036446D01*
X165125603Y-111999501D01*
X165125594Y-111999500D01*
X165125592Y-111999500D01*
X165125588Y-111999500D01*
X162116811Y-111999500D01*
X162021523Y-111980546D01*
X162003617Y-111973129D01*
X162003610Y-111973126D01*
X161758645Y-111914316D01*
X161507505Y-111894551D01*
X161507495Y-111894551D01*
X161256354Y-111914316D01*
X161011391Y-111973126D01*
X161011383Y-111973129D01*
X160778641Y-112069533D01*
X160778635Y-112069537D01*
X160563847Y-112201158D01*
X160563845Y-112201160D01*
X160372279Y-112364773D01*
X160372273Y-112364779D01*
X160208660Y-112556345D01*
X160208658Y-112556347D01*
X160077037Y-112771135D01*
X160077033Y-112771141D01*
X159980629Y-113003883D01*
X159980626Y-113003891D01*
X159921816Y-113248854D01*
X159902051Y-113499994D01*
X159902051Y-113500005D01*
X159921816Y-113751145D01*
X159980626Y-113996108D01*
X159980629Y-113996116D01*
X160077033Y-114228858D01*
X160077037Y-114228864D01*
X160208658Y-114443652D01*
X160208660Y-114443654D01*
X160208663Y-114443657D01*
X160208664Y-114443659D01*
X160372276Y-114635224D01*
X160563841Y-114798836D01*
X160563845Y-114798839D01*
X160563847Y-114798841D01*
X160713535Y-114890569D01*
X160778641Y-114930466D01*
X161011389Y-115026873D01*
X161256352Y-115085683D01*
X161328108Y-115091330D01*
X161507495Y-115105449D01*
X161507500Y-115105449D01*
X161507505Y-115105449D01*
X161664467Y-115093095D01*
X161758648Y-115085683D01*
X162003611Y-115026873D01*
X162013696Y-115022695D01*
X162021523Y-115019454D01*
X162116811Y-115000500D01*
X164282833Y-115000500D01*
X164378121Y-115019454D01*
X164458903Y-115073430D01*
X165934070Y-116548597D01*
X165988046Y-116629379D01*
X166007000Y-116724667D01*
X166007000Y-134118087D01*
X166007001Y-134118103D01*
X166043946Y-134351364D01*
X166108945Y-134551413D01*
X166116932Y-134575992D01*
X166224157Y-134786434D01*
X166362983Y-134977510D01*
X167154967Y-135769494D01*
X167941570Y-136556097D01*
X167995546Y-136636879D01*
X168014500Y-136732166D01*
X168014500Y-137003030D01*
X168014501Y-137003043D01*
X168025113Y-137122414D01*
X168025113Y-137122417D01*
X168025114Y-137122418D01*
X168057267Y-137234786D01*
X168081090Y-137318045D01*
X168081093Y-137318053D01*
X168157325Y-137463993D01*
X168175302Y-137498407D01*
X168303891Y-137656109D01*
X168461593Y-137784698D01*
X168641951Y-137878909D01*
X168837582Y-137934886D01*
X168956963Y-137945500D01*
X170978036Y-137945499D01*
X171097418Y-137934886D01*
X171293049Y-137878909D01*
X171473407Y-137784698D01*
X171473410Y-137784695D01*
X171484145Y-137779088D01*
X171577380Y-137751770D01*
X171673973Y-137762211D01*
X171694715Y-137769744D01*
X171878382Y-137845822D01*
X172125671Y-137912083D01*
X172379494Y-137945500D01*
X172635506Y-137945500D01*
X172889329Y-137912083D01*
X173136618Y-137845822D01*
X173373143Y-137747850D01*
X173594857Y-137619844D01*
X173797965Y-137463993D01*
X173923374Y-137338584D01*
X173984758Y-137277201D01*
X173986263Y-137278706D01*
X174052487Y-137227851D01*
X174146321Y-137202669D01*
X174242650Y-137215312D01*
X174276969Y-137231402D01*
X174277507Y-137230347D01*
X174489936Y-137338584D01*
X174489941Y-137338586D01*
X174707374Y-137409234D01*
X174797500Y-137423509D01*
X174797500Y-136435747D01*
X174835208Y-136457518D01*
X174975091Y-136495000D01*
X175119909Y-136495000D01*
X175259792Y-136457518D01*
X175297500Y-136435747D01*
X175297500Y-137423508D01*
X175387625Y-137409234D01*
X175605058Y-137338586D01*
X175605063Y-137338584D01*
X175808780Y-137234786D01*
X175993736Y-137100407D01*
X176155407Y-136938736D01*
X176289786Y-136753780D01*
X176393584Y-136550063D01*
X176393586Y-136550058D01*
X176464234Y-136332624D01*
X176486033Y-136195000D01*
X175538248Y-136195000D01*
X175560018Y-136157292D01*
X175597500Y-136017409D01*
X175597500Y-135872591D01*
X175560018Y-135732708D01*
X175538248Y-135695000D01*
X176486032Y-135695000D01*
X176464234Y-135557375D01*
X176393586Y-135339941D01*
X176393584Y-135339936D01*
X176289786Y-135136219D01*
X176155407Y-134951263D01*
X175993736Y-134789592D01*
X175808779Y-134655213D01*
X175808780Y-134655213D01*
X175605063Y-134551415D01*
X175605058Y-134551413D01*
X175387639Y-134480769D01*
X175387627Y-134480766D01*
X175297500Y-134466490D01*
X175297500Y-135454252D01*
X175259792Y-135432482D01*
X175119909Y-135395000D01*
X174975091Y-135395000D01*
X174835208Y-135432482D01*
X174797500Y-135454252D01*
X174797500Y-134466490D01*
X174797499Y-134466490D01*
X174707372Y-134480766D01*
X174707360Y-134480769D01*
X174489941Y-134551413D01*
X174489930Y-134551417D01*
X174370042Y-134612503D01*
X174276535Y-134638875D01*
X174180053Y-134627455D01*
X174095286Y-134579982D01*
X174035139Y-134503684D01*
X174008767Y-134410177D01*
X174008000Y-134390642D01*
X174008000Y-133881912D01*
X174008000Y-133881908D01*
X173984873Y-133735887D01*
X173971053Y-133648631D01*
X173898068Y-133424008D01*
X173790843Y-133213566D01*
X173652017Y-133022490D01*
X172080930Y-131451403D01*
X172026954Y-131370621D01*
X172008000Y-131275333D01*
X172008000Y-125864225D01*
X172026954Y-125768937D01*
X172080930Y-125688155D01*
X172161712Y-125634179D01*
X172257000Y-125615225D01*
X172352288Y-125634179D01*
X172418709Y-125674881D01*
X172507184Y-125750446D01*
X172563845Y-125798839D01*
X172563847Y-125798841D01*
X172778638Y-125930465D01*
X172782052Y-125931879D01*
X172796548Y-125937883D01*
X172877330Y-125991858D01*
X172877334Y-125991861D01*
X183029990Y-136144517D01*
X183221066Y-136283343D01*
X183333244Y-136340500D01*
X183431508Y-136390568D01*
X183656132Y-136463553D01*
X183889408Y-136500500D01*
X185982777Y-136500500D01*
X186078065Y-136519454D01*
X186090814Y-136525159D01*
X186324705Y-136637795D01*
X186324709Y-136637796D01*
X186324712Y-136637798D01*
X186502208Y-136692548D01*
X186575985Y-136715306D01*
X186575986Y-136715306D01*
X186575992Y-136715308D01*
X186800245Y-136749108D01*
X186836017Y-136754500D01*
X186836018Y-136754500D01*
X187098983Y-136754500D01*
X187130428Y-136749760D01*
X187359008Y-136715308D01*
X187610288Y-136637798D01*
X187649962Y-136618692D01*
X187744038Y-136594425D01*
X187840239Y-136608006D01*
X187923920Y-136657368D01*
X187982341Y-136734995D01*
X188006608Y-136829071D01*
X188007000Y-136843033D01*
X188007000Y-138275333D01*
X187988046Y-138370621D01*
X187934070Y-138451403D01*
X186958903Y-139426570D01*
X186878121Y-139480546D01*
X186782833Y-139499500D01*
X158239133Y-139499500D01*
X158143845Y-139480546D01*
X158063063Y-139426570D01*
X158009087Y-139345788D01*
X157990133Y-139250500D01*
X157993198Y-139211549D01*
X158008000Y-139118092D01*
X158008000Y-138881908D01*
X158008000Y-136586950D01*
X158026954Y-136491662D01*
X158080930Y-136410880D01*
X158161712Y-136356904D01*
X158257000Y-136337950D01*
X158283277Y-136339920D01*
X158283286Y-136339804D01*
X158292570Y-136340500D01*
X158292571Y-136340500D01*
X158562426Y-136340500D01*
X158562429Y-136340500D01*
X158829272Y-136300280D01*
X159087141Y-136220738D01*
X159330275Y-136103651D01*
X159359439Y-136083766D01*
X159448847Y-136045750D01*
X159499707Y-136040500D01*
X159676958Y-136040500D01*
X159676962Y-136040500D01*
X159910238Y-136003553D01*
X160134862Y-135930568D01*
X160345304Y-135823343D01*
X160536380Y-135684517D01*
X162652017Y-133568880D01*
X162790843Y-133377804D01*
X162898068Y-133167362D01*
X162971053Y-132942738D01*
X163008000Y-132709462D01*
X163008000Y-132473278D01*
X163008000Y-125109310D01*
X163026954Y-125014022D01*
X163026955Y-125014019D01*
X163034372Y-124996113D01*
X163034373Y-124996110D01*
X163093183Y-124751148D01*
X163103200Y-124623869D01*
X163112949Y-124500005D01*
X163112949Y-124499994D01*
X163093183Y-124248854D01*
X163056518Y-124096130D01*
X163034373Y-124003889D01*
X162937966Y-123771141D01*
X162889274Y-123691683D01*
X162806341Y-123556347D01*
X162806339Y-123556345D01*
X162800095Y-123549034D01*
X162642724Y-123364776D01*
X162451159Y-123201164D01*
X162451157Y-123201163D01*
X162451154Y-123201160D01*
X162451152Y-123201158D01*
X162236364Y-123069537D01*
X162236358Y-123069533D01*
X162003616Y-122973129D01*
X162003608Y-122973126D01*
X161758645Y-122914316D01*
X161507505Y-122894551D01*
X161507495Y-122894551D01*
X161256354Y-122914316D01*
X161011391Y-122973126D01*
X161011383Y-122973129D01*
X160778641Y-123069533D01*
X160778635Y-123069537D01*
X160563847Y-123201158D01*
X160563845Y-123201160D01*
X160372279Y-123364773D01*
X160372273Y-123364779D01*
X160208660Y-123556345D01*
X160208658Y-123556347D01*
X160077037Y-123771135D01*
X160077033Y-123771141D01*
X159980629Y-124003883D01*
X159980626Y-124003891D01*
X159921816Y-124248854D01*
X159902051Y-124499994D01*
X159902051Y-124500005D01*
X159921816Y-124751145D01*
X159980626Y-124996110D01*
X159980627Y-124996113D01*
X159988045Y-125014019D01*
X160007000Y-125109307D01*
X160007000Y-130438677D01*
X159988046Y-130533965D01*
X159934070Y-130614747D01*
X159853288Y-130668723D01*
X159758000Y-130687677D01*
X159662712Y-130668723D01*
X159588639Y-130621209D01*
X159553238Y-130588362D01*
X159330278Y-130436350D01*
X159330273Y-130436348D01*
X159087149Y-130319265D01*
X159087144Y-130319263D01*
X159087141Y-130319262D01*
X158829272Y-130239720D01*
X158562429Y-130199500D01*
X158292571Y-130199500D01*
X158092438Y-130229665D01*
X158025727Y-130239720D01*
X157767853Y-130319264D01*
X157524730Y-130436347D01*
X157524727Y-130436348D01*
X157521311Y-130438677D01*
X157495557Y-130456235D01*
X157406151Y-130494251D01*
X157355294Y-130499500D01*
X157178038Y-130499500D01*
X157178035Y-130499500D01*
X157178026Y-130499501D01*
X156944765Y-130536446D01*
X156720145Y-130609429D01*
X156720140Y-130609431D01*
X156509696Y-130716657D01*
X156318622Y-130855481D01*
X155362981Y-131811122D01*
X155305642Y-131890042D01*
X155240284Y-131980000D01*
X155224156Y-132002198D01*
X155224154Y-132002199D01*
X155151641Y-132144515D01*
X155151641Y-132144517D01*
X155131253Y-132184532D01*
X155116929Y-132212644D01*
X155116929Y-132212645D01*
X155043946Y-132437265D01*
X155007001Y-132670526D01*
X155007000Y-132670542D01*
X155007000Y-138275333D01*
X154988046Y-138370621D01*
X154934070Y-138451403D01*
X153958903Y-139426570D01*
X153878121Y-139480546D01*
X153782833Y-139499500D01*
X119749500Y-139499500D01*
X119654212Y-139480546D01*
X119573430Y-139426570D01*
X119519454Y-139345788D01*
X119500500Y-139250500D01*
X119500500Y-135518777D01*
X119519454Y-135423489D01*
X119533861Y-135394276D01*
X119595117Y-135288177D01*
X119595117Y-135288176D01*
X119595121Y-135288170D01*
X119691795Y-135041850D01*
X119750677Y-134783872D01*
X119770451Y-134520000D01*
X119750677Y-134256128D01*
X119709288Y-134074791D01*
X119691797Y-133998157D01*
X119691796Y-133998154D01*
X119691795Y-133998150D01*
X119595121Y-133751830D01*
X119595116Y-133751821D01*
X119462816Y-133522670D01*
X119424673Y-133474841D01*
X119369175Y-133405248D01*
X119324583Y-133318933D01*
X119316417Y-133222122D01*
X119345920Y-133129555D01*
X119369173Y-133094753D01*
X119462815Y-132977331D01*
X119595121Y-132748170D01*
X119691795Y-132501850D01*
X119750677Y-132243872D01*
X119770451Y-131980000D01*
X119750677Y-131716128D01*
X119705265Y-131517167D01*
X119691797Y-131458157D01*
X119691796Y-131458154D01*
X119691795Y-131458150D01*
X119595121Y-131211830D01*
X119595116Y-131211821D01*
X119462816Y-130982670D01*
X119414371Y-130921922D01*
X119369175Y-130865248D01*
X119324583Y-130778933D01*
X119316417Y-130682122D01*
X119345920Y-130589555D01*
X119369173Y-130554753D01*
X119462815Y-130437331D01*
X119595121Y-130208170D01*
X119691795Y-129961850D01*
X119750677Y-129703872D01*
X119770451Y-129440000D01*
X119750677Y-129176128D01*
X119701950Y-128962641D01*
X119691797Y-128918157D01*
X119691796Y-128918154D01*
X119691795Y-128918150D01*
X119595121Y-128671830D01*
X119583181Y-128651149D01*
X119462816Y-128442670D01*
X119369176Y-128325250D01*
X119369175Y-128325249D01*
X119369175Y-128325248D01*
X119324583Y-128238933D01*
X119316417Y-128142122D01*
X119345920Y-128049555D01*
X119369173Y-128014753D01*
X119462815Y-127897331D01*
X119595121Y-127668170D01*
X119691795Y-127421850D01*
X119750677Y-127163872D01*
X119770451Y-126900000D01*
X119750677Y-126636128D01*
X119691795Y-126378150D01*
X119595121Y-126131830D01*
X119595116Y-126131821D01*
X119462816Y-125902670D01*
X119421688Y-125851097D01*
X119369175Y-125785248D01*
X119324583Y-125698933D01*
X119316417Y-125602122D01*
X119345920Y-125509555D01*
X119369173Y-125474753D01*
X119462815Y-125357331D01*
X119595121Y-125128170D01*
X119691795Y-124881850D01*
X119750677Y-124623872D01*
X119770451Y-124360000D01*
X119750677Y-124096128D01*
X119719379Y-123959003D01*
X119691797Y-123838157D01*
X119691796Y-123838154D01*
X119691795Y-123838150D01*
X119595121Y-123591830D01*
X119574634Y-123556345D01*
X119462816Y-123362670D01*
X119297832Y-123155787D01*
X119297821Y-123155776D01*
X119103861Y-122975808D01*
X119062486Y-122947599D01*
X118994433Y-122878260D01*
X118958095Y-122788157D01*
X118959004Y-122691006D01*
X118997021Y-122601598D01*
X118998786Y-122599045D01*
X119099705Y-122454917D01*
X119193252Y-122254305D01*
X119250541Y-122040497D01*
X119269832Y-121820005D01*
X119269832Y-121819994D01*
X119250541Y-121599502D01*
X119193252Y-121385694D01*
X119099707Y-121185086D01*
X118998785Y-121040954D01*
X118959656Y-120952027D01*
X118957537Y-120854895D01*
X118992750Y-120764345D01*
X119059933Y-120694164D01*
X119062364Y-120692484D01*
X119103858Y-120664194D01*
X119297832Y-120484213D01*
X119462815Y-120277331D01*
X119595121Y-120048170D01*
X119691795Y-119801850D01*
X119750677Y-119543872D01*
X119770451Y-119280000D01*
X119750677Y-119016128D01*
X119691795Y-118758150D01*
X119595121Y-118511830D01*
X119577102Y-118480620D01*
X119462816Y-118282670D01*
X119369176Y-118165250D01*
X119369175Y-118165249D01*
X119369175Y-118165248D01*
X119324583Y-118078933D01*
X119316417Y-117982122D01*
X119345920Y-117889555D01*
X119369173Y-117854753D01*
X119462815Y-117737331D01*
X119595121Y-117508170D01*
X119691795Y-117261850D01*
X119750677Y-117003872D01*
X119770451Y-116740000D01*
X119750677Y-116476128D01*
X119691795Y-116218150D01*
X119595121Y-115971830D01*
X119569093Y-115926748D01*
X119462816Y-115742670D01*
X119396085Y-115658992D01*
X119369175Y-115625248D01*
X119324583Y-115538933D01*
X119316417Y-115442122D01*
X119345920Y-115349555D01*
X119369173Y-115314753D01*
X119462815Y-115197331D01*
X119595121Y-114968170D01*
X119691795Y-114721850D01*
X119750677Y-114463872D01*
X119770451Y-114200000D01*
X119750677Y-113936128D01*
X119719379Y-113799003D01*
X119691797Y-113678157D01*
X119691796Y-113678154D01*
X119691795Y-113678150D01*
X119595121Y-113431830D01*
X119574275Y-113395724D01*
X119462816Y-113202670D01*
X119369176Y-113085250D01*
X119369175Y-113085249D01*
X119369175Y-113085248D01*
X119324583Y-112998933D01*
X119316417Y-112902122D01*
X119345920Y-112809555D01*
X119369173Y-112774753D01*
X119462815Y-112657331D01*
X119595121Y-112428170D01*
X119691795Y-112181850D01*
X119750677Y-111923872D01*
X119770451Y-111660000D01*
X119750677Y-111396128D01*
X119693249Y-111144519D01*
X119691797Y-111138157D01*
X119691796Y-111138154D01*
X119691795Y-111138150D01*
X119595121Y-110891830D01*
X119462815Y-110662669D01*
X119369175Y-110545248D01*
X119324583Y-110458933D01*
X119316417Y-110362122D01*
X119345920Y-110269555D01*
X119369173Y-110234753D01*
X119462815Y-110117331D01*
X119595121Y-109888170D01*
X119691795Y-109641850D01*
X119694642Y-109629379D01*
X119713079Y-109548597D01*
X119750677Y-109383872D01*
X119770451Y-109120000D01*
X119750677Y-108856128D01*
X119702378Y-108644517D01*
X119691797Y-108598157D01*
X119691796Y-108598154D01*
X119691795Y-108598150D01*
X119595121Y-108351830D01*
X119595116Y-108351821D01*
X119462816Y-108122670D01*
X119424346Y-108074430D01*
X119369175Y-108005248D01*
X119324583Y-107918933D01*
X119316417Y-107822122D01*
X119345920Y-107729555D01*
X119369173Y-107694753D01*
X119462815Y-107577331D01*
X119595121Y-107348170D01*
X119691795Y-107101850D01*
X119750677Y-106843872D01*
X119770451Y-106580000D01*
X119750677Y-106316128D01*
X119696877Y-106080416D01*
X119691797Y-106058157D01*
X119691796Y-106058154D01*
X119691795Y-106058150D01*
X119595121Y-105811830D01*
X119595116Y-105811821D01*
X119462816Y-105582670D01*
X119410726Y-105517352D01*
X119369175Y-105465248D01*
X119324583Y-105378933D01*
X119316417Y-105282122D01*
X119345920Y-105189555D01*
X119369173Y-105154753D01*
X119462815Y-105037331D01*
X119595121Y-104808170D01*
X119691795Y-104561850D01*
X119750677Y-104303872D01*
X119770451Y-104040000D01*
X119750677Y-103776128D01*
X119717757Y-103631898D01*
X119691797Y-103518157D01*
X119691796Y-103518154D01*
X119691795Y-103518150D01*
X119595121Y-103271830D01*
X119595116Y-103271821D01*
X119462816Y-103042670D01*
X119404696Y-102969790D01*
X119369175Y-102925248D01*
X119324583Y-102838933D01*
X119316417Y-102742122D01*
X119345920Y-102649555D01*
X119369173Y-102614753D01*
X119462815Y-102497331D01*
X119595121Y-102268170D01*
X119691795Y-102021850D01*
X119697228Y-101998049D01*
X119741879Y-101802418D01*
X119750677Y-101763872D01*
X119770451Y-101500000D01*
X119750677Y-101236128D01*
X119698238Y-101006379D01*
X119691797Y-100978157D01*
X119691796Y-100978154D01*
X119691795Y-100978150D01*
X119595121Y-100731830D01*
X119595116Y-100731821D01*
X119462816Y-100502670D01*
X119431621Y-100463553D01*
X119369175Y-100385248D01*
X119324583Y-100298933D01*
X119316417Y-100202122D01*
X119345920Y-100109555D01*
X119369173Y-100074753D01*
X119462815Y-99957331D01*
X119595121Y-99728170D01*
X119691795Y-99481850D01*
X119750677Y-99223872D01*
X119770451Y-98960000D01*
X119750677Y-98696128D01*
X119696877Y-98460416D01*
X119691797Y-98438157D01*
X119691795Y-98438151D01*
X119691795Y-98438150D01*
X119595121Y-98191830D01*
X119517177Y-98056827D01*
X119462816Y-97962670D01*
X119384308Y-97864225D01*
X119369175Y-97845248D01*
X119324583Y-97758933D01*
X119316417Y-97662122D01*
X119345920Y-97569555D01*
X119369173Y-97534753D01*
X119462815Y-97417331D01*
X119595121Y-97188170D01*
X119691795Y-96941850D01*
X119750677Y-96683872D01*
X119770451Y-96420000D01*
X119750677Y-96156128D01*
X119693602Y-95906065D01*
X119691797Y-95898157D01*
X119691796Y-95898154D01*
X119691795Y-95898150D01*
X119595121Y-95651830D01*
X119577626Y-95621527D01*
X119462816Y-95422670D01*
X119369176Y-95305250D01*
X119369175Y-95305249D01*
X119369175Y-95305248D01*
X119324583Y-95218933D01*
X119316417Y-95122122D01*
X119345920Y-95029555D01*
X119369173Y-94994753D01*
X119462815Y-94877331D01*
X119595121Y-94648170D01*
X119691795Y-94401850D01*
X119750677Y-94143872D01*
X119770451Y-93880000D01*
X119750677Y-93616128D01*
X119697218Y-93381908D01*
X119691797Y-93358157D01*
X119691796Y-93358154D01*
X119691795Y-93358150D01*
X119595121Y-93111830D01*
X119579541Y-93084844D01*
X119462816Y-92882670D01*
X119429186Y-92840500D01*
X119369175Y-92765248D01*
X119324583Y-92678933D01*
X119316417Y-92582122D01*
X119345920Y-92489555D01*
X119369173Y-92454753D01*
X119462815Y-92337331D01*
X119595121Y-92108170D01*
X119691795Y-91861850D01*
X119750677Y-91603872D01*
X119770451Y-91340000D01*
X119750677Y-91076128D01*
X119712709Y-90909778D01*
X119691797Y-90818157D01*
X119691796Y-90818154D01*
X119691795Y-90818150D01*
X119595121Y-90571830D01*
X119595116Y-90571821D01*
X119531704Y-90461988D01*
X119500474Y-90369989D01*
X119506828Y-90273042D01*
X119549799Y-90185906D01*
X119554330Y-90180178D01*
X119604698Y-90118407D01*
X119698909Y-89938049D01*
X119754886Y-89742418D01*
X119765500Y-89623037D01*
X119765499Y-88800000D01*
X141629549Y-88800000D01*
X141649322Y-89063869D01*
X141708202Y-89321842D01*
X141708204Y-89321849D01*
X141708205Y-89321850D01*
X141718040Y-89346908D01*
X141804877Y-89568166D01*
X141804883Y-89568178D01*
X141937183Y-89797329D01*
X142030824Y-89914751D01*
X142075416Y-90001068D01*
X142083582Y-90097879D01*
X142054079Y-90190446D01*
X142030824Y-90225249D01*
X141937183Y-90342670D01*
X141804883Y-90571821D01*
X141804877Y-90571833D01*
X141708202Y-90818157D01*
X141649322Y-91076130D01*
X141629549Y-91340000D01*
X141649322Y-91603869D01*
X141708202Y-91861842D01*
X141804877Y-92108166D01*
X141804883Y-92108178D01*
X141937183Y-92337329D01*
X142030824Y-92454751D01*
X142075416Y-92541068D01*
X142083582Y-92637879D01*
X142054079Y-92730446D01*
X142030824Y-92765249D01*
X141937183Y-92882670D01*
X141804883Y-93111821D01*
X141804877Y-93111833D01*
X141708202Y-93358157D01*
X141649322Y-93616130D01*
X141629549Y-93880000D01*
X141649322Y-94143869D01*
X141708202Y-94401842D01*
X141708204Y-94401849D01*
X141708205Y-94401850D01*
X141716904Y-94424015D01*
X141804877Y-94648166D01*
X141804883Y-94648178D01*
X141937183Y-94877329D01*
X142030824Y-94994751D01*
X142075416Y-95081068D01*
X142083582Y-95177879D01*
X142054079Y-95270446D01*
X142030824Y-95305249D01*
X141937183Y-95422670D01*
X141804883Y-95651821D01*
X141804877Y-95651833D01*
X141708202Y-95898157D01*
X141649322Y-96156130D01*
X141629549Y-96420000D01*
X141649322Y-96683869D01*
X141708202Y-96941842D01*
X141804877Y-97188166D01*
X141804883Y-97188178D01*
X141937183Y-97417329D01*
X142030824Y-97534751D01*
X142075416Y-97621068D01*
X142083582Y-97717879D01*
X142054079Y-97810446D01*
X142030824Y-97845249D01*
X141937183Y-97962670D01*
X141804883Y-98191821D01*
X141804877Y-98191833D01*
X141708202Y-98438157D01*
X141649322Y-98696130D01*
X141629549Y-98960000D01*
X141649322Y-99223869D01*
X141708202Y-99481842D01*
X141708204Y-99481849D01*
X141708205Y-99481850D01*
X141730864Y-99539584D01*
X141804877Y-99728166D01*
X141804883Y-99728178D01*
X141937183Y-99957329D01*
X142030824Y-100074751D01*
X142075416Y-100161068D01*
X142083582Y-100257879D01*
X142054079Y-100350446D01*
X142030824Y-100385249D01*
X141937183Y-100502670D01*
X141804883Y-100731821D01*
X141804877Y-100731833D01*
X141708202Y-100978157D01*
X141649322Y-101236130D01*
X141629549Y-101500000D01*
X141649322Y-101763869D01*
X141708202Y-102021842D01*
X141804877Y-102268166D01*
X141804883Y-102268178D01*
X141937183Y-102497329D01*
X142102167Y-102704212D01*
X142102178Y-102704223D01*
X142296141Y-102884193D01*
X142337512Y-102912400D01*
X142405565Y-102981738D01*
X142441904Y-103071841D01*
X142440996Y-103168992D01*
X142402978Y-103258400D01*
X142401214Y-103260953D01*
X142300293Y-103405083D01*
X142206747Y-103605694D01*
X142149458Y-103819502D01*
X142130168Y-104039994D01*
X142130168Y-104040005D01*
X142149458Y-104260497D01*
X142206747Y-104474305D01*
X142300293Y-104674916D01*
X142401214Y-104819046D01*
X142440343Y-104907973D01*
X142442462Y-105005105D01*
X142407249Y-105095654D01*
X142340065Y-105165835D01*
X142337515Y-105167597D01*
X142296141Y-105195805D01*
X142102178Y-105375776D01*
X142102167Y-105375787D01*
X141937183Y-105582670D01*
X141804883Y-105811821D01*
X141804877Y-105811833D01*
X141708202Y-106058157D01*
X141649322Y-106316130D01*
X141629549Y-106580000D01*
X141649322Y-106843869D01*
X141708202Y-107101842D01*
X141804877Y-107348166D01*
X141804883Y-107348178D01*
X141937183Y-107577329D01*
X142030824Y-107694751D01*
X142075416Y-107781068D01*
X142083582Y-107877879D01*
X142054079Y-107970446D01*
X142030824Y-108005249D01*
X141937183Y-108122670D01*
X141804883Y-108351821D01*
X141804877Y-108351833D01*
X141708202Y-108598157D01*
X141649322Y-108856130D01*
X141629549Y-109120000D01*
X141649322Y-109383869D01*
X141708202Y-109641842D01*
X141804877Y-109888166D01*
X141804883Y-109888178D01*
X141937183Y-110117329D01*
X142030824Y-110234751D01*
X142075416Y-110321068D01*
X142083582Y-110417879D01*
X142054079Y-110510446D01*
X142030824Y-110545249D01*
X141937183Y-110662670D01*
X141804883Y-110891821D01*
X141804877Y-110891833D01*
X141708202Y-111138157D01*
X141649322Y-111396130D01*
X141629549Y-111660000D01*
X141649322Y-111923869D01*
X141708202Y-112181842D01*
X141708204Y-112181849D01*
X141708205Y-112181850D01*
X141715307Y-112199945D01*
X141804877Y-112428166D01*
X141804883Y-112428178D01*
X141937183Y-112657329D01*
X142030824Y-112774751D01*
X142075416Y-112861068D01*
X142083582Y-112957879D01*
X142054079Y-113050446D01*
X142030824Y-113085249D01*
X141937183Y-113202670D01*
X141804883Y-113431821D01*
X141804877Y-113431833D01*
X141708202Y-113678157D01*
X141649322Y-113936130D01*
X141629549Y-114200000D01*
X141649322Y-114463869D01*
X141708202Y-114721842D01*
X141708204Y-114721849D01*
X141708205Y-114721850D01*
X141731914Y-114782261D01*
X141804877Y-114968166D01*
X141804883Y-114968178D01*
X141937183Y-115197329D01*
X142030824Y-115314751D01*
X142075416Y-115401068D01*
X142083582Y-115497879D01*
X142054079Y-115590446D01*
X142030824Y-115625249D01*
X141937183Y-115742670D01*
X141804883Y-115971821D01*
X141804877Y-115971833D01*
X141708202Y-116218157D01*
X141649322Y-116476130D01*
X141629549Y-116740000D01*
X141649322Y-117003869D01*
X141708202Y-117261842D01*
X141804877Y-117508166D01*
X141804883Y-117508178D01*
X141937183Y-117737329D01*
X142030824Y-117854751D01*
X142075416Y-117941068D01*
X142083582Y-118037879D01*
X142054079Y-118130446D01*
X142030824Y-118165249D01*
X141937183Y-118282670D01*
X141804883Y-118511821D01*
X141804877Y-118511833D01*
X141708202Y-118758157D01*
X141649322Y-119016130D01*
X141629549Y-119280000D01*
X141649322Y-119543869D01*
X141708202Y-119801842D01*
X141804877Y-120048166D01*
X141804883Y-120048178D01*
X141937183Y-120277329D01*
X142030824Y-120394751D01*
X142075416Y-120481068D01*
X142083582Y-120577879D01*
X142054079Y-120670446D01*
X142030824Y-120705249D01*
X141937183Y-120822670D01*
X141804883Y-121051821D01*
X141804877Y-121051833D01*
X141708202Y-121298157D01*
X141649322Y-121556130D01*
X141629549Y-121820000D01*
X141649322Y-122083869D01*
X141708202Y-122341842D01*
X141708204Y-122341849D01*
X141708205Y-122341850D01*
X141711241Y-122349586D01*
X141804877Y-122588166D01*
X141804883Y-122588178D01*
X141937183Y-122817329D01*
X142030824Y-122934751D01*
X142075416Y-123021068D01*
X142083582Y-123117879D01*
X142054079Y-123210446D01*
X142030824Y-123245249D01*
X141937183Y-123362670D01*
X141804883Y-123591821D01*
X141804877Y-123591833D01*
X141708202Y-123838157D01*
X141649322Y-124096130D01*
X141629549Y-124360000D01*
X141649322Y-124623869D01*
X141708202Y-124881842D01*
X141804877Y-125128166D01*
X141804883Y-125128178D01*
X141937183Y-125357329D01*
X142030824Y-125474751D01*
X142075416Y-125561068D01*
X142083582Y-125657879D01*
X142054079Y-125750446D01*
X142030824Y-125785249D01*
X141937183Y-125902670D01*
X141804883Y-126131821D01*
X141804877Y-126131833D01*
X141708202Y-126378157D01*
X141649322Y-126636130D01*
X141629549Y-126900000D01*
X141649322Y-127163869D01*
X141708202Y-127421842D01*
X141804877Y-127668166D01*
X141804883Y-127668178D01*
X141937183Y-127897329D01*
X142030824Y-128014751D01*
X142075416Y-128101068D01*
X142083582Y-128197879D01*
X142054079Y-128290446D01*
X142030824Y-128325249D01*
X141937183Y-128442670D01*
X141804883Y-128671821D01*
X141804877Y-128671833D01*
X141708202Y-128918157D01*
X141649322Y-129176130D01*
X141629549Y-129440000D01*
X141649322Y-129703869D01*
X141708202Y-129961842D01*
X141804877Y-130208166D01*
X141804883Y-130208178D01*
X141937183Y-130437329D01*
X142030824Y-130554751D01*
X142075416Y-130641068D01*
X142083582Y-130737879D01*
X142054079Y-130830446D01*
X142030824Y-130865249D01*
X141937183Y-130982670D01*
X141804883Y-131211821D01*
X141804877Y-131211833D01*
X141708202Y-131458157D01*
X141649322Y-131716130D01*
X141629549Y-131980000D01*
X141649322Y-132243869D01*
X141708202Y-132501842D01*
X141804877Y-132748166D01*
X141804883Y-132748178D01*
X141937183Y-132977329D01*
X142030824Y-133094751D01*
X142075416Y-133181068D01*
X142083582Y-133277879D01*
X142054079Y-133370446D01*
X142030824Y-133405249D01*
X141937183Y-133522670D01*
X141804883Y-133751821D01*
X141804877Y-133751833D01*
X141708202Y-133998157D01*
X141649322Y-134256130D01*
X141629549Y-134520000D01*
X141649322Y-134783869D01*
X141708202Y-135041842D01*
X141804877Y-135288166D01*
X141804883Y-135288178D01*
X141937183Y-135517329D01*
X142102167Y-135724212D01*
X142102178Y-135724223D01*
X142262082Y-135872591D01*
X142296142Y-135904194D01*
X142514775Y-136053256D01*
X142753182Y-136168066D01*
X142840500Y-136195000D01*
X143006031Y-136246060D01*
X143006032Y-136246060D01*
X143006038Y-136246062D01*
X143231697Y-136280074D01*
X143267693Y-136285500D01*
X143267694Y-136285500D01*
X143532307Y-136285500D01*
X143563949Y-136280730D01*
X143793962Y-136246062D01*
X144046818Y-136168066D01*
X144285226Y-136053256D01*
X144503858Y-135904194D01*
X144697832Y-135724213D01*
X144862815Y-135517331D01*
X144995121Y-135288170D01*
X145091795Y-135041850D01*
X145150677Y-134783872D01*
X145170451Y-134520000D01*
X145150677Y-134256128D01*
X145109288Y-134074791D01*
X145091797Y-133998157D01*
X145091796Y-133998154D01*
X145091795Y-133998150D01*
X144995121Y-133751830D01*
X144995116Y-133751821D01*
X144862816Y-133522670D01*
X144824673Y-133474841D01*
X144769175Y-133405248D01*
X144724583Y-133318933D01*
X144716417Y-133222122D01*
X144745920Y-133129555D01*
X144769173Y-133094753D01*
X144862815Y-132977331D01*
X144995121Y-132748170D01*
X145091795Y-132501850D01*
X145150677Y-132243872D01*
X145170451Y-131980000D01*
X145150677Y-131716128D01*
X145105265Y-131517167D01*
X145091797Y-131458157D01*
X145091796Y-131458154D01*
X145091795Y-131458150D01*
X144995121Y-131211830D01*
X144995116Y-131211821D01*
X144954784Y-131141963D01*
X149007000Y-131141963D01*
X149007000Y-132858031D01*
X149007001Y-132858043D01*
X149017613Y-132977414D01*
X149017613Y-132977417D01*
X149017614Y-132977418D01*
X149071962Y-133167354D01*
X149073590Y-133173045D01*
X149073593Y-133173053D01*
X149130101Y-133281233D01*
X149167802Y-133353407D01*
X149296391Y-133511109D01*
X149454093Y-133639698D01*
X149515579Y-133671815D01*
X149591261Y-133732731D01*
X149637872Y-133817974D01*
X149648314Y-133914567D01*
X149625964Y-133997748D01*
X149581232Y-134093676D01*
X149528628Y-134289999D01*
X149528628Y-134290000D01*
X150491814Y-134290000D01*
X150487420Y-134294394D01*
X150434759Y-134385606D01*
X150407500Y-134487339D01*
X150407500Y-134592661D01*
X150434759Y-134694394D01*
X150487420Y-134785606D01*
X150491814Y-134790000D01*
X149528628Y-134790000D01*
X149581232Y-134986323D01*
X149677366Y-135192483D01*
X149807835Y-135378812D01*
X149968687Y-135539664D01*
X150155016Y-135670133D01*
X150361176Y-135766267D01*
X150557499Y-135818871D01*
X150557500Y-135818871D01*
X150557500Y-134855686D01*
X150561894Y-134860080D01*
X150653106Y-134912741D01*
X150754839Y-134940000D01*
X150860161Y-134940000D01*
X150961894Y-134912741D01*
X151053106Y-134860080D01*
X151057500Y-134855686D01*
X151057500Y-135818871D01*
X151253823Y-135766267D01*
X151459983Y-135670133D01*
X151646312Y-135539664D01*
X151807164Y-135378812D01*
X151937633Y-135192483D01*
X152033767Y-134986323D01*
X152086372Y-134790000D01*
X151123186Y-134790000D01*
X151127580Y-134785606D01*
X151180241Y-134694394D01*
X151207500Y-134592661D01*
X151207500Y-134487339D01*
X151180241Y-134385606D01*
X151127580Y-134294394D01*
X151123186Y-134290000D01*
X152086372Y-134290000D01*
X152086371Y-134289999D01*
X152033767Y-134093676D01*
X151989036Y-133997750D01*
X151965944Y-133903379D01*
X151980724Y-133807355D01*
X152031125Y-133724296D01*
X152099419Y-133671816D01*
X152160907Y-133639698D01*
X152318609Y-133511109D01*
X152447198Y-133353407D01*
X152541409Y-133173049D01*
X152597386Y-132977418D01*
X152608000Y-132858037D01*
X152607999Y-132419000D01*
X152626953Y-132323712D01*
X152655552Y-132272644D01*
X152790843Y-132086434D01*
X152898068Y-131875993D01*
X152942244Y-131740030D01*
X152964332Y-131672053D01*
X152964333Y-131672048D01*
X152971053Y-131651368D01*
X153008000Y-131418092D01*
X153008000Y-125109310D01*
X153026954Y-125014022D01*
X153026955Y-125014019D01*
X153034372Y-124996113D01*
X153034373Y-124996110D01*
X153093183Y-124751148D01*
X153103200Y-124623869D01*
X153112949Y-124500005D01*
X153112949Y-124499994D01*
X153093183Y-124248854D01*
X153056518Y-124096130D01*
X153034373Y-124003889D01*
X152937966Y-123771141D01*
X152889274Y-123691683D01*
X152806341Y-123556347D01*
X152806339Y-123556345D01*
X152800095Y-123549034D01*
X152642724Y-123364776D01*
X152451159Y-123201164D01*
X152451157Y-123201163D01*
X152451154Y-123201160D01*
X152451152Y-123201158D01*
X152236364Y-123069537D01*
X152236358Y-123069533D01*
X152003616Y-122973129D01*
X152003608Y-122973126D01*
X151758645Y-122914316D01*
X151507505Y-122894551D01*
X151507495Y-122894551D01*
X151256354Y-122914316D01*
X151011391Y-122973126D01*
X151011383Y-122973129D01*
X150778641Y-123069533D01*
X150778635Y-123069537D01*
X150563847Y-123201158D01*
X150563845Y-123201160D01*
X150372279Y-123364773D01*
X150372273Y-123364779D01*
X150208660Y-123556345D01*
X150208658Y-123556347D01*
X150077037Y-123771135D01*
X150077033Y-123771141D01*
X149980629Y-124003883D01*
X149980626Y-124003891D01*
X149921816Y-124248854D01*
X149902051Y-124499994D01*
X149902051Y-124500005D01*
X149921816Y-124751145D01*
X149980626Y-124996110D01*
X149980627Y-124996113D01*
X149988045Y-125014019D01*
X150007000Y-125109307D01*
X150007000Y-129971746D01*
X149988046Y-130067034D01*
X149934070Y-130147816D01*
X149853288Y-130201792D01*
X149826499Y-130211139D01*
X149634454Y-130266090D01*
X149634446Y-130266093D01*
X149454097Y-130360299D01*
X149454092Y-130360302D01*
X149296393Y-130488889D01*
X149296389Y-130488893D01*
X149167802Y-130646592D01*
X149167799Y-130646597D01*
X149073593Y-130826946D01*
X149073590Y-130826954D01*
X149017615Y-131022578D01*
X149017614Y-131022582D01*
X149007000Y-131141963D01*
X144954784Y-131141963D01*
X144862816Y-130982670D01*
X144814371Y-130921922D01*
X144769175Y-130865248D01*
X144724583Y-130778933D01*
X144716417Y-130682122D01*
X144745920Y-130589555D01*
X144769173Y-130554753D01*
X144862815Y-130437331D01*
X144995121Y-130208170D01*
X145091795Y-129961850D01*
X145150677Y-129703872D01*
X145170451Y-129440000D01*
X145150677Y-129176128D01*
X145101950Y-128962641D01*
X145091797Y-128918157D01*
X145091796Y-128918154D01*
X145091795Y-128918150D01*
X144995121Y-128671830D01*
X144983181Y-128651149D01*
X144862816Y-128442670D01*
X144769176Y-128325250D01*
X144769175Y-128325249D01*
X144769175Y-128325248D01*
X144724583Y-128238933D01*
X144716417Y-128142122D01*
X144745920Y-128049555D01*
X144769173Y-128014753D01*
X144862815Y-127897331D01*
X144995121Y-127668170D01*
X145091795Y-127421850D01*
X145150677Y-127163872D01*
X145170451Y-126900000D01*
X145150677Y-126636128D01*
X145091795Y-126378150D01*
X144995121Y-126131830D01*
X144995116Y-126131821D01*
X144862816Y-125902670D01*
X144821688Y-125851097D01*
X144769175Y-125785248D01*
X144724583Y-125698933D01*
X144716417Y-125602122D01*
X144745920Y-125509555D01*
X144769173Y-125474753D01*
X144862815Y-125357331D01*
X144995121Y-125128170D01*
X145091795Y-124881850D01*
X145150677Y-124623872D01*
X145170451Y-124360000D01*
X145150677Y-124096128D01*
X145119379Y-123959003D01*
X145091797Y-123838157D01*
X145091796Y-123838154D01*
X145091795Y-123838150D01*
X144995121Y-123591830D01*
X144974634Y-123556345D01*
X144862816Y-123362670D01*
X144769176Y-123245250D01*
X144769175Y-123245249D01*
X144769175Y-123245248D01*
X144724583Y-123158933D01*
X144716417Y-123062122D01*
X144745920Y-122969555D01*
X144769173Y-122934753D01*
X144862815Y-122817331D01*
X144995121Y-122588170D01*
X145091795Y-122341850D01*
X145150677Y-122083872D01*
X145170451Y-121820000D01*
X145150677Y-121556128D01*
X145112809Y-121390218D01*
X145091797Y-121298157D01*
X145091796Y-121298154D01*
X145091795Y-121298150D01*
X144995121Y-121051830D01*
X144995116Y-121051821D01*
X144862816Y-120822670D01*
X144769176Y-120705250D01*
X144769175Y-120705249D01*
X144769175Y-120705248D01*
X144724583Y-120618933D01*
X144716417Y-120522122D01*
X144745920Y-120429555D01*
X144769173Y-120394753D01*
X144862815Y-120277331D01*
X144995121Y-120048170D01*
X145091795Y-119801850D01*
X145150677Y-119543872D01*
X145170451Y-119280000D01*
X145150677Y-119016128D01*
X145091795Y-118758150D01*
X144995121Y-118511830D01*
X144977102Y-118480620D01*
X144862816Y-118282670D01*
X144769176Y-118165250D01*
X144769175Y-118165249D01*
X144769175Y-118165248D01*
X144724583Y-118078933D01*
X144716417Y-117982122D01*
X144745920Y-117889555D01*
X144769173Y-117854753D01*
X144862815Y-117737331D01*
X144995121Y-117508170D01*
X145091795Y-117261850D01*
X145150677Y-117003872D01*
X145170451Y-116740000D01*
X145150677Y-116476128D01*
X145091795Y-116218150D01*
X144995121Y-115971830D01*
X144969093Y-115926748D01*
X144862816Y-115742670D01*
X144796085Y-115658992D01*
X144769175Y-115625248D01*
X144724583Y-115538933D01*
X144716417Y-115442122D01*
X144745920Y-115349555D01*
X144769173Y-115314753D01*
X144862815Y-115197331D01*
X144995121Y-114968170D01*
X145091795Y-114721850D01*
X145150677Y-114463872D01*
X145170451Y-114200000D01*
X145150677Y-113936128D01*
X145119379Y-113799003D01*
X145091797Y-113678157D01*
X145091796Y-113678154D01*
X145091795Y-113678150D01*
X144995121Y-113431830D01*
X144974275Y-113395724D01*
X144862816Y-113202670D01*
X144769176Y-113085250D01*
X144769175Y-113085249D01*
X144769175Y-113085248D01*
X144724583Y-112998933D01*
X144716417Y-112902122D01*
X144745920Y-112809555D01*
X144769173Y-112774753D01*
X144862815Y-112657331D01*
X144995121Y-112428170D01*
X145091795Y-112181850D01*
X145150677Y-111923872D01*
X145170451Y-111660000D01*
X145150677Y-111396128D01*
X145093249Y-111144519D01*
X145091797Y-111138157D01*
X145091796Y-111138154D01*
X145091795Y-111138150D01*
X144995121Y-110891830D01*
X144862815Y-110662669D01*
X144769175Y-110545248D01*
X144724583Y-110458933D01*
X144716417Y-110362122D01*
X144745920Y-110269555D01*
X144769173Y-110234753D01*
X144862815Y-110117331D01*
X144995121Y-109888170D01*
X145091795Y-109641850D01*
X145094642Y-109629379D01*
X145113079Y-109548597D01*
X145150677Y-109383872D01*
X145170451Y-109120000D01*
X145150677Y-108856128D01*
X145102378Y-108644517D01*
X145091797Y-108598157D01*
X145091796Y-108598154D01*
X145091795Y-108598150D01*
X144995121Y-108351830D01*
X144995116Y-108351821D01*
X144862816Y-108122670D01*
X144824346Y-108074430D01*
X144769175Y-108005248D01*
X144724583Y-107918933D01*
X144716417Y-107822122D01*
X144745920Y-107729555D01*
X144769173Y-107694753D01*
X144862815Y-107577331D01*
X144995121Y-107348170D01*
X145091795Y-107101850D01*
X145150677Y-106843872D01*
X145170451Y-106580000D01*
X145150677Y-106316128D01*
X145096877Y-106080416D01*
X145091797Y-106058157D01*
X145091796Y-106058154D01*
X145091795Y-106058150D01*
X144995121Y-105811830D01*
X144995116Y-105811821D01*
X144862816Y-105582670D01*
X144697832Y-105375787D01*
X144697821Y-105375776D01*
X144503861Y-105195808D01*
X144462486Y-105167599D01*
X144394433Y-105098260D01*
X144358095Y-105008157D01*
X144359004Y-104911006D01*
X144397021Y-104821598D01*
X144398786Y-104819045D01*
X144499705Y-104674917D01*
X144593252Y-104474305D01*
X144650541Y-104260497D01*
X144669832Y-104040005D01*
X144669832Y-104039994D01*
X144650541Y-103819502D01*
X144593252Y-103605694D01*
X144499707Y-103405086D01*
X144398785Y-103260954D01*
X144359656Y-103172027D01*
X144357537Y-103074895D01*
X144392750Y-102984345D01*
X144459933Y-102914164D01*
X144462364Y-102912484D01*
X144503858Y-102884194D01*
X144697832Y-102704213D01*
X144862815Y-102497331D01*
X144995121Y-102268170D01*
X145091795Y-102021850D01*
X145097228Y-101998049D01*
X145141879Y-101802418D01*
X145150677Y-101763872D01*
X145170451Y-101500000D01*
X145150677Y-101236128D01*
X145098238Y-101006379D01*
X145091797Y-100978157D01*
X145091796Y-100978154D01*
X145091795Y-100978150D01*
X144995121Y-100731830D01*
X144995116Y-100731821D01*
X144862816Y-100502670D01*
X144831621Y-100463553D01*
X144769175Y-100385248D01*
X144724583Y-100298933D01*
X144716417Y-100202122D01*
X144745920Y-100109555D01*
X144769173Y-100074753D01*
X144862815Y-99957331D01*
X144995121Y-99728170D01*
X145091795Y-99481850D01*
X145150677Y-99223872D01*
X145170451Y-98960000D01*
X145150677Y-98696128D01*
X145091795Y-98438150D01*
X145046942Y-98323867D01*
X145029773Y-98228242D01*
X145050505Y-98133324D01*
X145105982Y-98053566D01*
X145187759Y-98001110D01*
X145283384Y-97983941D01*
X145378302Y-98004673D01*
X145454799Y-98056827D01*
X146934070Y-99536097D01*
X146988046Y-99616879D01*
X147007000Y-99712167D01*
X147007000Y-111118087D01*
X147007001Y-111118103D01*
X147033173Y-111283343D01*
X147043947Y-111351368D01*
X147116932Y-111575992D01*
X147224157Y-111786434D01*
X147362983Y-111977510D01*
X149862983Y-114477510D01*
X149862982Y-114477510D01*
X150029989Y-114644516D01*
X150029994Y-114644520D01*
X150221062Y-114783340D01*
X150221064Y-114783341D01*
X150221067Y-114783343D01*
X150431508Y-114890568D01*
X150656132Y-114963553D01*
X150889408Y-115000500D01*
X150898189Y-115000500D01*
X150993477Y-115019454D01*
X151007784Y-115025379D01*
X151011389Y-115026873D01*
X151256352Y-115085683D01*
X151328108Y-115091330D01*
X151507495Y-115105449D01*
X151507500Y-115105449D01*
X151507505Y-115105449D01*
X151664467Y-115093095D01*
X151758648Y-115085683D01*
X152003611Y-115026873D01*
X152236359Y-114930466D01*
X152358721Y-114855482D01*
X152451152Y-114798841D01*
X152451154Y-114798839D01*
X152451153Y-114798839D01*
X152451159Y-114798836D01*
X152642724Y-114635224D01*
X152806336Y-114443659D01*
X152806339Y-114443653D01*
X152806341Y-114443652D01*
X152911916Y-114271368D01*
X152937966Y-114228859D01*
X153034373Y-113996111D01*
X153093183Y-113751148D01*
X153112949Y-113500000D01*
X153093183Y-113248852D01*
X153034373Y-113003889D01*
X152937966Y-112771141D01*
X152865769Y-112653326D01*
X152806341Y-112556347D01*
X152806339Y-112556345D01*
X152776394Y-112521284D01*
X152642724Y-112364776D01*
X152451159Y-112201164D01*
X152451157Y-112201163D01*
X152451154Y-112201160D01*
X152451152Y-112201158D01*
X152236364Y-112069537D01*
X152236358Y-112069533D01*
X152003616Y-111973129D01*
X152003608Y-111973126D01*
X151758648Y-111914316D01*
X151758641Y-111914315D01*
X151617072Y-111903174D01*
X151523565Y-111876803D01*
X151460539Y-111831012D01*
X150080930Y-110451403D01*
X150026954Y-110370621D01*
X150008000Y-110275333D01*
X150008000Y-108864225D01*
X150026954Y-108768937D01*
X150080930Y-108688155D01*
X150161712Y-108634179D01*
X150257000Y-108615225D01*
X150352288Y-108634179D01*
X150418709Y-108674881D01*
X150563841Y-108798836D01*
X150563845Y-108798839D01*
X150563847Y-108798841D01*
X150713537Y-108890570D01*
X150778641Y-108930466D01*
X151011389Y-109026873D01*
X151256352Y-109085683D01*
X151328108Y-109091330D01*
X151507495Y-109105449D01*
X151507500Y-109105449D01*
X151507505Y-109105449D01*
X151664467Y-109093095D01*
X151758648Y-109085683D01*
X152003611Y-109026873D01*
X152013696Y-109022695D01*
X152021523Y-109019454D01*
X152116811Y-109000500D01*
X152125588Y-109000500D01*
X152125592Y-109000500D01*
X152358868Y-108963553D01*
X152583492Y-108890568D01*
X152793934Y-108783343D01*
X152985010Y-108644517D01*
X155652017Y-105977510D01*
X155790843Y-105786433D01*
X155898068Y-105575992D01*
X155971053Y-105351368D01*
X156008000Y-105118092D01*
X156008000Y-104881908D01*
X156008000Y-86701908D01*
X155971053Y-86468632D01*
X155898068Y-86244008D01*
X155790843Y-86033567D01*
X155789601Y-86031857D01*
X155652018Y-85842490D01*
X153665010Y-83855483D01*
X153473934Y-83716657D01*
X153263492Y-83609432D01*
X153263489Y-83609431D01*
X153263484Y-83609429D01*
X153134984Y-83567677D01*
X153038868Y-83536447D01*
X153038866Y-83536446D01*
X153038864Y-83536446D01*
X152805603Y-83499501D01*
X152805594Y-83499500D01*
X152805592Y-83499500D01*
X152805588Y-83499500D01*
X152500269Y-83499500D01*
X152404981Y-83480546D01*
X152342917Y-83443480D01*
X152240907Y-83360302D01*
X152240902Y-83360299D01*
X152060553Y-83266093D01*
X152060552Y-83266092D01*
X152060549Y-83266091D01*
X151864918Y-83210114D01*
X151745537Y-83199500D01*
X151745535Y-83199500D01*
X150029468Y-83199500D01*
X150029456Y-83199501D01*
X149910085Y-83210113D01*
X149714454Y-83266090D01*
X149714446Y-83266093D01*
X149534097Y-83360299D01*
X149534092Y-83360302D01*
X149376393Y-83488889D01*
X149376389Y-83488893D01*
X149247802Y-83646592D01*
X149247799Y-83646597D01*
X149153593Y-83826946D01*
X149153590Y-83826954D01*
X149097615Y-84022578D01*
X149097614Y-84022582D01*
X149087000Y-84141963D01*
X149087000Y-85858031D01*
X149087001Y-85858043D01*
X149097613Y-85977414D01*
X149097613Y-85977417D01*
X149097614Y-85977418D01*
X149113682Y-86033571D01*
X149153590Y-86173045D01*
X149153593Y-86173053D01*
X149203388Y-86268382D01*
X149247802Y-86353407D01*
X149376391Y-86511109D01*
X149534093Y-86639698D01*
X149595579Y-86671815D01*
X149671261Y-86732731D01*
X149717872Y-86817974D01*
X149728314Y-86914567D01*
X149705964Y-86997748D01*
X149661232Y-87093676D01*
X149608628Y-87289999D01*
X149608628Y-87290000D01*
X150571814Y-87290000D01*
X150567420Y-87294394D01*
X150514759Y-87385606D01*
X150487500Y-87487339D01*
X150487500Y-87592661D01*
X150514759Y-87694394D01*
X150567420Y-87785606D01*
X150571814Y-87790000D01*
X149608628Y-87790000D01*
X149661232Y-87986323D01*
X149757366Y-88192483D01*
X149887835Y-88378812D01*
X150048687Y-88539664D01*
X150235016Y-88670133D01*
X150441176Y-88766267D01*
X150637499Y-88818871D01*
X150637500Y-88818871D01*
X150637500Y-87855686D01*
X150641894Y-87860080D01*
X150733106Y-87912741D01*
X150834839Y-87940000D01*
X150940161Y-87940000D01*
X151041894Y-87912741D01*
X151133106Y-87860080D01*
X151137500Y-87855686D01*
X151137500Y-88818871D01*
X151333823Y-88766267D01*
X151539983Y-88670133D01*
X151726312Y-88539664D01*
X151887164Y-88378812D01*
X152017633Y-88192483D01*
X152113767Y-87986323D01*
X152166372Y-87790000D01*
X151203186Y-87790000D01*
X151207580Y-87785606D01*
X151260241Y-87694394D01*
X151287500Y-87592661D01*
X151287500Y-87487339D01*
X151260241Y-87385606D01*
X151207580Y-87294394D01*
X151203186Y-87290000D01*
X152166372Y-87290000D01*
X152166372Y-87289998D01*
X152154660Y-87246288D01*
X152148305Y-87149341D01*
X152179535Y-87057342D01*
X152243593Y-86984297D01*
X152330729Y-86941327D01*
X152427676Y-86934972D01*
X152519675Y-86966202D01*
X152571245Y-87005772D01*
X152934070Y-87368597D01*
X152988046Y-87449379D01*
X153007000Y-87544667D01*
X153007000Y-95135774D01*
X152988046Y-95231062D01*
X152934070Y-95311844D01*
X152853288Y-95365820D01*
X152758000Y-95384774D01*
X152662712Y-95365820D01*
X152596288Y-95325115D01*
X152451161Y-95201165D01*
X152451152Y-95201158D01*
X152236364Y-95069537D01*
X152236352Y-95069530D01*
X152218443Y-95062112D01*
X152137665Y-95008138D01*
X149739527Y-92610000D01*
X147325010Y-90195483D01*
X147133934Y-90056657D01*
X146923492Y-89949432D01*
X146923489Y-89949431D01*
X146923484Y-89949429D01*
X146715687Y-89881912D01*
X146698868Y-89876447D01*
X146698866Y-89876446D01*
X146698864Y-89876446D01*
X146465603Y-89839501D01*
X146465594Y-89839500D01*
X146465592Y-89839500D01*
X146465588Y-89839500D01*
X145253848Y-89839500D01*
X145158560Y-89820546D01*
X145077778Y-89766570D01*
X145023802Y-89685788D01*
X145004848Y-89590500D01*
X145022060Y-89499530D01*
X145091795Y-89321850D01*
X145150677Y-89063872D01*
X145170451Y-88800000D01*
X145150677Y-88536128D01*
X145102122Y-88323395D01*
X145091797Y-88278157D01*
X145091796Y-88278154D01*
X145091795Y-88278150D01*
X144995121Y-88031830D01*
X144968848Y-87986323D01*
X144862816Y-87802670D01*
X144697832Y-87595787D01*
X144697821Y-87595776D01*
X144503861Y-87415808D01*
X144285226Y-87266744D01*
X144046816Y-87151933D01*
X143793968Y-87073939D01*
X143793962Y-87073938D01*
X143683854Y-87057342D01*
X143532307Y-87034500D01*
X143532306Y-87034500D01*
X143267694Y-87034500D01*
X143267693Y-87034500D01*
X143006031Y-87073939D01*
X142753183Y-87151933D01*
X142557253Y-87246288D01*
X142519537Y-87264451D01*
X142514771Y-87266746D01*
X142296141Y-87415806D01*
X142102178Y-87595776D01*
X142102167Y-87595787D01*
X141937183Y-87802670D01*
X141804883Y-88031821D01*
X141804877Y-88031833D01*
X141708202Y-88278157D01*
X141649322Y-88536130D01*
X141629549Y-88800000D01*
X119765499Y-88800000D01*
X119765499Y-87976964D01*
X119754886Y-87857582D01*
X119698909Y-87661951D01*
X119604698Y-87481593D01*
X119476109Y-87323891D01*
X119318407Y-87195302D01*
X119318402Y-87195299D01*
X119138053Y-87101093D01*
X119138052Y-87101092D01*
X119138049Y-87101091D01*
X118942418Y-87045114D01*
X118823037Y-87034500D01*
X118823035Y-87034500D01*
X117176968Y-87034500D01*
X117176956Y-87034501D01*
X117057585Y-87045113D01*
X116861954Y-87101090D01*
X116861946Y-87101093D01*
X116681597Y-87195299D01*
X116681592Y-87195302D01*
X116523893Y-87323889D01*
X116523889Y-87323893D01*
X116395302Y-87481592D01*
X116395299Y-87481597D01*
X116301093Y-87661946D01*
X116301090Y-87661954D01*
X116245115Y-87857578D01*
X116245114Y-87857582D01*
X116234500Y-87976963D01*
X116234500Y-89623031D01*
X116234501Y-89623043D01*
X116245113Y-89742414D01*
X116245113Y-89742417D01*
X116245114Y-89742418D01*
X116283465Y-89876447D01*
X116301090Y-89938045D01*
X116301093Y-89938053D01*
X116395299Y-90118402D01*
X116395302Y-90118407D01*
X116445634Y-90180134D01*
X116491161Y-90265962D01*
X116500377Y-90362679D01*
X116471881Y-90455561D01*
X116468296Y-90461987D01*
X116404881Y-90571825D01*
X116404877Y-90571833D01*
X116308202Y-90818157D01*
X116249322Y-91076130D01*
X116229549Y-91340000D01*
X116249322Y-91603869D01*
X116308202Y-91861842D01*
X116404877Y-92108166D01*
X116404883Y-92108178D01*
X116537183Y-92337329D01*
X116630824Y-92454751D01*
X116675416Y-92541068D01*
X116683582Y-92637879D01*
X116654079Y-92730446D01*
X116630824Y-92765249D01*
X116537183Y-92882670D01*
X116404883Y-93111821D01*
X116404877Y-93111833D01*
X116308202Y-93358157D01*
X116249322Y-93616130D01*
X116229549Y-93880000D01*
X116249322Y-94143869D01*
X116308202Y-94401842D01*
X116308204Y-94401849D01*
X116308205Y-94401850D01*
X116316904Y-94424015D01*
X116404877Y-94648166D01*
X116404883Y-94648178D01*
X116537183Y-94877329D01*
X116630824Y-94994751D01*
X116675416Y-95081068D01*
X116683582Y-95177879D01*
X116654079Y-95270446D01*
X116630824Y-95305249D01*
X116537183Y-95422670D01*
X116404883Y-95651821D01*
X116404877Y-95651833D01*
X116308202Y-95898157D01*
X116249322Y-96156130D01*
X116229549Y-96420000D01*
X116249322Y-96683869D01*
X116308202Y-96941842D01*
X116404877Y-97188166D01*
X116404883Y-97188178D01*
X116537183Y-97417329D01*
X116630824Y-97534751D01*
X116675416Y-97621068D01*
X116683582Y-97717879D01*
X116654079Y-97810446D01*
X116630824Y-97845249D01*
X116537183Y-97962670D01*
X116404883Y-98191821D01*
X116404877Y-98191833D01*
X116308202Y-98438157D01*
X116249322Y-98696130D01*
X116229549Y-98960000D01*
X116249322Y-99223869D01*
X116308202Y-99481842D01*
X116308204Y-99481849D01*
X116308205Y-99481850D01*
X116330864Y-99539584D01*
X116404877Y-99728166D01*
X116404883Y-99728178D01*
X116537183Y-99957329D01*
X116630824Y-100074751D01*
X116675416Y-100161068D01*
X116683582Y-100257879D01*
X116654079Y-100350446D01*
X116630824Y-100385249D01*
X116537183Y-100502670D01*
X116404883Y-100731821D01*
X116404877Y-100731833D01*
X116308202Y-100978157D01*
X116249322Y-101236130D01*
X116229549Y-101500000D01*
X116249322Y-101763869D01*
X116308202Y-102021842D01*
X116404877Y-102268166D01*
X116404883Y-102268178D01*
X116537183Y-102497329D01*
X116630824Y-102614751D01*
X116675416Y-102701068D01*
X116683582Y-102797879D01*
X116654079Y-102890446D01*
X116630824Y-102925249D01*
X116537183Y-103042670D01*
X116404883Y-103271821D01*
X116404877Y-103271833D01*
X116308202Y-103518157D01*
X116249322Y-103776130D01*
X116229549Y-104040000D01*
X116249322Y-104303869D01*
X116308202Y-104561842D01*
X116404877Y-104808166D01*
X116404883Y-104808178D01*
X116537183Y-105037329D01*
X116630824Y-105154751D01*
X116675416Y-105241068D01*
X116683582Y-105337879D01*
X116654079Y-105430446D01*
X116630824Y-105465249D01*
X116537183Y-105582670D01*
X116404883Y-105811821D01*
X116404877Y-105811833D01*
X116308202Y-106058157D01*
X116249322Y-106316130D01*
X116229549Y-106580000D01*
X116249322Y-106843869D01*
X116308202Y-107101842D01*
X116404877Y-107348166D01*
X116404883Y-107348178D01*
X116537183Y-107577329D01*
X116630824Y-107694751D01*
X116675416Y-107781068D01*
X116683582Y-107877879D01*
X116654079Y-107970446D01*
X116630824Y-108005249D01*
X116537183Y-108122670D01*
X116404883Y-108351821D01*
X116404877Y-108351833D01*
X116308202Y-108598157D01*
X116249322Y-108856130D01*
X116229549Y-109120000D01*
X116249322Y-109383869D01*
X116308202Y-109641842D01*
X116404877Y-109888166D01*
X116404883Y-109888178D01*
X116537183Y-110117329D01*
X116630824Y-110234751D01*
X116675416Y-110321068D01*
X116683582Y-110417879D01*
X116654079Y-110510446D01*
X116630824Y-110545249D01*
X116537183Y-110662670D01*
X116404883Y-110891821D01*
X116404877Y-110891833D01*
X116308202Y-111138157D01*
X116249322Y-111396130D01*
X116229549Y-111660000D01*
X116249322Y-111923869D01*
X116308202Y-112181842D01*
X116308204Y-112181849D01*
X116308205Y-112181850D01*
X116315307Y-112199945D01*
X116404877Y-112428166D01*
X116404883Y-112428178D01*
X116537183Y-112657329D01*
X116630824Y-112774751D01*
X116675416Y-112861068D01*
X116683582Y-112957879D01*
X116654079Y-113050446D01*
X116630824Y-113085249D01*
X116537183Y-113202670D01*
X116404883Y-113431821D01*
X116404877Y-113431833D01*
X116308202Y-113678157D01*
X116249322Y-113936130D01*
X116229549Y-114200000D01*
X116249322Y-114463869D01*
X116308202Y-114721842D01*
X116308204Y-114721849D01*
X116308205Y-114721850D01*
X116331914Y-114782261D01*
X116404877Y-114968166D01*
X116404883Y-114968178D01*
X116537183Y-115197329D01*
X116630824Y-115314751D01*
X116675416Y-115401068D01*
X116683582Y-115497879D01*
X116654079Y-115590446D01*
X116630824Y-115625249D01*
X116537183Y-115742670D01*
X116404883Y-115971821D01*
X116404877Y-115971833D01*
X116308202Y-116218157D01*
X116249322Y-116476130D01*
X116229549Y-116740000D01*
X116249322Y-117003869D01*
X116308202Y-117261842D01*
X116404877Y-117508166D01*
X116404883Y-117508178D01*
X116537183Y-117737329D01*
X116630824Y-117854751D01*
X116675416Y-117941068D01*
X116683582Y-118037879D01*
X116654079Y-118130446D01*
X116630824Y-118165249D01*
X116537183Y-118282670D01*
X116404883Y-118511821D01*
X116404877Y-118511833D01*
X116308202Y-118758157D01*
X116249322Y-119016130D01*
X116229549Y-119280000D01*
X116249322Y-119543869D01*
X116308202Y-119801842D01*
X116404877Y-120048166D01*
X116404883Y-120048178D01*
X116537183Y-120277329D01*
X116702167Y-120484212D01*
X116702178Y-120484223D01*
X116896141Y-120664193D01*
X116937512Y-120692400D01*
X117005565Y-120761738D01*
X117041904Y-120851841D01*
X117040996Y-120948992D01*
X117002978Y-121038400D01*
X117001214Y-121040953D01*
X116900293Y-121185083D01*
X116806747Y-121385694D01*
X116749458Y-121599502D01*
X116730168Y-121819994D01*
X116730168Y-121820005D01*
X116749458Y-122040497D01*
X116806747Y-122254305D01*
X116900293Y-122454916D01*
X117001214Y-122599046D01*
X117040343Y-122687973D01*
X117042462Y-122785105D01*
X117007249Y-122875654D01*
X116940065Y-122945835D01*
X116937515Y-122947597D01*
X116896141Y-122975805D01*
X116702178Y-123155776D01*
X116702167Y-123155787D01*
X116537183Y-123362670D01*
X116404883Y-123591821D01*
X116404877Y-123591833D01*
X116308202Y-123838157D01*
X116249322Y-124096130D01*
X116229549Y-124360000D01*
X116249322Y-124623869D01*
X116308202Y-124881842D01*
X116404877Y-125128166D01*
X116404883Y-125128178D01*
X116537183Y-125357329D01*
X116630824Y-125474751D01*
X116675416Y-125561068D01*
X116683582Y-125657879D01*
X116654079Y-125750446D01*
X116630824Y-125785249D01*
X116537183Y-125902670D01*
X116404883Y-126131821D01*
X116404877Y-126131833D01*
X116308202Y-126378157D01*
X116249322Y-126636130D01*
X116229549Y-126900000D01*
X116249322Y-127163869D01*
X116308202Y-127421842D01*
X116404877Y-127668166D01*
X116404883Y-127668178D01*
X116537183Y-127897329D01*
X116630824Y-128014751D01*
X116675416Y-128101068D01*
X116683582Y-128197879D01*
X116654079Y-128290446D01*
X116630824Y-128325249D01*
X116537183Y-128442670D01*
X116404883Y-128671821D01*
X116404877Y-128671833D01*
X116308202Y-128918157D01*
X116249322Y-129176130D01*
X116229549Y-129440000D01*
X116249322Y-129703869D01*
X116308202Y-129961842D01*
X116404877Y-130208166D01*
X116404883Y-130208178D01*
X116537183Y-130437329D01*
X116630824Y-130554751D01*
X116675416Y-130641068D01*
X116683582Y-130737879D01*
X116654079Y-130830446D01*
X116630824Y-130865249D01*
X116537183Y-130982670D01*
X116404883Y-131211821D01*
X116404877Y-131211833D01*
X116308202Y-131458157D01*
X116249322Y-131716130D01*
X116229549Y-131980000D01*
X116249322Y-132243869D01*
X116308202Y-132501842D01*
X116404877Y-132748166D01*
X116404883Y-132748178D01*
X116537183Y-132977329D01*
X116630824Y-133094751D01*
X116675416Y-133181068D01*
X116683582Y-133277879D01*
X116654079Y-133370446D01*
X116630824Y-133405249D01*
X116537183Y-133522670D01*
X116404883Y-133751821D01*
X116404877Y-133751833D01*
X116308202Y-133998157D01*
X116249322Y-134256130D01*
X116229549Y-134520000D01*
X116249322Y-134783869D01*
X116308202Y-135041842D01*
X116308204Y-135041849D01*
X116308205Y-135041850D01*
X116404877Y-135288166D01*
X116404882Y-135288177D01*
X116466139Y-135394276D01*
X116497370Y-135486274D01*
X116499500Y-135518777D01*
X116499500Y-137688832D01*
X116480546Y-137784120D01*
X116426570Y-137864902D01*
X116345788Y-137918878D01*
X116250500Y-137937832D01*
X116155212Y-137918878D01*
X116074430Y-137864902D01*
X111784568Y-133575041D01*
X111730592Y-133494259D01*
X111712219Y-133415967D01*
X111698124Y-133209901D01*
X111697151Y-133205221D01*
X111687124Y-133156966D01*
X111638964Y-132925207D01*
X111541588Y-132651220D01*
X111541585Y-132651215D01*
X111541584Y-132651211D01*
X111407815Y-132393049D01*
X111407812Y-132393044D01*
X111312513Y-132258036D01*
X111240127Y-132155488D01*
X111041657Y-131942978D01*
X110816098Y-131759473D01*
X110816096Y-131759472D01*
X110816094Y-131759470D01*
X110816091Y-131759469D01*
X110567654Y-131608390D01*
X110429996Y-131548597D01*
X110300950Y-131492544D01*
X110300946Y-131492543D01*
X110300942Y-131492541D01*
X110300943Y-131492541D01*
X110020949Y-131414092D01*
X109732894Y-131374500D01*
X109732888Y-131374500D01*
X109442112Y-131374500D01*
X109442105Y-131374500D01*
X109154050Y-131414092D01*
X108874057Y-131492541D01*
X108607345Y-131608390D01*
X108358908Y-131759469D01*
X108358905Y-131759470D01*
X108133344Y-131942977D01*
X107934874Y-132155486D01*
X107767187Y-132393044D01*
X107767184Y-132393049D01*
X107633415Y-132651211D01*
X107612709Y-132709473D01*
X107538798Y-132917437D01*
X107536036Y-132925208D01*
X107476876Y-133209895D01*
X107457033Y-133500000D01*
X101057525Y-133500000D01*
X101057525Y-133499994D01*
X101037457Y-133245010D01*
X100977746Y-132996296D01*
X100977743Y-132996288D01*
X100879863Y-132759984D01*
X100746221Y-132541901D01*
X100746209Y-132541883D01*
X100742966Y-132538087D01*
X100105078Y-133175974D01*
X100092141Y-133144742D01*
X100010063Y-133021903D01*
X99905597Y-132917437D01*
X99782758Y-132835359D01*
X99751522Y-132822420D01*
X100389411Y-132184533D01*
X100385603Y-132181281D01*
X100167510Y-132047634D01*
X99931211Y-131949756D01*
X99931203Y-131949753D01*
X99682489Y-131890042D01*
X99427506Y-131869975D01*
X99427494Y-131869975D01*
X99172510Y-131890042D01*
X98923796Y-131949753D01*
X98923788Y-131949756D01*
X98687489Y-132047634D01*
X98469391Y-132181284D01*
X98465587Y-132184532D01*
X99103476Y-132822421D01*
X99072242Y-132835359D01*
X98949403Y-132917437D01*
X98844937Y-133021903D01*
X98762859Y-133144742D01*
X98749921Y-133175976D01*
X98112032Y-132538087D01*
X98108784Y-132541891D01*
X97975134Y-132759989D01*
X97877256Y-132996288D01*
X97877253Y-132996296D01*
X97817542Y-133245010D01*
X97797475Y-133499994D01*
X86000000Y-133499994D01*
X86000000Y-118249000D01*
X86018954Y-118153712D01*
X86072930Y-118072930D01*
X86153712Y-118018954D01*
X86249000Y-118000000D01*
X112999999Y-118000000D01*
X113000000Y-118000000D01*
X113000000Y-77249000D01*
X113018954Y-77153712D01*
X113072930Y-77072930D01*
X113153712Y-77018954D01*
X113249000Y-77000000D01*
X211419012Y-77000000D01*
X211514300Y-77018954D01*
G37*
%TD.AperFunction*%
%TD*%
M02*
