%TF.GenerationSoftware,KiCad,Pcbnew,8.0.6-8.0.6-0~ubuntu22.04.1*%
%TF.CreationDate,2024-11-04T10:12:41+07:00*%
%TF.ProjectId,projectGATE,70726f6a-6563-4744-9741-54452e6b6963,rev?*%
%TF.SameCoordinates,Original*%
%TF.FileFunction,Soldermask,Bot*%
%TF.FilePolarity,Negative*%
%FSLAX46Y46*%
G04 Gerber Fmt 4.6, Leading zero omitted, Abs format (unit mm)*
G04 Created by KiCad (PCBNEW 8.0.6-8.0.6-0~ubuntu22.04.1) date 2024-11-04 10:12:41*
%MOMM*%
%LPD*%
G01*
G04 APERTURE LIST*
G04 Aperture macros list*
%AMRoundRect*
0 Rectangle with rounded corners*
0 $1 Rounding radius*
0 $2 $3 $4 $5 $6 $7 $8 $9 X,Y pos of 4 corners*
0 Add a 4 corners polygon primitive as box body*
4,1,4,$2,$3,$4,$5,$6,$7,$8,$9,$2,$3,0*
0 Add four circle primitives for the rounded corners*
1,1,$1+$1,$2,$3*
1,1,$1+$1,$4,$5*
1,1,$1+$1,$6,$7*
1,1,$1+$1,$8,$9*
0 Add four rect primitives between the rounded corners*
20,1,$1+$1,$2,$3,$4,$5,0*
20,1,$1+$1,$4,$5,$6,$7,0*
20,1,$1+$1,$6,$7,$8,$9,0*
20,1,$1+$1,$8,$9,$2,$3,0*%
G04 Aperture macros list end*
%ADD10RoundRect,0.102000X-1.125000X1.125000X-1.125000X-1.125000X1.125000X-1.125000X1.125000X1.125000X0*%
%ADD11C,2.454000*%
%ADD12R,2.200000X2.200000*%
%ADD13O,2.200000X2.200000*%
%ADD14RoundRect,0.102000X-1.200000X-1.200000X1.200000X-1.200000X1.200000X1.200000X-1.200000X1.200000X0*%
%ADD15C,2.604000*%
%ADD16C,1.404000*%
%ADD17R,1.905000X2.000000*%
%ADD18O,1.905000X2.000000*%
%ADD19R,1.600000X1.600000*%
%ADD20O,1.600000X1.600000*%
%ADD21C,1.712000*%
%ADD22RoundRect,0.102000X1.200000X1.200000X-1.200000X1.200000X-1.200000X-1.200000X1.200000X-1.200000X0*%
%ADD23RoundRect,0.102000X-0.825000X-0.825000X0.825000X-0.825000X0.825000X0.825000X-0.825000X0.825000X0*%
%ADD24C,1.854000*%
%ADD25RoundRect,0.102000X-0.765000X-0.765000X0.765000X-0.765000X0.765000X0.765000X-0.765000X0.765000X0*%
%ADD26C,1.734000*%
%TA.AperFunction,Profile*%
%ADD27C,0.050000*%
%TD*%
G04 APERTURE END LIST*
D10*
%TO.C,PS1*%
X112160000Y-90500000D03*
D11*
X112160000Y-123500000D03*
X91840000Y-90500000D03*
X102000000Y-123500000D03*
%TD*%
D12*
%TO.C,D3*%
X183580000Y-113080000D03*
D13*
X183580000Y-102920000D03*
%TD*%
D14*
%TO.C,J3*%
X197920000Y-121000000D03*
D15*
X203000000Y-121000000D03*
X208080000Y-121000000D03*
%TD*%
D16*
%TO.C,R7*%
X156000000Y-95500000D03*
X156000000Y-84500000D03*
%TD*%
D17*
%TO.C,Q3*%
X170920000Y-76000000D03*
D18*
X173460000Y-76000000D03*
X176000000Y-76000000D03*
%TD*%
D19*
%TO.C,U2*%
X155200000Y-119725000D03*
D20*
X155200000Y-122265000D03*
X162820000Y-122265000D03*
X162820000Y-119725000D03*
%TD*%
D16*
%TO.C,R12*%
X174000000Y-84500000D03*
X174000000Y-95500000D03*
%TD*%
D21*
%TO.C,D1*%
X189540000Y-123500000D03*
X187000000Y-123500000D03*
%TD*%
D19*
%TO.C,U3*%
X155200000Y-73725000D03*
D20*
X155200000Y-76265000D03*
X162820000Y-76265000D03*
X162820000Y-73725000D03*
%TD*%
D22*
%TO.C,J2*%
X208000000Y-77500000D03*
D15*
X202920000Y-77500000D03*
X197840000Y-77500000D03*
%TD*%
D16*
%TO.C,R10*%
X174000000Y-102500000D03*
X174000000Y-113500000D03*
%TD*%
%TO.C,R11*%
X163000000Y-84500000D03*
X163000000Y-95500000D03*
%TD*%
D23*
%TO.C,K2*%
X191590000Y-95810000D03*
D24*
X199210000Y-95810000D03*
X204290000Y-95810000D03*
X209370000Y-95810000D03*
X209370000Y-88190000D03*
X204290000Y-88190000D03*
X199210000Y-88190000D03*
X191590000Y-88190000D03*
%TD*%
D12*
%TO.C,D4*%
X183520000Y-95080000D03*
D13*
X183520000Y-84920000D03*
%TD*%
D17*
%TO.C,Q4*%
X171460000Y-122000000D03*
D18*
X174000000Y-122000000D03*
X176540000Y-122000000D03*
%TD*%
D16*
%TO.C,R9*%
X163000000Y-113500000D03*
X163000000Y-102500000D03*
%TD*%
%TO.C,R8*%
X155940000Y-102500000D03*
X155940000Y-113500000D03*
%TD*%
D23*
%TO.C,K1*%
X191800000Y-110000000D03*
D24*
X199420000Y-110000000D03*
X204500000Y-110000000D03*
X209580000Y-110000000D03*
X209580000Y-102380000D03*
X204500000Y-102380000D03*
X199420000Y-102380000D03*
X191800000Y-102380000D03*
%TD*%
D25*
%TO.C,U1*%
X122210000Y-77600000D03*
D26*
X122210000Y-80140000D03*
X122210000Y-82680000D03*
X122210000Y-85220000D03*
X122210000Y-87760000D03*
X122210000Y-90300000D03*
X122210000Y-92840000D03*
X122210000Y-95380000D03*
X122210000Y-97920000D03*
X122210000Y-100460000D03*
X122210000Y-103000000D03*
X122210000Y-105540000D03*
X122210000Y-108080000D03*
X122210000Y-110620000D03*
X122210000Y-113160000D03*
X122210000Y-115700000D03*
X122210000Y-118240000D03*
X122210000Y-120780000D03*
X122210000Y-123320000D03*
X147610000Y-123320000D03*
X147610000Y-120780000D03*
X147610000Y-118240000D03*
X147610000Y-115700000D03*
X147610000Y-113160000D03*
X147610000Y-110620000D03*
X147610000Y-108080000D03*
X147610000Y-105540000D03*
X147610000Y-103000000D03*
X147610000Y-100460000D03*
X147610000Y-97920000D03*
X147610000Y-95380000D03*
X147610000Y-92840000D03*
X147610000Y-90300000D03*
X147610000Y-87760000D03*
X147610000Y-85220000D03*
X147610000Y-82680000D03*
X147610000Y-80140000D03*
X147610000Y-77600000D03*
%TD*%
D22*
%TO.C,J1*%
X96940000Y-80350000D03*
D15*
X91860000Y-80350000D03*
%TD*%
D21*
%TO.C,D2*%
X189270000Y-75000000D03*
X186730000Y-75000000D03*
%TD*%
D27*
X88000000Y-134000000D02*
G75*
G02*
X86000000Y-134000000I-1000000J0D01*
G01*
X86000000Y-134000000D02*
G75*
G02*
X88000000Y-134000000I1000000J0D01*
G01*
X88000000Y-68000000D02*
G75*
G02*
X86000000Y-68000000I-1000000J0D01*
G01*
X86000000Y-68000000D02*
G75*
G02*
X88000000Y-68000000I1000000J0D01*
G01*
X214000000Y-68000000D02*
G75*
G02*
X212000000Y-68000000I-1000000J0D01*
G01*
X212000000Y-68000000D02*
G75*
G02*
X214000000Y-68000000I1000000J0D01*
G01*
X214000000Y-134000000D02*
G75*
G02*
X212000000Y-134000000I-1000000J0D01*
G01*
X212000000Y-134000000D02*
G75*
G02*
X214000000Y-134000000I1000000J0D01*
G01*
X85000000Y-66000000D02*
X215000000Y-66000000D01*
X215000000Y-136000000D01*
X85000000Y-136000000D01*
X85000000Y-66000000D01*
M02*
