%TF.GenerationSoftware,KiCad,Pcbnew,8.0.6-8.0.6-0~ubuntu22.04.1*%
%TF.CreationDate,2024-11-04T10:12:41+07:00*%
%TF.ProjectId,projectGATE,70726f6a-6563-4744-9741-54452e6b6963,rev?*%
%TF.SameCoordinates,Original*%
%TF.FileFunction,AssemblyDrawing,Top*%
%FSLAX46Y46*%
G04 Gerber Fmt 4.6, Leading zero omitted, Abs format (unit mm)*
G04 Created by KiCad (PCBNEW 8.0.6-8.0.6-0~ubuntu22.04.1) date 2024-11-04 10:12:41*
%MOMM*%
%LPD*%
G01*
G04 APERTURE LIST*
%ADD10C,0.150000*%
%ADD11C,0.127000*%
%ADD12C,0.200000*%
%ADD13C,0.100000*%
%TA.AperFunction,Profile*%
%ADD14C,0.050000*%
%TD*%
G04 APERTURE END LIST*
D10*
X100454819Y-104928570D02*
X101454819Y-104595237D01*
X101454819Y-104595237D02*
X100454819Y-104261904D01*
X100454819Y-103738094D02*
X100454819Y-103547618D01*
X100454819Y-103547618D02*
X100502438Y-103452380D01*
X100502438Y-103452380D02*
X100597676Y-103357142D01*
X100597676Y-103357142D02*
X100788152Y-103309523D01*
X100788152Y-103309523D02*
X101121485Y-103309523D01*
X101121485Y-103309523D02*
X101311961Y-103357142D01*
X101311961Y-103357142D02*
X101407200Y-103452380D01*
X101407200Y-103452380D02*
X101454819Y-103547618D01*
X101454819Y-103547618D02*
X101454819Y-103738094D01*
X101454819Y-103738094D02*
X101407200Y-103833332D01*
X101407200Y-103833332D02*
X101311961Y-103928570D01*
X101311961Y-103928570D02*
X101121485Y-103976189D01*
X101121485Y-103976189D02*
X100788152Y-103976189D01*
X100788152Y-103976189D02*
X100597676Y-103928570D01*
X100597676Y-103928570D02*
X100502438Y-103833332D01*
X100502438Y-103833332D02*
X100454819Y-103738094D01*
X100931009Y-102547618D02*
X100931009Y-102880951D01*
X101454819Y-102880951D02*
X100454819Y-102880951D01*
X100454819Y-102880951D02*
X100454819Y-102404761D01*
X101073866Y-102023808D02*
X101073866Y-101261904D01*
X101407200Y-100833332D02*
X101454819Y-100690475D01*
X101454819Y-100690475D02*
X101454819Y-100452380D01*
X101454819Y-100452380D02*
X101407200Y-100357142D01*
X101407200Y-100357142D02*
X101359580Y-100309523D01*
X101359580Y-100309523D02*
X101264342Y-100261904D01*
X101264342Y-100261904D02*
X101169104Y-100261904D01*
X101169104Y-100261904D02*
X101073866Y-100309523D01*
X101073866Y-100309523D02*
X101026247Y-100357142D01*
X101026247Y-100357142D02*
X100978628Y-100452380D01*
X100978628Y-100452380D02*
X100931009Y-100642856D01*
X100931009Y-100642856D02*
X100883390Y-100738094D01*
X100883390Y-100738094D02*
X100835771Y-100785713D01*
X100835771Y-100785713D02*
X100740533Y-100833332D01*
X100740533Y-100833332D02*
X100645295Y-100833332D01*
X100645295Y-100833332D02*
X100550057Y-100785713D01*
X100550057Y-100785713D02*
X100502438Y-100738094D01*
X100502438Y-100738094D02*
X100454819Y-100642856D01*
X100454819Y-100642856D02*
X100454819Y-100404761D01*
X100454819Y-100404761D02*
X100502438Y-100261904D01*
X101454819Y-99309523D02*
X101454819Y-99880951D01*
X101454819Y-99595237D02*
X100454819Y-99595237D01*
X100454819Y-99595237D02*
X100597676Y-99690475D01*
X100597676Y-99690475D02*
X100692914Y-99785713D01*
X100692914Y-99785713D02*
X100740533Y-99880951D01*
X100550057Y-98928570D02*
X100502438Y-98880951D01*
X100502438Y-98880951D02*
X100454819Y-98785713D01*
X100454819Y-98785713D02*
X100454819Y-98547618D01*
X100454819Y-98547618D02*
X100502438Y-98452380D01*
X100502438Y-98452380D02*
X100550057Y-98404761D01*
X100550057Y-98404761D02*
X100645295Y-98357142D01*
X100645295Y-98357142D02*
X100740533Y-98357142D01*
X100740533Y-98357142D02*
X100883390Y-98404761D01*
X100883390Y-98404761D02*
X101454819Y-98976189D01*
X101454819Y-98976189D02*
X101454819Y-98357142D01*
X100931009Y-97595237D02*
X100978628Y-97452380D01*
X100978628Y-97452380D02*
X101026247Y-97404761D01*
X101026247Y-97404761D02*
X101121485Y-97357142D01*
X101121485Y-97357142D02*
X101264342Y-97357142D01*
X101264342Y-97357142D02*
X101359580Y-97404761D01*
X101359580Y-97404761D02*
X101407200Y-97452380D01*
X101407200Y-97452380D02*
X101454819Y-97547618D01*
X101454819Y-97547618D02*
X101454819Y-97928570D01*
X101454819Y-97928570D02*
X100454819Y-97928570D01*
X100454819Y-97928570D02*
X100454819Y-97595237D01*
X100454819Y-97595237D02*
X100502438Y-97499999D01*
X100502438Y-97499999D02*
X100550057Y-97452380D01*
X100550057Y-97452380D02*
X100645295Y-97404761D01*
X100645295Y-97404761D02*
X100740533Y-97404761D01*
X100740533Y-97404761D02*
X100835771Y-97452380D01*
X100835771Y-97452380D02*
X100883390Y-97499999D01*
X100883390Y-97499999D02*
X100931009Y-97595237D01*
X100931009Y-97595237D02*
X100931009Y-97928570D01*
X101073866Y-96928570D02*
X101073866Y-96166666D01*
X100454819Y-95214285D02*
X100454819Y-95690475D01*
X100454819Y-95690475D02*
X100931009Y-95738094D01*
X100931009Y-95738094D02*
X100883390Y-95690475D01*
X100883390Y-95690475D02*
X100835771Y-95595237D01*
X100835771Y-95595237D02*
X100835771Y-95357142D01*
X100835771Y-95357142D02*
X100883390Y-95261904D01*
X100883390Y-95261904D02*
X100931009Y-95214285D01*
X100931009Y-95214285D02*
X101026247Y-95166666D01*
X101026247Y-95166666D02*
X101264342Y-95166666D01*
X101264342Y-95166666D02*
X101359580Y-95214285D01*
X101359580Y-95214285D02*
X101407200Y-95261904D01*
X101407200Y-95261904D02*
X101454819Y-95357142D01*
X101454819Y-95357142D02*
X101454819Y-95595237D01*
X101454819Y-95595237D02*
X101407200Y-95690475D01*
X101407200Y-95690475D02*
X101359580Y-95738094D01*
X184034819Y-108238094D02*
X183034819Y-108238094D01*
X183034819Y-108238094D02*
X183034819Y-107999999D01*
X183034819Y-107999999D02*
X183082438Y-107857142D01*
X183082438Y-107857142D02*
X183177676Y-107761904D01*
X183177676Y-107761904D02*
X183272914Y-107714285D01*
X183272914Y-107714285D02*
X183463390Y-107666666D01*
X183463390Y-107666666D02*
X183606247Y-107666666D01*
X183606247Y-107666666D02*
X183796723Y-107714285D01*
X183796723Y-107714285D02*
X183891961Y-107761904D01*
X183891961Y-107761904D02*
X183987200Y-107857142D01*
X183987200Y-107857142D02*
X184034819Y-107999999D01*
X184034819Y-107999999D02*
X184034819Y-108238094D01*
X183034819Y-107333332D02*
X183034819Y-106714285D01*
X183034819Y-106714285D02*
X183415771Y-107047618D01*
X183415771Y-107047618D02*
X183415771Y-106904761D01*
X183415771Y-106904761D02*
X183463390Y-106809523D01*
X183463390Y-106809523D02*
X183511009Y-106761904D01*
X183511009Y-106761904D02*
X183606247Y-106714285D01*
X183606247Y-106714285D02*
X183844342Y-106714285D01*
X183844342Y-106714285D02*
X183939580Y-106761904D01*
X183939580Y-106761904D02*
X183987200Y-106809523D01*
X183987200Y-106809523D02*
X184034819Y-106904761D01*
X184034819Y-106904761D02*
X184034819Y-107190475D01*
X184034819Y-107190475D02*
X183987200Y-107285713D01*
X183987200Y-107285713D02*
X183939580Y-107333332D01*
X181934819Y-113341904D02*
X180934819Y-113341904D01*
X181934819Y-112770476D02*
X181363390Y-113199047D01*
X180934819Y-112770476D02*
X181506247Y-113341904D01*
X171483810Y-77954819D02*
X172055238Y-77954819D01*
X171769524Y-78954819D02*
X171769524Y-77954819D01*
X172388572Y-78954819D02*
X172388572Y-77954819D01*
X172864762Y-78954819D02*
X172864762Y-77954819D01*
X172864762Y-77954819D02*
X173245714Y-77954819D01*
X173245714Y-77954819D02*
X173340952Y-78002438D01*
X173340952Y-78002438D02*
X173388571Y-78050057D01*
X173388571Y-78050057D02*
X173436190Y-78145295D01*
X173436190Y-78145295D02*
X173436190Y-78288152D01*
X173436190Y-78288152D02*
X173388571Y-78383390D01*
X173388571Y-78383390D02*
X173340952Y-78431009D01*
X173340952Y-78431009D02*
X173245714Y-78478628D01*
X173245714Y-78478628D02*
X172864762Y-78478628D01*
X174293333Y-78288152D02*
X174293333Y-78954819D01*
X174055238Y-77907200D02*
X173817143Y-78621485D01*
X173817143Y-78621485D02*
X174436190Y-78621485D01*
X175340952Y-78954819D02*
X174769524Y-78954819D01*
X175055238Y-78954819D02*
X175055238Y-77954819D01*
X175055238Y-77954819D02*
X174960000Y-78097676D01*
X174960000Y-78097676D02*
X174864762Y-78192914D01*
X174864762Y-78192914D02*
X174769524Y-78240533D01*
X173364761Y-72280057D02*
X173269523Y-72232438D01*
X173269523Y-72232438D02*
X173174285Y-72137200D01*
X173174285Y-72137200D02*
X173031428Y-71994342D01*
X173031428Y-71994342D02*
X172936190Y-71946723D01*
X172936190Y-71946723D02*
X172840952Y-71946723D01*
X172888571Y-72184819D02*
X172793333Y-72137200D01*
X172793333Y-72137200D02*
X172698095Y-72041961D01*
X172698095Y-72041961D02*
X172650476Y-71851485D01*
X172650476Y-71851485D02*
X172650476Y-71518152D01*
X172650476Y-71518152D02*
X172698095Y-71327676D01*
X172698095Y-71327676D02*
X172793333Y-71232438D01*
X172793333Y-71232438D02*
X172888571Y-71184819D01*
X172888571Y-71184819D02*
X173079047Y-71184819D01*
X173079047Y-71184819D02*
X173174285Y-71232438D01*
X173174285Y-71232438D02*
X173269523Y-71327676D01*
X173269523Y-71327676D02*
X173317142Y-71518152D01*
X173317142Y-71518152D02*
X173317142Y-71851485D01*
X173317142Y-71851485D02*
X173269523Y-72041961D01*
X173269523Y-72041961D02*
X173174285Y-72137200D01*
X173174285Y-72137200D02*
X173079047Y-72184819D01*
X173079047Y-72184819D02*
X172888571Y-72184819D01*
X173650476Y-71184819D02*
X174269523Y-71184819D01*
X174269523Y-71184819D02*
X173936190Y-71565771D01*
X173936190Y-71565771D02*
X174079047Y-71565771D01*
X174079047Y-71565771D02*
X174174285Y-71613390D01*
X174174285Y-71613390D02*
X174221904Y-71661009D01*
X174221904Y-71661009D02*
X174269523Y-71756247D01*
X174269523Y-71756247D02*
X174269523Y-71994342D01*
X174269523Y-71994342D02*
X174221904Y-72089580D01*
X174221904Y-72089580D02*
X174174285Y-72137200D01*
X174174285Y-72137200D02*
X174079047Y-72184819D01*
X174079047Y-72184819D02*
X173793333Y-72184819D01*
X173793333Y-72184819D02*
X173698095Y-72137200D01*
X173698095Y-72137200D02*
X173650476Y-72089580D01*
X156819524Y-125049819D02*
X156819524Y-124049819D01*
X156819524Y-124049819D02*
X157200476Y-124049819D01*
X157200476Y-124049819D02*
X157295714Y-124097438D01*
X157295714Y-124097438D02*
X157343333Y-124145057D01*
X157343333Y-124145057D02*
X157390952Y-124240295D01*
X157390952Y-124240295D02*
X157390952Y-124383152D01*
X157390952Y-124383152D02*
X157343333Y-124478390D01*
X157343333Y-124478390D02*
X157295714Y-124526009D01*
X157295714Y-124526009D02*
X157200476Y-124573628D01*
X157200476Y-124573628D02*
X156819524Y-124573628D01*
X158390952Y-124954580D02*
X158343333Y-125002200D01*
X158343333Y-125002200D02*
X158200476Y-125049819D01*
X158200476Y-125049819D02*
X158105238Y-125049819D01*
X158105238Y-125049819D02*
X157962381Y-125002200D01*
X157962381Y-125002200D02*
X157867143Y-124906961D01*
X157867143Y-124906961D02*
X157819524Y-124811723D01*
X157819524Y-124811723D02*
X157771905Y-124621247D01*
X157771905Y-124621247D02*
X157771905Y-124478390D01*
X157771905Y-124478390D02*
X157819524Y-124287914D01*
X157819524Y-124287914D02*
X157867143Y-124192676D01*
X157867143Y-124192676D02*
X157962381Y-124097438D01*
X157962381Y-124097438D02*
X158105238Y-124049819D01*
X158105238Y-124049819D02*
X158200476Y-124049819D01*
X158200476Y-124049819D02*
X158343333Y-124097438D01*
X158343333Y-124097438D02*
X158390952Y-124145057D01*
X158962381Y-124478390D02*
X158867143Y-124430771D01*
X158867143Y-124430771D02*
X158819524Y-124383152D01*
X158819524Y-124383152D02*
X158771905Y-124287914D01*
X158771905Y-124287914D02*
X158771905Y-124240295D01*
X158771905Y-124240295D02*
X158819524Y-124145057D01*
X158819524Y-124145057D02*
X158867143Y-124097438D01*
X158867143Y-124097438D02*
X158962381Y-124049819D01*
X158962381Y-124049819D02*
X159152857Y-124049819D01*
X159152857Y-124049819D02*
X159248095Y-124097438D01*
X159248095Y-124097438D02*
X159295714Y-124145057D01*
X159295714Y-124145057D02*
X159343333Y-124240295D01*
X159343333Y-124240295D02*
X159343333Y-124287914D01*
X159343333Y-124287914D02*
X159295714Y-124383152D01*
X159295714Y-124383152D02*
X159248095Y-124430771D01*
X159248095Y-124430771D02*
X159152857Y-124478390D01*
X159152857Y-124478390D02*
X158962381Y-124478390D01*
X158962381Y-124478390D02*
X158867143Y-124526009D01*
X158867143Y-124526009D02*
X158819524Y-124573628D01*
X158819524Y-124573628D02*
X158771905Y-124668866D01*
X158771905Y-124668866D02*
X158771905Y-124859342D01*
X158771905Y-124859342D02*
X158819524Y-124954580D01*
X158819524Y-124954580D02*
X158867143Y-125002200D01*
X158867143Y-125002200D02*
X158962381Y-125049819D01*
X158962381Y-125049819D02*
X159152857Y-125049819D01*
X159152857Y-125049819D02*
X159248095Y-125002200D01*
X159248095Y-125002200D02*
X159295714Y-124954580D01*
X159295714Y-124954580D02*
X159343333Y-124859342D01*
X159343333Y-124859342D02*
X159343333Y-124668866D01*
X159343333Y-124668866D02*
X159295714Y-124573628D01*
X159295714Y-124573628D02*
X159248095Y-124526009D01*
X159248095Y-124526009D02*
X159152857Y-124478390D01*
X160295714Y-125049819D02*
X159724286Y-125049819D01*
X160010000Y-125049819D02*
X160010000Y-124049819D01*
X160010000Y-124049819D02*
X159914762Y-124192676D01*
X159914762Y-124192676D02*
X159819524Y-124287914D01*
X159819524Y-124287914D02*
X159724286Y-124335533D01*
X160629048Y-124049819D02*
X161295714Y-124049819D01*
X161295714Y-124049819D02*
X160867143Y-125049819D01*
X190865238Y-123457533D02*
X191474762Y-123457533D01*
X191170000Y-123762295D02*
X191170000Y-123152771D01*
X156819524Y-79049819D02*
X156819524Y-78049819D01*
X156819524Y-78049819D02*
X157200476Y-78049819D01*
X157200476Y-78049819D02*
X157295714Y-78097438D01*
X157295714Y-78097438D02*
X157343333Y-78145057D01*
X157343333Y-78145057D02*
X157390952Y-78240295D01*
X157390952Y-78240295D02*
X157390952Y-78383152D01*
X157390952Y-78383152D02*
X157343333Y-78478390D01*
X157343333Y-78478390D02*
X157295714Y-78526009D01*
X157295714Y-78526009D02*
X157200476Y-78573628D01*
X157200476Y-78573628D02*
X156819524Y-78573628D01*
X158390952Y-78954580D02*
X158343333Y-79002200D01*
X158343333Y-79002200D02*
X158200476Y-79049819D01*
X158200476Y-79049819D02*
X158105238Y-79049819D01*
X158105238Y-79049819D02*
X157962381Y-79002200D01*
X157962381Y-79002200D02*
X157867143Y-78906961D01*
X157867143Y-78906961D02*
X157819524Y-78811723D01*
X157819524Y-78811723D02*
X157771905Y-78621247D01*
X157771905Y-78621247D02*
X157771905Y-78478390D01*
X157771905Y-78478390D02*
X157819524Y-78287914D01*
X157819524Y-78287914D02*
X157867143Y-78192676D01*
X157867143Y-78192676D02*
X157962381Y-78097438D01*
X157962381Y-78097438D02*
X158105238Y-78049819D01*
X158105238Y-78049819D02*
X158200476Y-78049819D01*
X158200476Y-78049819D02*
X158343333Y-78097438D01*
X158343333Y-78097438D02*
X158390952Y-78145057D01*
X158962381Y-78478390D02*
X158867143Y-78430771D01*
X158867143Y-78430771D02*
X158819524Y-78383152D01*
X158819524Y-78383152D02*
X158771905Y-78287914D01*
X158771905Y-78287914D02*
X158771905Y-78240295D01*
X158771905Y-78240295D02*
X158819524Y-78145057D01*
X158819524Y-78145057D02*
X158867143Y-78097438D01*
X158867143Y-78097438D02*
X158962381Y-78049819D01*
X158962381Y-78049819D02*
X159152857Y-78049819D01*
X159152857Y-78049819D02*
X159248095Y-78097438D01*
X159248095Y-78097438D02*
X159295714Y-78145057D01*
X159295714Y-78145057D02*
X159343333Y-78240295D01*
X159343333Y-78240295D02*
X159343333Y-78287914D01*
X159343333Y-78287914D02*
X159295714Y-78383152D01*
X159295714Y-78383152D02*
X159248095Y-78430771D01*
X159248095Y-78430771D02*
X159152857Y-78478390D01*
X159152857Y-78478390D02*
X158962381Y-78478390D01*
X158962381Y-78478390D02*
X158867143Y-78526009D01*
X158867143Y-78526009D02*
X158819524Y-78573628D01*
X158819524Y-78573628D02*
X158771905Y-78668866D01*
X158771905Y-78668866D02*
X158771905Y-78859342D01*
X158771905Y-78859342D02*
X158819524Y-78954580D01*
X158819524Y-78954580D02*
X158867143Y-79002200D01*
X158867143Y-79002200D02*
X158962381Y-79049819D01*
X158962381Y-79049819D02*
X159152857Y-79049819D01*
X159152857Y-79049819D02*
X159248095Y-79002200D01*
X159248095Y-79002200D02*
X159295714Y-78954580D01*
X159295714Y-78954580D02*
X159343333Y-78859342D01*
X159343333Y-78859342D02*
X159343333Y-78668866D01*
X159343333Y-78668866D02*
X159295714Y-78573628D01*
X159295714Y-78573628D02*
X159248095Y-78526009D01*
X159248095Y-78526009D02*
X159152857Y-78478390D01*
X160295714Y-79049819D02*
X159724286Y-79049819D01*
X160010000Y-79049819D02*
X160010000Y-78049819D01*
X160010000Y-78049819D02*
X159914762Y-78192676D01*
X159914762Y-78192676D02*
X159819524Y-78287914D01*
X159819524Y-78287914D02*
X159724286Y-78335533D01*
X160629048Y-78049819D02*
X161295714Y-78049819D01*
X161295714Y-78049819D02*
X160867143Y-79049819D01*
X158238095Y-74454819D02*
X158238095Y-75264342D01*
X158238095Y-75264342D02*
X158285714Y-75359580D01*
X158285714Y-75359580D02*
X158333333Y-75407200D01*
X158333333Y-75407200D02*
X158428571Y-75454819D01*
X158428571Y-75454819D02*
X158619047Y-75454819D01*
X158619047Y-75454819D02*
X158714285Y-75407200D01*
X158714285Y-75407200D02*
X158761904Y-75359580D01*
X158761904Y-75359580D02*
X158809523Y-75264342D01*
X158809523Y-75264342D02*
X158809523Y-74454819D01*
X159190476Y-74454819D02*
X159809523Y-74454819D01*
X159809523Y-74454819D02*
X159476190Y-74835771D01*
X159476190Y-74835771D02*
X159619047Y-74835771D01*
X159619047Y-74835771D02*
X159714285Y-74883390D01*
X159714285Y-74883390D02*
X159761904Y-74931009D01*
X159761904Y-74931009D02*
X159809523Y-75026247D01*
X159809523Y-75026247D02*
X159809523Y-75264342D01*
X159809523Y-75264342D02*
X159761904Y-75359580D01*
X159761904Y-75359580D02*
X159714285Y-75407200D01*
X159714285Y-75407200D02*
X159619047Y-75454819D01*
X159619047Y-75454819D02*
X159333333Y-75454819D01*
X159333333Y-75454819D02*
X159238095Y-75407200D01*
X159238095Y-75407200D02*
X159190476Y-75359580D01*
X183974819Y-89238094D02*
X182974819Y-89238094D01*
X182974819Y-89238094D02*
X182974819Y-88999999D01*
X182974819Y-88999999D02*
X183022438Y-88857142D01*
X183022438Y-88857142D02*
X183117676Y-88761904D01*
X183117676Y-88761904D02*
X183212914Y-88714285D01*
X183212914Y-88714285D02*
X183403390Y-88666666D01*
X183403390Y-88666666D02*
X183546247Y-88666666D01*
X183546247Y-88666666D02*
X183736723Y-88714285D01*
X183736723Y-88714285D02*
X183831961Y-88761904D01*
X183831961Y-88761904D02*
X183927200Y-88857142D01*
X183927200Y-88857142D02*
X183974819Y-88999999D01*
X183974819Y-88999999D02*
X183974819Y-89238094D01*
X183308152Y-87809523D02*
X183974819Y-87809523D01*
X182927200Y-88047618D02*
X183641485Y-88285713D01*
X183641485Y-88285713D02*
X183641485Y-87666666D01*
X181874819Y-95341904D02*
X180874819Y-95341904D01*
X181874819Y-94770476D02*
X181303390Y-95199047D01*
X180874819Y-94770476D02*
X181446247Y-95341904D01*
X172023810Y-123954819D02*
X172595238Y-123954819D01*
X172309524Y-124954819D02*
X172309524Y-123954819D01*
X172928572Y-124954819D02*
X172928572Y-123954819D01*
X173404762Y-124954819D02*
X173404762Y-123954819D01*
X173404762Y-123954819D02*
X173785714Y-123954819D01*
X173785714Y-123954819D02*
X173880952Y-124002438D01*
X173880952Y-124002438D02*
X173928571Y-124050057D01*
X173928571Y-124050057D02*
X173976190Y-124145295D01*
X173976190Y-124145295D02*
X173976190Y-124288152D01*
X173976190Y-124288152D02*
X173928571Y-124383390D01*
X173928571Y-124383390D02*
X173880952Y-124431009D01*
X173880952Y-124431009D02*
X173785714Y-124478628D01*
X173785714Y-124478628D02*
X173404762Y-124478628D01*
X174833333Y-124288152D02*
X174833333Y-124954819D01*
X174595238Y-123907200D02*
X174357143Y-124621485D01*
X174357143Y-124621485D02*
X174976190Y-124621485D01*
X175880952Y-124954819D02*
X175309524Y-124954819D01*
X175595238Y-124954819D02*
X175595238Y-123954819D01*
X175595238Y-123954819D02*
X175500000Y-124097676D01*
X175500000Y-124097676D02*
X175404762Y-124192914D01*
X175404762Y-124192914D02*
X175309524Y-124240533D01*
X173904761Y-118280057D02*
X173809523Y-118232438D01*
X173809523Y-118232438D02*
X173714285Y-118137200D01*
X173714285Y-118137200D02*
X173571428Y-117994342D01*
X173571428Y-117994342D02*
X173476190Y-117946723D01*
X173476190Y-117946723D02*
X173380952Y-117946723D01*
X173428571Y-118184819D02*
X173333333Y-118137200D01*
X173333333Y-118137200D02*
X173238095Y-118041961D01*
X173238095Y-118041961D02*
X173190476Y-117851485D01*
X173190476Y-117851485D02*
X173190476Y-117518152D01*
X173190476Y-117518152D02*
X173238095Y-117327676D01*
X173238095Y-117327676D02*
X173333333Y-117232438D01*
X173333333Y-117232438D02*
X173428571Y-117184819D01*
X173428571Y-117184819D02*
X173619047Y-117184819D01*
X173619047Y-117184819D02*
X173714285Y-117232438D01*
X173714285Y-117232438D02*
X173809523Y-117327676D01*
X173809523Y-117327676D02*
X173857142Y-117518152D01*
X173857142Y-117518152D02*
X173857142Y-117851485D01*
X173857142Y-117851485D02*
X173809523Y-118041961D01*
X173809523Y-118041961D02*
X173714285Y-118137200D01*
X173714285Y-118137200D02*
X173619047Y-118184819D01*
X173619047Y-118184819D02*
X173428571Y-118184819D01*
X174714285Y-117518152D02*
X174714285Y-118184819D01*
X174476190Y-117137200D02*
X174238095Y-117851485D01*
X174238095Y-117851485D02*
X174857142Y-117851485D01*
X128875595Y-97731009D02*
X129208928Y-97731009D01*
X129351785Y-98254819D02*
X128875595Y-98254819D01*
X128875595Y-98254819D02*
X128875595Y-97254819D01*
X128875595Y-97254819D02*
X129351785Y-97254819D01*
X129732738Y-98207200D02*
X129875595Y-98254819D01*
X129875595Y-98254819D02*
X130113690Y-98254819D01*
X130113690Y-98254819D02*
X130208928Y-98207200D01*
X130208928Y-98207200D02*
X130256547Y-98159580D01*
X130256547Y-98159580D02*
X130304166Y-98064342D01*
X130304166Y-98064342D02*
X130304166Y-97969104D01*
X130304166Y-97969104D02*
X130256547Y-97873866D01*
X130256547Y-97873866D02*
X130208928Y-97826247D01*
X130208928Y-97826247D02*
X130113690Y-97778628D01*
X130113690Y-97778628D02*
X129923214Y-97731009D01*
X129923214Y-97731009D02*
X129827976Y-97683390D01*
X129827976Y-97683390D02*
X129780357Y-97635771D01*
X129780357Y-97635771D02*
X129732738Y-97540533D01*
X129732738Y-97540533D02*
X129732738Y-97445295D01*
X129732738Y-97445295D02*
X129780357Y-97350057D01*
X129780357Y-97350057D02*
X129827976Y-97302438D01*
X129827976Y-97302438D02*
X129923214Y-97254819D01*
X129923214Y-97254819D02*
X130161309Y-97254819D01*
X130161309Y-97254819D02*
X130304166Y-97302438D01*
X130732738Y-98254819D02*
X130732738Y-97254819D01*
X130732738Y-97254819D02*
X131113690Y-97254819D01*
X131113690Y-97254819D02*
X131208928Y-97302438D01*
X131208928Y-97302438D02*
X131256547Y-97350057D01*
X131256547Y-97350057D02*
X131304166Y-97445295D01*
X131304166Y-97445295D02*
X131304166Y-97588152D01*
X131304166Y-97588152D02*
X131256547Y-97683390D01*
X131256547Y-97683390D02*
X131208928Y-97731009D01*
X131208928Y-97731009D02*
X131113690Y-97778628D01*
X131113690Y-97778628D02*
X130732738Y-97778628D01*
X131637500Y-97254819D02*
X132256547Y-97254819D01*
X132256547Y-97254819D02*
X131923214Y-97635771D01*
X131923214Y-97635771D02*
X132066071Y-97635771D01*
X132066071Y-97635771D02*
X132161309Y-97683390D01*
X132161309Y-97683390D02*
X132208928Y-97731009D01*
X132208928Y-97731009D02*
X132256547Y-97826247D01*
X132256547Y-97826247D02*
X132256547Y-98064342D01*
X132256547Y-98064342D02*
X132208928Y-98159580D01*
X132208928Y-98159580D02*
X132161309Y-98207200D01*
X132161309Y-98207200D02*
X132066071Y-98254819D01*
X132066071Y-98254819D02*
X131780357Y-98254819D01*
X131780357Y-98254819D02*
X131685119Y-98207200D01*
X131685119Y-98207200D02*
X131637500Y-98159580D01*
X132637500Y-97350057D02*
X132685119Y-97302438D01*
X132685119Y-97302438D02*
X132780357Y-97254819D01*
X132780357Y-97254819D02*
X133018452Y-97254819D01*
X133018452Y-97254819D02*
X133113690Y-97302438D01*
X133113690Y-97302438D02*
X133161309Y-97350057D01*
X133161309Y-97350057D02*
X133208928Y-97445295D01*
X133208928Y-97445295D02*
X133208928Y-97540533D01*
X133208928Y-97540533D02*
X133161309Y-97683390D01*
X133161309Y-97683390D02*
X132589881Y-98254819D01*
X132589881Y-98254819D02*
X133208928Y-98254819D01*
X133637500Y-97873866D02*
X134399405Y-97873866D01*
X134875595Y-98254819D02*
X134875595Y-97254819D01*
X134875595Y-97254819D02*
X135113690Y-97254819D01*
X135113690Y-97254819D02*
X135256547Y-97302438D01*
X135256547Y-97302438D02*
X135351785Y-97397676D01*
X135351785Y-97397676D02*
X135399404Y-97492914D01*
X135399404Y-97492914D02*
X135447023Y-97683390D01*
X135447023Y-97683390D02*
X135447023Y-97826247D01*
X135447023Y-97826247D02*
X135399404Y-98016723D01*
X135399404Y-98016723D02*
X135351785Y-98111961D01*
X135351785Y-98111961D02*
X135256547Y-98207200D01*
X135256547Y-98207200D02*
X135113690Y-98254819D01*
X135113690Y-98254819D02*
X134875595Y-98254819D01*
X135875595Y-97731009D02*
X136208928Y-97731009D01*
X136351785Y-98254819D02*
X135875595Y-98254819D01*
X135875595Y-98254819D02*
X135875595Y-97254819D01*
X135875595Y-97254819D02*
X136351785Y-97254819D01*
X136637500Y-97254819D02*
X136970833Y-98254819D01*
X136970833Y-98254819D02*
X137304166Y-97254819D01*
X137637500Y-98254819D02*
X137637500Y-97254819D01*
X138208928Y-98254819D02*
X137780357Y-97683390D01*
X138208928Y-97254819D02*
X137637500Y-97826247D01*
X138637500Y-98254819D02*
X138637500Y-97254819D01*
X138970833Y-97254819D02*
X139542261Y-97254819D01*
X139256547Y-98254819D02*
X139256547Y-97254819D01*
X140447023Y-98159580D02*
X140399404Y-98207200D01*
X140399404Y-98207200D02*
X140256547Y-98254819D01*
X140256547Y-98254819D02*
X140161309Y-98254819D01*
X140161309Y-98254819D02*
X140018452Y-98207200D01*
X140018452Y-98207200D02*
X139923214Y-98111961D01*
X139923214Y-98111961D02*
X139875595Y-98016723D01*
X139875595Y-98016723D02*
X139827976Y-97826247D01*
X139827976Y-97826247D02*
X139827976Y-97683390D01*
X139827976Y-97683390D02*
X139875595Y-97492914D01*
X139875595Y-97492914D02*
X139923214Y-97397676D01*
X139923214Y-97397676D02*
X140018452Y-97302438D01*
X140018452Y-97302438D02*
X140161309Y-97254819D01*
X140161309Y-97254819D02*
X140256547Y-97254819D01*
X140256547Y-97254819D02*
X140399404Y-97302438D01*
X140399404Y-97302438D02*
X140447023Y-97350057D01*
X190595238Y-74957533D02*
X191204762Y-74957533D01*
X190900000Y-75262295D02*
X190900000Y-74652771D01*
D11*
%TO.C,PS1*%
X114700000Y-87950000D02*
X114700000Y-126050000D01*
X114700000Y-126050000D02*
X89300000Y-126050000D01*
X89300000Y-126050000D02*
X89300000Y-87950000D01*
X89300000Y-87950000D02*
X114700000Y-87950000D01*
D12*
X112200000Y-87000000D02*
G75*
G02*
X112000000Y-87000000I-100000J0D01*
G01*
X112000000Y-87000000D02*
G75*
G02*
X112200000Y-87000000I100000J0D01*
G01*
D13*
%TO.C,D3*%
X183580000Y-113080000D02*
X183580000Y-110600000D01*
X182230000Y-110600000D02*
X184930000Y-110600000D01*
X184930000Y-110600000D02*
X184930000Y-105400000D01*
X182230000Y-109920000D02*
X184930000Y-109920000D01*
X182230000Y-109820000D02*
X184930000Y-109820000D01*
X182230000Y-109720000D02*
X184930000Y-109720000D01*
X182230000Y-105400000D02*
X182230000Y-110600000D01*
X184930000Y-105400000D02*
X182230000Y-105400000D01*
X183580000Y-102920000D02*
X183580000Y-105400000D01*
D11*
%TO.C,J3*%
X195380000Y-126600000D02*
X195380000Y-116000000D01*
X195380000Y-116000000D02*
X210620000Y-116000000D01*
X210620000Y-116000000D02*
X210620000Y-126600000D01*
X210620000Y-126600000D02*
X195380000Y-126600000D01*
D12*
X198020000Y-115000000D02*
G75*
G02*
X197820000Y-115000000I-100000J0D01*
G01*
X197820000Y-115000000D02*
G75*
G02*
X198020000Y-115000000I100000J0D01*
G01*
D11*
%TO.C,R7*%
X154700000Y-93400000D02*
X156000000Y-93400000D01*
X156000000Y-93400000D02*
X157300000Y-93400000D01*
X157300000Y-93400000D02*
X157300000Y-86600000D01*
X157300000Y-86600000D02*
X156000000Y-86600000D01*
X156000000Y-86600000D02*
X154700000Y-86600000D01*
X154700000Y-86600000D02*
X154700000Y-93400000D01*
X156000000Y-94900000D02*
X156000000Y-93400000D01*
X156000000Y-85100000D02*
X156000000Y-86600000D01*
D13*
%TO.C,Q3*%
X168460000Y-72850000D02*
X168460000Y-77250000D01*
X168460000Y-74120000D02*
X178460000Y-74120000D01*
X168460000Y-77250000D02*
X178460000Y-77250000D01*
X171610000Y-72850000D02*
X171610000Y-74120000D01*
X175310000Y-72850000D02*
X175310000Y-74120000D01*
X178460000Y-72850000D02*
X168460000Y-72850000D01*
X178460000Y-77250000D02*
X178460000Y-72850000D01*
%TO.C,U2*%
X155835000Y-119455000D02*
X156835000Y-118455000D01*
X155835000Y-123535000D02*
X155835000Y-119455000D01*
X156835000Y-118455000D02*
X162185000Y-118455000D01*
X162185000Y-118455000D02*
X162185000Y-123535000D01*
X162185000Y-123535000D02*
X155835000Y-123535000D01*
D11*
%TO.C,R12*%
X175300000Y-86600000D02*
X174000000Y-86600000D01*
X174000000Y-86600000D02*
X172700000Y-86600000D01*
X172700000Y-86600000D02*
X172700000Y-93400000D01*
X172700000Y-93400000D02*
X174000000Y-93400000D01*
X174000000Y-93400000D02*
X175300000Y-93400000D01*
X175300000Y-93400000D02*
X175300000Y-86600000D01*
X174000000Y-85100000D02*
X174000000Y-86600000D01*
X174000000Y-94900000D02*
X174000000Y-93400000D01*
D13*
%TO.C,D1*%
X186770000Y-124780000D02*
X186770000Y-122220000D01*
X186770000Y-122220000D02*
G75*
G02*
X186770000Y-124780000I1499562J-1280000D01*
G01*
%TO.C,U3*%
X155835000Y-73455000D02*
X156835000Y-72455000D01*
X155835000Y-77535000D02*
X155835000Y-73455000D01*
X156835000Y-72455000D02*
X162185000Y-72455000D01*
X162185000Y-72455000D02*
X162185000Y-77535000D01*
X162185000Y-77535000D02*
X155835000Y-77535000D01*
D11*
%TO.C,J2*%
X210540000Y-71900000D02*
X210540000Y-82500000D01*
X210540000Y-82500000D02*
X195300000Y-82500000D01*
X195300000Y-82500000D02*
X195300000Y-71900000D01*
X195300000Y-71900000D02*
X210540000Y-71900000D01*
D12*
X208100000Y-83500000D02*
G75*
G02*
X207900000Y-83500000I-100000J0D01*
G01*
X207900000Y-83500000D02*
G75*
G02*
X208100000Y-83500000I100000J0D01*
G01*
D11*
%TO.C,R10*%
X175300000Y-104600000D02*
X174000000Y-104600000D01*
X174000000Y-104600000D02*
X172700000Y-104600000D01*
X172700000Y-104600000D02*
X172700000Y-111400000D01*
X172700000Y-111400000D02*
X174000000Y-111400000D01*
X174000000Y-111400000D02*
X175300000Y-111400000D01*
X175300000Y-111400000D02*
X175300000Y-104600000D01*
X174000000Y-103100000D02*
X174000000Y-104600000D01*
X174000000Y-112900000D02*
X174000000Y-111400000D01*
%TO.C,R11*%
X164300000Y-86600000D02*
X163000000Y-86600000D01*
X163000000Y-86600000D02*
X161700000Y-86600000D01*
X161700000Y-86600000D02*
X161700000Y-93400000D01*
X161700000Y-93400000D02*
X163000000Y-93400000D01*
X163000000Y-93400000D02*
X164300000Y-93400000D01*
X164300000Y-93400000D02*
X164300000Y-86600000D01*
X163000000Y-85100000D02*
X163000000Y-86600000D01*
X163000000Y-94900000D02*
X163000000Y-93400000D01*
%TO.C,K2*%
X190270000Y-87000000D02*
X210470000Y-87000000D01*
X210470000Y-87000000D02*
X210470000Y-97000000D01*
X210470000Y-97000000D02*
X190270000Y-97000000D01*
X190270000Y-97000000D02*
X190270000Y-87000000D01*
D12*
X191570000Y-97700000D02*
G75*
G02*
X191370000Y-97700000I-100000J0D01*
G01*
X191370000Y-97700000D02*
G75*
G02*
X191570000Y-97700000I100000J0D01*
G01*
D13*
%TO.C,D4*%
X183520000Y-95080000D02*
X183520000Y-92600000D01*
X182170000Y-92600000D02*
X184870000Y-92600000D01*
X184870000Y-92600000D02*
X184870000Y-87400000D01*
X182170000Y-91920000D02*
X184870000Y-91920000D01*
X182170000Y-91820000D02*
X184870000Y-91820000D01*
X182170000Y-91720000D02*
X184870000Y-91720000D01*
X182170000Y-87400000D02*
X182170000Y-92600000D01*
X184870000Y-87400000D02*
X182170000Y-87400000D01*
X183520000Y-84920000D02*
X183520000Y-87400000D01*
%TO.C,Q4*%
X169000000Y-118850000D02*
X169000000Y-123250000D01*
X169000000Y-120120000D02*
X179000000Y-120120000D01*
X169000000Y-123250000D02*
X179000000Y-123250000D01*
X172150000Y-118850000D02*
X172150000Y-120120000D01*
X175850000Y-118850000D02*
X175850000Y-120120000D01*
X179000000Y-118850000D02*
X169000000Y-118850000D01*
X179000000Y-123250000D02*
X179000000Y-118850000D01*
D11*
%TO.C,R9*%
X161700000Y-111400000D02*
X163000000Y-111400000D01*
X163000000Y-111400000D02*
X164300000Y-111400000D01*
X164300000Y-111400000D02*
X164300000Y-104600000D01*
X164300000Y-104600000D02*
X163000000Y-104600000D01*
X163000000Y-104600000D02*
X161700000Y-104600000D01*
X161700000Y-104600000D02*
X161700000Y-111400000D01*
X163000000Y-112900000D02*
X163000000Y-111400000D01*
X163000000Y-103100000D02*
X163000000Y-104600000D01*
%TO.C,R8*%
X157240000Y-104600000D02*
X155940000Y-104600000D01*
X155940000Y-104600000D02*
X154640000Y-104600000D01*
X154640000Y-104600000D02*
X154640000Y-111400000D01*
X154640000Y-111400000D02*
X155940000Y-111400000D01*
X155940000Y-111400000D02*
X157240000Y-111400000D01*
X157240000Y-111400000D02*
X157240000Y-104600000D01*
X155940000Y-103100000D02*
X155940000Y-104600000D01*
X155940000Y-112900000D02*
X155940000Y-111400000D01*
%TO.C,K1*%
X190480000Y-101190000D02*
X210680000Y-101190000D01*
X210680000Y-101190000D02*
X210680000Y-111190000D01*
X210680000Y-111190000D02*
X190480000Y-111190000D01*
X190480000Y-111190000D02*
X190480000Y-101190000D01*
D12*
X191780000Y-111890000D02*
G75*
G02*
X191580000Y-111890000I-100000J0D01*
G01*
X191580000Y-111890000D02*
G75*
G02*
X191780000Y-111890000I100000J0D01*
G01*
%TO.C,U1*%
X120440000Y-77480000D02*
G75*
G02*
X120240000Y-77480000I-100000J0D01*
G01*
X120240000Y-77480000D02*
G75*
G02*
X120440000Y-77480000I100000J0D01*
G01*
D11*
X120960000Y-76350000D02*
X120960000Y-124550000D01*
X148860000Y-124550000D02*
X148860000Y-76350000D01*
X148860000Y-76350000D02*
X143910000Y-76350000D01*
X143910000Y-76350000D02*
X125910000Y-76350000D01*
X125910000Y-76350000D02*
X120960000Y-76350000D01*
X125910000Y-76350000D02*
X125910000Y-70150000D01*
X125910000Y-70150000D02*
X143910000Y-70150000D01*
X143910000Y-70150000D02*
X143910000Y-76350000D01*
X120960000Y-124550000D02*
X130840000Y-124550000D01*
X130840000Y-124550000D02*
X130840000Y-125450000D01*
X130840000Y-125450000D02*
X138970000Y-125450000D01*
X138970000Y-125450000D02*
X138970000Y-124550000D01*
X138970000Y-124550000D02*
X148860000Y-124550000D01*
%TO.C,J1*%
X99480000Y-74750000D02*
X99480000Y-85350000D01*
X99480000Y-85350000D02*
X89320000Y-85350000D01*
X89320000Y-85350000D02*
X89320000Y-74750000D01*
X89320000Y-74750000D02*
X99480000Y-74750000D01*
D12*
X97040000Y-86350000D02*
G75*
G02*
X96840000Y-86350000I-100000J0D01*
G01*
X96840000Y-86350000D02*
G75*
G02*
X97040000Y-86350000I100000J0D01*
G01*
D13*
%TO.C,D2*%
X186500000Y-76280000D02*
X186500000Y-73720000D01*
X186500000Y-73720000D02*
G75*
G02*
X186500000Y-76280000I1499562J-1280000D01*
G01*
%TD*%
%TO.C,PS1*%
X111035000Y-89375000D02*
X111035000Y-91625000D01*
X113285000Y-91625000D01*
X113285000Y-89375000D01*
X111035000Y-89375000D01*
X113285000Y-123500000D02*
G75*
G02*
X111035000Y-123500000I-1125000J0D01*
G01*
X111035000Y-123500000D02*
G75*
G02*
X113285000Y-123500000I1125000J0D01*
G01*
X92965000Y-90500000D02*
G75*
G02*
X90715000Y-90500000I-1125000J0D01*
G01*
X90715000Y-90500000D02*
G75*
G02*
X92965000Y-90500000I1125000J0D01*
G01*
X103125000Y-123500000D02*
G75*
G02*
X100875000Y-123500000I-1125000J0D01*
G01*
X100875000Y-123500000D02*
G75*
G02*
X103125000Y-123500000I1125000J0D01*
G01*
%TD*%
%TO.C,D3*%
X182480000Y-111980000D02*
X182480000Y-114180000D01*
X184680000Y-114180000D01*
X184680000Y-111980000D01*
X182480000Y-111980000D01*
X183580000Y-104020000D02*
X183580000Y-104020000D01*
X183580000Y-101820000D02*
G75*
G02*
X183580000Y-104020000I0J-1100000D01*
G01*
X183580000Y-101820000D02*
X183580000Y-101820000D01*
X183580000Y-101820000D02*
G75*
G03*
X183580000Y-104020000I0J-1100000D01*
G01*
%TD*%
%TO.C,J3*%
X196720000Y-119800000D02*
X196720000Y-122200000D01*
X199120000Y-122200000D01*
X199120000Y-119800000D01*
X196720000Y-119800000D01*
X204200000Y-121000000D02*
G75*
G02*
X201800000Y-121000000I-1200000J0D01*
G01*
X201800000Y-121000000D02*
G75*
G02*
X204200000Y-121000000I1200000J0D01*
G01*
X209280000Y-121000000D02*
G75*
G02*
X206880000Y-121000000I-1200000J0D01*
G01*
X206880000Y-121000000D02*
G75*
G02*
X209280000Y-121000000I1200000J0D01*
G01*
%TD*%
%TO.C,R7*%
X156600000Y-95500000D02*
G75*
G02*
X155400000Y-95500000I-600000J0D01*
G01*
X155400000Y-95500000D02*
G75*
G02*
X156600000Y-95500000I600000J0D01*
G01*
X156600000Y-84500000D02*
G75*
G02*
X155400000Y-84500000I-600000J0D01*
G01*
X155400000Y-84500000D02*
G75*
G02*
X156600000Y-84500000I600000J0D01*
G01*
%TD*%
%TO.C,Q3*%
X169967500Y-75000000D02*
X169967500Y-77000000D01*
X171872500Y-77000000D01*
X171872500Y-75000000D01*
X169967500Y-75000000D01*
X172507500Y-75952500D02*
X172507500Y-76047500D01*
X174412500Y-76047500D02*
G75*
G02*
X172507500Y-76047500I-952500J0D01*
G01*
X174412500Y-76047500D02*
X174412500Y-75952500D01*
X174412500Y-75952500D02*
G75*
G03*
X172507500Y-75952500I-952500J0D01*
G01*
X175047500Y-75952500D02*
X175047500Y-76047500D01*
X176952500Y-76047500D02*
G75*
G02*
X175047500Y-76047500I-952500J0D01*
G01*
X176952500Y-76047500D02*
X176952500Y-75952500D01*
X176952500Y-75952500D02*
G75*
G03*
X175047500Y-75952500I-952500J0D01*
G01*
%TD*%
%TO.C,U2*%
X154400000Y-118925000D02*
X154400000Y-120525000D01*
X156000000Y-120525000D01*
X156000000Y-118925000D01*
X154400000Y-118925000D01*
X154400000Y-122265000D02*
X154400000Y-122265000D01*
X156000000Y-122265000D02*
G75*
G02*
X154400000Y-122265000I-800000J0D01*
G01*
X156000000Y-122265000D02*
X156000000Y-122265000D01*
X156000000Y-122265000D02*
G75*
G03*
X154400000Y-122265000I-800000J0D01*
G01*
X162020000Y-122265000D02*
X162020000Y-122265000D01*
X163620000Y-122265000D02*
G75*
G02*
X162020000Y-122265000I-800000J0D01*
G01*
X163620000Y-122265000D02*
X163620000Y-122265000D01*
X163620000Y-122265000D02*
G75*
G03*
X162020000Y-122265000I-800000J0D01*
G01*
X162020000Y-119725000D02*
X162020000Y-119725000D01*
X163620000Y-119725000D02*
G75*
G02*
X162020000Y-119725000I-800000J0D01*
G01*
X163620000Y-119725000D02*
X163620000Y-119725000D01*
X163620000Y-119725000D02*
G75*
G03*
X162020000Y-119725000I-800000J0D01*
G01*
%TD*%
%TO.C,R12*%
X174600000Y-84500000D02*
G75*
G02*
X173400000Y-84500000I-600000J0D01*
G01*
X173400000Y-84500000D02*
G75*
G02*
X174600000Y-84500000I600000J0D01*
G01*
X174600000Y-95500000D02*
G75*
G02*
X173400000Y-95500000I-600000J0D01*
G01*
X173400000Y-95500000D02*
G75*
G02*
X174600000Y-95500000I600000J0D01*
G01*
%TD*%
%TO.C,D1*%
X190294000Y-123500000D02*
G75*
G02*
X188786000Y-123500000I-754000J0D01*
G01*
X188786000Y-123500000D02*
G75*
G02*
X190294000Y-123500000I754000J0D01*
G01*
X187754000Y-123500000D02*
G75*
G02*
X186246000Y-123500000I-754000J0D01*
G01*
X186246000Y-123500000D02*
G75*
G02*
X187754000Y-123500000I754000J0D01*
G01*
%TD*%
%TO.C,U3*%
X154400000Y-72925000D02*
X154400000Y-74525000D01*
X156000000Y-74525000D01*
X156000000Y-72925000D01*
X154400000Y-72925000D01*
X154400000Y-76265000D02*
X154400000Y-76265000D01*
X156000000Y-76265000D02*
G75*
G02*
X154400000Y-76265000I-800000J0D01*
G01*
X156000000Y-76265000D02*
X156000000Y-76265000D01*
X156000000Y-76265000D02*
G75*
G03*
X154400000Y-76265000I-800000J0D01*
G01*
X162020000Y-76265000D02*
X162020000Y-76265000D01*
X163620000Y-76265000D02*
G75*
G02*
X162020000Y-76265000I-800000J0D01*
G01*
X163620000Y-76265000D02*
X163620000Y-76265000D01*
X163620000Y-76265000D02*
G75*
G03*
X162020000Y-76265000I-800000J0D01*
G01*
X162020000Y-73725000D02*
X162020000Y-73725000D01*
X163620000Y-73725000D02*
G75*
G02*
X162020000Y-73725000I-800000J0D01*
G01*
X163620000Y-73725000D02*
X163620000Y-73725000D01*
X163620000Y-73725000D02*
G75*
G03*
X162020000Y-73725000I-800000J0D01*
G01*
%TD*%
%TO.C,J2*%
X206800000Y-76300000D02*
X206800000Y-78700000D01*
X209200000Y-78700000D01*
X209200000Y-76300000D01*
X206800000Y-76300000D01*
X204120000Y-77500000D02*
G75*
G02*
X201720000Y-77500000I-1200000J0D01*
G01*
X201720000Y-77500000D02*
G75*
G02*
X204120000Y-77500000I1200000J0D01*
G01*
X199040000Y-77500000D02*
G75*
G02*
X196640000Y-77500000I-1200000J0D01*
G01*
X196640000Y-77500000D02*
G75*
G02*
X199040000Y-77500000I1200000J0D01*
G01*
%TD*%
%TO.C,R10*%
X174600000Y-102500000D02*
G75*
G02*
X173400000Y-102500000I-600000J0D01*
G01*
X173400000Y-102500000D02*
G75*
G02*
X174600000Y-102500000I600000J0D01*
G01*
X174600000Y-113500000D02*
G75*
G02*
X173400000Y-113500000I-600000J0D01*
G01*
X173400000Y-113500000D02*
G75*
G02*
X174600000Y-113500000I600000J0D01*
G01*
%TD*%
%TO.C,R11*%
X163600000Y-84500000D02*
G75*
G02*
X162400000Y-84500000I-600000J0D01*
G01*
X162400000Y-84500000D02*
G75*
G02*
X163600000Y-84500000I600000J0D01*
G01*
X163600000Y-95500000D02*
G75*
G02*
X162400000Y-95500000I-600000J0D01*
G01*
X162400000Y-95500000D02*
G75*
G02*
X163600000Y-95500000I600000J0D01*
G01*
%TD*%
%TO.C,K2*%
X190765000Y-94985000D02*
X190765000Y-96635000D01*
X192415000Y-96635000D01*
X192415000Y-94985000D01*
X190765000Y-94985000D01*
X200035000Y-95810000D02*
G75*
G02*
X198385000Y-95810000I-825000J0D01*
G01*
X198385000Y-95810000D02*
G75*
G02*
X200035000Y-95810000I825000J0D01*
G01*
X205115000Y-95810000D02*
G75*
G02*
X203465000Y-95810000I-825000J0D01*
G01*
X203465000Y-95810000D02*
G75*
G02*
X205115000Y-95810000I825000J0D01*
G01*
X210195000Y-95810000D02*
G75*
G02*
X208545000Y-95810000I-825000J0D01*
G01*
X208545000Y-95810000D02*
G75*
G02*
X210195000Y-95810000I825000J0D01*
G01*
X210195000Y-88190000D02*
G75*
G02*
X208545000Y-88190000I-825000J0D01*
G01*
X208545000Y-88190000D02*
G75*
G02*
X210195000Y-88190000I825000J0D01*
G01*
X205115000Y-88190000D02*
G75*
G02*
X203465000Y-88190000I-825000J0D01*
G01*
X203465000Y-88190000D02*
G75*
G02*
X205115000Y-88190000I825000J0D01*
G01*
X200035000Y-88190000D02*
G75*
G02*
X198385000Y-88190000I-825000J0D01*
G01*
X198385000Y-88190000D02*
G75*
G02*
X200035000Y-88190000I825000J0D01*
G01*
X192415000Y-88190000D02*
G75*
G02*
X190765000Y-88190000I-825000J0D01*
G01*
X190765000Y-88190000D02*
G75*
G02*
X192415000Y-88190000I825000J0D01*
G01*
%TD*%
%TO.C,D4*%
X182420000Y-93980000D02*
X182420000Y-96180000D01*
X184620000Y-96180000D01*
X184620000Y-93980000D01*
X182420000Y-93980000D01*
X183520000Y-86020000D02*
X183520000Y-86020000D01*
X183520000Y-83820000D02*
G75*
G02*
X183520000Y-86020000I0J-1100000D01*
G01*
X183520000Y-83820000D02*
X183520000Y-83820000D01*
X183520000Y-83820000D02*
G75*
G03*
X183520000Y-86020000I0J-1100000D01*
G01*
%TD*%
%TO.C,Q4*%
X170507500Y-121000000D02*
X170507500Y-123000000D01*
X172412500Y-123000000D01*
X172412500Y-121000000D01*
X170507500Y-121000000D01*
X173047500Y-121952500D02*
X173047500Y-122047500D01*
X174952500Y-122047500D02*
G75*
G02*
X173047500Y-122047500I-952500J0D01*
G01*
X174952500Y-122047500D02*
X174952500Y-121952500D01*
X174952500Y-121952500D02*
G75*
G03*
X173047500Y-121952500I-952500J0D01*
G01*
X175587500Y-121952500D02*
X175587500Y-122047500D01*
X177492500Y-122047500D02*
G75*
G02*
X175587500Y-122047500I-952500J0D01*
G01*
X177492500Y-122047500D02*
X177492500Y-121952500D01*
X177492500Y-121952500D02*
G75*
G03*
X175587500Y-121952500I-952500J0D01*
G01*
%TD*%
%TO.C,R9*%
X163600000Y-113500000D02*
G75*
G02*
X162400000Y-113500000I-600000J0D01*
G01*
X162400000Y-113500000D02*
G75*
G02*
X163600000Y-113500000I600000J0D01*
G01*
X163600000Y-102500000D02*
G75*
G02*
X162400000Y-102500000I-600000J0D01*
G01*
X162400000Y-102500000D02*
G75*
G02*
X163600000Y-102500000I600000J0D01*
G01*
%TD*%
%TO.C,R8*%
X156540000Y-102500000D02*
G75*
G02*
X155340000Y-102500000I-600000J0D01*
G01*
X155340000Y-102500000D02*
G75*
G02*
X156540000Y-102500000I600000J0D01*
G01*
X156540000Y-113500000D02*
G75*
G02*
X155340000Y-113500000I-600000J0D01*
G01*
X155340000Y-113500000D02*
G75*
G02*
X156540000Y-113500000I600000J0D01*
G01*
%TD*%
%TO.C,K1*%
X190975000Y-109175000D02*
X190975000Y-110825000D01*
X192625000Y-110825000D01*
X192625000Y-109175000D01*
X190975000Y-109175000D01*
X200245000Y-110000000D02*
G75*
G02*
X198595000Y-110000000I-825000J0D01*
G01*
X198595000Y-110000000D02*
G75*
G02*
X200245000Y-110000000I825000J0D01*
G01*
X205325000Y-110000000D02*
G75*
G02*
X203675000Y-110000000I-825000J0D01*
G01*
X203675000Y-110000000D02*
G75*
G02*
X205325000Y-110000000I825000J0D01*
G01*
X210405000Y-110000000D02*
G75*
G02*
X208755000Y-110000000I-825000J0D01*
G01*
X208755000Y-110000000D02*
G75*
G02*
X210405000Y-110000000I825000J0D01*
G01*
X210405000Y-102380000D02*
G75*
G02*
X208755000Y-102380000I-825000J0D01*
G01*
X208755000Y-102380000D02*
G75*
G02*
X210405000Y-102380000I825000J0D01*
G01*
X205325000Y-102380000D02*
G75*
G02*
X203675000Y-102380000I-825000J0D01*
G01*
X203675000Y-102380000D02*
G75*
G02*
X205325000Y-102380000I825000J0D01*
G01*
X200245000Y-102380000D02*
G75*
G02*
X198595000Y-102380000I-825000J0D01*
G01*
X198595000Y-102380000D02*
G75*
G02*
X200245000Y-102380000I825000J0D01*
G01*
X192625000Y-102380000D02*
G75*
G02*
X190975000Y-102380000I-825000J0D01*
G01*
X190975000Y-102380000D02*
G75*
G02*
X192625000Y-102380000I825000J0D01*
G01*
%TD*%
%TO.C,U1*%
X121445000Y-76835000D02*
X121445000Y-78365000D01*
X122975000Y-78365000D01*
X122975000Y-76835000D01*
X121445000Y-76835000D01*
X122975000Y-80140000D02*
G75*
G02*
X121445000Y-80140000I-765000J0D01*
G01*
X121445000Y-80140000D02*
G75*
G02*
X122975000Y-80140000I765000J0D01*
G01*
X122975000Y-82680000D02*
G75*
G02*
X121445000Y-82680000I-765000J0D01*
G01*
X121445000Y-82680000D02*
G75*
G02*
X122975000Y-82680000I765000J0D01*
G01*
X122975000Y-85220000D02*
G75*
G02*
X121445000Y-85220000I-765000J0D01*
G01*
X121445000Y-85220000D02*
G75*
G02*
X122975000Y-85220000I765000J0D01*
G01*
X122975000Y-87760000D02*
G75*
G02*
X121445000Y-87760000I-765000J0D01*
G01*
X121445000Y-87760000D02*
G75*
G02*
X122975000Y-87760000I765000J0D01*
G01*
X122975000Y-90300000D02*
G75*
G02*
X121445000Y-90300000I-765000J0D01*
G01*
X121445000Y-90300000D02*
G75*
G02*
X122975000Y-90300000I765000J0D01*
G01*
X122975000Y-92840000D02*
G75*
G02*
X121445000Y-92840000I-765000J0D01*
G01*
X121445000Y-92840000D02*
G75*
G02*
X122975000Y-92840000I765000J0D01*
G01*
X122975000Y-95380000D02*
G75*
G02*
X121445000Y-95380000I-765000J0D01*
G01*
X121445000Y-95380000D02*
G75*
G02*
X122975000Y-95380000I765000J0D01*
G01*
X122975000Y-97920000D02*
G75*
G02*
X121445000Y-97920000I-765000J0D01*
G01*
X121445000Y-97920000D02*
G75*
G02*
X122975000Y-97920000I765000J0D01*
G01*
X122975000Y-100460000D02*
G75*
G02*
X121445000Y-100460000I-765000J0D01*
G01*
X121445000Y-100460000D02*
G75*
G02*
X122975000Y-100460000I765000J0D01*
G01*
X122975000Y-103000000D02*
G75*
G02*
X121445000Y-103000000I-765000J0D01*
G01*
X121445000Y-103000000D02*
G75*
G02*
X122975000Y-103000000I765000J0D01*
G01*
X122975000Y-105540000D02*
G75*
G02*
X121445000Y-105540000I-765000J0D01*
G01*
X121445000Y-105540000D02*
G75*
G02*
X122975000Y-105540000I765000J0D01*
G01*
X122975000Y-108080000D02*
G75*
G02*
X121445000Y-108080000I-765000J0D01*
G01*
X121445000Y-108080000D02*
G75*
G02*
X122975000Y-108080000I765000J0D01*
G01*
X122975000Y-110620000D02*
G75*
G02*
X121445000Y-110620000I-765000J0D01*
G01*
X121445000Y-110620000D02*
G75*
G02*
X122975000Y-110620000I765000J0D01*
G01*
X122975000Y-113160000D02*
G75*
G02*
X121445000Y-113160000I-765000J0D01*
G01*
X121445000Y-113160000D02*
G75*
G02*
X122975000Y-113160000I765000J0D01*
G01*
X122975000Y-115700000D02*
G75*
G02*
X121445000Y-115700000I-765000J0D01*
G01*
X121445000Y-115700000D02*
G75*
G02*
X122975000Y-115700000I765000J0D01*
G01*
X122975000Y-118240000D02*
G75*
G02*
X121445000Y-118240000I-765000J0D01*
G01*
X121445000Y-118240000D02*
G75*
G02*
X122975000Y-118240000I765000J0D01*
G01*
X122975000Y-120780000D02*
G75*
G02*
X121445000Y-120780000I-765000J0D01*
G01*
X121445000Y-120780000D02*
G75*
G02*
X122975000Y-120780000I765000J0D01*
G01*
X122975000Y-123320000D02*
G75*
G02*
X121445000Y-123320000I-765000J0D01*
G01*
X121445000Y-123320000D02*
G75*
G02*
X122975000Y-123320000I765000J0D01*
G01*
X148375000Y-123320000D02*
G75*
G02*
X146845000Y-123320000I-765000J0D01*
G01*
X146845000Y-123320000D02*
G75*
G02*
X148375000Y-123320000I765000J0D01*
G01*
X148375000Y-120780000D02*
G75*
G02*
X146845000Y-120780000I-765000J0D01*
G01*
X146845000Y-120780000D02*
G75*
G02*
X148375000Y-120780000I765000J0D01*
G01*
X148375000Y-118240000D02*
G75*
G02*
X146845000Y-118240000I-765000J0D01*
G01*
X146845000Y-118240000D02*
G75*
G02*
X148375000Y-118240000I765000J0D01*
G01*
X148375000Y-115700000D02*
G75*
G02*
X146845000Y-115700000I-765000J0D01*
G01*
X146845000Y-115700000D02*
G75*
G02*
X148375000Y-115700000I765000J0D01*
G01*
X148375000Y-113160000D02*
G75*
G02*
X146845000Y-113160000I-765000J0D01*
G01*
X146845000Y-113160000D02*
G75*
G02*
X148375000Y-113160000I765000J0D01*
G01*
X148375000Y-110620000D02*
G75*
G02*
X146845000Y-110620000I-765000J0D01*
G01*
X146845000Y-110620000D02*
G75*
G02*
X148375000Y-110620000I765000J0D01*
G01*
X148375000Y-108080000D02*
G75*
G02*
X146845000Y-108080000I-765000J0D01*
G01*
X146845000Y-108080000D02*
G75*
G02*
X148375000Y-108080000I765000J0D01*
G01*
X148375000Y-105540000D02*
G75*
G02*
X146845000Y-105540000I-765000J0D01*
G01*
X146845000Y-105540000D02*
G75*
G02*
X148375000Y-105540000I765000J0D01*
G01*
X148375000Y-103000000D02*
G75*
G02*
X146845000Y-103000000I-765000J0D01*
G01*
X146845000Y-103000000D02*
G75*
G02*
X148375000Y-103000000I765000J0D01*
G01*
X148375000Y-100460000D02*
G75*
G02*
X146845000Y-100460000I-765000J0D01*
G01*
X146845000Y-100460000D02*
G75*
G02*
X148375000Y-100460000I765000J0D01*
G01*
X148375000Y-97920000D02*
G75*
G02*
X146845000Y-97920000I-765000J0D01*
G01*
X146845000Y-97920000D02*
G75*
G02*
X148375000Y-97920000I765000J0D01*
G01*
X148375000Y-95380000D02*
G75*
G02*
X146845000Y-95380000I-765000J0D01*
G01*
X146845000Y-95380000D02*
G75*
G02*
X148375000Y-95380000I765000J0D01*
G01*
X148375000Y-92840000D02*
G75*
G02*
X146845000Y-92840000I-765000J0D01*
G01*
X146845000Y-92840000D02*
G75*
G02*
X148375000Y-92840000I765000J0D01*
G01*
X148375000Y-90300000D02*
G75*
G02*
X146845000Y-90300000I-765000J0D01*
G01*
X146845000Y-90300000D02*
G75*
G02*
X148375000Y-90300000I765000J0D01*
G01*
X148375000Y-87760000D02*
G75*
G02*
X146845000Y-87760000I-765000J0D01*
G01*
X146845000Y-87760000D02*
G75*
G02*
X148375000Y-87760000I765000J0D01*
G01*
X148375000Y-85220000D02*
G75*
G02*
X146845000Y-85220000I-765000J0D01*
G01*
X146845000Y-85220000D02*
G75*
G02*
X148375000Y-85220000I765000J0D01*
G01*
X148375000Y-82680000D02*
G75*
G02*
X146845000Y-82680000I-765000J0D01*
G01*
X146845000Y-82680000D02*
G75*
G02*
X148375000Y-82680000I765000J0D01*
G01*
X148375000Y-80140000D02*
G75*
G02*
X146845000Y-80140000I-765000J0D01*
G01*
X146845000Y-80140000D02*
G75*
G02*
X148375000Y-80140000I765000J0D01*
G01*
X148375000Y-77600000D02*
G75*
G02*
X146845000Y-77600000I-765000J0D01*
G01*
X146845000Y-77600000D02*
G75*
G02*
X148375000Y-77600000I765000J0D01*
G01*
%TD*%
%TO.C,J1*%
X95740000Y-79150000D02*
X95740000Y-81550000D01*
X98140000Y-81550000D01*
X98140000Y-79150000D01*
X95740000Y-79150000D01*
X93060000Y-80350000D02*
G75*
G02*
X90660000Y-80350000I-1200000J0D01*
G01*
X90660000Y-80350000D02*
G75*
G02*
X93060000Y-80350000I1200000J0D01*
G01*
%TD*%
%TO.C,D2*%
X190024000Y-75000000D02*
G75*
G02*
X188516000Y-75000000I-754000J0D01*
G01*
X188516000Y-75000000D02*
G75*
G02*
X190024000Y-75000000I754000J0D01*
G01*
X187484000Y-75000000D02*
G75*
G02*
X185976000Y-75000000I-754000J0D01*
G01*
X185976000Y-75000000D02*
G75*
G02*
X187484000Y-75000000I754000J0D01*
G01*
%TD*%
D14*
X88000000Y-134000000D02*
G75*
G02*
X86000000Y-134000000I-1000000J0D01*
G01*
X86000000Y-134000000D02*
G75*
G02*
X88000000Y-134000000I1000000J0D01*
G01*
X88000000Y-68000000D02*
G75*
G02*
X86000000Y-68000000I-1000000J0D01*
G01*
X86000000Y-68000000D02*
G75*
G02*
X88000000Y-68000000I1000000J0D01*
G01*
X214000000Y-68000000D02*
G75*
G02*
X212000000Y-68000000I-1000000J0D01*
G01*
X212000000Y-68000000D02*
G75*
G02*
X214000000Y-68000000I1000000J0D01*
G01*
X214000000Y-134000000D02*
G75*
G02*
X212000000Y-134000000I-1000000J0D01*
G01*
X212000000Y-134000000D02*
G75*
G02*
X214000000Y-134000000I1000000J0D01*
G01*
X85000000Y-66000000D02*
X215000000Y-66000000D01*
X215000000Y-136000000D01*
X85000000Y-136000000D01*
X85000000Y-66000000D01*
M02*
