%TF.GenerationSoftware,KiCad,Pcbnew,8.0.6-8.0.6-0~ubuntu22.04.1*%
%TF.CreationDate,2024-11-04T12:04:03+07:00*%
%TF.ProjectId,projectGATE,70726f6a-6563-4744-9741-54452e6b6963,rev?*%
%TF.SameCoordinates,Original*%
%TF.FileFunction,Legend,Top*%
%TF.FilePolarity,Positive*%
%FSLAX46Y46*%
G04 Gerber Fmt 4.6, Leading zero omitted, Abs format (unit mm)*
G04 Created by KiCad (PCBNEW 8.0.6-8.0.6-0~ubuntu22.04.1) date 2024-11-04 12:04:03*
%MOMM*%
%LPD*%
G01*
G04 APERTURE LIST*
%ADD10C,0.150000*%
%ADD11C,0.120000*%
%ADD12C,0.127000*%
%ADD13C,0.200000*%
%ADD14C,0.220000*%
G04 APERTURE END LIST*
D10*
X180862319Y-124341904D02*
X179862319Y-124341904D01*
X180862319Y-123770476D02*
X180290890Y-124199047D01*
X179862319Y-123770476D02*
X180433747Y-124341904D01*
X94595833Y-94966366D02*
X94595833Y-95966366D01*
X94595833Y-95966366D02*
X94529166Y-96166366D01*
X94529166Y-96166366D02*
X94395833Y-96299700D01*
X94395833Y-96299700D02*
X94195833Y-96366366D01*
X94195833Y-96366366D02*
X94062500Y-96366366D01*
X95995833Y-96366366D02*
X95195833Y-96366366D01*
X95595833Y-96366366D02*
X95595833Y-94966366D01*
X95595833Y-94966366D02*
X95462500Y-95166366D01*
X95462500Y-95166366D02*
X95329167Y-95299700D01*
X95329167Y-95299700D02*
X95195833Y-95366366D01*
X193769405Y-103454819D02*
X193769405Y-102454819D01*
X194340833Y-103454819D02*
X193912262Y-102883390D01*
X194340833Y-102454819D02*
X193769405Y-103026247D01*
X195293214Y-103454819D02*
X194721786Y-103454819D01*
X195007500Y-103454819D02*
X195007500Y-102454819D01*
X195007500Y-102454819D02*
X194912262Y-102597676D01*
X194912262Y-102597676D02*
X194817024Y-102692914D01*
X194817024Y-102692914D02*
X194721786Y-102740533D01*
X189832738Y-85957533D02*
X190442262Y-85957533D01*
X190137500Y-86262295D02*
X190137500Y-85652771D01*
X153935595Y-82124819D02*
X153935595Y-82934342D01*
X153935595Y-82934342D02*
X153983214Y-83029580D01*
X153983214Y-83029580D02*
X154030833Y-83077200D01*
X154030833Y-83077200D02*
X154126071Y-83124819D01*
X154126071Y-83124819D02*
X154316547Y-83124819D01*
X154316547Y-83124819D02*
X154411785Y-83077200D01*
X154411785Y-83077200D02*
X154459404Y-83029580D01*
X154459404Y-83029580D02*
X154507023Y-82934342D01*
X154507023Y-82934342D02*
X154507023Y-82124819D01*
X154935595Y-82220057D02*
X154983214Y-82172438D01*
X154983214Y-82172438D02*
X155078452Y-82124819D01*
X155078452Y-82124819D02*
X155316547Y-82124819D01*
X155316547Y-82124819D02*
X155411785Y-82172438D01*
X155411785Y-82172438D02*
X155459404Y-82220057D01*
X155459404Y-82220057D02*
X155507023Y-82315295D01*
X155507023Y-82315295D02*
X155507023Y-82410533D01*
X155507023Y-82410533D02*
X155459404Y-82553390D01*
X155459404Y-82553390D02*
X154887976Y-83124819D01*
X154887976Y-83124819D02*
X155507023Y-83124819D01*
X129938095Y-111104819D02*
X129938095Y-111914342D01*
X129938095Y-111914342D02*
X129985714Y-112009580D01*
X129985714Y-112009580D02*
X130033333Y-112057200D01*
X130033333Y-112057200D02*
X130128571Y-112104819D01*
X130128571Y-112104819D02*
X130319047Y-112104819D01*
X130319047Y-112104819D02*
X130414285Y-112057200D01*
X130414285Y-112057200D02*
X130461904Y-112009580D01*
X130461904Y-112009580D02*
X130509523Y-111914342D01*
X130509523Y-111914342D02*
X130509523Y-111104819D01*
X131509523Y-112104819D02*
X130938095Y-112104819D01*
X131223809Y-112104819D02*
X131223809Y-111104819D01*
X131223809Y-111104819D02*
X131128571Y-111247676D01*
X131128571Y-111247676D02*
X131033333Y-111342914D01*
X131033333Y-111342914D02*
X130938095Y-111390533D01*
X180862319Y-107421904D02*
X179862319Y-107421904D01*
X180862319Y-106850476D02*
X180290890Y-107279047D01*
X179862319Y-106850476D02*
X180433747Y-107421904D01*
X190832738Y-134957533D02*
X191442262Y-134957533D01*
X191137500Y-135262295D02*
X191137500Y-134652771D01*
X201533333Y-134239866D02*
X201533333Y-135239866D01*
X201533333Y-135239866D02*
X201466666Y-135439866D01*
X201466666Y-135439866D02*
X201333333Y-135573200D01*
X201333333Y-135573200D02*
X201133333Y-135639866D01*
X201133333Y-135639866D02*
X201000000Y-135639866D01*
X202066667Y-134239866D02*
X202933333Y-134239866D01*
X202933333Y-134239866D02*
X202466667Y-134773200D01*
X202466667Y-134773200D02*
X202666667Y-134773200D01*
X202666667Y-134773200D02*
X202800000Y-134839866D01*
X202800000Y-134839866D02*
X202866667Y-134906533D01*
X202866667Y-134906533D02*
X202933333Y-135039866D01*
X202933333Y-135039866D02*
X202933333Y-135373200D01*
X202933333Y-135373200D02*
X202866667Y-135506533D01*
X202866667Y-135506533D02*
X202800000Y-135573200D01*
X202800000Y-135573200D02*
X202666667Y-135639866D01*
X202666667Y-135639866D02*
X202266667Y-135639866D01*
X202266667Y-135639866D02*
X202133333Y-135573200D01*
X202133333Y-135573200D02*
X202066667Y-135506533D01*
X192769405Y-118454819D02*
X192769405Y-117454819D01*
X193340833Y-118454819D02*
X192912262Y-117883390D01*
X193340833Y-117454819D02*
X192769405Y-118026247D01*
X193721786Y-117550057D02*
X193769405Y-117502438D01*
X193769405Y-117502438D02*
X193864643Y-117454819D01*
X193864643Y-117454819D02*
X194102738Y-117454819D01*
X194102738Y-117454819D02*
X194197976Y-117502438D01*
X194197976Y-117502438D02*
X194245595Y-117550057D01*
X194245595Y-117550057D02*
X194293214Y-117645295D01*
X194293214Y-117645295D02*
X194293214Y-117740533D01*
X194293214Y-117740533D02*
X194245595Y-117883390D01*
X194245595Y-117883390D02*
X193674167Y-118454819D01*
X193674167Y-118454819D02*
X194293214Y-118454819D01*
X96454819Y-118214285D02*
X95454819Y-118214285D01*
X95454819Y-118214285D02*
X95454819Y-117833333D01*
X95454819Y-117833333D02*
X95502438Y-117738095D01*
X95502438Y-117738095D02*
X95550057Y-117690476D01*
X95550057Y-117690476D02*
X95645295Y-117642857D01*
X95645295Y-117642857D02*
X95788152Y-117642857D01*
X95788152Y-117642857D02*
X95883390Y-117690476D01*
X95883390Y-117690476D02*
X95931009Y-117738095D01*
X95931009Y-117738095D02*
X95978628Y-117833333D01*
X95978628Y-117833333D02*
X95978628Y-118214285D01*
X96407200Y-117261904D02*
X96454819Y-117119047D01*
X96454819Y-117119047D02*
X96454819Y-116880952D01*
X96454819Y-116880952D02*
X96407200Y-116785714D01*
X96407200Y-116785714D02*
X96359580Y-116738095D01*
X96359580Y-116738095D02*
X96264342Y-116690476D01*
X96264342Y-116690476D02*
X96169104Y-116690476D01*
X96169104Y-116690476D02*
X96073866Y-116738095D01*
X96073866Y-116738095D02*
X96026247Y-116785714D01*
X96026247Y-116785714D02*
X95978628Y-116880952D01*
X95978628Y-116880952D02*
X95931009Y-117071428D01*
X95931009Y-117071428D02*
X95883390Y-117166666D01*
X95883390Y-117166666D02*
X95835771Y-117214285D01*
X95835771Y-117214285D02*
X95740533Y-117261904D01*
X95740533Y-117261904D02*
X95645295Y-117261904D01*
X95645295Y-117261904D02*
X95550057Y-117214285D01*
X95550057Y-117214285D02*
X95502438Y-117166666D01*
X95502438Y-117166666D02*
X95454819Y-117071428D01*
X95454819Y-117071428D02*
X95454819Y-116833333D01*
X95454819Y-116833333D02*
X95502438Y-116690476D01*
X96454819Y-115738095D02*
X96454819Y-116309523D01*
X96454819Y-116023809D02*
X95454819Y-116023809D01*
X95454819Y-116023809D02*
X95597676Y-116119047D01*
X95597676Y-116119047D02*
X95692914Y-116214285D01*
X95692914Y-116214285D02*
X95740533Y-116309523D01*
X201373333Y-91239866D02*
X201373333Y-92239866D01*
X201373333Y-92239866D02*
X201306666Y-92439866D01*
X201306666Y-92439866D02*
X201173333Y-92573200D01*
X201173333Y-92573200D02*
X200973333Y-92639866D01*
X200973333Y-92639866D02*
X200840000Y-92639866D01*
X201973333Y-91373200D02*
X202040000Y-91306533D01*
X202040000Y-91306533D02*
X202173333Y-91239866D01*
X202173333Y-91239866D02*
X202506667Y-91239866D01*
X202506667Y-91239866D02*
X202640000Y-91306533D01*
X202640000Y-91306533D02*
X202706667Y-91373200D01*
X202706667Y-91373200D02*
X202773333Y-91506533D01*
X202773333Y-91506533D02*
X202773333Y-91639866D01*
X202773333Y-91639866D02*
X202706667Y-91839866D01*
X202706667Y-91839866D02*
X201906667Y-92639866D01*
X201906667Y-92639866D02*
X202773333Y-92639866D01*
D11*
%TO.C,D4*%
X181037500Y-116280000D02*
X181037500Y-121720000D01*
X181037500Y-120700000D02*
X183977500Y-120700000D01*
X181037500Y-120820000D02*
X183977500Y-120820000D01*
X181037500Y-120940000D02*
X183977500Y-120940000D01*
X181037500Y-121720000D02*
X183977500Y-121720000D01*
X182507500Y-115260000D02*
X182507500Y-116280000D01*
X182507500Y-122740000D02*
X182507500Y-121720000D01*
X183977500Y-116280000D02*
X181037500Y-116280000D01*
X183977500Y-121720000D02*
X183977500Y-116280000D01*
D12*
%TO.C,J1*%
X88347500Y-83237500D02*
X98507500Y-83237500D01*
X88347500Y-93837500D02*
X88347500Y-83237500D01*
X98507500Y-83237500D02*
X98507500Y-93837500D01*
X98507500Y-93837500D02*
X88347500Y-93837500D01*
D13*
X96067500Y-94837500D02*
G75*
G02*
X95867500Y-94837500I-100000J0D01*
G01*
X95867500Y-94837500D02*
G75*
G02*
X96067500Y-94837500I100000J0D01*
G01*
D12*
%TO.C,R8*%
X150207500Y-98600000D02*
X150207500Y-105400000D01*
X150207500Y-105400000D02*
X151507500Y-105400000D01*
X151507500Y-97420000D02*
X151507500Y-98600000D01*
X151507500Y-98600000D02*
X150207500Y-98600000D01*
X151507500Y-105400000D02*
X152807500Y-105400000D01*
X151507500Y-106580000D02*
X151507500Y-105400000D01*
X152807500Y-98600000D02*
X151507500Y-98600000D01*
X152807500Y-105400000D02*
X152807500Y-98600000D01*
%TO.C,K1*%
X189487500Y-97810000D02*
X209727500Y-97810000D01*
X189487500Y-107810000D02*
X189487500Y-97810000D01*
X209727500Y-97810000D02*
X209727500Y-107810000D01*
X209727500Y-107810000D02*
X189487500Y-107810000D01*
D13*
X190787500Y-108510000D02*
G75*
G02*
X190587500Y-108510000I-100000J0D01*
G01*
X190587500Y-108510000D02*
G75*
G02*
X190787500Y-108510000I100000J0D01*
G01*
%TO.C,D1*%
X185637500Y-85000000D02*
X185637500Y-84680000D01*
X185637500Y-87000000D02*
X185637500Y-87320000D01*
D14*
X185637499Y-84680000D02*
G75*
G02*
X189167500Y-85230000I1599290J-1338561D01*
G01*
X189167500Y-86770000D02*
G75*
G02*
X185637499Y-87320000I-1930711J788561D01*
G01*
D11*
%TO.C,U2*%
X152047500Y-83670000D02*
X152047500Y-88870000D01*
X152047500Y-88870000D02*
X157347500Y-88870000D01*
X153697500Y-83670000D02*
X152047500Y-83670000D01*
X157347500Y-83670000D02*
X155697500Y-83670000D01*
X157347500Y-88870000D02*
X157347500Y-83670000D01*
X155697500Y-83670000D02*
G75*
G02*
X153697500Y-83670000I-1000000J0D01*
G01*
D12*
%TO.C,R11*%
X160207500Y-115600000D02*
X160207500Y-122400000D01*
X160207500Y-122400000D02*
X161507500Y-122400000D01*
X161507500Y-114420000D02*
X161507500Y-115600000D01*
X161507500Y-115600000D02*
X160207500Y-115600000D01*
X161507500Y-122400000D02*
X162807500Y-122400000D01*
X161507500Y-123580000D02*
X161507500Y-122400000D01*
X162807500Y-115600000D02*
X161507500Y-115600000D01*
X162807500Y-122400000D02*
X162807500Y-115600000D01*
%TO.C,U1*%
X116750000Y-87550000D02*
X116750000Y-135750000D01*
X116750000Y-135750000D02*
X126630000Y-135750000D01*
X121700000Y-81350000D02*
X139700000Y-81350000D01*
X121700000Y-87550000D02*
X116750000Y-87550000D01*
X121700000Y-87550000D02*
X121700000Y-81350000D01*
X126630000Y-135750000D02*
X126630000Y-136650000D01*
X126630000Y-136650000D02*
X134760000Y-136650000D01*
X134760000Y-135750000D02*
X144650000Y-135750000D01*
X134760000Y-136650000D02*
X134760000Y-135750000D01*
X139700000Y-81350000D02*
X139700000Y-87550000D01*
X144650000Y-87550000D02*
X139700000Y-87550000D01*
X144650000Y-135750000D02*
X144650000Y-87550000D01*
D13*
X116230000Y-88680000D02*
G75*
G02*
X116030000Y-88680000I-100000J0D01*
G01*
X116030000Y-88680000D02*
G75*
G02*
X116230000Y-88680000I100000J0D01*
G01*
D12*
%TO.C,R10*%
X172207500Y-98600000D02*
X172207500Y-105400000D01*
X172207500Y-105400000D02*
X173507500Y-105400000D01*
X173507500Y-97420000D02*
X173507500Y-98600000D01*
X173507500Y-98600000D02*
X172207500Y-98600000D01*
X173507500Y-105400000D02*
X174807500Y-105400000D01*
X173507500Y-106580000D02*
X173507500Y-105400000D01*
X174807500Y-98600000D02*
X173507500Y-98600000D01*
X174807500Y-105400000D02*
X174807500Y-98600000D01*
D11*
%TO.C,Q3*%
X167387500Y-83675000D02*
X167387500Y-88316000D01*
X167387500Y-83675000D02*
X177627500Y-83675000D01*
X167387500Y-85185000D02*
X177627500Y-85185000D01*
X167387500Y-88316000D02*
X177627500Y-88316000D01*
X170657500Y-83675000D02*
X170657500Y-85185000D01*
X174358500Y-83675000D02*
X174358500Y-85185000D01*
X177627500Y-83675000D02*
X177627500Y-88316000D01*
%TO.C,D3*%
X181037500Y-99360000D02*
X181037500Y-104800000D01*
X181037500Y-103780000D02*
X183977500Y-103780000D01*
X181037500Y-103900000D02*
X183977500Y-103900000D01*
X181037500Y-104020000D02*
X183977500Y-104020000D01*
X181037500Y-104800000D02*
X183977500Y-104800000D01*
X182507500Y-98340000D02*
X182507500Y-99360000D01*
X182507500Y-105820000D02*
X182507500Y-104800000D01*
X183977500Y-99360000D02*
X181037500Y-99360000D01*
X183977500Y-104800000D02*
X183977500Y-99360000D01*
D13*
%TO.C,D2*%
X186637500Y-134000000D02*
X186637500Y-133680000D01*
X186637500Y-136000000D02*
X186637500Y-136320000D01*
D14*
X186637499Y-133680000D02*
G75*
G02*
X190167500Y-134230000I1599290J-1338561D01*
G01*
X190167500Y-135770000D02*
G75*
G02*
X186637499Y-136320000I-1930711J788561D01*
G01*
D11*
%TO.C,Q2*%
X167387500Y-132675000D02*
X167387500Y-137316000D01*
X167387500Y-132675000D02*
X177627500Y-132675000D01*
X167387500Y-134185000D02*
X177627500Y-134185000D01*
X167387500Y-137316000D02*
X177627500Y-137316000D01*
X170657500Y-132675000D02*
X170657500Y-134185000D01*
X174358500Y-132675000D02*
X174358500Y-134185000D01*
X177627500Y-132675000D02*
X177627500Y-137316000D01*
D12*
%TO.C,R7*%
X150207500Y-115600000D02*
X150207500Y-122400000D01*
X150207500Y-122400000D02*
X151507500Y-122400000D01*
X151507500Y-114420000D02*
X151507500Y-115600000D01*
X151507500Y-115600000D02*
X150207500Y-115600000D01*
X151507500Y-122400000D02*
X152807500Y-122400000D01*
X151507500Y-123580000D02*
X151507500Y-122400000D01*
X152807500Y-115600000D02*
X151507500Y-115600000D01*
X152807500Y-122400000D02*
X152807500Y-115600000D01*
D11*
%TO.C,U3*%
X151967500Y-130670000D02*
X151967500Y-135870000D01*
X151967500Y-135870000D02*
X157267500Y-135870000D01*
X153617500Y-130670000D02*
X151967500Y-130670000D01*
X157267500Y-130670000D02*
X155617500Y-130670000D01*
X157267500Y-135870000D02*
X157267500Y-130670000D01*
X155617500Y-130670000D02*
G75*
G02*
X153617500Y-130670000I-1000000J0D01*
G01*
D12*
%TO.C,J3*%
X194300000Y-126000000D02*
X209540000Y-126000000D01*
X194300000Y-136600000D02*
X194300000Y-126000000D01*
X209540000Y-126000000D02*
X209540000Y-136600000D01*
X209540000Y-136600000D02*
X194300000Y-136600000D01*
D13*
X196940000Y-125000000D02*
G75*
G02*
X196740000Y-125000000I-100000J0D01*
G01*
X196740000Y-125000000D02*
G75*
G02*
X196940000Y-125000000I100000J0D01*
G01*
D12*
%TO.C,R12*%
X172207500Y-115600000D02*
X172207500Y-122400000D01*
X172207500Y-122400000D02*
X173507500Y-122400000D01*
X173507500Y-114420000D02*
X173507500Y-115600000D01*
X173507500Y-115600000D02*
X172207500Y-115600000D01*
X173507500Y-122400000D02*
X174807500Y-122400000D01*
X173507500Y-123580000D02*
X173507500Y-122400000D01*
X174807500Y-115600000D02*
X173507500Y-115600000D01*
X174807500Y-122400000D02*
X174807500Y-115600000D01*
%TO.C,K2*%
X189487500Y-113000000D02*
X209727500Y-113000000D01*
X189487500Y-123000000D02*
X189487500Y-113000000D01*
X209727500Y-113000000D02*
X209727500Y-123000000D01*
X209727500Y-123000000D02*
X189487500Y-123000000D01*
D13*
X190787500Y-123700000D02*
G75*
G02*
X190587500Y-123700000I-100000J0D01*
G01*
X190587500Y-123700000D02*
G75*
G02*
X190787500Y-123700000I100000J0D01*
G01*
D12*
%TO.C,PS1*%
X86727500Y-97950000D02*
X112127500Y-97950000D01*
X86727500Y-136050000D02*
X86727500Y-97950000D01*
X112127500Y-97950000D02*
X112127500Y-136050000D01*
X112127500Y-136050000D02*
X86727500Y-136050000D01*
D13*
X109627500Y-97000000D02*
G75*
G02*
X109427500Y-97000000I-100000J0D01*
G01*
X109427500Y-97000000D02*
G75*
G02*
X109627500Y-97000000I100000J0D01*
G01*
D12*
%TO.C,J2*%
X194300000Y-83400000D02*
X209540000Y-83400000D01*
X194300000Y-94000000D02*
X194300000Y-83400000D01*
X209540000Y-83400000D02*
X209540000Y-94000000D01*
X209540000Y-94000000D02*
X194300000Y-94000000D01*
D13*
X207100000Y-95000000D02*
G75*
G02*
X206900000Y-95000000I-100000J0D01*
G01*
X206900000Y-95000000D02*
G75*
G02*
X207100000Y-95000000I100000J0D01*
G01*
D12*
%TO.C,R9*%
X160207500Y-98600000D02*
X160207500Y-105400000D01*
X160207500Y-105400000D02*
X161507500Y-105400000D01*
X161507500Y-97420000D02*
X161507500Y-98600000D01*
X161507500Y-98600000D02*
X160207500Y-98600000D01*
X161507500Y-105400000D02*
X162807500Y-105400000D01*
X161507500Y-106580000D02*
X161507500Y-105400000D01*
X162807500Y-98600000D02*
X161507500Y-98600000D01*
X162807500Y-105400000D02*
X162807500Y-98600000D01*
%TD*%
M02*
