%TF.GenerationSoftware,KiCad,Pcbnew,8.0.6-8.0.6-0~ubuntu22.04.1*%
%TF.CreationDate,2024-11-04T10:12:41+07:00*%
%TF.ProjectId,projectGATE,70726f6a-6563-4744-9741-54452e6b6963,rev?*%
%TF.SameCoordinates,Original*%
%TF.FileFunction,Copper,L1,Top*%
%TF.FilePolarity,Positive*%
%FSLAX46Y46*%
G04 Gerber Fmt 4.6, Leading zero omitted, Abs format (unit mm)*
G04 Created by KiCad (PCBNEW 8.0.6-8.0.6-0~ubuntu22.04.1) date 2024-11-04 10:12:41*
%MOMM*%
%LPD*%
G01*
G04 APERTURE LIST*
%TA.AperFunction,ComponentPad*%
%ADD10R,2.250000X2.250000*%
%TD*%
%TA.AperFunction,ComponentPad*%
%ADD11C,2.250000*%
%TD*%
%TA.AperFunction,ComponentPad*%
%ADD12R,2.200000X2.200000*%
%TD*%
%TA.AperFunction,ComponentPad*%
%ADD13O,2.200000X2.200000*%
%TD*%
%TA.AperFunction,ComponentPad*%
%ADD14R,2.400000X2.400000*%
%TD*%
%TA.AperFunction,ComponentPad*%
%ADD15C,2.400000*%
%TD*%
%TA.AperFunction,ComponentPad*%
%ADD16C,1.200000*%
%TD*%
%TA.AperFunction,ComponentPad*%
%ADD17R,1.905000X2.000000*%
%TD*%
%TA.AperFunction,ComponentPad*%
%ADD18O,1.905000X2.000000*%
%TD*%
%TA.AperFunction,ComponentPad*%
%ADD19R,1.600000X1.600000*%
%TD*%
%TA.AperFunction,ComponentPad*%
%ADD20O,1.600000X1.600000*%
%TD*%
%TA.AperFunction,ComponentPad*%
%ADD21C,1.508000*%
%TD*%
%TA.AperFunction,ComponentPad*%
%ADD22R,1.650000X1.650000*%
%TD*%
%TA.AperFunction,ComponentPad*%
%ADD23C,1.650000*%
%TD*%
%TA.AperFunction,ComponentPad*%
%ADD24R,1.530000X1.530000*%
%TD*%
%TA.AperFunction,ComponentPad*%
%ADD25C,1.530000*%
%TD*%
%TA.AperFunction,Profile*%
%ADD26C,0.050000*%
%TD*%
G04 APERTURE END LIST*
D10*
%TO.P,PS1,1,AC(N)*%
%TO.N,Net-(PS1-AC(N))*%
X112160000Y-90500000D03*
D11*
%TO.P,PS1,4,+VO*%
%TO.N,5V*%
X112160000Y-123500000D03*
%TO.P,PS1,2,AC(L)*%
%TO.N,Net-(PS1-AC(L))*%
X91840000Y-90500000D03*
%TO.P,PS1,3,-VO*%
%TO.N,GND*%
X102000000Y-123500000D03*
%TD*%
D12*
%TO.P,D3,1,K*%
%TO.N,5V*%
X183580000Y-113080000D03*
D13*
%TO.P,D3,2,A*%
%TO.N,Net-(D3-A)*%
X183580000Y-102920000D03*
%TD*%
D14*
%TO.P,J3,1,1*%
%TO.N,Net-(J3-Pad1)*%
X197920000Y-121000000D03*
D15*
%TO.P,J3,2,2*%
%TO.N,Net-(J3-Pad2)*%
X203000000Y-121000000D03*
%TO.P,J3,3,3*%
%TO.N,Net-(J3-Pad3)*%
X208080000Y-121000000D03*
%TD*%
D16*
%TO.P,R7,1*%
%TO.N,Net-(U1-IO23)*%
X156000000Y-95500000D03*
%TO.P,R7,2*%
%TO.N,Net-(R7-Pad2)*%
X156000000Y-84500000D03*
%TD*%
D17*
%TO.P,Q3,1,B*%
%TO.N,Net-(Q3-B)*%
X170920000Y-76000000D03*
D18*
%TO.P,Q3,2,C*%
%TO.N,Net-(D4-A)*%
X173460000Y-76000000D03*
%TO.P,Q3,3,E*%
%TO.N,GND*%
X176000000Y-76000000D03*
%TD*%
D19*
%TO.P,U2,1*%
%TO.N,Net-(R8-Pad2)*%
X155200000Y-119725000D03*
D20*
%TO.P,U2,2*%
%TO.N,GND*%
X155200000Y-122265000D03*
%TO.P,U2,3*%
%TO.N,Net-(R9-Pad1)*%
X162820000Y-122265000D03*
%TO.P,U2,4*%
%TO.N,5V*%
X162820000Y-119725000D03*
%TD*%
D16*
%TO.P,R12,1*%
%TO.N,Net-(D2-Pad2)*%
X174000000Y-84500000D03*
%TO.P,R12,2*%
%TO.N,Net-(D4-A)*%
X174000000Y-95500000D03*
%TD*%
D21*
%TO.P,D1,1*%
%TO.N,5V*%
X189540000Y-123500000D03*
%TO.P,D1,2*%
%TO.N,Net-(D1-Pad2)*%
X187000000Y-123500000D03*
%TD*%
D19*
%TO.P,U3,1*%
%TO.N,Net-(R7-Pad2)*%
X155200000Y-73725000D03*
D20*
%TO.P,U3,2*%
%TO.N,GND*%
X155200000Y-76265000D03*
%TO.P,U3,3*%
%TO.N,Net-(R11-Pad1)*%
X162820000Y-76265000D03*
%TO.P,U3,4*%
%TO.N,5V*%
X162820000Y-73725000D03*
%TD*%
D14*
%TO.P,J2,1,1*%
%TO.N,Net-(J2-Pad1)*%
X208000000Y-77500000D03*
D15*
%TO.P,J2,2,2*%
%TO.N,Net-(J2-Pad2)*%
X202920000Y-77500000D03*
%TO.P,J2,3,3*%
%TO.N,Net-(J2-Pad3)*%
X197840000Y-77500000D03*
%TD*%
D16*
%TO.P,R10,1*%
%TO.N,Net-(D1-Pad2)*%
X174000000Y-102500000D03*
%TO.P,R10,2*%
%TO.N,Net-(D3-A)*%
X174000000Y-113500000D03*
%TD*%
%TO.P,R11,1*%
%TO.N,Net-(R11-Pad1)*%
X163000000Y-84500000D03*
%TO.P,R11,2*%
%TO.N,Net-(Q3-B)*%
X163000000Y-95500000D03*
%TD*%
D22*
%TO.P,K2,1*%
%TO.N,5V*%
X191590000Y-95810000D03*
D23*
%TO.P,K2,4*%
%TO.N,Net-(J2-Pad2)*%
X199210000Y-95810000D03*
%TO.P,K2,6*%
%TO.N,Net-(J2-Pad1)*%
X204290000Y-95810000D03*
%TO.P,K2,8*%
%TO.N,Net-(J2-Pad3)*%
X209370000Y-95810000D03*
%TO.P,K2,9*%
%TO.N,unconnected-(K2-Pad9)*%
X209370000Y-88190000D03*
%TO.P,K2,11*%
%TO.N,unconnected-(K2-Pad11)*%
X204290000Y-88190000D03*
%TO.P,K2,13*%
%TO.N,unconnected-(K2-Pad13)*%
X199210000Y-88190000D03*
%TO.P,K2,16*%
%TO.N,Net-(D4-A)*%
X191590000Y-88190000D03*
%TD*%
D12*
%TO.P,D4,1,K*%
%TO.N,5V*%
X183520000Y-95080000D03*
D13*
%TO.P,D4,2,A*%
%TO.N,Net-(D4-A)*%
X183520000Y-84920000D03*
%TD*%
D17*
%TO.P,Q4,1,B*%
%TO.N,Net-(Q4-B)*%
X171460000Y-122000000D03*
D18*
%TO.P,Q4,2,C*%
%TO.N,Net-(D3-A)*%
X174000000Y-122000000D03*
%TO.P,Q4,3,E*%
%TO.N,GND*%
X176540000Y-122000000D03*
%TD*%
D16*
%TO.P,R9,1*%
%TO.N,Net-(R9-Pad1)*%
X163000000Y-113500000D03*
%TO.P,R9,2*%
%TO.N,Net-(Q4-B)*%
X163000000Y-102500000D03*
%TD*%
%TO.P,R8,1*%
%TO.N,Net-(U1-IO22)*%
X155940000Y-102500000D03*
%TO.P,R8,2*%
%TO.N,Net-(R8-Pad2)*%
X155940000Y-113500000D03*
%TD*%
D22*
%TO.P,K1,1*%
%TO.N,5V*%
X191800000Y-110000000D03*
D23*
%TO.P,K1,4*%
%TO.N,Net-(J3-Pad2)*%
X199420000Y-110000000D03*
%TO.P,K1,6*%
%TO.N,Net-(J3-Pad1)*%
X204500000Y-110000000D03*
%TO.P,K1,8*%
%TO.N,Net-(J3-Pad3)*%
X209580000Y-110000000D03*
%TO.P,K1,9*%
%TO.N,unconnected-(K1-Pad9)*%
X209580000Y-102380000D03*
%TO.P,K1,11*%
%TO.N,unconnected-(K1-Pad11)*%
X204500000Y-102380000D03*
%TO.P,K1,13*%
%TO.N,unconnected-(K1-Pad13)*%
X199420000Y-102380000D03*
%TO.P,K1,16*%
%TO.N,Net-(D3-A)*%
X191800000Y-102380000D03*
%TD*%
D24*
%TO.P,U1,1,3V3*%
%TO.N,unconnected-(U1-3V3-Pad1)*%
X122210000Y-77600000D03*
D25*
%TO.P,U1,2,EN*%
%TO.N,unconnected-(U1-EN-Pad2)*%
X122210000Y-80140000D03*
%TO.P,U1,3,SENSOR_VP*%
%TO.N,unconnected-(U1-SENSOR_VP-Pad3)*%
X122210000Y-82680000D03*
%TO.P,U1,4,SENSOR_VN*%
%TO.N,unconnected-(U1-SENSOR_VN-Pad4)*%
X122210000Y-85220000D03*
%TO.P,U1,5,IO34*%
%TO.N,unconnected-(U1-IO34-Pad5)*%
X122210000Y-87760000D03*
%TO.P,U1,6,IO35*%
%TO.N,unconnected-(U1-IO35-Pad6)*%
X122210000Y-90300000D03*
%TO.P,U1,7,IO32*%
%TO.N,unconnected-(U1-IO32-Pad7)*%
X122210000Y-92840000D03*
%TO.P,U1,8,IO33*%
%TO.N,unconnected-(U1-IO33-Pad8)*%
X122210000Y-95380000D03*
%TO.P,U1,9,IO25*%
%TO.N,unconnected-(U1-IO25-Pad9)*%
X122210000Y-97920000D03*
%TO.P,U1,10,IO26*%
%TO.N,unconnected-(U1-IO26-Pad10)*%
X122210000Y-100460000D03*
%TO.P,U1,11,IO27*%
%TO.N,unconnected-(U1-IO27-Pad11)*%
X122210000Y-103000000D03*
%TO.P,U1,12,IO14*%
%TO.N,unconnected-(U1-IO14-Pad12)*%
X122210000Y-105540000D03*
%TO.P,U1,13,IO12*%
%TO.N,unconnected-(U1-IO12-Pad13)*%
X122210000Y-108080000D03*
%TO.P,U1,14,GND1*%
%TO.N,GND*%
X122210000Y-110620000D03*
%TO.P,U1,15,IO13*%
%TO.N,unconnected-(U1-IO13-Pad15)*%
X122210000Y-113160000D03*
%TO.P,U1,16,SD2*%
%TO.N,unconnected-(U1-SD2-Pad16)*%
X122210000Y-115700000D03*
%TO.P,U1,17,SD3*%
%TO.N,unconnected-(U1-SD3-Pad17)*%
X122210000Y-118240000D03*
%TO.P,U1,18,CMD*%
%TO.N,unconnected-(U1-CMD-Pad18)*%
X122210000Y-120780000D03*
%TO.P,U1,19,EXT_5V*%
%TO.N,5V*%
X122210000Y-123320000D03*
%TO.P,U1,20,CLK*%
%TO.N,unconnected-(U1-CLK-Pad20)*%
X147610000Y-123320000D03*
%TO.P,U1,21,SD0*%
%TO.N,unconnected-(U1-SD0-Pad21)*%
X147610000Y-120780000D03*
%TO.P,U1,22,SD1*%
%TO.N,unconnected-(U1-SD1-Pad22)*%
X147610000Y-118240000D03*
%TO.P,U1,23,IO15*%
%TO.N,unconnected-(U1-IO15-Pad23)*%
X147610000Y-115700000D03*
%TO.P,U1,24,IO2*%
%TO.N,unconnected-(U1-IO2-Pad24)*%
X147610000Y-113160000D03*
%TO.P,U1,25,IO0*%
%TO.N,unconnected-(U1-IO0-Pad25)*%
X147610000Y-110620000D03*
%TO.P,U1,26,IO4*%
%TO.N,unconnected-(U1-IO4-Pad26)*%
X147610000Y-108080000D03*
%TO.P,U1,27,IO16*%
%TO.N,unconnected-(U1-IO16-Pad27)*%
X147610000Y-105540000D03*
%TO.P,U1,28,IO17*%
%TO.N,unconnected-(U1-IO17-Pad28)*%
X147610000Y-103000000D03*
%TO.P,U1,29,IO5*%
%TO.N,unconnected-(U1-IO5-Pad29)*%
X147610000Y-100460000D03*
%TO.P,U1,30,IO18*%
%TO.N,unconnected-(U1-IO18-Pad30)*%
X147610000Y-97920000D03*
%TO.P,U1,31,IO19*%
%TO.N,unconnected-(U1-IO19-Pad31)*%
X147610000Y-95380000D03*
%TO.P,U1,32,GND2*%
%TO.N,GND*%
X147610000Y-92840000D03*
%TO.P,U1,33,IO21*%
%TO.N,unconnected-(U1-IO21-Pad33)*%
X147610000Y-90300000D03*
%TO.P,U1,34,RXD0*%
%TO.N,unconnected-(U1-RXD0-Pad34)*%
X147610000Y-87760000D03*
%TO.P,U1,35,TXD0*%
%TO.N,unconnected-(U1-TXD0-Pad35)*%
X147610000Y-85220000D03*
%TO.P,U1,36,IO22*%
%TO.N,Net-(U1-IO22)*%
X147610000Y-82680000D03*
%TO.P,U1,37,IO23*%
%TO.N,Net-(U1-IO23)*%
X147610000Y-80140000D03*
%TO.P,U1,38,GND3*%
%TO.N,unconnected-(U1-GND3-Pad38)*%
X147610000Y-77600000D03*
%TD*%
D14*
%TO.P,J1,1,1*%
%TO.N,Net-(PS1-AC(L))*%
X96940000Y-80350000D03*
D15*
%TO.P,J1,2,2*%
%TO.N,Net-(PS1-AC(N))*%
X91860000Y-80350000D03*
%TD*%
D21*
%TO.P,D2,1*%
%TO.N,5V*%
X189270000Y-75000000D03*
%TO.P,D2,2*%
%TO.N,Net-(D2-Pad2)*%
X186730000Y-75000000D03*
%TD*%
D26*
X88000000Y-134000000D02*
G75*
G02*
X86000000Y-134000000I-1000000J0D01*
G01*
X86000000Y-134000000D02*
G75*
G02*
X88000000Y-134000000I1000000J0D01*
G01*
X88000000Y-68000000D02*
G75*
G02*
X86000000Y-68000000I-1000000J0D01*
G01*
X86000000Y-68000000D02*
G75*
G02*
X88000000Y-68000000I1000000J0D01*
G01*
X214000000Y-68000000D02*
G75*
G02*
X212000000Y-68000000I-1000000J0D01*
G01*
X212000000Y-68000000D02*
G75*
G02*
X214000000Y-68000000I1000000J0D01*
G01*
X214000000Y-134000000D02*
G75*
G02*
X212000000Y-134000000I-1000000J0D01*
G01*
X212000000Y-134000000D02*
G75*
G02*
X214000000Y-134000000I1000000J0D01*
G01*
X85000000Y-66000000D02*
X215000000Y-66000000D01*
X215000000Y-136000000D01*
X85000000Y-136000000D01*
X85000000Y-66000000D01*
M02*
