%TF.GenerationSoftware,KiCad,Pcbnew,8.0.6-8.0.6-0~ubuntu22.04.1*%
%TF.CreationDate,2024-11-04T10:12:41+07:00*%
%TF.ProjectId,projectGATE,70726f6a-6563-4744-9741-54452e6b6963,rev?*%
%TF.SameCoordinates,Original*%
%TF.FileFunction,Legend,Top*%
%TF.FilePolarity,Positive*%
%FSLAX46Y46*%
G04 Gerber Fmt 4.6, Leading zero omitted, Abs format (unit mm)*
G04 Created by KiCad (PCBNEW 8.0.6-8.0.6-0~ubuntu22.04.1) date 2024-11-04 10:12:41*
%MOMM*%
%LPD*%
G01*
G04 APERTURE LIST*
G04 Aperture macros list*
%AMRoundRect*
0 Rectangle with rounded corners*
0 $1 Rounding radius*
0 $2 $3 $4 $5 $6 $7 $8 $9 X,Y pos of 4 corners*
0 Add a 4 corners polygon primitive as box body*
4,1,4,$2,$3,$4,$5,$6,$7,$8,$9,$2,$3,0*
0 Add four circle primitives for the rounded corners*
1,1,$1+$1,$2,$3*
1,1,$1+$1,$4,$5*
1,1,$1+$1,$6,$7*
1,1,$1+$1,$8,$9*
0 Add four rect primitives between the rounded corners*
20,1,$1+$1,$2,$3,$4,$5,0*
20,1,$1+$1,$4,$5,$6,$7,0*
20,1,$1+$1,$6,$7,$8,$9,0*
20,1,$1+$1,$8,$9,$2,$3,0*%
G04 Aperture macros list end*
%ADD10C,0.150000*%
%ADD11C,0.127000*%
%ADD12C,0.200000*%
%ADD13C,0.120000*%
%ADD14C,0.220000*%
%ADD15RoundRect,0.102000X-1.125000X1.125000X-1.125000X-1.125000X1.125000X-1.125000X1.125000X1.125000X0*%
%ADD16C,2.454000*%
%ADD17R,2.200000X2.200000*%
%ADD18O,2.200000X2.200000*%
%ADD19RoundRect,0.102000X-1.200000X-1.200000X1.200000X-1.200000X1.200000X1.200000X-1.200000X1.200000X0*%
%ADD20C,2.604000*%
%ADD21C,1.404000*%
%ADD22R,1.905000X2.000000*%
%ADD23O,1.905000X2.000000*%
%ADD24R,1.600000X1.600000*%
%ADD25O,1.600000X1.600000*%
%ADD26C,1.712000*%
%ADD27RoundRect,0.102000X1.200000X1.200000X-1.200000X1.200000X-1.200000X-1.200000X1.200000X-1.200000X0*%
%ADD28RoundRect,0.102000X-0.825000X-0.825000X0.825000X-0.825000X0.825000X0.825000X-0.825000X0.825000X0*%
%ADD29C,1.854000*%
%ADD30RoundRect,0.102000X-0.765000X-0.765000X0.765000X-0.765000X0.765000X0.765000X-0.765000X0.765000X0*%
%ADD31C,1.734000*%
%TA.AperFunction,Profile*%
%ADD32C,0.050000*%
%TD*%
G04 APERTURE END LIST*
D10*
X103454819Y-101214285D02*
X102454819Y-101214285D01*
X102454819Y-101214285D02*
X102454819Y-100833333D01*
X102454819Y-100833333D02*
X102502438Y-100738095D01*
X102502438Y-100738095D02*
X102550057Y-100690476D01*
X102550057Y-100690476D02*
X102645295Y-100642857D01*
X102645295Y-100642857D02*
X102788152Y-100642857D01*
X102788152Y-100642857D02*
X102883390Y-100690476D01*
X102883390Y-100690476D02*
X102931009Y-100738095D01*
X102931009Y-100738095D02*
X102978628Y-100833333D01*
X102978628Y-100833333D02*
X102978628Y-101214285D01*
X103407200Y-100261904D02*
X103454819Y-100119047D01*
X103454819Y-100119047D02*
X103454819Y-99880952D01*
X103454819Y-99880952D02*
X103407200Y-99785714D01*
X103407200Y-99785714D02*
X103359580Y-99738095D01*
X103359580Y-99738095D02*
X103264342Y-99690476D01*
X103264342Y-99690476D02*
X103169104Y-99690476D01*
X103169104Y-99690476D02*
X103073866Y-99738095D01*
X103073866Y-99738095D02*
X103026247Y-99785714D01*
X103026247Y-99785714D02*
X102978628Y-99880952D01*
X102978628Y-99880952D02*
X102931009Y-100071428D01*
X102931009Y-100071428D02*
X102883390Y-100166666D01*
X102883390Y-100166666D02*
X102835771Y-100214285D01*
X102835771Y-100214285D02*
X102740533Y-100261904D01*
X102740533Y-100261904D02*
X102645295Y-100261904D01*
X102645295Y-100261904D02*
X102550057Y-100214285D01*
X102550057Y-100214285D02*
X102502438Y-100166666D01*
X102502438Y-100166666D02*
X102454819Y-100071428D01*
X102454819Y-100071428D02*
X102454819Y-99833333D01*
X102454819Y-99833333D02*
X102502438Y-99690476D01*
X103454819Y-98738095D02*
X103454819Y-99309523D01*
X103454819Y-99023809D02*
X102454819Y-99023809D01*
X102454819Y-99023809D02*
X102597676Y-99119047D01*
X102597676Y-99119047D02*
X102692914Y-99214285D01*
X102692914Y-99214285D02*
X102740533Y-99309523D01*
X181934819Y-113341904D02*
X180934819Y-113341904D01*
X181934819Y-112770476D02*
X181363390Y-113199047D01*
X180934819Y-112770476D02*
X181506247Y-113341904D01*
X201533333Y-123239866D02*
X201533333Y-124239866D01*
X201533333Y-124239866D02*
X201466666Y-124439866D01*
X201466666Y-124439866D02*
X201333333Y-124573200D01*
X201333333Y-124573200D02*
X201133333Y-124639866D01*
X201133333Y-124639866D02*
X201000000Y-124639866D01*
X202066667Y-123239866D02*
X202933333Y-123239866D01*
X202933333Y-123239866D02*
X202466667Y-123773200D01*
X202466667Y-123773200D02*
X202666667Y-123773200D01*
X202666667Y-123773200D02*
X202800000Y-123839866D01*
X202800000Y-123839866D02*
X202866667Y-123906533D01*
X202866667Y-123906533D02*
X202933333Y-124039866D01*
X202933333Y-124039866D02*
X202933333Y-124373200D01*
X202933333Y-124373200D02*
X202866667Y-124506533D01*
X202866667Y-124506533D02*
X202800000Y-124573200D01*
X202800000Y-124573200D02*
X202666667Y-124639866D01*
X202666667Y-124639866D02*
X202266667Y-124639866D01*
X202266667Y-124639866D02*
X202133333Y-124573200D01*
X202133333Y-124573200D02*
X202066667Y-124506533D01*
X156454819Y-91166666D02*
X155978628Y-91499999D01*
X156454819Y-91738094D02*
X155454819Y-91738094D01*
X155454819Y-91738094D02*
X155454819Y-91357142D01*
X155454819Y-91357142D02*
X155502438Y-91261904D01*
X155502438Y-91261904D02*
X155550057Y-91214285D01*
X155550057Y-91214285D02*
X155645295Y-91166666D01*
X155645295Y-91166666D02*
X155788152Y-91166666D01*
X155788152Y-91166666D02*
X155883390Y-91214285D01*
X155883390Y-91214285D02*
X155931009Y-91261904D01*
X155931009Y-91261904D02*
X155978628Y-91357142D01*
X155978628Y-91357142D02*
X155978628Y-91738094D01*
X155454819Y-90833332D02*
X155454819Y-90166666D01*
X155454819Y-90166666D02*
X156454819Y-90595237D01*
X174454819Y-90642857D02*
X173978628Y-90976190D01*
X174454819Y-91214285D02*
X173454819Y-91214285D01*
X173454819Y-91214285D02*
X173454819Y-90833333D01*
X173454819Y-90833333D02*
X173502438Y-90738095D01*
X173502438Y-90738095D02*
X173550057Y-90690476D01*
X173550057Y-90690476D02*
X173645295Y-90642857D01*
X173645295Y-90642857D02*
X173788152Y-90642857D01*
X173788152Y-90642857D02*
X173883390Y-90690476D01*
X173883390Y-90690476D02*
X173931009Y-90738095D01*
X173931009Y-90738095D02*
X173978628Y-90833333D01*
X173978628Y-90833333D02*
X173978628Y-91214285D01*
X174454819Y-89690476D02*
X174454819Y-90261904D01*
X174454819Y-89976190D02*
X173454819Y-89976190D01*
X173454819Y-89976190D02*
X173597676Y-90071428D01*
X173597676Y-90071428D02*
X173692914Y-90166666D01*
X173692914Y-90166666D02*
X173740533Y-90261904D01*
X173550057Y-89309523D02*
X173502438Y-89261904D01*
X173502438Y-89261904D02*
X173454819Y-89166666D01*
X173454819Y-89166666D02*
X173454819Y-88928571D01*
X173454819Y-88928571D02*
X173502438Y-88833333D01*
X173502438Y-88833333D02*
X173550057Y-88785714D01*
X173550057Y-88785714D02*
X173645295Y-88738095D01*
X173645295Y-88738095D02*
X173740533Y-88738095D01*
X173740533Y-88738095D02*
X173883390Y-88785714D01*
X173883390Y-88785714D02*
X174454819Y-89357142D01*
X174454819Y-89357142D02*
X174454819Y-88738095D01*
X187531905Y-127089819D02*
X187531905Y-126089819D01*
X187531905Y-126089819D02*
X187770000Y-126089819D01*
X187770000Y-126089819D02*
X187912857Y-126137438D01*
X187912857Y-126137438D02*
X188008095Y-126232676D01*
X188008095Y-126232676D02*
X188055714Y-126327914D01*
X188055714Y-126327914D02*
X188103333Y-126518390D01*
X188103333Y-126518390D02*
X188103333Y-126661247D01*
X188103333Y-126661247D02*
X188055714Y-126851723D01*
X188055714Y-126851723D02*
X188008095Y-126946961D01*
X188008095Y-126946961D02*
X187912857Y-127042200D01*
X187912857Y-127042200D02*
X187770000Y-127089819D01*
X187770000Y-127089819D02*
X187531905Y-127089819D01*
X189055714Y-127089819D02*
X188484286Y-127089819D01*
X188770000Y-127089819D02*
X188770000Y-126089819D01*
X188770000Y-126089819D02*
X188674762Y-126232676D01*
X188674762Y-126232676D02*
X188579524Y-126327914D01*
X188579524Y-126327914D02*
X188484286Y-126375533D01*
X190865238Y-123457533D02*
X191474762Y-123457533D01*
X191170000Y-123762295D02*
X191170000Y-123152771D01*
X174454819Y-108642857D02*
X173978628Y-108976190D01*
X174454819Y-109214285D02*
X173454819Y-109214285D01*
X173454819Y-109214285D02*
X173454819Y-108833333D01*
X173454819Y-108833333D02*
X173502438Y-108738095D01*
X173502438Y-108738095D02*
X173550057Y-108690476D01*
X173550057Y-108690476D02*
X173645295Y-108642857D01*
X173645295Y-108642857D02*
X173788152Y-108642857D01*
X173788152Y-108642857D02*
X173883390Y-108690476D01*
X173883390Y-108690476D02*
X173931009Y-108738095D01*
X173931009Y-108738095D02*
X173978628Y-108833333D01*
X173978628Y-108833333D02*
X173978628Y-109214285D01*
X174454819Y-107690476D02*
X174454819Y-108261904D01*
X174454819Y-107976190D02*
X173454819Y-107976190D01*
X173454819Y-107976190D02*
X173597676Y-108071428D01*
X173597676Y-108071428D02*
X173692914Y-108166666D01*
X173692914Y-108166666D02*
X173740533Y-108261904D01*
X173454819Y-107071428D02*
X173454819Y-106976190D01*
X173454819Y-106976190D02*
X173502438Y-106880952D01*
X173502438Y-106880952D02*
X173550057Y-106833333D01*
X173550057Y-106833333D02*
X173645295Y-106785714D01*
X173645295Y-106785714D02*
X173835771Y-106738095D01*
X173835771Y-106738095D02*
X174073866Y-106738095D01*
X174073866Y-106738095D02*
X174264342Y-106785714D01*
X174264342Y-106785714D02*
X174359580Y-106833333D01*
X174359580Y-106833333D02*
X174407200Y-106880952D01*
X174407200Y-106880952D02*
X174454819Y-106976190D01*
X174454819Y-106976190D02*
X174454819Y-107071428D01*
X174454819Y-107071428D02*
X174407200Y-107166666D01*
X174407200Y-107166666D02*
X174359580Y-107214285D01*
X174359580Y-107214285D02*
X174264342Y-107261904D01*
X174264342Y-107261904D02*
X174073866Y-107309523D01*
X174073866Y-107309523D02*
X173835771Y-107309523D01*
X173835771Y-107309523D02*
X173645295Y-107261904D01*
X173645295Y-107261904D02*
X173550057Y-107214285D01*
X173550057Y-107214285D02*
X173502438Y-107166666D01*
X173502438Y-107166666D02*
X173454819Y-107071428D01*
X163654819Y-91642857D02*
X163178628Y-91976190D01*
X163654819Y-92214285D02*
X162654819Y-92214285D01*
X162654819Y-92214285D02*
X162654819Y-91833333D01*
X162654819Y-91833333D02*
X162702438Y-91738095D01*
X162702438Y-91738095D02*
X162750057Y-91690476D01*
X162750057Y-91690476D02*
X162845295Y-91642857D01*
X162845295Y-91642857D02*
X162988152Y-91642857D01*
X162988152Y-91642857D02*
X163083390Y-91690476D01*
X163083390Y-91690476D02*
X163131009Y-91738095D01*
X163131009Y-91738095D02*
X163178628Y-91833333D01*
X163178628Y-91833333D02*
X163178628Y-92214285D01*
X163654819Y-90690476D02*
X163654819Y-91261904D01*
X163654819Y-90976190D02*
X162654819Y-90976190D01*
X162654819Y-90976190D02*
X162797676Y-91071428D01*
X162797676Y-91071428D02*
X162892914Y-91166666D01*
X162892914Y-91166666D02*
X162940533Y-91261904D01*
X163654819Y-89738095D02*
X163654819Y-90309523D01*
X163654819Y-90023809D02*
X162654819Y-90023809D01*
X162654819Y-90023809D02*
X162797676Y-90119047D01*
X162797676Y-90119047D02*
X162892914Y-90214285D01*
X162892914Y-90214285D02*
X162940533Y-90309523D01*
X199631905Y-92454819D02*
X199631905Y-91454819D01*
X200203333Y-92454819D02*
X199774762Y-91883390D01*
X200203333Y-91454819D02*
X199631905Y-92026247D01*
X200584286Y-91550057D02*
X200631905Y-91502438D01*
X200631905Y-91502438D02*
X200727143Y-91454819D01*
X200727143Y-91454819D02*
X200965238Y-91454819D01*
X200965238Y-91454819D02*
X201060476Y-91502438D01*
X201060476Y-91502438D02*
X201108095Y-91550057D01*
X201108095Y-91550057D02*
X201155714Y-91645295D01*
X201155714Y-91645295D02*
X201155714Y-91740533D01*
X201155714Y-91740533D02*
X201108095Y-91883390D01*
X201108095Y-91883390D02*
X200536667Y-92454819D01*
X200536667Y-92454819D02*
X201155714Y-92454819D01*
X181874819Y-95341904D02*
X180874819Y-95341904D01*
X181874819Y-94770476D02*
X181303390Y-95199047D01*
X180874819Y-94770476D02*
X181446247Y-95341904D01*
X163454819Y-108166666D02*
X162978628Y-108499999D01*
X163454819Y-108738094D02*
X162454819Y-108738094D01*
X162454819Y-108738094D02*
X162454819Y-108357142D01*
X162454819Y-108357142D02*
X162502438Y-108261904D01*
X162502438Y-108261904D02*
X162550057Y-108214285D01*
X162550057Y-108214285D02*
X162645295Y-108166666D01*
X162645295Y-108166666D02*
X162788152Y-108166666D01*
X162788152Y-108166666D02*
X162883390Y-108214285D01*
X162883390Y-108214285D02*
X162931009Y-108261904D01*
X162931009Y-108261904D02*
X162978628Y-108357142D01*
X162978628Y-108357142D02*
X162978628Y-108738094D01*
X163454819Y-107690475D02*
X163454819Y-107499999D01*
X163454819Y-107499999D02*
X163407200Y-107404761D01*
X163407200Y-107404761D02*
X163359580Y-107357142D01*
X163359580Y-107357142D02*
X163216723Y-107261904D01*
X163216723Y-107261904D02*
X163026247Y-107214285D01*
X163026247Y-107214285D02*
X162645295Y-107214285D01*
X162645295Y-107214285D02*
X162550057Y-107261904D01*
X162550057Y-107261904D02*
X162502438Y-107309523D01*
X162502438Y-107309523D02*
X162454819Y-107404761D01*
X162454819Y-107404761D02*
X162454819Y-107595237D01*
X162454819Y-107595237D02*
X162502438Y-107690475D01*
X162502438Y-107690475D02*
X162550057Y-107738094D01*
X162550057Y-107738094D02*
X162645295Y-107785713D01*
X162645295Y-107785713D02*
X162883390Y-107785713D01*
X162883390Y-107785713D02*
X162978628Y-107738094D01*
X162978628Y-107738094D02*
X163026247Y-107690475D01*
X163026247Y-107690475D02*
X163073866Y-107595237D01*
X163073866Y-107595237D02*
X163073866Y-107404761D01*
X163073866Y-107404761D02*
X163026247Y-107309523D01*
X163026247Y-107309523D02*
X162978628Y-107261904D01*
X162978628Y-107261904D02*
X162883390Y-107214285D01*
X156394819Y-108166666D02*
X155918628Y-108499999D01*
X156394819Y-108738094D02*
X155394819Y-108738094D01*
X155394819Y-108738094D02*
X155394819Y-108357142D01*
X155394819Y-108357142D02*
X155442438Y-108261904D01*
X155442438Y-108261904D02*
X155490057Y-108214285D01*
X155490057Y-108214285D02*
X155585295Y-108166666D01*
X155585295Y-108166666D02*
X155728152Y-108166666D01*
X155728152Y-108166666D02*
X155823390Y-108214285D01*
X155823390Y-108214285D02*
X155871009Y-108261904D01*
X155871009Y-108261904D02*
X155918628Y-108357142D01*
X155918628Y-108357142D02*
X155918628Y-108738094D01*
X155823390Y-107595237D02*
X155775771Y-107690475D01*
X155775771Y-107690475D02*
X155728152Y-107738094D01*
X155728152Y-107738094D02*
X155632914Y-107785713D01*
X155632914Y-107785713D02*
X155585295Y-107785713D01*
X155585295Y-107785713D02*
X155490057Y-107738094D01*
X155490057Y-107738094D02*
X155442438Y-107690475D01*
X155442438Y-107690475D02*
X155394819Y-107595237D01*
X155394819Y-107595237D02*
X155394819Y-107404761D01*
X155394819Y-107404761D02*
X155442438Y-107309523D01*
X155442438Y-107309523D02*
X155490057Y-107261904D01*
X155490057Y-107261904D02*
X155585295Y-107214285D01*
X155585295Y-107214285D02*
X155632914Y-107214285D01*
X155632914Y-107214285D02*
X155728152Y-107261904D01*
X155728152Y-107261904D02*
X155775771Y-107309523D01*
X155775771Y-107309523D02*
X155823390Y-107404761D01*
X155823390Y-107404761D02*
X155823390Y-107595237D01*
X155823390Y-107595237D02*
X155871009Y-107690475D01*
X155871009Y-107690475D02*
X155918628Y-107738094D01*
X155918628Y-107738094D02*
X156013866Y-107785713D01*
X156013866Y-107785713D02*
X156204342Y-107785713D01*
X156204342Y-107785713D02*
X156299580Y-107738094D01*
X156299580Y-107738094D02*
X156347200Y-107690475D01*
X156347200Y-107690475D02*
X156394819Y-107595237D01*
X156394819Y-107595237D02*
X156394819Y-107404761D01*
X156394819Y-107404761D02*
X156347200Y-107309523D01*
X156347200Y-107309523D02*
X156299580Y-107261904D01*
X156299580Y-107261904D02*
X156204342Y-107214285D01*
X156204342Y-107214285D02*
X156013866Y-107214285D01*
X156013866Y-107214285D02*
X155918628Y-107261904D01*
X155918628Y-107261904D02*
X155871009Y-107309523D01*
X155871009Y-107309523D02*
X155823390Y-107404761D01*
X199841905Y-105454819D02*
X199841905Y-104454819D01*
X200413333Y-105454819D02*
X199984762Y-104883390D01*
X200413333Y-104454819D02*
X199841905Y-105026247D01*
X201365714Y-105454819D02*
X200794286Y-105454819D01*
X201080000Y-105454819D02*
X201080000Y-104454819D01*
X201080000Y-104454819D02*
X200984762Y-104597676D01*
X200984762Y-104597676D02*
X200889524Y-104692914D01*
X200889524Y-104692914D02*
X200794286Y-104740533D01*
X134148095Y-99904819D02*
X134148095Y-100714342D01*
X134148095Y-100714342D02*
X134195714Y-100809580D01*
X134195714Y-100809580D02*
X134243333Y-100857200D01*
X134243333Y-100857200D02*
X134338571Y-100904819D01*
X134338571Y-100904819D02*
X134529047Y-100904819D01*
X134529047Y-100904819D02*
X134624285Y-100857200D01*
X134624285Y-100857200D02*
X134671904Y-100809580D01*
X134671904Y-100809580D02*
X134719523Y-100714342D01*
X134719523Y-100714342D02*
X134719523Y-99904819D01*
X135719523Y-100904819D02*
X135148095Y-100904819D01*
X135433809Y-100904819D02*
X135433809Y-99904819D01*
X135433809Y-99904819D02*
X135338571Y-100047676D01*
X135338571Y-100047676D02*
X135243333Y-100142914D01*
X135243333Y-100142914D02*
X135148095Y-100190533D01*
X93533333Y-83239866D02*
X93533333Y-84239866D01*
X93533333Y-84239866D02*
X93466666Y-84439866D01*
X93466666Y-84439866D02*
X93333333Y-84573200D01*
X93333333Y-84573200D02*
X93133333Y-84639866D01*
X93133333Y-84639866D02*
X93000000Y-84639866D01*
X94933333Y-84639866D02*
X94133333Y-84639866D01*
X94533333Y-84639866D02*
X94533333Y-83239866D01*
X94533333Y-83239866D02*
X94400000Y-83439866D01*
X94400000Y-83439866D02*
X94266667Y-83573200D01*
X94266667Y-83573200D02*
X94133333Y-83639866D01*
X190595238Y-74957533D02*
X191204762Y-74957533D01*
X190900000Y-75262295D02*
X190900000Y-74652771D01*
D11*
%TO.C,PS1*%
X114700000Y-87950000D02*
X114700000Y-126050000D01*
X89300000Y-87950000D02*
X114700000Y-87950000D01*
X89300000Y-126050000D02*
X89300000Y-87950000D01*
X114700000Y-126050000D02*
X89300000Y-126050000D01*
D12*
X112200000Y-87000000D02*
G75*
G02*
X112000000Y-87000000I-100000J0D01*
G01*
X112000000Y-87000000D02*
G75*
G02*
X112200000Y-87000000I100000J0D01*
G01*
D13*
%TO.C,D3*%
X183580000Y-111740000D02*
X183580000Y-110720000D01*
X182110000Y-110720000D02*
X185050000Y-110720000D01*
X185050000Y-110720000D02*
X185050000Y-105280000D01*
X182110000Y-109940000D02*
X185050000Y-109940000D01*
X182110000Y-109820000D02*
X185050000Y-109820000D01*
X182110000Y-109700000D02*
X185050000Y-109700000D01*
X182110000Y-105280000D02*
X182110000Y-110720000D01*
X185050000Y-105280000D02*
X182110000Y-105280000D01*
X183580000Y-104260000D02*
X183580000Y-105280000D01*
D11*
%TO.C,J3*%
X195380000Y-126600000D02*
X195380000Y-116000000D01*
X210620000Y-116000000D02*
X210620000Y-126600000D01*
X195380000Y-116000000D02*
X210620000Y-116000000D01*
X210620000Y-126600000D02*
X195380000Y-126600000D01*
D12*
X198020000Y-115000000D02*
G75*
G02*
X197820000Y-115000000I-100000J0D01*
G01*
X197820000Y-115000000D02*
G75*
G02*
X198020000Y-115000000I100000J0D01*
G01*
D11*
%TO.C,R7*%
X154700000Y-93400000D02*
X156000000Y-93400000D01*
X156000000Y-93400000D02*
X157300000Y-93400000D01*
X157300000Y-93400000D02*
X157300000Y-86600000D01*
X157300000Y-86600000D02*
X156000000Y-86600000D01*
X156000000Y-86600000D02*
X154700000Y-86600000D01*
X154700000Y-86600000D02*
X154700000Y-93400000D01*
X156000000Y-94580000D02*
X156000000Y-93400000D01*
X156000000Y-85420000D02*
X156000000Y-86600000D01*
D13*
%TO.C,Q3*%
X168340000Y-72730000D02*
X168340000Y-77371000D01*
X168340000Y-72730000D02*
X178580000Y-72730000D01*
X168340000Y-74240000D02*
X178580000Y-74240000D01*
X168340000Y-77371000D02*
X178580000Y-77371000D01*
X171610000Y-72730000D02*
X171610000Y-74240000D01*
X175311000Y-72730000D02*
X175311000Y-74240000D01*
X178580000Y-72730000D02*
X178580000Y-77371000D01*
%TO.C,U2*%
X156360000Y-118395000D02*
X156360000Y-123595000D01*
X156360000Y-123595000D02*
X161660000Y-123595000D01*
X158010000Y-118395000D02*
X156360000Y-118395000D01*
X161660000Y-118395000D02*
X160010000Y-118395000D01*
X161660000Y-123595000D02*
X161660000Y-118395000D01*
X160010000Y-118395000D02*
G75*
G02*
X158010000Y-118395000I-1000000J0D01*
G01*
D11*
%TO.C,R12*%
X175300000Y-86600000D02*
X174000000Y-86600000D01*
X174000000Y-86600000D02*
X172700000Y-86600000D01*
X172700000Y-86600000D02*
X172700000Y-93400000D01*
X172700000Y-93400000D02*
X174000000Y-93400000D01*
X174000000Y-93400000D02*
X175300000Y-93400000D01*
X175300000Y-93400000D02*
X175300000Y-86600000D01*
X174000000Y-85420000D02*
X174000000Y-86600000D01*
X174000000Y-94580000D02*
X174000000Y-93400000D01*
D12*
%TO.C,D1*%
X186670000Y-124500000D02*
X186670000Y-124820000D01*
X186670000Y-122500000D02*
X186670000Y-122180000D01*
D14*
X190200000Y-124270000D02*
G75*
G02*
X186669999Y-124820000I-1930711J788561D01*
G01*
X186669999Y-122180000D02*
G75*
G02*
X190200000Y-122730000I1599290J-1338561D01*
G01*
D13*
%TO.C,U3*%
X156360000Y-72395000D02*
X156360000Y-77595000D01*
X156360000Y-77595000D02*
X161660000Y-77595000D01*
X158010000Y-72395000D02*
X156360000Y-72395000D01*
X161660000Y-72395000D02*
X160010000Y-72395000D01*
X161660000Y-77595000D02*
X161660000Y-72395000D01*
X160010000Y-72395000D02*
G75*
G02*
X158010000Y-72395000I-1000000J0D01*
G01*
D11*
%TO.C,J2*%
X210540000Y-71900000D02*
X210540000Y-82500000D01*
X195300000Y-82500000D02*
X195300000Y-71900000D01*
X210540000Y-82500000D02*
X195300000Y-82500000D01*
X195300000Y-71900000D02*
X210540000Y-71900000D01*
D12*
X208100000Y-83500000D02*
G75*
G02*
X207900000Y-83500000I-100000J0D01*
G01*
X207900000Y-83500000D02*
G75*
G02*
X208100000Y-83500000I100000J0D01*
G01*
D11*
%TO.C,R10*%
X175300000Y-104600000D02*
X174000000Y-104600000D01*
X174000000Y-104600000D02*
X172700000Y-104600000D01*
X172700000Y-104600000D02*
X172700000Y-111400000D01*
X172700000Y-111400000D02*
X174000000Y-111400000D01*
X174000000Y-111400000D02*
X175300000Y-111400000D01*
X175300000Y-111400000D02*
X175300000Y-104600000D01*
X174000000Y-103420000D02*
X174000000Y-104600000D01*
X174000000Y-112580000D02*
X174000000Y-111400000D01*
%TO.C,R11*%
X164300000Y-86600000D02*
X163000000Y-86600000D01*
X163000000Y-86600000D02*
X161700000Y-86600000D01*
X161700000Y-86600000D02*
X161700000Y-93400000D01*
X161700000Y-93400000D02*
X163000000Y-93400000D01*
X163000000Y-93400000D02*
X164300000Y-93400000D01*
X164300000Y-93400000D02*
X164300000Y-86600000D01*
X163000000Y-85420000D02*
X163000000Y-86600000D01*
X163000000Y-94580000D02*
X163000000Y-93400000D01*
%TO.C,K2*%
X190270000Y-87000000D02*
X210510000Y-87000000D01*
X210510000Y-87000000D02*
X210510000Y-97000000D01*
X210510000Y-97000000D02*
X190270000Y-97000000D01*
X190270000Y-97000000D02*
X190270000Y-87000000D01*
D12*
X191570000Y-97700000D02*
G75*
G02*
X191370000Y-97700000I-100000J0D01*
G01*
X191370000Y-97700000D02*
G75*
G02*
X191570000Y-97700000I100000J0D01*
G01*
D13*
%TO.C,D4*%
X183520000Y-93740000D02*
X183520000Y-92720000D01*
X182050000Y-92720000D02*
X184990000Y-92720000D01*
X184990000Y-92720000D02*
X184990000Y-87280000D01*
X182050000Y-91940000D02*
X184990000Y-91940000D01*
X182050000Y-91820000D02*
X184990000Y-91820000D01*
X182050000Y-91700000D02*
X184990000Y-91700000D01*
X182050000Y-87280000D02*
X182050000Y-92720000D01*
X184990000Y-87280000D02*
X182050000Y-87280000D01*
X183520000Y-86260000D02*
X183520000Y-87280000D01*
%TO.C,Q4*%
X168880000Y-118730000D02*
X168880000Y-123371000D01*
X168880000Y-118730000D02*
X179120000Y-118730000D01*
X168880000Y-120240000D02*
X179120000Y-120240000D01*
X168880000Y-123371000D02*
X179120000Y-123371000D01*
X172150000Y-118730000D02*
X172150000Y-120240000D01*
X175851000Y-118730000D02*
X175851000Y-120240000D01*
X179120000Y-118730000D02*
X179120000Y-123371000D01*
D11*
%TO.C,R9*%
X161700000Y-111400000D02*
X163000000Y-111400000D01*
X163000000Y-111400000D02*
X164300000Y-111400000D01*
X164300000Y-111400000D02*
X164300000Y-104600000D01*
X164300000Y-104600000D02*
X163000000Y-104600000D01*
X163000000Y-104600000D02*
X161700000Y-104600000D01*
X161700000Y-104600000D02*
X161700000Y-111400000D01*
X163000000Y-112580000D02*
X163000000Y-111400000D01*
X163000000Y-103420000D02*
X163000000Y-104600000D01*
%TO.C,R8*%
X157240000Y-104600000D02*
X155940000Y-104600000D01*
X155940000Y-104600000D02*
X154640000Y-104600000D01*
X154640000Y-104600000D02*
X154640000Y-111400000D01*
X154640000Y-111400000D02*
X155940000Y-111400000D01*
X155940000Y-111400000D02*
X157240000Y-111400000D01*
X157240000Y-111400000D02*
X157240000Y-104600000D01*
X155940000Y-103420000D02*
X155940000Y-104600000D01*
X155940000Y-112580000D02*
X155940000Y-111400000D01*
%TO.C,K1*%
X190480000Y-101190000D02*
X210720000Y-101190000D01*
X210720000Y-101190000D02*
X210720000Y-111190000D01*
X210720000Y-111190000D02*
X190480000Y-111190000D01*
X190480000Y-111190000D02*
X190480000Y-101190000D01*
D12*
X191780000Y-111890000D02*
G75*
G02*
X191580000Y-111890000I-100000J0D01*
G01*
X191580000Y-111890000D02*
G75*
G02*
X191780000Y-111890000I100000J0D01*
G01*
%TO.C,U1*%
X120440000Y-77480000D02*
G75*
G02*
X120240000Y-77480000I-100000J0D01*
G01*
X120240000Y-77480000D02*
G75*
G02*
X120440000Y-77480000I100000J0D01*
G01*
D11*
X120960000Y-76350000D02*
X120960000Y-124550000D01*
X148860000Y-124550000D02*
X148860000Y-76350000D01*
X148860000Y-76350000D02*
X143910000Y-76350000D01*
X125910000Y-76350000D02*
X120960000Y-76350000D01*
X125910000Y-76350000D02*
X125910000Y-70150000D01*
X125910000Y-70150000D02*
X143910000Y-70150000D01*
X143910000Y-70150000D02*
X143910000Y-76350000D01*
X120960000Y-124550000D02*
X130840000Y-124550000D01*
X130840000Y-124550000D02*
X130840000Y-125450000D01*
X130840000Y-125450000D02*
X138970000Y-125450000D01*
X138970000Y-125450000D02*
X138970000Y-124550000D01*
X138970000Y-124550000D02*
X148860000Y-124550000D01*
%TO.C,J1*%
X99480000Y-74750000D02*
X99480000Y-85350000D01*
X89320000Y-85350000D02*
X89320000Y-74750000D01*
X99480000Y-85350000D02*
X89320000Y-85350000D01*
X89320000Y-74750000D02*
X99480000Y-74750000D01*
D12*
X97040000Y-86350000D02*
G75*
G02*
X96840000Y-86350000I-100000J0D01*
G01*
X96840000Y-86350000D02*
G75*
G02*
X97040000Y-86350000I100000J0D01*
G01*
%TO.C,D2*%
X186400000Y-76000000D02*
X186400000Y-76320000D01*
X186400000Y-74000000D02*
X186400000Y-73680000D01*
D14*
X189930000Y-75770000D02*
G75*
G02*
X186399999Y-76320000I-1930711J788561D01*
G01*
X186399999Y-73680000D02*
G75*
G02*
X189930000Y-74230000I1599290J-1338561D01*
G01*
%TD*%
%LPC*%
D15*
%TO.C,PS1*%
X112160000Y-90500000D03*
D16*
X112160000Y-123500000D03*
X91840000Y-90500000D03*
X102000000Y-123500000D03*
%TD*%
D17*
%TO.C,D3*%
X183580000Y-113080000D03*
D18*
X183580000Y-102920000D03*
%TD*%
D19*
%TO.C,J3*%
X197920000Y-121000000D03*
D20*
X203000000Y-121000000D03*
X208080000Y-121000000D03*
%TD*%
D21*
%TO.C,R7*%
X156000000Y-95500000D03*
X156000000Y-84500000D03*
%TD*%
D22*
%TO.C,Q3*%
X170920000Y-76000000D03*
D23*
X173460000Y-76000000D03*
X176000000Y-76000000D03*
%TD*%
D24*
%TO.C,U2*%
X155200000Y-119725000D03*
D25*
X155200000Y-122265000D03*
X162820000Y-122265000D03*
X162820000Y-119725000D03*
%TD*%
D21*
%TO.C,R12*%
X174000000Y-84500000D03*
X174000000Y-95500000D03*
%TD*%
D26*
%TO.C,D1*%
X189540000Y-123500000D03*
X187000000Y-123500000D03*
%TD*%
D24*
%TO.C,U3*%
X155200000Y-73725000D03*
D25*
X155200000Y-76265000D03*
X162820000Y-76265000D03*
X162820000Y-73725000D03*
%TD*%
D27*
%TO.C,J2*%
X208000000Y-77500000D03*
D20*
X202920000Y-77500000D03*
X197840000Y-77500000D03*
%TD*%
D21*
%TO.C,R10*%
X174000000Y-102500000D03*
X174000000Y-113500000D03*
%TD*%
%TO.C,R11*%
X163000000Y-84500000D03*
X163000000Y-95500000D03*
%TD*%
D28*
%TO.C,K2*%
X191590000Y-95810000D03*
D29*
X199210000Y-95810000D03*
X204290000Y-95810000D03*
X209370000Y-95810000D03*
X209370000Y-88190000D03*
X204290000Y-88190000D03*
X199210000Y-88190000D03*
X191590000Y-88190000D03*
%TD*%
D17*
%TO.C,D4*%
X183520000Y-95080000D03*
D18*
X183520000Y-84920000D03*
%TD*%
D22*
%TO.C,Q4*%
X171460000Y-122000000D03*
D23*
X174000000Y-122000000D03*
X176540000Y-122000000D03*
%TD*%
D21*
%TO.C,R9*%
X163000000Y-113500000D03*
X163000000Y-102500000D03*
%TD*%
%TO.C,R8*%
X155940000Y-102500000D03*
X155940000Y-113500000D03*
%TD*%
D28*
%TO.C,K1*%
X191800000Y-110000000D03*
D29*
X199420000Y-110000000D03*
X204500000Y-110000000D03*
X209580000Y-110000000D03*
X209580000Y-102380000D03*
X204500000Y-102380000D03*
X199420000Y-102380000D03*
X191800000Y-102380000D03*
%TD*%
D30*
%TO.C,U1*%
X122210000Y-77600000D03*
D31*
X122210000Y-80140000D03*
X122210000Y-82680000D03*
X122210000Y-85220000D03*
X122210000Y-87760000D03*
X122210000Y-90300000D03*
X122210000Y-92840000D03*
X122210000Y-95380000D03*
X122210000Y-97920000D03*
X122210000Y-100460000D03*
X122210000Y-103000000D03*
X122210000Y-105540000D03*
X122210000Y-108080000D03*
X122210000Y-110620000D03*
X122210000Y-113160000D03*
X122210000Y-115700000D03*
X122210000Y-118240000D03*
X122210000Y-120780000D03*
X122210000Y-123320000D03*
X147610000Y-123320000D03*
X147610000Y-120780000D03*
X147610000Y-118240000D03*
X147610000Y-115700000D03*
X147610000Y-113160000D03*
X147610000Y-110620000D03*
X147610000Y-108080000D03*
X147610000Y-105540000D03*
X147610000Y-103000000D03*
X147610000Y-100460000D03*
X147610000Y-97920000D03*
X147610000Y-95380000D03*
X147610000Y-92840000D03*
X147610000Y-90300000D03*
X147610000Y-87760000D03*
X147610000Y-85220000D03*
X147610000Y-82680000D03*
X147610000Y-80140000D03*
X147610000Y-77600000D03*
%TD*%
D27*
%TO.C,J1*%
X96940000Y-80350000D03*
D20*
X91860000Y-80350000D03*
%TD*%
D26*
%TO.C,D2*%
X189270000Y-75000000D03*
X186730000Y-75000000D03*
%TD*%
%LPD*%
D32*
X88000000Y-134000000D02*
G75*
G02*
X86000000Y-134000000I-1000000J0D01*
G01*
X86000000Y-134000000D02*
G75*
G02*
X88000000Y-134000000I1000000J0D01*
G01*
X88000000Y-68000000D02*
G75*
G02*
X86000000Y-68000000I-1000000J0D01*
G01*
X86000000Y-68000000D02*
G75*
G02*
X88000000Y-68000000I1000000J0D01*
G01*
X214000000Y-68000000D02*
G75*
G02*
X212000000Y-68000000I-1000000J0D01*
G01*
X212000000Y-68000000D02*
G75*
G02*
X214000000Y-68000000I1000000J0D01*
G01*
X214000000Y-134000000D02*
G75*
G02*
X212000000Y-134000000I-1000000J0D01*
G01*
X212000000Y-134000000D02*
G75*
G02*
X214000000Y-134000000I1000000J0D01*
G01*
X85000000Y-66000000D02*
X215000000Y-66000000D01*
X215000000Y-136000000D01*
X85000000Y-136000000D01*
X85000000Y-66000000D01*
M02*
