%TF.GenerationSoftware,KiCad,Pcbnew,8.0.6-8.0.6-0~ubuntu22.04.1*%
%TF.CreationDate,2024-11-04T10:12:41+07:00*%
%TF.ProjectId,projectGATE,70726f6a-6563-4744-9741-54452e6b6963,rev?*%
%TF.SameCoordinates,Original*%
%TF.FileFunction,Copper,L2,Bot*%
%TF.FilePolarity,Positive*%
%FSLAX46Y46*%
G04 Gerber Fmt 4.6, Leading zero omitted, Abs format (unit mm)*
G04 Created by KiCad (PCBNEW 8.0.6-8.0.6-0~ubuntu22.04.1) date 2024-11-04 10:12:41*
%MOMM*%
%LPD*%
G01*
G04 APERTURE LIST*
%ADD10C,0.750000*%
%TA.AperFunction,NonConductor*%
%ADD11C,0.750000*%
%TD*%
%TA.AperFunction,ComponentPad*%
%ADD12R,2.250000X2.250000*%
%TD*%
%TA.AperFunction,ComponentPad*%
%ADD13C,2.250000*%
%TD*%
%TA.AperFunction,ComponentPad*%
%ADD14R,2.200000X2.200000*%
%TD*%
%TA.AperFunction,ComponentPad*%
%ADD15O,2.200000X2.200000*%
%TD*%
%TA.AperFunction,ComponentPad*%
%ADD16R,2.400000X2.400000*%
%TD*%
%TA.AperFunction,ComponentPad*%
%ADD17C,2.400000*%
%TD*%
%TA.AperFunction,ComponentPad*%
%ADD18C,1.200000*%
%TD*%
%TA.AperFunction,ComponentPad*%
%ADD19R,1.905000X2.000000*%
%TD*%
%TA.AperFunction,ComponentPad*%
%ADD20O,1.905000X2.000000*%
%TD*%
%TA.AperFunction,ComponentPad*%
%ADD21R,1.600000X1.600000*%
%TD*%
%TA.AperFunction,ComponentPad*%
%ADD22O,1.600000X1.600000*%
%TD*%
%TA.AperFunction,ComponentPad*%
%ADD23C,1.508000*%
%TD*%
%TA.AperFunction,ComponentPad*%
%ADD24R,1.650000X1.650000*%
%TD*%
%TA.AperFunction,ComponentPad*%
%ADD25C,1.650000*%
%TD*%
%TA.AperFunction,ComponentPad*%
%ADD26R,1.530000X1.530000*%
%TD*%
%TA.AperFunction,ComponentPad*%
%ADD27C,1.530000*%
%TD*%
%TA.AperFunction,Conductor*%
%ADD28C,1.000000*%
%TD*%
%TA.AperFunction,Conductor*%
%ADD29C,1.500000*%
%TD*%
%TA.AperFunction,Profile*%
%ADD30C,0.050000*%
%TD*%
G04 APERTURE END LIST*
D10*
D11*
X143720864Y-131093857D02*
X142006579Y-131093857D01*
X142863721Y-134093857D02*
X142863721Y-131093857D01*
X139578007Y-134093857D02*
X141006579Y-134093857D01*
X141006579Y-134093857D02*
X141006579Y-131093857D01*
X138720865Y-133236714D02*
X137292294Y-133236714D01*
X139006579Y-134093857D02*
X138006579Y-131093857D01*
X138006579Y-131093857D02*
X137006579Y-134093857D01*
X135006579Y-132522428D02*
X134578007Y-132665285D01*
X134578007Y-132665285D02*
X134435150Y-132808142D01*
X134435150Y-132808142D02*
X134292293Y-133093857D01*
X134292293Y-133093857D02*
X134292293Y-133522428D01*
X134292293Y-133522428D02*
X134435150Y-133808142D01*
X134435150Y-133808142D02*
X134578007Y-133951000D01*
X134578007Y-133951000D02*
X134863722Y-134093857D01*
X134863722Y-134093857D02*
X136006579Y-134093857D01*
X136006579Y-134093857D02*
X136006579Y-131093857D01*
X136006579Y-131093857D02*
X135006579Y-131093857D01*
X135006579Y-131093857D02*
X134720865Y-131236714D01*
X134720865Y-131236714D02*
X134578007Y-131379571D01*
X134578007Y-131379571D02*
X134435150Y-131665285D01*
X134435150Y-131665285D02*
X134435150Y-131951000D01*
X134435150Y-131951000D02*
X134578007Y-132236714D01*
X134578007Y-132236714D02*
X134720865Y-132379571D01*
X134720865Y-132379571D02*
X135006579Y-132522428D01*
X135006579Y-132522428D02*
X136006579Y-132522428D01*
X130720865Y-132951000D02*
X128435151Y-132951000D01*
X123863722Y-131093857D02*
X123863722Y-133236714D01*
X123863722Y-133236714D02*
X124006579Y-133665285D01*
X124006579Y-133665285D02*
X124292293Y-133951000D01*
X124292293Y-133951000D02*
X124720865Y-134093857D01*
X124720865Y-134093857D02*
X125006579Y-134093857D01*
X122435151Y-131093857D02*
X122435151Y-133522428D01*
X122435151Y-133522428D02*
X122292294Y-133808142D01*
X122292294Y-133808142D02*
X122149437Y-133951000D01*
X122149437Y-133951000D02*
X121863722Y-134093857D01*
X121863722Y-134093857D02*
X121292294Y-134093857D01*
X121292294Y-134093857D02*
X121006579Y-133951000D01*
X121006579Y-133951000D02*
X120863722Y-133808142D01*
X120863722Y-133808142D02*
X120720865Y-133522428D01*
X120720865Y-133522428D02*
X120720865Y-131093857D01*
X117578008Y-134093857D02*
X118578008Y-132665285D01*
X119292294Y-134093857D02*
X119292294Y-131093857D01*
X119292294Y-131093857D02*
X118149437Y-131093857D01*
X118149437Y-131093857D02*
X117863722Y-131236714D01*
X117863722Y-131236714D02*
X117720865Y-131379571D01*
X117720865Y-131379571D02*
X117578008Y-131665285D01*
X117578008Y-131665285D02*
X117578008Y-132093857D01*
X117578008Y-132093857D02*
X117720865Y-132379571D01*
X117720865Y-132379571D02*
X117863722Y-132522428D01*
X117863722Y-132522428D02*
X118149437Y-132665285D01*
X118149437Y-132665285D02*
X119292294Y-132665285D01*
X116292294Y-131093857D02*
X116292294Y-133522428D01*
X116292294Y-133522428D02*
X116149437Y-133808142D01*
X116149437Y-133808142D02*
X116006580Y-133951000D01*
X116006580Y-133951000D02*
X115720865Y-134093857D01*
X115720865Y-134093857D02*
X115149437Y-134093857D01*
X115149437Y-134093857D02*
X114863722Y-133951000D01*
X114863722Y-133951000D02*
X114720865Y-133808142D01*
X114720865Y-133808142D02*
X114578008Y-133522428D01*
X114578008Y-133522428D02*
X114578008Y-131093857D01*
X110863723Y-132951000D02*
X108578009Y-132951000D01*
X105292294Y-131093857D02*
X103578009Y-131093857D01*
X104435151Y-134093857D02*
X104435151Y-131093857D01*
X102578009Y-132522428D02*
X101578009Y-132522428D01*
X101149437Y-134093857D02*
X102578009Y-134093857D01*
X102578009Y-134093857D02*
X102578009Y-131093857D01*
X102578009Y-131093857D02*
X101149437Y-131093857D01*
X97578009Y-131093857D02*
X97578009Y-133522428D01*
X97578009Y-133522428D02*
X97435152Y-133808142D01*
X97435152Y-133808142D02*
X97292295Y-133951000D01*
X97292295Y-133951000D02*
X97006580Y-134093857D01*
X97006580Y-134093857D02*
X96435152Y-134093857D01*
X96435152Y-134093857D02*
X96149437Y-133951000D01*
X96149437Y-133951000D02*
X96006580Y-133808142D01*
X96006580Y-133808142D02*
X95863723Y-133522428D01*
X95863723Y-133522428D02*
X95863723Y-131093857D01*
X94435152Y-134093857D02*
X94435152Y-131093857D01*
X94435152Y-131093857D02*
X93435152Y-133236714D01*
X93435152Y-133236714D02*
X92435152Y-131093857D01*
X92435152Y-131093857D02*
X92435152Y-134093857D01*
X90435152Y-132665285D02*
X90435152Y-134093857D01*
X91435152Y-131093857D02*
X90435152Y-132665285D01*
X90435152Y-132665285D02*
X89435152Y-131093857D01*
D12*
%TO.P,PS1,1,AC(N)*%
%TO.N,Net-(PS1-AC(N))*%
X112160000Y-90500000D03*
D13*
%TO.P,PS1,4,+VO*%
%TO.N,5V*%
X112160000Y-123500000D03*
%TO.P,PS1,2,AC(L)*%
%TO.N,Net-(PS1-AC(L))*%
X91840000Y-90500000D03*
%TO.P,PS1,3,-VO*%
%TO.N,GND*%
X102000000Y-123500000D03*
%TD*%
D14*
%TO.P,D3,1,K*%
%TO.N,5V*%
X183580000Y-113080000D03*
D15*
%TO.P,D3,2,A*%
%TO.N,Net-(D3-A)*%
X183580000Y-102920000D03*
%TD*%
D16*
%TO.P,J3,1,1*%
%TO.N,Net-(J3-Pad1)*%
X197920000Y-121000000D03*
D17*
%TO.P,J3,2,2*%
%TO.N,Net-(J3-Pad2)*%
X203000000Y-121000000D03*
%TO.P,J3,3,3*%
%TO.N,Net-(J3-Pad3)*%
X208080000Y-121000000D03*
%TD*%
D18*
%TO.P,R7,1*%
%TO.N,Net-(U1-IO23)*%
X156000000Y-95500000D03*
%TO.P,R7,2*%
%TO.N,Net-(R7-Pad2)*%
X156000000Y-84500000D03*
%TD*%
D19*
%TO.P,Q3,1,B*%
%TO.N,Net-(Q3-B)*%
X170920000Y-76000000D03*
D20*
%TO.P,Q3,2,C*%
%TO.N,Net-(D4-A)*%
X173460000Y-76000000D03*
%TO.P,Q3,3,E*%
%TO.N,GND*%
X176000000Y-76000000D03*
%TD*%
D21*
%TO.P,U2,1*%
%TO.N,Net-(R8-Pad2)*%
X155200000Y-119725000D03*
D22*
%TO.P,U2,2*%
%TO.N,GND*%
X155200000Y-122265000D03*
%TO.P,U2,3*%
%TO.N,Net-(R9-Pad1)*%
X162820000Y-122265000D03*
%TO.P,U2,4*%
%TO.N,5V*%
X162820000Y-119725000D03*
%TD*%
D18*
%TO.P,R12,1*%
%TO.N,Net-(D2-Pad2)*%
X174000000Y-84500000D03*
%TO.P,R12,2*%
%TO.N,Net-(D4-A)*%
X174000000Y-95500000D03*
%TD*%
D23*
%TO.P,D1,1*%
%TO.N,5V*%
X189540000Y-123500000D03*
%TO.P,D1,2*%
%TO.N,Net-(D1-Pad2)*%
X187000000Y-123500000D03*
%TD*%
D21*
%TO.P,U3,1*%
%TO.N,Net-(R7-Pad2)*%
X155200000Y-73725000D03*
D22*
%TO.P,U3,2*%
%TO.N,GND*%
X155200000Y-76265000D03*
%TO.P,U3,3*%
%TO.N,Net-(R11-Pad1)*%
X162820000Y-76265000D03*
%TO.P,U3,4*%
%TO.N,5V*%
X162820000Y-73725000D03*
%TD*%
D16*
%TO.P,J2,1,1*%
%TO.N,Net-(J2-Pad1)*%
X208000000Y-77500000D03*
D17*
%TO.P,J2,2,2*%
%TO.N,Net-(J2-Pad2)*%
X202920000Y-77500000D03*
%TO.P,J2,3,3*%
%TO.N,Net-(J2-Pad3)*%
X197840000Y-77500000D03*
%TD*%
D18*
%TO.P,R10,1*%
%TO.N,Net-(D1-Pad2)*%
X174000000Y-102500000D03*
%TO.P,R10,2*%
%TO.N,Net-(D3-A)*%
X174000000Y-113500000D03*
%TD*%
%TO.P,R11,1*%
%TO.N,Net-(R11-Pad1)*%
X163000000Y-84500000D03*
%TO.P,R11,2*%
%TO.N,Net-(Q3-B)*%
X163000000Y-95500000D03*
%TD*%
D24*
%TO.P,K2,1*%
%TO.N,5V*%
X191590000Y-95810000D03*
D25*
%TO.P,K2,4*%
%TO.N,Net-(J2-Pad2)*%
X199210000Y-95810000D03*
%TO.P,K2,6*%
%TO.N,Net-(J2-Pad1)*%
X204290000Y-95810000D03*
%TO.P,K2,8*%
%TO.N,Net-(J2-Pad3)*%
X209370000Y-95810000D03*
%TO.P,K2,9*%
%TO.N,unconnected-(K2-Pad9)*%
X209370000Y-88190000D03*
%TO.P,K2,11*%
%TO.N,unconnected-(K2-Pad11)*%
X204290000Y-88190000D03*
%TO.P,K2,13*%
%TO.N,unconnected-(K2-Pad13)*%
X199210000Y-88190000D03*
%TO.P,K2,16*%
%TO.N,Net-(D4-A)*%
X191590000Y-88190000D03*
%TD*%
D14*
%TO.P,D4,1,K*%
%TO.N,5V*%
X183520000Y-95080000D03*
D15*
%TO.P,D4,2,A*%
%TO.N,Net-(D4-A)*%
X183520000Y-84920000D03*
%TD*%
D19*
%TO.P,Q4,1,B*%
%TO.N,Net-(Q4-B)*%
X171460000Y-122000000D03*
D20*
%TO.P,Q4,2,C*%
%TO.N,Net-(D3-A)*%
X174000000Y-122000000D03*
%TO.P,Q4,3,E*%
%TO.N,GND*%
X176540000Y-122000000D03*
%TD*%
D18*
%TO.P,R9,1*%
%TO.N,Net-(R9-Pad1)*%
X163000000Y-113500000D03*
%TO.P,R9,2*%
%TO.N,Net-(Q4-B)*%
X163000000Y-102500000D03*
%TD*%
%TO.P,R8,1*%
%TO.N,Net-(U1-IO22)*%
X155940000Y-102500000D03*
%TO.P,R8,2*%
%TO.N,Net-(R8-Pad2)*%
X155940000Y-113500000D03*
%TD*%
D24*
%TO.P,K1,1*%
%TO.N,5V*%
X191800000Y-110000000D03*
D25*
%TO.P,K1,4*%
%TO.N,Net-(J3-Pad2)*%
X199420000Y-110000000D03*
%TO.P,K1,6*%
%TO.N,Net-(J3-Pad1)*%
X204500000Y-110000000D03*
%TO.P,K1,8*%
%TO.N,Net-(J3-Pad3)*%
X209580000Y-110000000D03*
%TO.P,K1,9*%
%TO.N,unconnected-(K1-Pad9)*%
X209580000Y-102380000D03*
%TO.P,K1,11*%
%TO.N,unconnected-(K1-Pad11)*%
X204500000Y-102380000D03*
%TO.P,K1,13*%
%TO.N,unconnected-(K1-Pad13)*%
X199420000Y-102380000D03*
%TO.P,K1,16*%
%TO.N,Net-(D3-A)*%
X191800000Y-102380000D03*
%TD*%
D26*
%TO.P,U1,1,3V3*%
%TO.N,unconnected-(U1-3V3-Pad1)*%
X122210000Y-77600000D03*
D27*
%TO.P,U1,2,EN*%
%TO.N,unconnected-(U1-EN-Pad2)*%
X122210000Y-80140000D03*
%TO.P,U1,3,SENSOR_VP*%
%TO.N,unconnected-(U1-SENSOR_VP-Pad3)*%
X122210000Y-82680000D03*
%TO.P,U1,4,SENSOR_VN*%
%TO.N,unconnected-(U1-SENSOR_VN-Pad4)*%
X122210000Y-85220000D03*
%TO.P,U1,5,IO34*%
%TO.N,unconnected-(U1-IO34-Pad5)*%
X122210000Y-87760000D03*
%TO.P,U1,6,IO35*%
%TO.N,unconnected-(U1-IO35-Pad6)*%
X122210000Y-90300000D03*
%TO.P,U1,7,IO32*%
%TO.N,unconnected-(U1-IO32-Pad7)*%
X122210000Y-92840000D03*
%TO.P,U1,8,IO33*%
%TO.N,unconnected-(U1-IO33-Pad8)*%
X122210000Y-95380000D03*
%TO.P,U1,9,IO25*%
%TO.N,unconnected-(U1-IO25-Pad9)*%
X122210000Y-97920000D03*
%TO.P,U1,10,IO26*%
%TO.N,unconnected-(U1-IO26-Pad10)*%
X122210000Y-100460000D03*
%TO.P,U1,11,IO27*%
%TO.N,unconnected-(U1-IO27-Pad11)*%
X122210000Y-103000000D03*
%TO.P,U1,12,IO14*%
%TO.N,unconnected-(U1-IO14-Pad12)*%
X122210000Y-105540000D03*
%TO.P,U1,13,IO12*%
%TO.N,unconnected-(U1-IO12-Pad13)*%
X122210000Y-108080000D03*
%TO.P,U1,14,GND1*%
%TO.N,GND*%
X122210000Y-110620000D03*
%TO.P,U1,15,IO13*%
%TO.N,unconnected-(U1-IO13-Pad15)*%
X122210000Y-113160000D03*
%TO.P,U1,16,SD2*%
%TO.N,unconnected-(U1-SD2-Pad16)*%
X122210000Y-115700000D03*
%TO.P,U1,17,SD3*%
%TO.N,unconnected-(U1-SD3-Pad17)*%
X122210000Y-118240000D03*
%TO.P,U1,18,CMD*%
%TO.N,unconnected-(U1-CMD-Pad18)*%
X122210000Y-120780000D03*
%TO.P,U1,19,EXT_5V*%
%TO.N,5V*%
X122210000Y-123320000D03*
%TO.P,U1,20,CLK*%
%TO.N,unconnected-(U1-CLK-Pad20)*%
X147610000Y-123320000D03*
%TO.P,U1,21,SD0*%
%TO.N,unconnected-(U1-SD0-Pad21)*%
X147610000Y-120780000D03*
%TO.P,U1,22,SD1*%
%TO.N,unconnected-(U1-SD1-Pad22)*%
X147610000Y-118240000D03*
%TO.P,U1,23,IO15*%
%TO.N,unconnected-(U1-IO15-Pad23)*%
X147610000Y-115700000D03*
%TO.P,U1,24,IO2*%
%TO.N,unconnected-(U1-IO2-Pad24)*%
X147610000Y-113160000D03*
%TO.P,U1,25,IO0*%
%TO.N,unconnected-(U1-IO0-Pad25)*%
X147610000Y-110620000D03*
%TO.P,U1,26,IO4*%
%TO.N,unconnected-(U1-IO4-Pad26)*%
X147610000Y-108080000D03*
%TO.P,U1,27,IO16*%
%TO.N,unconnected-(U1-IO16-Pad27)*%
X147610000Y-105540000D03*
%TO.P,U1,28,IO17*%
%TO.N,unconnected-(U1-IO17-Pad28)*%
X147610000Y-103000000D03*
%TO.P,U1,29,IO5*%
%TO.N,unconnected-(U1-IO5-Pad29)*%
X147610000Y-100460000D03*
%TO.P,U1,30,IO18*%
%TO.N,unconnected-(U1-IO18-Pad30)*%
X147610000Y-97920000D03*
%TO.P,U1,31,IO19*%
%TO.N,unconnected-(U1-IO19-Pad31)*%
X147610000Y-95380000D03*
%TO.P,U1,32,GND2*%
%TO.N,GND*%
X147610000Y-92840000D03*
%TO.P,U1,33,IO21*%
%TO.N,unconnected-(U1-IO21-Pad33)*%
X147610000Y-90300000D03*
%TO.P,U1,34,RXD0*%
%TO.N,unconnected-(U1-RXD0-Pad34)*%
X147610000Y-87760000D03*
%TO.P,U1,35,TXD0*%
%TO.N,unconnected-(U1-TXD0-Pad35)*%
X147610000Y-85220000D03*
%TO.P,U1,36,IO22*%
%TO.N,Net-(U1-IO22)*%
X147610000Y-82680000D03*
%TO.P,U1,37,IO23*%
%TO.N,Net-(U1-IO23)*%
X147610000Y-80140000D03*
%TO.P,U1,38,GND3*%
%TO.N,unconnected-(U1-GND3-Pad38)*%
X147610000Y-77600000D03*
%TD*%
D16*
%TO.P,J1,1,1*%
%TO.N,Net-(PS1-AC(L))*%
X96940000Y-80350000D03*
D17*
%TO.P,J1,2,2*%
%TO.N,Net-(PS1-AC(N))*%
X91860000Y-80350000D03*
%TD*%
D23*
%TO.P,D2,1*%
%TO.N,5V*%
X189270000Y-75000000D03*
%TO.P,D2,2*%
%TO.N,Net-(D2-Pad2)*%
X186730000Y-75000000D03*
%TD*%
D28*
%TO.N,5V*%
X99000000Y-127000000D02*
X108500000Y-127000000D01*
X108660000Y-127000000D02*
X108500000Y-127000000D01*
X108500000Y-127000000D02*
X118530000Y-127000000D01*
X112160000Y-123500000D02*
X108660000Y-127000000D01*
X162820000Y-73725000D02*
X162820000Y-72820000D01*
X162820000Y-72820000D02*
X160000000Y-70000000D01*
X160000000Y-70000000D02*
X124000000Y-70000000D01*
X124000000Y-70000000D02*
X119000000Y-75000000D01*
X119000000Y-75000000D02*
X119000000Y-101000000D01*
X119000000Y-101000000D02*
X97000000Y-123000000D01*
X97000000Y-123000000D02*
X97000000Y-125000000D01*
X97000000Y-125000000D02*
X99000000Y-127000000D01*
X118530000Y-127000000D02*
X122210000Y-123320000D01*
%TO.N,GND*%
X122210000Y-110620000D02*
X114880000Y-110620000D01*
X114880000Y-110620000D02*
X102000000Y-123500000D01*
%TO.N,Net-(J2-Pad3)*%
X197840000Y-77500000D02*
X196500000Y-78840000D01*
X196500000Y-78840000D02*
X196500000Y-97500000D01*
X196500000Y-97500000D02*
X198000000Y-99000000D01*
X198000000Y-99000000D02*
X206180000Y-99000000D01*
X206180000Y-99000000D02*
X209370000Y-95810000D01*
D29*
%TO.N,Net-(PS1-AC(N))*%
X91860000Y-80350000D02*
X91860000Y-75640000D01*
X91860000Y-75640000D02*
X93000000Y-74500000D01*
X93000000Y-74500000D02*
X108500000Y-74500000D01*
X108500000Y-74500000D02*
X112160000Y-78160000D01*
X112160000Y-78160000D02*
X112160000Y-90500000D01*
D28*
%TO.N,Net-(D2-Pad2)*%
X186730000Y-75000000D02*
X183500000Y-75000000D01*
X183500000Y-75000000D02*
X174000000Y-84500000D01*
%TO.N,5V*%
X162820000Y-73725000D02*
X166545000Y-70000000D01*
X166545000Y-70000000D02*
X187000000Y-70000000D01*
X187000000Y-70000000D02*
X189270000Y-72270000D01*
X189270000Y-72270000D02*
X189270000Y-75000000D01*
X191590000Y-95810000D02*
X194000000Y-93400000D01*
X194000000Y-93400000D02*
X194000000Y-78000000D01*
X194000000Y-78000000D02*
X191000000Y-75000000D01*
X191000000Y-75000000D02*
X189270000Y-75000000D01*
X189540000Y-113900000D02*
X189540000Y-123500000D01*
%TO.N,Net-(D1-Pad2)*%
X174000000Y-102500000D02*
X175500000Y-102500000D01*
X180000000Y-107000000D02*
X180000000Y-116000000D01*
X175500000Y-102500000D02*
X180000000Y-107000000D01*
X180000000Y-116000000D02*
X187000000Y-123000000D01*
X187000000Y-123000000D02*
X187000000Y-123500000D01*
D29*
%TO.N,Net-(PS1-AC(L))*%
X96940000Y-80350000D02*
X96940000Y-85400000D01*
X96940000Y-85400000D02*
X91840000Y-90500000D01*
D28*
%TO.N,GND*%
X176000000Y-76000000D02*
X176000000Y-74000000D01*
X176000000Y-74000000D02*
X175000000Y-73000000D01*
X175000000Y-73000000D02*
X169000000Y-73000000D01*
X169000000Y-73000000D02*
X166000000Y-76000000D01*
X166000000Y-76000000D02*
X166000000Y-88000000D01*
X166000000Y-88000000D02*
X159000000Y-95000000D01*
X159000000Y-95000000D02*
X159000000Y-107000000D01*
X159000000Y-107000000D02*
X161000000Y-109000000D01*
%TO.N,5V*%
X128000000Y-129000000D02*
X162000000Y-129000000D01*
X165000000Y-120773630D02*
X165000000Y-126000000D01*
X162000000Y-129000000D02*
X189000000Y-129000000D01*
X162820000Y-119725000D02*
X163951370Y-119725000D01*
X163951370Y-119725000D02*
X165000000Y-120773630D01*
X165000000Y-126000000D02*
X162000000Y-129000000D01*
%TO.N,GND*%
X122210000Y-110620000D02*
X124620000Y-110620000D01*
X124620000Y-110620000D02*
X141000000Y-127000000D01*
X141000000Y-127000000D02*
X150465000Y-127000000D01*
X150465000Y-127000000D02*
X155200000Y-122265000D01*
%TO.N,5V*%
X122210000Y-123320000D02*
X126440000Y-127550000D01*
X126440000Y-127550000D02*
X126550000Y-127550000D01*
X126550000Y-127550000D02*
X128000000Y-129000000D01*
X189000000Y-129000000D02*
X192000000Y-126000000D01*
X192000000Y-126000000D02*
X192000000Y-116360000D01*
X192000000Y-116360000D02*
X189540000Y-113900000D01*
%TO.N,GND*%
X155200000Y-122265000D02*
X156660000Y-122265000D01*
X167000000Y-124000000D02*
X168000000Y-125000000D01*
X156660000Y-122265000D02*
X158000000Y-120925000D01*
X158000000Y-120925000D02*
X158000000Y-112000000D01*
X167000000Y-111000000D02*
X167000000Y-124000000D01*
X158000000Y-112000000D02*
X161000000Y-109000000D01*
X161000000Y-109000000D02*
X165000000Y-109000000D01*
X168000000Y-125000000D02*
X175540000Y-125000000D01*
X165000000Y-109000000D02*
X167000000Y-111000000D01*
X175540000Y-125000000D02*
X176540000Y-124000000D01*
X176540000Y-124000000D02*
X176540000Y-122000000D01*
%TO.N,Net-(R9-Pad1)*%
X161688630Y-122265000D02*
X160820000Y-121396370D01*
X160820000Y-115680000D02*
X163000000Y-113500000D01*
X160820000Y-121396370D02*
X160820000Y-115680000D01*
%TO.N,Net-(Q4-B)*%
X163000000Y-102500000D02*
X167500000Y-102500000D01*
X167500000Y-102500000D02*
X169000000Y-104000000D01*
X169000000Y-113000000D02*
X171460000Y-115460000D01*
X169000000Y-104000000D02*
X169000000Y-113000000D01*
X171460000Y-115460000D02*
X171460000Y-122000000D01*
%TO.N,Net-(R11-Pad1)*%
X162820000Y-76265000D02*
X162820000Y-84320000D01*
X162820000Y-84320000D02*
X163000000Y-84500000D01*
%TO.N,Net-(Q3-B)*%
X163000000Y-95500000D02*
X165000000Y-95500000D01*
X165000000Y-95500000D02*
X169000000Y-91500000D01*
%TO.N,Net-(D3-A)*%
X174000000Y-113500000D02*
X171000000Y-110500000D01*
X171000000Y-101000000D02*
X172000000Y-100000000D01*
X171000000Y-110500000D02*
X171000000Y-101000000D01*
X172000000Y-100000000D02*
X180660000Y-100000000D01*
X180660000Y-100000000D02*
X183580000Y-102920000D01*
X174000000Y-113500000D02*
X174000000Y-122000000D01*
%TO.N,Net-(R8-Pad2)*%
X155940000Y-113500000D02*
X155940000Y-118985000D01*
X155940000Y-118985000D02*
X155200000Y-119725000D01*
%TO.N,Net-(R9-Pad1)*%
X162820000Y-122265000D02*
X161688630Y-122265000D01*
%TO.N,GND*%
X140228930Y-92840000D02*
X140228930Y-76771070D01*
X140228930Y-76771070D02*
X144000000Y-73000000D01*
X144000000Y-73000000D02*
X149000000Y-73000000D01*
X152265000Y-76265000D02*
X155200000Y-76265000D01*
X149000000Y-73000000D02*
X152265000Y-76265000D01*
X147610000Y-92840000D02*
X140228930Y-92840000D01*
X140228930Y-92840000D02*
X122448930Y-110620000D01*
X122448930Y-110620000D02*
X122210000Y-110620000D01*
%TO.N,Net-(Q3-B)*%
X169000000Y-91500000D02*
X169000000Y-77920000D01*
X169000000Y-77920000D02*
X170920000Y-76000000D01*
%TO.N,Net-(U1-IO22)*%
X147610000Y-82680000D02*
X148691873Y-82680000D01*
X148691873Y-82680000D02*
X151300000Y-85288127D01*
X151300000Y-85288127D02*
X151300000Y-97860000D01*
X151300000Y-97860000D02*
X155940000Y-102500000D01*
%TO.N,Net-(U1-IO23)*%
X153000000Y-84448127D02*
X153000000Y-91000000D01*
X148691873Y-80140000D02*
X153000000Y-84448127D01*
X147610000Y-80140000D02*
X148691873Y-80140000D01*
X153000000Y-91000000D02*
X156000000Y-94000000D01*
X156000000Y-94000000D02*
X156000000Y-95500000D01*
%TO.N,Net-(R7-Pad2)*%
X155200000Y-73725000D02*
X157000000Y-73725000D01*
X157000000Y-73725000D02*
X158000000Y-74725000D01*
X158000000Y-74725000D02*
X158000000Y-83000000D01*
X158000000Y-83000000D02*
X156500000Y-84500000D01*
X156500000Y-84500000D02*
X156000000Y-84500000D01*
%TO.N,5V*%
X189540000Y-113900000D02*
X188720000Y-113080000D01*
X183580000Y-113080000D02*
X188720000Y-113080000D01*
X188720000Y-113080000D02*
X191800000Y-110000000D01*
%TO.N,Net-(D3-A)*%
X183580000Y-102920000D02*
X191260000Y-102920000D01*
X191260000Y-102920000D02*
X191800000Y-102380000D01*
%TO.N,5V*%
X191590000Y-95810000D02*
X195000000Y-99220000D01*
X195000000Y-99220000D02*
X195000000Y-106000000D01*
X195000000Y-106000000D02*
X191800000Y-109200000D01*
X191800000Y-109200000D02*
X191800000Y-110000000D01*
%TO.N,Net-(J3-Pad1)*%
X204500000Y-110000000D02*
X201500000Y-107000000D01*
X201500000Y-107000000D02*
X198000000Y-107000000D01*
X198000000Y-107000000D02*
X196000000Y-109000000D01*
X196000000Y-109000000D02*
X196000000Y-119080000D01*
X196000000Y-119080000D02*
X197920000Y-121000000D01*
%TO.N,Net-(J3-Pad2)*%
X199420000Y-113420000D02*
X203000000Y-117000000D01*
X203000000Y-117000000D02*
X203000000Y-121000000D01*
X199420000Y-110000000D02*
X199420000Y-113420000D01*
%TO.N,Net-(J3-Pad3)*%
X209580000Y-110000000D02*
X209580000Y-119500000D01*
X209580000Y-119500000D02*
X208080000Y-121000000D01*
%TO.N,Net-(J2-Pad1)*%
X207000000Y-78500000D02*
X207000000Y-93000000D01*
X208000000Y-77500000D02*
X207000000Y-78500000D01*
X207000000Y-93000000D02*
X206000000Y-94000000D01*
X206000000Y-94000000D02*
X206000000Y-94100000D01*
X206000000Y-94100000D02*
X204290000Y-95810000D01*
%TO.N,Net-(J2-Pad2)*%
X202000000Y-78420000D02*
X202000000Y-93000000D01*
X202920000Y-77500000D02*
X202000000Y-78420000D01*
X202000000Y-93000000D02*
X201000000Y-94000000D01*
X201000000Y-94000000D02*
X201000000Y-94020000D01*
X201000000Y-94020000D02*
X199210000Y-95810000D01*
%TO.N,Net-(D4-A)*%
X183520000Y-84920000D02*
X174000000Y-94440000D01*
X174000000Y-94440000D02*
X174000000Y-95500000D01*
X173460000Y-76000000D02*
X173460000Y-81540000D01*
X171000000Y-87000000D02*
X172000000Y-88000000D01*
X173460000Y-81540000D02*
X171000000Y-84000000D01*
X172000000Y-88000000D02*
X177000000Y-88000000D01*
X171000000Y-84000000D02*
X171000000Y-87000000D01*
X177000000Y-88000000D02*
X180080000Y-84920000D01*
X180080000Y-84920000D02*
X183520000Y-84920000D01*
%TO.N,5V*%
X183520000Y-95080000D02*
X190860000Y-95080000D01*
X190860000Y-95080000D02*
X191590000Y-95810000D01*
%TO.N,Net-(D4-A)*%
X183520000Y-84920000D02*
X188320000Y-84920000D01*
X188320000Y-84920000D02*
X191590000Y-88190000D01*
%TD*%
%TA.AperFunction,Conductor*%
%TO.N,GND*%
G36*
X159394150Y-71520185D02*
G01*
X159414792Y-71536819D01*
X161041766Y-73163793D01*
X161075251Y-73225116D01*
X161074976Y-73279066D01*
X161034616Y-73455896D01*
X161034616Y-73455898D01*
X161014451Y-73724995D01*
X161014451Y-73725004D01*
X161034616Y-73994101D01*
X161094664Y-74257188D01*
X161094666Y-74257195D01*
X161193256Y-74508396D01*
X161193258Y-74508400D01*
X161209057Y-74535765D01*
X161328185Y-74742102D01*
X161439672Y-74881902D01*
X161468210Y-74917687D01*
X161494618Y-74982374D01*
X161481862Y-75051069D01*
X161468210Y-75072313D01*
X161328185Y-75247898D01*
X161193258Y-75481599D01*
X161193256Y-75481603D01*
X161094666Y-75732804D01*
X161094664Y-75732811D01*
X161034616Y-75995898D01*
X161014451Y-76264995D01*
X161014451Y-76265004D01*
X161034616Y-76534101D01*
X161094664Y-76797188D01*
X161094666Y-76797195D01*
X161193256Y-77048396D01*
X161193258Y-77048400D01*
X161225255Y-77103820D01*
X161300827Y-77234717D01*
X161302887Y-77238284D01*
X161319500Y-77300284D01*
X161319500Y-84438097D01*
X161356447Y-84671369D01*
X161356447Y-84671372D01*
X161429430Y-84895988D01*
X161429430Y-84895989D01*
X161459944Y-84955876D01*
X161470031Y-84983217D01*
X161473127Y-84996110D01*
X161473128Y-84996114D01*
X161569531Y-85228855D01*
X161569533Y-85228858D01*
X161701160Y-85443653D01*
X161701161Y-85443656D01*
X161735509Y-85483872D01*
X161864776Y-85635224D01*
X162013066Y-85761875D01*
X162056343Y-85798838D01*
X162056346Y-85798839D01*
X162271140Y-85930466D01*
X162503879Y-86026869D01*
X162503889Y-86026873D01*
X162748852Y-86085683D01*
X163000000Y-86105449D01*
X163251148Y-86085683D01*
X163496111Y-86026873D01*
X163728859Y-85930466D01*
X163943659Y-85798836D01*
X164135224Y-85635224D01*
X164298836Y-85443659D01*
X164430466Y-85228859D01*
X164526873Y-84996111D01*
X164585683Y-84751148D01*
X164605449Y-84500000D01*
X164585683Y-84248852D01*
X164526873Y-84003889D01*
X164472299Y-83872135D01*
X164430466Y-83771140D01*
X164338773Y-83621511D01*
X164320500Y-83556721D01*
X164320500Y-77300284D01*
X164337113Y-77238284D01*
X164446743Y-77048398D01*
X164545334Y-76797195D01*
X164605383Y-76534103D01*
X164618049Y-76365081D01*
X164625549Y-76265004D01*
X164625549Y-76264995D01*
X164607144Y-76019394D01*
X164605383Y-75995897D01*
X164545334Y-75732805D01*
X164446743Y-75481602D01*
X164311815Y-75247898D01*
X164171787Y-75072310D01*
X164145381Y-75007627D01*
X164158136Y-74938931D01*
X164171784Y-74917693D01*
X164311815Y-74742102D01*
X164446743Y-74508398D01*
X164545334Y-74257195D01*
X164577459Y-74116446D01*
X164610667Y-74056359D01*
X167130209Y-71536819D01*
X167191532Y-71503334D01*
X167217890Y-71500500D01*
X186327111Y-71500500D01*
X186394150Y-71520185D01*
X186414792Y-71536819D01*
X187733181Y-72855208D01*
X187766666Y-72916531D01*
X187769500Y-72942889D01*
X187769500Y-73355903D01*
X187749815Y-73422942D01*
X187697011Y-73468697D01*
X187627853Y-73478641D01*
X187591699Y-73467623D01*
X187372790Y-73362203D01*
X187372792Y-73362203D01*
X187121509Y-73284692D01*
X187121503Y-73284690D01*
X186861489Y-73245500D01*
X186861482Y-73245500D01*
X186598518Y-73245500D01*
X186598510Y-73245500D01*
X186338496Y-73284690D01*
X186338490Y-73284692D01*
X186087211Y-73362202D01*
X185850293Y-73476296D01*
X185850287Y-73476299D01*
X185847858Y-73477956D01*
X185846860Y-73478278D01*
X185846276Y-73478616D01*
X185846203Y-73478490D01*
X185781378Y-73499454D01*
X185778010Y-73499500D01*
X183381903Y-73499500D01*
X183148631Y-73536446D01*
X182924003Y-73609433D01*
X182713566Y-73716657D01*
X182522487Y-73855485D01*
X175172181Y-81205792D01*
X175110858Y-81239277D01*
X175041166Y-81234293D01*
X174985233Y-81192421D01*
X174960816Y-81126957D01*
X174960500Y-81118111D01*
X174960500Y-77342255D01*
X174980185Y-77275216D01*
X174986117Y-77266778D01*
X174987816Y-77264562D01*
X174991657Y-77259556D01*
X175048080Y-77218350D01*
X175117825Y-77214188D01*
X175162925Y-77234717D01*
X175238723Y-77289788D01*
X175442429Y-77393582D01*
X175659871Y-77464234D01*
X175750000Y-77478509D01*
X175750000Y-76490747D01*
X175787708Y-76512518D01*
X175927591Y-76550000D01*
X176072409Y-76550000D01*
X176212292Y-76512518D01*
X176250000Y-76490747D01*
X176250000Y-77478508D01*
X176340128Y-77464234D01*
X176557570Y-77393582D01*
X176761276Y-77289788D01*
X176946242Y-77155402D01*
X177107902Y-76993742D01*
X177242288Y-76808776D01*
X177346082Y-76605070D01*
X177416734Y-76387628D01*
X177438532Y-76250000D01*
X176490748Y-76250000D01*
X176512518Y-76212292D01*
X176550000Y-76072409D01*
X176550000Y-75927591D01*
X176512518Y-75787708D01*
X176490748Y-75750000D01*
X177438532Y-75750000D01*
X177416734Y-75612371D01*
X177346082Y-75394929D01*
X177242288Y-75191223D01*
X177107902Y-75006257D01*
X176946242Y-74844597D01*
X176761276Y-74710211D01*
X176557568Y-74606417D01*
X176340124Y-74535765D01*
X176250000Y-74521490D01*
X176250000Y-75509252D01*
X176212292Y-75487482D01*
X176072409Y-75450000D01*
X175927591Y-75450000D01*
X175787708Y-75487482D01*
X175750000Y-75509252D01*
X175750000Y-74521490D01*
X175749999Y-74521490D01*
X175659875Y-74535765D01*
X175442431Y-74606417D01*
X175238727Y-74710209D01*
X175162924Y-74765283D01*
X175097117Y-74788762D01*
X175029063Y-74772936D01*
X174991666Y-74740453D01*
X174931493Y-74662035D01*
X174931487Y-74662029D01*
X174931484Y-74662025D01*
X174750470Y-74481011D01*
X174547352Y-74325152D01*
X174325646Y-74197151D01*
X174325631Y-74197144D01*
X174089116Y-74099177D01*
X173965628Y-74066089D01*
X173841829Y-74032917D01*
X173785423Y-74025491D01*
X173588013Y-73999500D01*
X173588006Y-73999500D01*
X173331994Y-73999500D01*
X173331986Y-73999500D01*
X173106373Y-74029204D01*
X173078171Y-74032917D01*
X173011911Y-74050671D01*
X172830883Y-74099177D01*
X172594368Y-74197144D01*
X172590722Y-74198943D01*
X172590043Y-74197567D01*
X172528319Y-74212517D01*
X172462301Y-74189640D01*
X172455906Y-74184762D01*
X172425912Y-74160305D01*
X172425908Y-74160303D01*
X172425907Y-74160302D01*
X172245549Y-74066091D01*
X172245548Y-74066090D01*
X172245545Y-74066089D01*
X172128329Y-74032550D01*
X172049918Y-74010114D01*
X172049915Y-74010113D01*
X172049913Y-74010113D01*
X171983602Y-74004217D01*
X171930537Y-73999500D01*
X171930532Y-73999500D01*
X169909471Y-73999500D01*
X169909465Y-73999500D01*
X169909464Y-73999501D01*
X169897816Y-74000536D01*
X169790084Y-74010113D01*
X169594454Y-74066089D01*
X169564724Y-74081619D01*
X169414093Y-74160302D01*
X169414091Y-74160303D01*
X169414090Y-74160304D01*
X169256390Y-74288890D01*
X169127804Y-74446590D01*
X169033589Y-74626954D01*
X168977614Y-74822583D01*
X168977613Y-74822586D01*
X168967000Y-74941966D01*
X168967000Y-75779610D01*
X168947315Y-75846649D01*
X168930681Y-75867291D01*
X167855484Y-76942488D01*
X167716655Y-77133567D01*
X167614920Y-77333238D01*
X167614918Y-77333242D01*
X167609432Y-77344006D01*
X167536446Y-77568631D01*
X167499500Y-77801902D01*
X167499500Y-90827111D01*
X167479815Y-90894150D01*
X167463181Y-90914792D01*
X164414792Y-93963181D01*
X164353469Y-93996666D01*
X164327111Y-93999500D01*
X163584446Y-93999500D01*
X163536994Y-93990061D01*
X163496118Y-93973130D01*
X163496119Y-93973130D01*
X163496111Y-93973127D01*
X163496106Y-93973125D01*
X163496101Y-93973124D01*
X163251151Y-93914317D01*
X163000000Y-93894551D01*
X162748848Y-93914317D01*
X162503889Y-93973126D01*
X162271140Y-94069533D01*
X162056346Y-94201160D01*
X162056343Y-94201161D01*
X161864776Y-94364776D01*
X161701161Y-94556343D01*
X161701160Y-94556346D01*
X161569533Y-94771140D01*
X161473126Y-95003889D01*
X161414317Y-95248848D01*
X161394551Y-95500000D01*
X161414317Y-95751151D01*
X161473126Y-95996110D01*
X161569533Y-96228859D01*
X161701160Y-96443653D01*
X161701161Y-96443656D01*
X161701164Y-96443659D01*
X161864776Y-96635224D01*
X161979736Y-96733409D01*
X162056343Y-96798838D01*
X162056346Y-96798839D01*
X162271140Y-96930466D01*
X162464612Y-97010604D01*
X162503889Y-97026873D01*
X162748852Y-97085683D01*
X163000000Y-97105449D01*
X163251148Y-97085683D01*
X163496111Y-97026873D01*
X163535388Y-97010604D01*
X163536994Y-97009939D01*
X163584446Y-97000500D01*
X165118097Y-97000500D01*
X165351368Y-96963553D01*
X165395646Y-96949166D01*
X165575992Y-96890568D01*
X165786434Y-96783343D01*
X165977510Y-96644517D01*
X170144517Y-92477510D01*
X170283343Y-92286434D01*
X170390568Y-92075992D01*
X170396732Y-92057022D01*
X170415894Y-91998049D01*
X170463552Y-91851372D01*
X170463552Y-91851371D01*
X170463553Y-91851368D01*
X170482588Y-91731184D01*
X170500500Y-91618097D01*
X170500500Y-88921889D01*
X170520185Y-88854850D01*
X170572989Y-88809095D01*
X170642147Y-88799151D01*
X170705703Y-88828176D01*
X170712175Y-88834202D01*
X171022490Y-89144518D01*
X171195890Y-89270500D01*
X171204728Y-89276921D01*
X171213565Y-89283342D01*
X171424003Y-89390566D01*
X171424005Y-89390566D01*
X171424008Y-89390568D01*
X171544412Y-89429689D01*
X171648631Y-89463553D01*
X171881903Y-89500500D01*
X171881908Y-89500500D01*
X171881909Y-89500500D01*
X172118092Y-89500500D01*
X176518111Y-89500500D01*
X176585150Y-89520185D01*
X176630905Y-89572989D01*
X176640849Y-89642147D01*
X176611824Y-89705703D01*
X176605792Y-89712181D01*
X172855485Y-93462487D01*
X172855484Y-93462488D01*
X172716659Y-93653562D01*
X172716658Y-93653564D01*
X172676727Y-93731934D01*
X172609433Y-93864003D01*
X172536446Y-94088631D01*
X172499500Y-94321902D01*
X172499500Y-94915553D01*
X172490061Y-94963006D01*
X172473126Y-95003889D01*
X172414317Y-95248848D01*
X172394551Y-95500000D01*
X172414317Y-95751151D01*
X172473126Y-95996110D01*
X172569533Y-96228859D01*
X172701160Y-96443653D01*
X172701161Y-96443656D01*
X172701164Y-96443659D01*
X172864776Y-96635224D01*
X172979736Y-96733409D01*
X173056343Y-96798838D01*
X173056346Y-96798839D01*
X173271140Y-96930466D01*
X173464612Y-97010604D01*
X173503889Y-97026873D01*
X173748852Y-97085683D01*
X174000000Y-97105449D01*
X174251148Y-97085683D01*
X174496111Y-97026873D01*
X174728859Y-96930466D01*
X174943659Y-96798836D01*
X175135224Y-96635224D01*
X175298836Y-96443659D01*
X175430466Y-96228859D01*
X175526873Y-95996111D01*
X175585683Y-95751148D01*
X175605449Y-95500000D01*
X175585683Y-95248852D01*
X175549136Y-95096624D01*
X175552627Y-95026842D01*
X175582027Y-94979998D01*
X183505208Y-87056819D01*
X183566531Y-87023334D01*
X183592889Y-87020500D01*
X183663679Y-87020500D01*
X183694370Y-87016281D01*
X183948358Y-86981371D01*
X184225058Y-86903844D01*
X184347629Y-86850604D01*
X184488617Y-86789365D01*
X184488620Y-86789363D01*
X184488625Y-86789361D01*
X184734147Y-86640055D01*
X184957053Y-86458708D01*
X184957064Y-86458696D01*
X184960148Y-86455817D01*
X184961096Y-86456833D01*
X185016126Y-86424302D01*
X185046598Y-86420500D01*
X187647111Y-86420500D01*
X187714150Y-86440185D01*
X187734792Y-86456819D01*
X189766105Y-88488132D01*
X189799315Y-88548221D01*
X189840706Y-88729570D01*
X189840708Y-88729579D01*
X189840710Y-88729584D01*
X189940669Y-88984276D01*
X190077472Y-89221224D01*
X190191839Y-89364636D01*
X190248064Y-89435141D01*
X190396630Y-89572989D01*
X190448628Y-89621236D01*
X190674691Y-89775363D01*
X190674696Y-89775365D01*
X190674697Y-89775366D01*
X190674698Y-89775367D01*
X190745382Y-89809406D01*
X190921196Y-89894073D01*
X190921197Y-89894073D01*
X190921200Y-89894075D01*
X191182649Y-89974722D01*
X191182650Y-89974722D01*
X191182653Y-89974723D01*
X191453190Y-90015499D01*
X191453195Y-90015499D01*
X191453198Y-90015500D01*
X191453199Y-90015500D01*
X191726801Y-90015500D01*
X191726802Y-90015500D01*
X191726809Y-90015499D01*
X191997346Y-89974723D01*
X191997347Y-89974722D01*
X191997351Y-89974722D01*
X192258800Y-89894075D01*
X192321700Y-89863783D01*
X192390639Y-89852432D01*
X192454774Y-89880154D01*
X192493740Y-89938149D01*
X192499500Y-89975504D01*
X192499500Y-92727110D01*
X192479815Y-92794149D01*
X192463181Y-92814791D01*
X191600753Y-93677218D01*
X191539430Y-93710703D01*
X191469738Y-93705719D01*
X191456778Y-93700022D01*
X191435999Y-93689434D01*
X191211368Y-93616446D01*
X190978097Y-93579500D01*
X190978092Y-93579500D01*
X185614696Y-93579500D01*
X185547657Y-93559815D01*
X185504788Y-93512912D01*
X185459699Y-93426595D01*
X185459698Y-93426593D01*
X185365379Y-93310920D01*
X185331109Y-93268890D01*
X185215933Y-93174977D01*
X185173407Y-93140302D01*
X184993049Y-93046091D01*
X184993048Y-93046090D01*
X184993045Y-93046089D01*
X184875829Y-93012550D01*
X184797418Y-92990114D01*
X184797415Y-92990113D01*
X184797413Y-92990113D01*
X184731102Y-92984217D01*
X184678037Y-92979500D01*
X184678032Y-92979500D01*
X182361971Y-92979500D01*
X182361965Y-92979500D01*
X182361964Y-92979501D01*
X182350316Y-92980536D01*
X182242584Y-92990113D01*
X182046954Y-93046089D01*
X182019368Y-93060499D01*
X181866593Y-93140302D01*
X181866591Y-93140303D01*
X181866590Y-93140304D01*
X181708890Y-93268890D01*
X181580304Y-93426590D01*
X181486089Y-93606954D01*
X181430114Y-93802583D01*
X181430113Y-93802586D01*
X181419500Y-93921966D01*
X181419500Y-96238028D01*
X181419501Y-96238034D01*
X181430113Y-96357415D01*
X181486089Y-96553045D01*
X181486090Y-96553048D01*
X181486091Y-96553049D01*
X181580302Y-96733407D01*
X181580304Y-96733409D01*
X181708890Y-96891109D01*
X181780092Y-96949166D01*
X181866593Y-97019698D01*
X182046951Y-97113909D01*
X182242582Y-97169886D01*
X182361963Y-97180500D01*
X184678036Y-97180499D01*
X184797418Y-97169886D01*
X184993049Y-97113909D01*
X185173407Y-97019698D01*
X185331109Y-96891109D01*
X185459698Y-96733407D01*
X185501705Y-96652989D01*
X185504788Y-96647088D01*
X185553275Y-96596781D01*
X185614696Y-96580500D01*
X189641031Y-96580500D01*
X189708070Y-96600185D01*
X189753825Y-96652989D01*
X189764544Y-96693520D01*
X189775113Y-96812415D01*
X189831089Y-97008045D01*
X189831090Y-97008048D01*
X189831091Y-97008049D01*
X189925302Y-97188407D01*
X189959977Y-97230933D01*
X190053890Y-97346109D01*
X190147803Y-97422684D01*
X190211593Y-97474698D01*
X190391951Y-97568909D01*
X190587582Y-97624886D01*
X190706963Y-97635500D01*
X191242110Y-97635499D01*
X191309149Y-97655183D01*
X191329791Y-97671818D01*
X193463181Y-99805208D01*
X193496666Y-99866531D01*
X193499500Y-99892889D01*
X193499500Y-101228859D01*
X193479815Y-101295898D01*
X193427011Y-101341653D01*
X193357853Y-101351597D01*
X193294297Y-101322572D01*
X193278553Y-101306172D01*
X193141935Y-101134858D01*
X192941372Y-100948764D01*
X192922882Y-100936158D01*
X192715310Y-100794637D01*
X192715306Y-100794635D01*
X192715303Y-100794633D01*
X192715302Y-100794632D01*
X192468802Y-100675926D01*
X192468804Y-100675926D01*
X192207352Y-100595278D01*
X192207346Y-100595276D01*
X191936809Y-100554500D01*
X191936802Y-100554500D01*
X191663198Y-100554500D01*
X191663190Y-100554500D01*
X191392653Y-100595276D01*
X191392647Y-100595278D01*
X191131196Y-100675926D01*
X190884698Y-100794632D01*
X190884697Y-100794633D01*
X190658627Y-100948764D01*
X190458064Y-101134858D01*
X190287474Y-101348773D01*
X190287472Y-101348776D01*
X190282432Y-101357504D01*
X190231865Y-101405717D01*
X190175048Y-101419500D01*
X185106598Y-101419500D01*
X185039559Y-101399815D01*
X185020443Y-101383866D01*
X185020148Y-101384183D01*
X185017056Y-101381296D01*
X185017053Y-101381292D01*
X184987812Y-101357503D01*
X184794146Y-101199944D01*
X184548617Y-101050634D01*
X184285063Y-100936158D01*
X184285061Y-100936157D01*
X184285058Y-100936156D01*
X184155578Y-100899877D01*
X184008364Y-100858630D01*
X184008359Y-100858629D01*
X184008358Y-100858629D01*
X183866018Y-100839064D01*
X183723679Y-100819500D01*
X183723678Y-100819500D01*
X183652890Y-100819500D01*
X183585851Y-100799815D01*
X183565209Y-100783181D01*
X181637512Y-98855485D01*
X181637511Y-98855484D01*
X181637508Y-98855482D01*
X181446434Y-98716657D01*
X181390525Y-98688170D01*
X181235996Y-98609433D01*
X181011368Y-98536446D01*
X180778097Y-98499500D01*
X180778092Y-98499500D01*
X171881908Y-98499500D01*
X171881903Y-98499500D01*
X171648631Y-98536446D01*
X171424003Y-98609433D01*
X171213563Y-98716659D01*
X171022496Y-98855476D01*
X171022491Y-98855480D01*
X169855485Y-100022487D01*
X169855484Y-100022488D01*
X169716657Y-100213565D01*
X169609433Y-100424003D01*
X169536446Y-100648631D01*
X169499500Y-100881902D01*
X169499500Y-102078111D01*
X169479815Y-102145150D01*
X169427011Y-102190905D01*
X169357853Y-102200849D01*
X169294297Y-102171824D01*
X169287819Y-102165792D01*
X168477511Y-101355484D01*
X168468278Y-101348776D01*
X168286434Y-101216657D01*
X168256027Y-101201164D01*
X168075996Y-101109433D01*
X167851368Y-101036446D01*
X167618097Y-100999500D01*
X167618092Y-100999500D01*
X163584446Y-100999500D01*
X163536994Y-100990061D01*
X163496118Y-100973130D01*
X163496119Y-100973130D01*
X163496111Y-100973127D01*
X163496106Y-100973125D01*
X163496101Y-100973124D01*
X163251151Y-100914317D01*
X163000000Y-100894551D01*
X162748848Y-100914317D01*
X162503889Y-100973126D01*
X162271140Y-101069533D01*
X162056346Y-101201160D01*
X162056343Y-101201161D01*
X161864776Y-101364776D01*
X161701161Y-101556343D01*
X161701160Y-101556346D01*
X161569533Y-101771140D01*
X161473126Y-102003889D01*
X161414317Y-102248848D01*
X161394551Y-102500000D01*
X161414317Y-102751151D01*
X161473126Y-102996110D01*
X161569533Y-103228859D01*
X161701160Y-103443653D01*
X161701161Y-103443656D01*
X161730313Y-103477788D01*
X161864776Y-103635224D01*
X162009457Y-103758793D01*
X162056343Y-103798838D01*
X162056346Y-103798839D01*
X162271140Y-103930466D01*
X162472654Y-104013935D01*
X162503889Y-104026873D01*
X162748852Y-104085683D01*
X163000000Y-104105449D01*
X163251148Y-104085683D01*
X163496111Y-104026873D01*
X163528066Y-104013636D01*
X163536994Y-104009939D01*
X163584446Y-104000500D01*
X166827111Y-104000500D01*
X166894150Y-104020185D01*
X166914792Y-104036819D01*
X167463181Y-104585208D01*
X167496666Y-104646531D01*
X167499500Y-104672889D01*
X167499500Y-113118097D01*
X167536446Y-113351368D01*
X167609433Y-113575996D01*
X167716657Y-113786434D01*
X167855484Y-113977511D01*
X169923181Y-116045208D01*
X169956666Y-116106531D01*
X169959500Y-116132889D01*
X169959500Y-120097005D01*
X169939815Y-120164044D01*
X169913861Y-120193107D01*
X169796390Y-120288890D01*
X169667804Y-120446590D01*
X169667802Y-120446593D01*
X169631480Y-120516128D01*
X169573589Y-120626954D01*
X169517614Y-120822583D01*
X169517613Y-120822586D01*
X169507000Y-120941966D01*
X169507000Y-123058028D01*
X169507001Y-123058034D01*
X169517613Y-123177415D01*
X169573589Y-123373045D01*
X169573590Y-123373048D01*
X169573591Y-123373049D01*
X169667802Y-123553407D01*
X169692643Y-123583872D01*
X169796390Y-123711109D01*
X169863096Y-123765500D01*
X169954093Y-123839698D01*
X170134451Y-123933909D01*
X170330082Y-123989886D01*
X170449463Y-124000500D01*
X172470536Y-124000499D01*
X172589918Y-123989886D01*
X172785549Y-123933909D01*
X172965907Y-123839698D01*
X172995904Y-123815238D01*
X173060296Y-123788128D01*
X173129126Y-123800135D01*
X173132378Y-123801874D01*
X173134365Y-123802854D01*
X173260881Y-123855258D01*
X173370882Y-123900822D01*
X173618171Y-123967083D01*
X173860581Y-123998997D01*
X173871978Y-124000498D01*
X173871994Y-124000500D01*
X173872001Y-124000500D01*
X174127999Y-124000500D01*
X174128006Y-124000500D01*
X174381829Y-123967083D01*
X174629118Y-123900822D01*
X174865643Y-123802850D01*
X175087357Y-123674844D01*
X175290465Y-123518993D01*
X175471493Y-123337965D01*
X175531664Y-123259547D01*
X175588090Y-123218346D01*
X175657836Y-123214191D01*
X175702925Y-123234717D01*
X175778723Y-123289788D01*
X175982429Y-123393582D01*
X176199871Y-123464234D01*
X176290000Y-123478509D01*
X176290000Y-122490747D01*
X176327708Y-122512518D01*
X176467591Y-122550000D01*
X176612409Y-122550000D01*
X176752292Y-122512518D01*
X176790000Y-122490747D01*
X176790000Y-123478508D01*
X176880128Y-123464234D01*
X177097570Y-123393582D01*
X177301276Y-123289788D01*
X177486242Y-123155402D01*
X177647902Y-122993742D01*
X177782288Y-122808776D01*
X177886082Y-122605070D01*
X177956734Y-122387628D01*
X177978532Y-122250000D01*
X177030748Y-122250000D01*
X177052518Y-122212292D01*
X177090000Y-122072409D01*
X177090000Y-121927591D01*
X177052518Y-121787708D01*
X177030748Y-121750000D01*
X177978532Y-121750000D01*
X177956734Y-121612371D01*
X177886082Y-121394929D01*
X177782288Y-121191223D01*
X177647902Y-121006257D01*
X177486242Y-120844597D01*
X177301276Y-120710211D01*
X177097568Y-120606417D01*
X176880124Y-120535765D01*
X176790000Y-120521490D01*
X176790000Y-121509252D01*
X176752292Y-121487482D01*
X176612409Y-121450000D01*
X176467591Y-121450000D01*
X176327708Y-121487482D01*
X176290000Y-121509252D01*
X176290000Y-120521490D01*
X176289999Y-120521490D01*
X176199875Y-120535765D01*
X175982431Y-120606417D01*
X175778725Y-120710210D01*
X175778723Y-120710211D01*
X175702924Y-120765282D01*
X175637118Y-120788761D01*
X175569064Y-120772935D01*
X175531664Y-120740449D01*
X175526124Y-120733229D01*
X175500930Y-120668059D01*
X175500500Y-120657743D01*
X175500500Y-114084445D01*
X175509938Y-114036994D01*
X175526873Y-113996111D01*
X175585683Y-113751148D01*
X175605449Y-113500000D01*
X175585683Y-113248852D01*
X175526873Y-113003889D01*
X175456831Y-112834791D01*
X175430466Y-112771140D01*
X175298839Y-112556346D01*
X175298838Y-112556343D01*
X175261875Y-112513066D01*
X175135224Y-112364776D01*
X175008571Y-112256604D01*
X174943656Y-112201161D01*
X174943653Y-112201160D01*
X174728865Y-112069537D01*
X174728857Y-112069533D01*
X174687974Y-112052599D01*
X174647746Y-112025719D01*
X172536819Y-109914791D01*
X172503334Y-109853468D01*
X172500500Y-109827110D01*
X172500500Y-103544827D01*
X172520185Y-103477788D01*
X172572989Y-103432033D01*
X172642147Y-103422089D01*
X172705703Y-103451114D01*
X172718781Y-103464286D01*
X172787570Y-103544827D01*
X172864776Y-103635224D01*
X173056343Y-103798838D01*
X173056346Y-103798839D01*
X173271140Y-103930466D01*
X173472654Y-104013935D01*
X173503889Y-104026873D01*
X173748852Y-104085683D01*
X174000000Y-104105449D01*
X174251148Y-104085683D01*
X174496111Y-104026873D01*
X174528066Y-104013636D01*
X174536994Y-104009939D01*
X174584446Y-104000500D01*
X174827111Y-104000500D01*
X174894150Y-104020185D01*
X174914792Y-104036819D01*
X178463181Y-107585208D01*
X178496666Y-107646531D01*
X178499500Y-107672889D01*
X178499500Y-116118097D01*
X178536446Y-116351368D01*
X178609433Y-116575996D01*
X178716657Y-116786434D01*
X178855484Y-116977511D01*
X185209935Y-123331962D01*
X185243420Y-123393285D01*
X185245907Y-123428909D01*
X185240580Y-123499996D01*
X185240580Y-123500004D01*
X185260229Y-123762218D01*
X185260230Y-123762223D01*
X185318742Y-124018584D01*
X185318744Y-124018593D01*
X185318746Y-124018598D01*
X185414817Y-124263384D01*
X185546299Y-124491117D01*
X185710254Y-124696710D01*
X185903020Y-124875570D01*
X186120290Y-125023702D01*
X186357212Y-125137798D01*
X186608492Y-125215308D01*
X186608493Y-125215308D01*
X186608496Y-125215309D01*
X186868510Y-125254499D01*
X186868515Y-125254499D01*
X186868518Y-125254500D01*
X186868519Y-125254500D01*
X187131481Y-125254500D01*
X187131482Y-125254500D01*
X187131489Y-125254499D01*
X187391503Y-125215309D01*
X187391504Y-125215308D01*
X187391508Y-125215308D01*
X187642788Y-125137798D01*
X187879710Y-125023702D01*
X188096980Y-124875570D01*
X188185660Y-124793286D01*
X188248191Y-124762119D01*
X188317647Y-124769706D01*
X188354338Y-124793285D01*
X188443020Y-124875570D01*
X188660290Y-125023702D01*
X188897212Y-125137798D01*
X189148492Y-125215308D01*
X189148493Y-125215308D01*
X189148496Y-125215309D01*
X189408510Y-125254499D01*
X189408515Y-125254499D01*
X189408518Y-125254500D01*
X189408519Y-125254500D01*
X189671481Y-125254500D01*
X189671482Y-125254500D01*
X189671489Y-125254499D01*
X189931503Y-125215309D01*
X189931504Y-125215308D01*
X189931508Y-125215308D01*
X190182788Y-125137798D01*
X190321698Y-125070901D01*
X190390640Y-125059550D01*
X190454774Y-125087272D01*
X190493740Y-125145267D01*
X190499500Y-125182622D01*
X190499500Y-125327110D01*
X190479815Y-125394149D01*
X190463181Y-125414791D01*
X188414792Y-127463181D01*
X188353469Y-127496666D01*
X188327111Y-127499500D01*
X165921890Y-127499500D01*
X165854851Y-127479815D01*
X165809096Y-127427011D01*
X165799152Y-127357853D01*
X165828177Y-127294297D01*
X165834209Y-127287819D01*
X166144518Y-126977510D01*
X166283343Y-126786433D01*
X166390568Y-126575992D01*
X166463553Y-126351368D01*
X166486472Y-126206664D01*
X166500500Y-126118097D01*
X166500500Y-120655532D01*
X166463553Y-120422261D01*
X166410233Y-120258161D01*
X166390568Y-120197638D01*
X166390566Y-120197635D01*
X166390566Y-120197633D01*
X166328586Y-120075992D01*
X166283343Y-119987197D01*
X166184658Y-119851368D01*
X166144523Y-119796126D01*
X166144519Y-119796121D01*
X164928882Y-118580485D01*
X164928881Y-118580484D01*
X164889613Y-118551954D01*
X164737804Y-118441657D01*
X164721734Y-118433469D01*
X164527366Y-118334433D01*
X164302738Y-118261446D01*
X164069467Y-118224500D01*
X164069462Y-118224500D01*
X163853649Y-118224500D01*
X163786610Y-118204815D01*
X163783830Y-118202976D01*
X163722775Y-118161349D01*
X163722771Y-118161347D01*
X163722768Y-118161345D01*
X163722767Y-118161344D01*
X163479643Y-118044263D01*
X163479645Y-118044263D01*
X163221773Y-117964720D01*
X163221767Y-117964718D01*
X162954936Y-117924500D01*
X162954929Y-117924500D01*
X162685071Y-117924500D01*
X162685063Y-117924500D01*
X162462981Y-117957974D01*
X162393757Y-117948501D01*
X162340643Y-117903106D01*
X162320503Y-117836202D01*
X162320500Y-117835359D01*
X162320500Y-116352888D01*
X162340185Y-116285849D01*
X162356814Y-116265212D01*
X163647748Y-114974277D01*
X163687974Y-114947400D01*
X163728859Y-114930466D01*
X163943659Y-114798836D01*
X164135224Y-114635224D01*
X164298836Y-114443659D01*
X164430466Y-114228859D01*
X164526873Y-113996111D01*
X164585683Y-113751148D01*
X164605449Y-113500000D01*
X164585683Y-113248852D01*
X164526873Y-113003889D01*
X164456831Y-112834791D01*
X164430466Y-112771140D01*
X164298839Y-112556346D01*
X164298838Y-112556343D01*
X164261875Y-112513066D01*
X164135224Y-112364776D01*
X164008571Y-112256604D01*
X163943656Y-112201161D01*
X163943653Y-112201160D01*
X163728859Y-112069533D01*
X163496110Y-111973126D01*
X163251151Y-111914317D01*
X163000000Y-111894551D01*
X162748848Y-111914317D01*
X162503889Y-111973126D01*
X162271140Y-112069533D01*
X162056346Y-112201160D01*
X162056343Y-112201161D01*
X161864776Y-112364776D01*
X161701161Y-112556343D01*
X161701160Y-112556346D01*
X161569533Y-112771140D01*
X161552599Y-112812024D01*
X161525719Y-112852252D01*
X159675485Y-114702487D01*
X159675484Y-114702488D01*
X159536659Y-114893562D01*
X159536654Y-114893571D01*
X159533123Y-114900499D01*
X159533124Y-114900500D01*
X159429433Y-115104003D01*
X159356446Y-115328631D01*
X159319500Y-115561902D01*
X159319500Y-121514467D01*
X159356446Y-121747738D01*
X159429433Y-121972366D01*
X159535883Y-122181284D01*
X159536657Y-122182804D01*
X159675483Y-122373880D01*
X160711120Y-123409517D01*
X160902196Y-123548343D01*
X161015061Y-123605850D01*
X161039087Y-123618092D01*
X161112633Y-123655566D01*
X161112635Y-123655566D01*
X161112638Y-123655568D01*
X161233042Y-123694689D01*
X161337261Y-123728553D01*
X161570533Y-123765500D01*
X161570538Y-123765500D01*
X161786351Y-123765500D01*
X161853390Y-123785185D01*
X161856202Y-123787046D01*
X161917226Y-123828651D01*
X162160359Y-123945738D01*
X162418228Y-124025280D01*
X162418229Y-124025280D01*
X162418232Y-124025281D01*
X162685063Y-124065499D01*
X162685068Y-124065499D01*
X162685071Y-124065500D01*
X162685072Y-124065500D01*
X162954928Y-124065500D01*
X162954929Y-124065500D01*
X162954936Y-124065499D01*
X163221767Y-124025281D01*
X163221768Y-124025280D01*
X163221772Y-124025280D01*
X163338951Y-123989134D01*
X163408813Y-123988185D01*
X163468100Y-124025156D01*
X163497986Y-124088311D01*
X163499500Y-124107626D01*
X163499500Y-125327110D01*
X163479815Y-125394149D01*
X163463181Y-125414791D01*
X161414792Y-127463181D01*
X161353469Y-127496666D01*
X161327111Y-127499500D01*
X128672890Y-127499500D01*
X128605851Y-127479815D01*
X128585209Y-127463181D01*
X127527512Y-126405485D01*
X127527511Y-126405484D01*
X127453027Y-126351368D01*
X127336434Y-126266657D01*
X127236188Y-126215579D01*
X127204802Y-126192775D01*
X123954151Y-122942124D01*
X123920941Y-122882035D01*
X123901798Y-122798163D01*
X123901797Y-122798162D01*
X123901795Y-122798150D01*
X123805121Y-122551830D01*
X123672815Y-122322669D01*
X123517022Y-122127311D01*
X123490615Y-122062626D01*
X123503370Y-121993931D01*
X123517020Y-121972691D01*
X123672815Y-121777331D01*
X123805121Y-121548170D01*
X123901795Y-121301850D01*
X123960677Y-121043872D01*
X123977260Y-120822582D01*
X123980451Y-120780004D01*
X123980451Y-120779995D01*
X123965690Y-120583028D01*
X123960677Y-120516128D01*
X123901795Y-120258150D01*
X123805121Y-120011830D01*
X123672815Y-119782669D01*
X123517022Y-119587311D01*
X123490615Y-119522626D01*
X123503370Y-119453931D01*
X123517020Y-119432691D01*
X123672815Y-119237331D01*
X123805121Y-119008170D01*
X123901795Y-118761850D01*
X123960677Y-118503872D01*
X123970590Y-118371590D01*
X123980451Y-118240004D01*
X123980451Y-118239995D01*
X123960677Y-117976130D01*
X123958073Y-117964720D01*
X123901795Y-117718150D01*
X123805121Y-117471830D01*
X123672815Y-117242669D01*
X123517022Y-117047311D01*
X123490615Y-116982626D01*
X123503370Y-116913931D01*
X123517020Y-116892691D01*
X123672815Y-116697331D01*
X123805121Y-116468170D01*
X123901795Y-116221850D01*
X123960677Y-115963872D01*
X123980451Y-115700000D01*
X123960677Y-115436128D01*
X123901795Y-115178150D01*
X123805121Y-114931830D01*
X123672815Y-114702669D01*
X123517022Y-114507311D01*
X123490615Y-114442626D01*
X123503370Y-114373931D01*
X123517020Y-114352691D01*
X123672815Y-114157331D01*
X123805121Y-113928170D01*
X123901795Y-113681850D01*
X123960677Y-113423872D01*
X123973793Y-113248848D01*
X123980451Y-113160004D01*
X123980451Y-113159995D01*
X123960677Y-112896130D01*
X123957431Y-112881908D01*
X123901795Y-112638150D01*
X123805121Y-112391830D01*
X123672815Y-112162669D01*
X123507832Y-111955787D01*
X123313858Y-111775806D01*
X123289076Y-111758910D01*
X123095229Y-111626746D01*
X123095218Y-111626739D01*
X122856821Y-111511935D01*
X122729396Y-111472629D01*
X122678266Y-111441819D01*
X122347575Y-111111127D01*
X122406853Y-111095245D01*
X122523147Y-111028102D01*
X122618102Y-110933147D01*
X122685245Y-110816853D01*
X122701127Y-110757575D01*
X123263894Y-111320342D01*
X123309706Y-111254915D01*
X123403250Y-111054309D01*
X123403254Y-111054300D01*
X123460538Y-110840509D01*
X123460540Y-110840499D01*
X123479832Y-110620000D01*
X123479832Y-110619999D01*
X123460540Y-110399500D01*
X123460538Y-110399490D01*
X123403254Y-110185699D01*
X123403250Y-110185690D01*
X123309707Y-109985085D01*
X123309706Y-109985083D01*
X123263894Y-109919657D01*
X123263894Y-109919656D01*
X122701127Y-110482423D01*
X122685245Y-110423147D01*
X122618102Y-110306853D01*
X122523147Y-110211898D01*
X122406853Y-110144755D01*
X122347573Y-110128871D01*
X122678265Y-109798179D01*
X122729396Y-109767370D01*
X122789907Y-109748705D01*
X122856801Y-109728072D01*
X122856808Y-109728068D01*
X122856818Y-109728066D01*
X123047692Y-109636146D01*
X123095218Y-109613260D01*
X123095218Y-109613259D01*
X123095226Y-109613256D01*
X123313858Y-109464194D01*
X123507832Y-109284213D01*
X123672815Y-109077331D01*
X123805121Y-108848170D01*
X123901795Y-108601850D01*
X123960677Y-108343872D01*
X123969773Y-108222490D01*
X123980451Y-108080004D01*
X123980451Y-108079995D01*
X123960677Y-107816130D01*
X123960677Y-107816128D01*
X123901795Y-107558150D01*
X123805121Y-107311830D01*
X123672815Y-107082669D01*
X123517022Y-106887311D01*
X123490615Y-106822626D01*
X123503370Y-106753931D01*
X123517020Y-106732691D01*
X123672815Y-106537331D01*
X123805121Y-106308170D01*
X123901795Y-106061850D01*
X123960677Y-105803872D01*
X123980451Y-105540000D01*
X123960677Y-105276128D01*
X123901795Y-105018150D01*
X123805121Y-104771830D01*
X123672815Y-104542669D01*
X123517022Y-104347311D01*
X123490615Y-104282626D01*
X123503370Y-104213931D01*
X123517020Y-104192691D01*
X123672815Y-103997331D01*
X123805121Y-103768170D01*
X123901795Y-103521850D01*
X123960677Y-103263872D01*
X123975790Y-103062195D01*
X123980451Y-103000004D01*
X123980451Y-102999995D01*
X123961803Y-102751151D01*
X123960677Y-102736128D01*
X123901795Y-102478150D01*
X123805121Y-102231830D01*
X123672815Y-102002669D01*
X123517022Y-101807311D01*
X123490615Y-101742626D01*
X123503370Y-101673931D01*
X123517020Y-101652691D01*
X123672815Y-101457331D01*
X123805121Y-101228170D01*
X123901795Y-100981850D01*
X123960677Y-100723872D01*
X123980451Y-100460000D01*
X123977753Y-100424003D01*
X123960677Y-100196130D01*
X123948897Y-100144517D01*
X123901795Y-99938150D01*
X123805121Y-99691830D01*
X123672815Y-99462669D01*
X123517022Y-99267311D01*
X123490615Y-99202626D01*
X123503370Y-99133931D01*
X123517020Y-99112691D01*
X123672815Y-98917331D01*
X123805121Y-98688170D01*
X123901795Y-98441850D01*
X123960677Y-98183872D01*
X123969151Y-98070784D01*
X123980451Y-97920004D01*
X123980451Y-97919995D01*
X123960677Y-97656130D01*
X123956084Y-97636006D01*
X123901795Y-97398150D01*
X123805121Y-97151830D01*
X123672815Y-96922669D01*
X123517022Y-96727311D01*
X123490615Y-96662626D01*
X123503370Y-96593931D01*
X123517020Y-96572691D01*
X123672815Y-96377331D01*
X123805121Y-96148170D01*
X123901795Y-95901850D01*
X123960677Y-95643872D01*
X123970569Y-95511867D01*
X123980451Y-95380004D01*
X123980451Y-95379995D01*
X123960677Y-95116130D01*
X123956225Y-95096624D01*
X123901795Y-94858150D01*
X123805121Y-94611830D01*
X123672815Y-94382669D01*
X123517022Y-94187311D01*
X123490615Y-94122626D01*
X123503370Y-94053931D01*
X123517020Y-94032691D01*
X123672815Y-93837331D01*
X123805121Y-93608170D01*
X123901795Y-93361850D01*
X123960677Y-93103872D01*
X123974267Y-92922527D01*
X123980451Y-92840004D01*
X123980451Y-92839995D01*
X123960677Y-92576130D01*
X123960677Y-92576128D01*
X123901795Y-92318150D01*
X123805121Y-92071830D01*
X123672815Y-91842669D01*
X123517022Y-91647311D01*
X123490615Y-91582626D01*
X123503370Y-91513931D01*
X123517020Y-91492691D01*
X123672815Y-91297331D01*
X123805121Y-91068170D01*
X123901795Y-90821850D01*
X123960677Y-90563872D01*
X123971849Y-90414791D01*
X123980451Y-90300004D01*
X123980451Y-90299995D01*
X123960677Y-90036130D01*
X123958104Y-90024857D01*
X123901795Y-89778150D01*
X123805121Y-89531830D01*
X123672815Y-89302669D01*
X123517022Y-89107311D01*
X123490615Y-89042626D01*
X123503370Y-88973931D01*
X123517020Y-88952691D01*
X123672815Y-88757331D01*
X123805121Y-88528170D01*
X123901795Y-88281850D01*
X123960677Y-88023872D01*
X123980451Y-87760000D01*
X123960677Y-87496128D01*
X123901795Y-87238150D01*
X123805121Y-86991830D01*
X123672815Y-86762669D01*
X123517022Y-86567311D01*
X123490615Y-86502626D01*
X123503370Y-86433931D01*
X123517020Y-86412691D01*
X123672815Y-86217331D01*
X123805121Y-85988170D01*
X123901795Y-85741850D01*
X123960677Y-85483872D01*
X123979787Y-85228858D01*
X123980451Y-85220004D01*
X123980451Y-85219995D01*
X123960677Y-84956130D01*
X123946951Y-84895992D01*
X123901795Y-84698150D01*
X123805121Y-84451830D01*
X123672815Y-84222669D01*
X123517022Y-84027311D01*
X123490615Y-83962626D01*
X123503370Y-83893931D01*
X123517020Y-83872691D01*
X123672815Y-83677331D01*
X123805121Y-83448170D01*
X123901795Y-83201850D01*
X123960677Y-82943872D01*
X123980451Y-82680000D01*
X123971100Y-82555222D01*
X123966326Y-82491520D01*
X123960677Y-82416128D01*
X123901795Y-82158150D01*
X123805121Y-81911830D01*
X123672815Y-81682669D01*
X123517022Y-81487311D01*
X123490615Y-81422626D01*
X123503370Y-81353931D01*
X123517020Y-81332691D01*
X123672815Y-81137331D01*
X123805121Y-80908170D01*
X123901795Y-80661850D01*
X123960677Y-80403872D01*
X123980451Y-80140000D01*
X123960677Y-79876128D01*
X123901795Y-79618150D01*
X123805121Y-79371830D01*
X123805120Y-79371829D01*
X123805121Y-79371829D01*
X123755308Y-79285552D01*
X123698592Y-79187317D01*
X123682120Y-79119419D01*
X123704972Y-79053392D01*
X123709870Y-79046967D01*
X123814698Y-78918407D01*
X123908909Y-78738049D01*
X123964886Y-78542418D01*
X123975500Y-78423037D01*
X123975499Y-77599995D01*
X145839549Y-77599995D01*
X145839549Y-77600004D01*
X145859322Y-77863869D01*
X145918202Y-78121838D01*
X145918205Y-78121850D01*
X146014879Y-78368170D01*
X146147185Y-78597331D01*
X146166481Y-78621527D01*
X146302976Y-78792687D01*
X146329385Y-78857374D01*
X146316628Y-78926069D01*
X146302976Y-78947313D01*
X146147185Y-79142669D01*
X146014879Y-79371829D01*
X145918207Y-79618144D01*
X145918202Y-79618161D01*
X145859322Y-79876130D01*
X145839549Y-80139995D01*
X145839549Y-80140004D01*
X145859322Y-80403869D01*
X145918202Y-80661838D01*
X145918205Y-80661850D01*
X146014879Y-80908170D01*
X146147185Y-81137331D01*
X146191118Y-81192421D01*
X146302976Y-81332687D01*
X146329385Y-81397374D01*
X146316628Y-81466069D01*
X146302976Y-81487313D01*
X146147185Y-81682669D01*
X146014879Y-81911829D01*
X145918207Y-82158144D01*
X145918202Y-82158161D01*
X145859322Y-82416130D01*
X145839549Y-82679995D01*
X145839549Y-82680004D01*
X145859322Y-82943869D01*
X145918048Y-83201164D01*
X145918205Y-83201850D01*
X146014879Y-83448170D01*
X146147185Y-83677331D01*
X146225460Y-83775485D01*
X146302976Y-83872687D01*
X146329385Y-83937374D01*
X146316628Y-84006069D01*
X146302976Y-84027313D01*
X146147185Y-84222669D01*
X146014879Y-84451829D01*
X145918207Y-84698144D01*
X145918202Y-84698161D01*
X145859322Y-84956130D01*
X145839549Y-85219995D01*
X145839549Y-85220004D01*
X145859322Y-85483869D01*
X145918201Y-85741834D01*
X145918205Y-85741850D01*
X146014879Y-85988170D01*
X146147185Y-86217331D01*
X146234731Y-86327110D01*
X146302976Y-86412687D01*
X146329385Y-86477374D01*
X146316628Y-86546069D01*
X146302976Y-86567313D01*
X146147185Y-86762669D01*
X146014879Y-86991829D01*
X145918207Y-87238144D01*
X145918202Y-87238161D01*
X145859322Y-87496130D01*
X145839549Y-87759995D01*
X145839549Y-87760004D01*
X145859322Y-88023869D01*
X145897241Y-88190003D01*
X145918205Y-88281850D01*
X146014879Y-88528170D01*
X146147185Y-88757331D01*
X146224954Y-88854850D01*
X146302976Y-88952687D01*
X146329385Y-89017374D01*
X146316628Y-89086069D01*
X146302976Y-89107313D01*
X146147185Y-89302669D01*
X146014879Y-89531829D01*
X145918207Y-89778144D01*
X145918202Y-89778161D01*
X145859322Y-90036130D01*
X145839549Y-90299995D01*
X145839549Y-90300004D01*
X145859322Y-90563869D01*
X145859323Y-90563872D01*
X145918205Y-90821850D01*
X146014879Y-91068170D01*
X146147185Y-91297331D01*
X146312168Y-91504213D01*
X146506142Y-91684194D01*
X146724775Y-91833256D01*
X146724780Y-91833258D01*
X146724781Y-91833259D01*
X146724782Y-91833260D01*
X146938170Y-91936021D01*
X146963182Y-91948066D01*
X147090603Y-91987370D01*
X147141732Y-92018179D01*
X147472424Y-92348871D01*
X147413147Y-92364755D01*
X147296853Y-92431898D01*
X147201898Y-92526853D01*
X147134755Y-92643147D01*
X147118871Y-92702424D01*
X146556104Y-92139657D01*
X146510293Y-92205084D01*
X146416749Y-92405690D01*
X146416745Y-92405699D01*
X146359461Y-92619490D01*
X146359459Y-92619500D01*
X146340168Y-92839999D01*
X146340168Y-92840000D01*
X146359459Y-93060499D01*
X146359461Y-93060509D01*
X146416745Y-93274300D01*
X146416749Y-93274309D01*
X146510295Y-93474919D01*
X146556103Y-93540341D01*
X146556105Y-93540342D01*
X147118871Y-92977575D01*
X147134755Y-93036853D01*
X147201898Y-93153147D01*
X147296853Y-93248102D01*
X147413147Y-93315245D01*
X147472424Y-93331128D01*
X147141732Y-93661819D01*
X147090602Y-93692629D01*
X146963178Y-93731935D01*
X146724782Y-93846739D01*
X146724781Y-93846740D01*
X146506141Y-93995806D01*
X146312170Y-94175785D01*
X146312168Y-94175787D01*
X146147185Y-94382669D01*
X146014879Y-94611829D01*
X145918207Y-94858144D01*
X145918202Y-94858161D01*
X145859322Y-95116130D01*
X145839549Y-95379995D01*
X145839549Y-95380004D01*
X145859322Y-95643869D01*
X145897241Y-95810003D01*
X145918205Y-95901850D01*
X146014879Y-96148170D01*
X146147185Y-96377331D01*
X146200080Y-96443659D01*
X146302976Y-96572687D01*
X146329385Y-96637374D01*
X146316628Y-96706069D01*
X146302976Y-96727313D01*
X146147185Y-96922669D01*
X146014879Y-97151829D01*
X145918207Y-97398144D01*
X145918202Y-97398161D01*
X145859322Y-97656130D01*
X145839549Y-97919995D01*
X145839549Y-97920004D01*
X145859322Y-98183869D01*
X145900500Y-98364279D01*
X145918205Y-98441850D01*
X146014879Y-98688170D01*
X146147185Y-98917331D01*
X146258806Y-99057299D01*
X146302976Y-99112687D01*
X146329385Y-99177374D01*
X146316628Y-99246069D01*
X146302976Y-99267313D01*
X146147185Y-99462669D01*
X146014879Y-99691829D01*
X145918207Y-99938144D01*
X145918202Y-99938161D01*
X145859322Y-100196130D01*
X145839549Y-100459995D01*
X145839549Y-100460004D01*
X145859322Y-100723869D01*
X145918202Y-100981838D01*
X145918205Y-100981850D01*
X146014879Y-101228170D01*
X146147185Y-101457331D01*
X146226147Y-101556346D01*
X146302976Y-101652687D01*
X146329385Y-101717374D01*
X146316628Y-101786069D01*
X146302976Y-101807313D01*
X146147185Y-102002669D01*
X146014879Y-102231829D01*
X145918207Y-102478144D01*
X145918202Y-102478161D01*
X145859322Y-102736130D01*
X145839549Y-102999995D01*
X145839549Y-103000004D01*
X145859322Y-103263869D01*
X145910487Y-103488037D01*
X145918205Y-103521850D01*
X146014879Y-103768170D01*
X146147185Y-103997331D01*
X146233406Y-104105449D01*
X146302976Y-104192687D01*
X146329385Y-104257374D01*
X146316628Y-104326069D01*
X146302976Y-104347313D01*
X146147185Y-104542669D01*
X146014879Y-104771829D01*
X145918207Y-105018144D01*
X145918202Y-105018161D01*
X145859322Y-105276130D01*
X145839549Y-105539995D01*
X145839549Y-105540004D01*
X145859322Y-105803869D01*
X145859323Y-105803872D01*
X145918205Y-106061850D01*
X146014879Y-106308170D01*
X146147185Y-106537331D01*
X146235944Y-106648631D01*
X146302976Y-106732687D01*
X146329385Y-106797374D01*
X146316628Y-106866069D01*
X146302976Y-106887313D01*
X146147185Y-107082669D01*
X146014879Y-107311829D01*
X145918207Y-107558144D01*
X145918202Y-107558161D01*
X145859322Y-107816130D01*
X145839549Y-108079995D01*
X145839549Y-108080004D01*
X145859322Y-108343869D01*
X145910653Y-108568764D01*
X145918205Y-108601850D01*
X146014879Y-108848170D01*
X146147185Y-109077331D01*
X146178793Y-109116966D01*
X146302976Y-109272687D01*
X146329385Y-109337374D01*
X146316628Y-109406069D01*
X146302976Y-109427313D01*
X146147185Y-109622669D01*
X146014879Y-109851829D01*
X145918207Y-110098144D01*
X145918202Y-110098161D01*
X145859322Y-110356130D01*
X145839549Y-110619995D01*
X145839549Y-110620004D01*
X145859322Y-110883869D01*
X145917852Y-111140304D01*
X145918205Y-111141850D01*
X146014879Y-111388170D01*
X146147185Y-111617331D01*
X146216361Y-111704075D01*
X146302976Y-111812687D01*
X146329385Y-111877374D01*
X146316628Y-111946069D01*
X146302976Y-111967313D01*
X146147185Y-112162669D01*
X146014879Y-112391829D01*
X145918207Y-112638144D01*
X145918202Y-112638161D01*
X145859322Y-112896130D01*
X145839549Y-113159995D01*
X145839549Y-113160004D01*
X145859322Y-113423869D01*
X145894044Y-113575996D01*
X145918205Y-113681850D01*
X146014879Y-113928170D01*
X146147185Y-114157331D01*
X146204227Y-114228859D01*
X146302976Y-114352687D01*
X146329385Y-114417374D01*
X146316628Y-114486069D01*
X146302976Y-114507313D01*
X146147185Y-114702669D01*
X146014879Y-114931829D01*
X145918207Y-115178144D01*
X145918202Y-115178161D01*
X145859322Y-115436130D01*
X145839549Y-115699995D01*
X145839549Y-115700004D01*
X145859322Y-115963869D01*
X145916314Y-116213567D01*
X145918205Y-116221850D01*
X146014879Y-116468170D01*
X146147185Y-116697331D01*
X146258806Y-116837299D01*
X146302976Y-116892687D01*
X146329385Y-116957374D01*
X146316628Y-117026069D01*
X146302976Y-117047313D01*
X146147185Y-117242669D01*
X146014879Y-117471829D01*
X145918207Y-117718144D01*
X145918202Y-117718161D01*
X145859322Y-117976130D01*
X145839549Y-118239995D01*
X145839549Y-118240004D01*
X145859322Y-118503869D01*
X145914949Y-118747586D01*
X145918205Y-118761850D01*
X146014879Y-119008170D01*
X146147185Y-119237331D01*
X146250689Y-119367121D01*
X146302976Y-119432687D01*
X146329385Y-119497374D01*
X146316628Y-119566069D01*
X146302976Y-119587313D01*
X146147185Y-119782669D01*
X146014879Y-120011829D01*
X145918207Y-120258144D01*
X145918202Y-120258161D01*
X145859322Y-120516130D01*
X145839549Y-120779995D01*
X145839549Y-120780004D01*
X145859322Y-121043869D01*
X145915007Y-121287839D01*
X145918205Y-121301850D01*
X146014879Y-121548170D01*
X146147185Y-121777331D01*
X146200274Y-121843902D01*
X146302976Y-121972687D01*
X146329385Y-122037374D01*
X146316628Y-122106069D01*
X146302976Y-122127313D01*
X146147185Y-122322669D01*
X146014879Y-122551829D01*
X145918207Y-122798144D01*
X145918202Y-122798161D01*
X145859322Y-123056130D01*
X145839549Y-123319995D01*
X145839549Y-123320004D01*
X145859322Y-123583869D01*
X145917713Y-123839695D01*
X145918205Y-123841850D01*
X146014879Y-124088170D01*
X146147185Y-124317331D01*
X146312168Y-124524213D01*
X146506142Y-124704194D01*
X146724775Y-124853256D01*
X146724780Y-124853258D01*
X146724781Y-124853259D01*
X146724782Y-124853260D01*
X146851399Y-124914234D01*
X146963178Y-124968064D01*
X146963179Y-124968064D01*
X146963182Y-124968066D01*
X147216038Y-125046062D01*
X147216039Y-125046062D01*
X147216042Y-125046063D01*
X147477686Y-125085499D01*
X147477691Y-125085499D01*
X147477694Y-125085500D01*
X147477695Y-125085500D01*
X147742305Y-125085500D01*
X147742306Y-125085500D01*
X147742313Y-125085499D01*
X148003957Y-125046063D01*
X148003958Y-125046062D01*
X148003962Y-125046062D01*
X148256818Y-124968066D01*
X148495226Y-124853256D01*
X148713858Y-124704194D01*
X148907832Y-124524213D01*
X149072815Y-124317331D01*
X149205121Y-124088170D01*
X149301795Y-123841850D01*
X149360677Y-123583872D01*
X149376476Y-123373045D01*
X149380451Y-123320004D01*
X149380451Y-123319995D01*
X149360677Y-123056130D01*
X149360677Y-123056128D01*
X149301795Y-122798150D01*
X149205121Y-122551830D01*
X149072815Y-122322669D01*
X148917022Y-122127311D01*
X148890615Y-122062626D01*
X148903370Y-121993931D01*
X148917020Y-121972691D01*
X149072815Y-121777331D01*
X149205121Y-121548170D01*
X149301795Y-121301850D01*
X149360677Y-121043872D01*
X149377260Y-120822582D01*
X149380451Y-120780004D01*
X149380451Y-120779995D01*
X149365690Y-120583028D01*
X149360677Y-120516128D01*
X149301795Y-120258150D01*
X149205121Y-120011830D01*
X149072815Y-119782669D01*
X148917022Y-119587311D01*
X148890615Y-119522626D01*
X148903370Y-119453931D01*
X148917020Y-119432691D01*
X149072815Y-119237331D01*
X149205121Y-119008170D01*
X149260540Y-118866966D01*
X153399500Y-118866966D01*
X153399500Y-120583028D01*
X153399501Y-120583034D01*
X153410113Y-120702415D01*
X153466089Y-120898045D01*
X153466090Y-120898048D01*
X153466091Y-120898049D01*
X153560302Y-121078407D01*
X153560304Y-121078409D01*
X153688890Y-121236109D01*
X153752345Y-121287849D01*
X153846593Y-121364698D01*
X154013993Y-121452140D01*
X154064300Y-121500626D01*
X154080407Y-121568613D01*
X154068963Y-121614452D01*
X153973735Y-121818668D01*
X153973730Y-121818682D01*
X153921127Y-122014999D01*
X153921128Y-122015000D01*
X154884314Y-122015000D01*
X154879920Y-122019394D01*
X154827259Y-122110606D01*
X154800000Y-122212339D01*
X154800000Y-122317661D01*
X154827259Y-122419394D01*
X154879920Y-122510606D01*
X154884314Y-122515000D01*
X153921128Y-122515000D01*
X153973730Y-122711317D01*
X153973734Y-122711326D01*
X154069865Y-122917482D01*
X154200342Y-123103820D01*
X154361179Y-123264657D01*
X154547517Y-123395134D01*
X154753673Y-123491265D01*
X154753682Y-123491269D01*
X154949999Y-123543872D01*
X154950000Y-123543871D01*
X154950000Y-122580686D01*
X154954394Y-122585080D01*
X155045606Y-122637741D01*
X155147339Y-122665000D01*
X155252661Y-122665000D01*
X155354394Y-122637741D01*
X155445606Y-122585080D01*
X155450000Y-122580686D01*
X155450000Y-123543872D01*
X155646317Y-123491269D01*
X155646326Y-123491265D01*
X155852482Y-123395134D01*
X156038820Y-123264657D01*
X156199657Y-123103820D01*
X156330134Y-122917482D01*
X156426265Y-122711326D01*
X156426269Y-122711317D01*
X156478872Y-122515000D01*
X155515686Y-122515000D01*
X155520080Y-122510606D01*
X155572741Y-122419394D01*
X155600000Y-122317661D01*
X155600000Y-122212339D01*
X155572741Y-122110606D01*
X155520080Y-122019394D01*
X155515686Y-122015000D01*
X156478872Y-122015000D01*
X156478872Y-122014999D01*
X156426269Y-121818682D01*
X156426265Y-121818673D01*
X156331036Y-121614453D01*
X156320544Y-121545375D01*
X156349064Y-121481591D01*
X156386002Y-121452142D01*
X156553407Y-121364698D01*
X156711109Y-121236109D01*
X156839698Y-121078407D01*
X156933909Y-120898049D01*
X156989886Y-120702418D01*
X157000500Y-120583037D01*
X157000499Y-120097889D01*
X157020183Y-120030851D01*
X157036819Y-120010208D01*
X157084512Y-119962515D01*
X157084512Y-119962514D01*
X157084517Y-119962510D01*
X157223343Y-119771434D01*
X157330568Y-119560992D01*
X157403553Y-119336368D01*
X157404103Y-119332898D01*
X157440500Y-119103097D01*
X157440500Y-114084445D01*
X157449938Y-114036994D01*
X157466873Y-113996111D01*
X157525683Y-113751148D01*
X157545449Y-113500000D01*
X157525683Y-113248852D01*
X157466873Y-113003889D01*
X157396831Y-112834791D01*
X157370466Y-112771140D01*
X157238839Y-112556346D01*
X157238838Y-112556343D01*
X157201875Y-112513066D01*
X157075224Y-112364776D01*
X156948571Y-112256604D01*
X156883656Y-112201161D01*
X156883653Y-112201160D01*
X156668859Y-112069533D01*
X156436110Y-111973126D01*
X156191151Y-111914317D01*
X155940000Y-111894551D01*
X155688848Y-111914317D01*
X155443889Y-111973126D01*
X155211140Y-112069533D01*
X154996346Y-112201160D01*
X154996343Y-112201161D01*
X154804776Y-112364776D01*
X154641161Y-112556343D01*
X154641160Y-112556346D01*
X154509533Y-112771140D01*
X154413126Y-113003889D01*
X154354317Y-113248848D01*
X154334551Y-113500000D01*
X154354317Y-113751151D01*
X154413124Y-113996101D01*
X154413126Y-113996107D01*
X154413127Y-113996111D01*
X154430061Y-114036994D01*
X154439500Y-114084445D01*
X154439500Y-117802364D01*
X154419815Y-117869403D01*
X154367011Y-117915158D01*
X154326481Y-117925877D01*
X154222584Y-117935113D01*
X154026954Y-117991089D01*
X153936772Y-118038196D01*
X153846593Y-118085302D01*
X153846591Y-118085303D01*
X153846590Y-118085304D01*
X153688890Y-118213890D01*
X153560304Y-118371590D01*
X153466089Y-118551954D01*
X153410114Y-118747583D01*
X153410113Y-118747586D01*
X153399500Y-118866966D01*
X149260540Y-118866966D01*
X149301795Y-118761850D01*
X149360677Y-118503872D01*
X149370590Y-118371590D01*
X149380451Y-118240004D01*
X149380451Y-118239995D01*
X149360677Y-117976130D01*
X149358073Y-117964720D01*
X149301795Y-117718150D01*
X149205121Y-117471830D01*
X149072815Y-117242669D01*
X148917022Y-117047311D01*
X148890615Y-116982626D01*
X148903370Y-116913931D01*
X148917020Y-116892691D01*
X149072815Y-116697331D01*
X149205121Y-116468170D01*
X149301795Y-116221850D01*
X149360677Y-115963872D01*
X149380451Y-115700000D01*
X149360677Y-115436128D01*
X149301795Y-115178150D01*
X149205121Y-114931830D01*
X149072815Y-114702669D01*
X148917022Y-114507311D01*
X148890615Y-114442626D01*
X148903370Y-114373931D01*
X148917020Y-114352691D01*
X149072815Y-114157331D01*
X149205121Y-113928170D01*
X149301795Y-113681850D01*
X149360677Y-113423872D01*
X149373793Y-113248848D01*
X149380451Y-113160004D01*
X149380451Y-113159995D01*
X149360677Y-112896130D01*
X149357431Y-112881908D01*
X149301795Y-112638150D01*
X149205121Y-112391830D01*
X149072815Y-112162669D01*
X148917022Y-111967311D01*
X148890615Y-111902626D01*
X148903370Y-111833931D01*
X148917020Y-111812691D01*
X149072815Y-111617331D01*
X149205121Y-111388170D01*
X149301795Y-111141850D01*
X149360677Y-110883872D01*
X149374890Y-110694212D01*
X149380451Y-110620004D01*
X149380451Y-110619995D01*
X149360677Y-110356130D01*
X149360677Y-110356128D01*
X149301795Y-110098150D01*
X149205121Y-109851830D01*
X149072815Y-109622669D01*
X148917022Y-109427311D01*
X148890615Y-109362626D01*
X148903370Y-109293931D01*
X148917020Y-109272691D01*
X149072815Y-109077331D01*
X149205121Y-108848170D01*
X149301795Y-108601850D01*
X149360677Y-108343872D01*
X149369773Y-108222490D01*
X149380451Y-108080004D01*
X149380451Y-108079995D01*
X149360677Y-107816130D01*
X149360677Y-107816128D01*
X149301795Y-107558150D01*
X149205121Y-107311830D01*
X149072815Y-107082669D01*
X148917022Y-106887311D01*
X148890615Y-106822626D01*
X148903370Y-106753931D01*
X148917020Y-106732691D01*
X149072815Y-106537331D01*
X149205121Y-106308170D01*
X149301795Y-106061850D01*
X149360677Y-105803872D01*
X149380451Y-105540000D01*
X149360677Y-105276128D01*
X149301795Y-105018150D01*
X149205121Y-104771830D01*
X149072815Y-104542669D01*
X148917022Y-104347311D01*
X148890615Y-104282626D01*
X148903370Y-104213931D01*
X148917020Y-104192691D01*
X149072815Y-103997331D01*
X149205121Y-103768170D01*
X149301795Y-103521850D01*
X149360677Y-103263872D01*
X149375790Y-103062195D01*
X149380451Y-103000004D01*
X149380451Y-102999995D01*
X149361803Y-102751151D01*
X149360677Y-102736128D01*
X149301795Y-102478150D01*
X149205121Y-102231830D01*
X149072815Y-102002669D01*
X148917022Y-101807311D01*
X148890615Y-101742626D01*
X148903370Y-101673931D01*
X148917020Y-101652691D01*
X149072815Y-101457331D01*
X149205121Y-101228170D01*
X149301795Y-100981850D01*
X149360677Y-100723872D01*
X149380451Y-100460000D01*
X149377753Y-100424003D01*
X149360677Y-100196130D01*
X149348897Y-100144517D01*
X149301795Y-99938150D01*
X149205121Y-99691830D01*
X149072815Y-99462669D01*
X148917022Y-99267311D01*
X148890615Y-99202626D01*
X148903370Y-99133931D01*
X148917020Y-99112691D01*
X149072815Y-98917331D01*
X149205121Y-98688170D01*
X149301795Y-98441850D01*
X149360677Y-98183872D01*
X149369151Y-98070784D01*
X149380451Y-97920004D01*
X149380451Y-97919995D01*
X149360677Y-97656130D01*
X149356084Y-97636006D01*
X149301795Y-97398150D01*
X149205121Y-97151830D01*
X149072815Y-96922669D01*
X148917022Y-96727311D01*
X148890615Y-96662626D01*
X148903370Y-96593931D01*
X148917020Y-96572691D01*
X149072815Y-96377331D01*
X149205121Y-96148170D01*
X149301795Y-95901850D01*
X149360677Y-95643872D01*
X149370569Y-95511867D01*
X149380451Y-95380004D01*
X149380451Y-95379995D01*
X149360677Y-95116130D01*
X149356225Y-95096624D01*
X149301795Y-94858150D01*
X149205121Y-94611830D01*
X149072815Y-94382669D01*
X148907832Y-94175787D01*
X148713858Y-93995806D01*
X148697275Y-93984500D01*
X148495229Y-93846746D01*
X148495218Y-93846739D01*
X148256821Y-93731935D01*
X148129396Y-93692629D01*
X148078266Y-93661819D01*
X147747575Y-93331127D01*
X147806853Y-93315245D01*
X147923147Y-93248102D01*
X148018102Y-93153147D01*
X148085245Y-93036853D01*
X148101128Y-92977575D01*
X148663894Y-93540342D01*
X148709706Y-93474915D01*
X148803250Y-93274309D01*
X148803254Y-93274300D01*
X148860538Y-93060509D01*
X148860540Y-93060499D01*
X148879832Y-92840000D01*
X148879832Y-92839999D01*
X148860540Y-92619500D01*
X148860538Y-92619490D01*
X148803254Y-92405699D01*
X148803250Y-92405690D01*
X148709707Y-92205085D01*
X148709706Y-92205083D01*
X148663894Y-92139657D01*
X148663894Y-92139656D01*
X148101127Y-92702423D01*
X148085245Y-92643147D01*
X148018102Y-92526853D01*
X147923147Y-92431898D01*
X147806853Y-92364755D01*
X147747573Y-92348871D01*
X148078265Y-92018179D01*
X148129396Y-91987370D01*
X148189907Y-91968705D01*
X148256801Y-91948072D01*
X148256808Y-91948068D01*
X148256818Y-91948066D01*
X148465187Y-91847722D01*
X148495218Y-91833260D01*
X148495218Y-91833259D01*
X148495226Y-91833256D01*
X148713858Y-91684194D01*
X148907832Y-91504213D01*
X149072815Y-91297331D01*
X149205121Y-91068170D01*
X149301795Y-90821850D01*
X149360677Y-90563872D01*
X149371849Y-90414791D01*
X149380451Y-90300004D01*
X149380451Y-90299995D01*
X149360677Y-90036130D01*
X149358104Y-90024857D01*
X149301795Y-89778150D01*
X149205121Y-89531830D01*
X149072815Y-89302669D01*
X148917022Y-89107311D01*
X148890615Y-89042626D01*
X148903370Y-88973931D01*
X148917020Y-88952691D01*
X149072815Y-88757331D01*
X149205121Y-88528170D01*
X149301795Y-88281850D01*
X149360677Y-88023872D01*
X149380451Y-87760000D01*
X149360677Y-87496128D01*
X149301795Y-87238150D01*
X149205121Y-86991830D01*
X149072815Y-86762669D01*
X148917022Y-86567311D01*
X148890615Y-86502626D01*
X148903370Y-86433931D01*
X148917020Y-86412691D01*
X149072815Y-86217331D01*
X149205121Y-85988170D01*
X149301795Y-85741850D01*
X149307748Y-85715771D01*
X149313175Y-85691991D01*
X149347282Y-85631012D01*
X149408943Y-85598154D01*
X149478581Y-85603848D01*
X149521747Y-85631901D01*
X149763181Y-85873335D01*
X149796666Y-85934658D01*
X149799500Y-85961016D01*
X149799500Y-97978097D01*
X149836446Y-98211368D01*
X149909433Y-98435996D01*
X149997804Y-98609433D01*
X150016657Y-98646434D01*
X150067677Y-98716657D01*
X150155484Y-98837511D01*
X154465718Y-103147745D01*
X154492598Y-103187973D01*
X154509533Y-103228859D01*
X154641160Y-103443653D01*
X154641161Y-103443656D01*
X154670313Y-103477788D01*
X154804776Y-103635224D01*
X154949457Y-103758793D01*
X154996343Y-103798838D01*
X154996346Y-103798839D01*
X155211140Y-103930466D01*
X155412654Y-104013935D01*
X155443889Y-104026873D01*
X155688852Y-104085683D01*
X155940000Y-104105449D01*
X156191148Y-104085683D01*
X156436111Y-104026873D01*
X156668859Y-103930466D01*
X156883659Y-103798836D01*
X157075224Y-103635224D01*
X157238836Y-103443659D01*
X157370466Y-103228859D01*
X157466873Y-102996111D01*
X157525683Y-102751148D01*
X157545449Y-102500000D01*
X157525683Y-102248852D01*
X157466873Y-102003889D01*
X157376801Y-101786434D01*
X157370466Y-101771140D01*
X157238839Y-101556346D01*
X157238838Y-101556343D01*
X157154273Y-101457331D01*
X157075224Y-101364776D01*
X156901799Y-101216657D01*
X156883656Y-101201161D01*
X156883653Y-101201160D01*
X156668858Y-101069533D01*
X156668859Y-101069533D01*
X156627973Y-101052598D01*
X156587745Y-101025718D01*
X152836819Y-97274792D01*
X152803334Y-97213469D01*
X152800500Y-97187111D01*
X152800500Y-93221889D01*
X152820185Y-93154850D01*
X152872989Y-93109095D01*
X152942147Y-93099151D01*
X153005703Y-93128176D01*
X153012181Y-93134208D01*
X154463181Y-94585208D01*
X154496666Y-94646531D01*
X154499500Y-94672889D01*
X154499500Y-94915553D01*
X154490061Y-94963006D01*
X154473126Y-95003889D01*
X154414317Y-95248848D01*
X154394551Y-95500000D01*
X154414317Y-95751151D01*
X154473126Y-95996110D01*
X154569533Y-96228859D01*
X154701160Y-96443653D01*
X154701161Y-96443656D01*
X154701164Y-96443659D01*
X154864776Y-96635224D01*
X154979736Y-96733409D01*
X155056343Y-96798838D01*
X155056346Y-96798839D01*
X155271140Y-96930466D01*
X155464612Y-97010604D01*
X155503889Y-97026873D01*
X155748852Y-97085683D01*
X156000000Y-97105449D01*
X156251148Y-97085683D01*
X156496111Y-97026873D01*
X156728859Y-96930466D01*
X156943659Y-96798836D01*
X157135224Y-96635224D01*
X157298836Y-96443659D01*
X157430466Y-96228859D01*
X157526873Y-95996111D01*
X157585683Y-95751148D01*
X157605449Y-95500000D01*
X157585683Y-95248852D01*
X157526873Y-95003889D01*
X157509939Y-94963006D01*
X157500500Y-94915553D01*
X157500500Y-93881902D01*
X157463553Y-93648631D01*
X157407109Y-93474915D01*
X157390568Y-93424008D01*
X157390566Y-93424005D01*
X157390566Y-93424003D01*
X157340023Y-93324808D01*
X157283343Y-93213567D01*
X157268916Y-93193710D01*
X157144518Y-93022490D01*
X154536819Y-90414791D01*
X154503334Y-90353468D01*
X154500500Y-90327110D01*
X154500500Y-85544827D01*
X154520185Y-85477788D01*
X154572989Y-85432033D01*
X154642147Y-85422089D01*
X154705703Y-85451114D01*
X154718781Y-85464286D01*
X154861179Y-85631012D01*
X154864776Y-85635224D01*
X155056343Y-85798838D01*
X155056346Y-85798839D01*
X155271140Y-85930466D01*
X155503879Y-86026869D01*
X155503889Y-86026873D01*
X155748852Y-86085683D01*
X156000000Y-86105449D01*
X156251148Y-86085683D01*
X156496111Y-86026873D01*
X156528066Y-86013636D01*
X156536994Y-86009939D01*
X156584446Y-86000500D01*
X156618097Y-86000500D01*
X156851368Y-85963553D01*
X156940297Y-85934658D01*
X157075992Y-85890568D01*
X157286434Y-85783343D01*
X157477510Y-85644517D01*
X159144517Y-83977510D01*
X159283343Y-83786434D01*
X159390568Y-83575992D01*
X159420752Y-83483096D01*
X159463553Y-83351368D01*
X159500500Y-83118097D01*
X159500500Y-74606902D01*
X159463553Y-74373631D01*
X159425717Y-74257186D01*
X159390568Y-74149008D01*
X159390566Y-74149005D01*
X159390566Y-74149003D01*
X159283342Y-73938566D01*
X159222980Y-73855485D01*
X159222979Y-73855483D01*
X159203363Y-73828484D01*
X159144521Y-73747493D01*
X159144519Y-73747491D01*
X157977512Y-72580485D01*
X157977511Y-72580484D01*
X157938243Y-72551954D01*
X157786434Y-72441657D01*
X157575996Y-72334433D01*
X157351368Y-72261446D01*
X157118097Y-72224500D01*
X157118092Y-72224500D01*
X156768266Y-72224500D01*
X156701227Y-72204815D01*
X156689911Y-72196606D01*
X156553407Y-72085302D01*
X156373049Y-71991091D01*
X156373048Y-71991090D01*
X156373045Y-71991089D01*
X156255829Y-71957550D01*
X156177418Y-71935114D01*
X156177415Y-71935113D01*
X156177413Y-71935113D01*
X156111102Y-71929217D01*
X156058037Y-71924500D01*
X156058032Y-71924500D01*
X154341971Y-71924500D01*
X154341965Y-71924500D01*
X154341964Y-71924501D01*
X154330316Y-71925536D01*
X154222584Y-71935113D01*
X154026954Y-71991089D01*
X153936772Y-72038196D01*
X153846593Y-72085302D01*
X153846591Y-72085303D01*
X153846590Y-72085304D01*
X153688890Y-72213890D01*
X153560304Y-72371590D01*
X153466089Y-72551954D01*
X153410114Y-72747583D01*
X153410113Y-72747586D01*
X153399500Y-72866966D01*
X153399500Y-74583028D01*
X153399501Y-74583034D01*
X153410113Y-74702415D01*
X153466089Y-74898045D01*
X153466090Y-74898048D01*
X153466091Y-74898049D01*
X153560302Y-75078407D01*
X153560304Y-75078409D01*
X153688890Y-75236109D01*
X153795923Y-75323382D01*
X153846593Y-75364698D01*
X154013993Y-75452140D01*
X154064300Y-75500626D01*
X154080407Y-75568613D01*
X154068963Y-75614452D01*
X153973735Y-75818668D01*
X153973730Y-75818682D01*
X153921127Y-76014999D01*
X153921128Y-76015000D01*
X154884314Y-76015000D01*
X154879920Y-76019394D01*
X154827259Y-76110606D01*
X154800000Y-76212339D01*
X154800000Y-76317661D01*
X154827259Y-76419394D01*
X154879920Y-76510606D01*
X154884314Y-76515000D01*
X153921128Y-76515000D01*
X153973730Y-76711317D01*
X153973734Y-76711326D01*
X154069865Y-76917482D01*
X154200342Y-77103820D01*
X154361179Y-77264657D01*
X154547517Y-77395134D01*
X154753673Y-77491265D01*
X154753682Y-77491269D01*
X154949999Y-77543872D01*
X154950000Y-77543871D01*
X154950000Y-76580686D01*
X154954394Y-76585080D01*
X155045606Y-76637741D01*
X155147339Y-76665000D01*
X155252661Y-76665000D01*
X155354394Y-76637741D01*
X155445606Y-76585080D01*
X155450000Y-76580686D01*
X155450000Y-77543872D01*
X155646317Y-77491269D01*
X155646326Y-77491265D01*
X155852482Y-77395134D01*
X156038820Y-77264657D01*
X156199657Y-77103820D01*
X156273925Y-76997756D01*
X156328502Y-76954132D01*
X156398001Y-76946939D01*
X156460355Y-76978461D01*
X156495769Y-77038691D01*
X156499500Y-77068880D01*
X156499500Y-82327110D01*
X156479815Y-82394149D01*
X156463181Y-82414791D01*
X156014352Y-82863619D01*
X155953029Y-82897104D01*
X155936401Y-82899556D01*
X155893567Y-82902927D01*
X155748852Y-82914317D01*
X155748848Y-82914318D01*
X155503889Y-82973126D01*
X155271140Y-83069533D01*
X155056346Y-83201160D01*
X155056343Y-83201161D01*
X154864776Y-83364776D01*
X154701161Y-83556343D01*
X154701160Y-83556346D01*
X154569533Y-83771140D01*
X154569141Y-83772089D01*
X154568894Y-83772394D01*
X154567320Y-83775485D01*
X154566670Y-83775154D01*
X154525298Y-83826491D01*
X154459003Y-83848554D01*
X154391304Y-83831273D01*
X154344096Y-83780928D01*
X154323149Y-83739818D01*
X154283343Y-83661694D01*
X154273853Y-83648632D01*
X154144518Y-83470617D01*
X149669383Y-78995483D01*
X149478307Y-78856657D01*
X149267865Y-78749432D01*
X149175312Y-78719359D01*
X149117637Y-78679922D01*
X149090439Y-78615564D01*
X149102354Y-78546717D01*
X149106235Y-78539444D01*
X149205121Y-78368170D01*
X149301795Y-78121850D01*
X149360677Y-77863872D01*
X149371941Y-77713564D01*
X149380451Y-77600004D01*
X149380451Y-77599995D01*
X149364273Y-77384112D01*
X149360677Y-77336128D01*
X149301795Y-77078150D01*
X149205121Y-76831830D01*
X149072815Y-76602669D01*
X148907832Y-76395787D01*
X148713858Y-76215806D01*
X148712721Y-76215031D01*
X148495229Y-76066746D01*
X148495218Y-76066739D01*
X148256820Y-75951935D01*
X148256822Y-75951935D01*
X148003963Y-75873938D01*
X148003957Y-75873936D01*
X147742313Y-75834500D01*
X147742306Y-75834500D01*
X147477694Y-75834500D01*
X147477686Y-75834500D01*
X147216042Y-75873936D01*
X147216036Y-75873938D01*
X146963178Y-75951935D01*
X146724782Y-76066739D01*
X146724781Y-76066740D01*
X146506141Y-76215806D01*
X146312170Y-76395785D01*
X146312168Y-76395787D01*
X146147185Y-76602669D01*
X146014879Y-76831829D01*
X145918207Y-77078144D01*
X145918202Y-77078161D01*
X145859322Y-77336130D01*
X145839549Y-77599995D01*
X123975499Y-77599995D01*
X123975499Y-76776964D01*
X123964886Y-76657582D01*
X123908909Y-76461951D01*
X123814698Y-76281593D01*
X123758229Y-76212339D01*
X123686109Y-76123890D01*
X123570933Y-76029977D01*
X123528407Y-75995302D01*
X123348049Y-75901091D01*
X123348048Y-75901090D01*
X123348045Y-75901089D01*
X123229923Y-75867291D01*
X123152418Y-75845114D01*
X123152415Y-75845113D01*
X123152413Y-75845113D01*
X123086102Y-75839217D01*
X123033037Y-75834500D01*
X123033032Y-75834500D01*
X121386971Y-75834500D01*
X121386965Y-75834500D01*
X121386964Y-75834501D01*
X121375316Y-75835536D01*
X121267584Y-75845113D01*
X121071954Y-75901089D01*
X120981772Y-75948196D01*
X120891593Y-75995302D01*
X120891591Y-75995303D01*
X120891590Y-75995304D01*
X120733890Y-76123891D01*
X120720601Y-76140189D01*
X120662980Y-76179705D01*
X120593142Y-76181796D01*
X120533259Y-76145798D01*
X120502345Y-76083139D01*
X120500500Y-76061827D01*
X120500500Y-75672889D01*
X120520185Y-75605850D01*
X120536819Y-75585208D01*
X124585209Y-71536819D01*
X124646532Y-71503334D01*
X124672890Y-71500500D01*
X159327111Y-71500500D01*
X159394150Y-71520185D01*
G37*
%TD.AperFunction*%
%TA.AperFunction,Conductor*%
G36*
X120630241Y-101296737D02*
G01*
X120681716Y-101343981D01*
X120682916Y-101346014D01*
X120688383Y-101355483D01*
X120747185Y-101457331D01*
X120826147Y-101556346D01*
X120902976Y-101652687D01*
X120929385Y-101717374D01*
X120916628Y-101786069D01*
X120902976Y-101807313D01*
X120747185Y-102002669D01*
X120614879Y-102231829D01*
X120518207Y-102478144D01*
X120518202Y-102478161D01*
X120459322Y-102736130D01*
X120439549Y-102999995D01*
X120439549Y-103000004D01*
X120459322Y-103263869D01*
X120510487Y-103488037D01*
X120518205Y-103521850D01*
X120614879Y-103768170D01*
X120747185Y-103997331D01*
X120833406Y-104105449D01*
X120902976Y-104192687D01*
X120929385Y-104257374D01*
X120916628Y-104326069D01*
X120902976Y-104347313D01*
X120747185Y-104542669D01*
X120614879Y-104771829D01*
X120518207Y-105018144D01*
X120518202Y-105018161D01*
X120459322Y-105276130D01*
X120439549Y-105539995D01*
X120439549Y-105540004D01*
X120459322Y-105803869D01*
X120459323Y-105803872D01*
X120518205Y-106061850D01*
X120614879Y-106308170D01*
X120747185Y-106537331D01*
X120835944Y-106648631D01*
X120902976Y-106732687D01*
X120929385Y-106797374D01*
X120916628Y-106866069D01*
X120902976Y-106887313D01*
X120747185Y-107082669D01*
X120614879Y-107311829D01*
X120518207Y-107558144D01*
X120518202Y-107558161D01*
X120459322Y-107816130D01*
X120439549Y-108079995D01*
X120439549Y-108080004D01*
X120459322Y-108343869D01*
X120510653Y-108568764D01*
X120518205Y-108601850D01*
X120614879Y-108848170D01*
X120747185Y-109077331D01*
X120912168Y-109284213D01*
X121106142Y-109464194D01*
X121324775Y-109613256D01*
X121324780Y-109613258D01*
X121324781Y-109613259D01*
X121324782Y-109613260D01*
X121538170Y-109716021D01*
X121563182Y-109728066D01*
X121690603Y-109767370D01*
X121741732Y-109798179D01*
X122072424Y-110128871D01*
X122013147Y-110144755D01*
X121896853Y-110211898D01*
X121801898Y-110306853D01*
X121734755Y-110423147D01*
X121718871Y-110482424D01*
X121156104Y-109919657D01*
X121110293Y-109985084D01*
X121016749Y-110185690D01*
X121016745Y-110185699D01*
X120959461Y-110399490D01*
X120959459Y-110399500D01*
X120940168Y-110619999D01*
X120940168Y-110620000D01*
X120959459Y-110840499D01*
X120959461Y-110840509D01*
X121016745Y-111054300D01*
X121016749Y-111054309D01*
X121110295Y-111254919D01*
X121156103Y-111320341D01*
X121156105Y-111320342D01*
X121718871Y-110757575D01*
X121734755Y-110816853D01*
X121801898Y-110933147D01*
X121896853Y-111028102D01*
X122013147Y-111095245D01*
X122072424Y-111111128D01*
X121741732Y-111441819D01*
X121690602Y-111472629D01*
X121563178Y-111511935D01*
X121324782Y-111626739D01*
X121324781Y-111626740D01*
X121106141Y-111775806D01*
X120912170Y-111955785D01*
X120912168Y-111955787D01*
X120747185Y-112162669D01*
X120614879Y-112391829D01*
X120518207Y-112638144D01*
X120518202Y-112638161D01*
X120459322Y-112896130D01*
X120439549Y-113159995D01*
X120439549Y-113160004D01*
X120459322Y-113423869D01*
X120494044Y-113575996D01*
X120518205Y-113681850D01*
X120614879Y-113928170D01*
X120747185Y-114157331D01*
X120804227Y-114228859D01*
X120902976Y-114352687D01*
X120929385Y-114417374D01*
X120916628Y-114486069D01*
X120902976Y-114507313D01*
X120747185Y-114702669D01*
X120614879Y-114931829D01*
X120518207Y-115178144D01*
X120518202Y-115178161D01*
X120459322Y-115436130D01*
X120439549Y-115699995D01*
X120439549Y-115700004D01*
X120459322Y-115963869D01*
X120516314Y-116213567D01*
X120518205Y-116221850D01*
X120614879Y-116468170D01*
X120747185Y-116697331D01*
X120858806Y-116837299D01*
X120902976Y-116892687D01*
X120929385Y-116957374D01*
X120916628Y-117026069D01*
X120902976Y-117047313D01*
X120747185Y-117242669D01*
X120614879Y-117471829D01*
X120518207Y-117718144D01*
X120518202Y-117718161D01*
X120459322Y-117976130D01*
X120439549Y-118239995D01*
X120439549Y-118240004D01*
X120459322Y-118503869D01*
X120514949Y-118747586D01*
X120518205Y-118761850D01*
X120614879Y-119008170D01*
X120747185Y-119237331D01*
X120850689Y-119367121D01*
X120902976Y-119432687D01*
X120929385Y-119497374D01*
X120916628Y-119566069D01*
X120902976Y-119587313D01*
X120747185Y-119782669D01*
X120614879Y-120011829D01*
X120518207Y-120258144D01*
X120518202Y-120258161D01*
X120459322Y-120516130D01*
X120439549Y-120779995D01*
X120439549Y-120780004D01*
X120459322Y-121043869D01*
X120515007Y-121287839D01*
X120518205Y-121301850D01*
X120614879Y-121548170D01*
X120747185Y-121777331D01*
X120800274Y-121843902D01*
X120902976Y-121972687D01*
X120929385Y-122037374D01*
X120916628Y-122106069D01*
X120902976Y-122127313D01*
X120747185Y-122322669D01*
X120614880Y-122551827D01*
X120525791Y-122778822D01*
X120518205Y-122798150D01*
X120518202Y-122798163D01*
X120499058Y-122882036D01*
X120465848Y-122942123D01*
X117944792Y-125463181D01*
X117883469Y-125496666D01*
X117857111Y-125499500D01*
X113405297Y-125499500D01*
X113338258Y-125479815D01*
X113292503Y-125427011D01*
X113282559Y-125357853D01*
X113311584Y-125294297D01*
X113340869Y-125269552D01*
X113365620Y-125254500D01*
X113388598Y-125240527D01*
X113614157Y-125057022D01*
X113812627Y-124844512D01*
X113980312Y-124606956D01*
X114114088Y-124348780D01*
X114114088Y-124348779D01*
X114114090Y-124348776D01*
X114199795Y-124107626D01*
X114211464Y-124074793D01*
X114211464Y-124074788D01*
X114211467Y-124074782D01*
X114244001Y-123918215D01*
X114270624Y-123790099D01*
X114290467Y-123500000D01*
X114270624Y-123209901D01*
X114239066Y-123058034D01*
X114211467Y-122925217D01*
X114211462Y-122925201D01*
X114135447Y-122711317D01*
X114114089Y-122651223D01*
X114114090Y-122651223D01*
X113980311Y-122393042D01*
X113980307Y-122393036D01*
X113812632Y-122155494D01*
X113812628Y-122155490D01*
X113812627Y-122155488D01*
X113614157Y-121942978D01*
X113614150Y-121942973D01*
X113614149Y-121942971D01*
X113388604Y-121759477D01*
X113388593Y-121759470D01*
X113140151Y-121608388D01*
X112873454Y-121492545D01*
X112593462Y-121414095D01*
X112593457Y-121414094D01*
X112593456Y-121414094D01*
X112449422Y-121394297D01*
X112305389Y-121374500D01*
X112305388Y-121374500D01*
X112014612Y-121374500D01*
X112014611Y-121374500D01*
X111726544Y-121414094D01*
X111726537Y-121414095D01*
X111446545Y-121492545D01*
X111179848Y-121608388D01*
X110931406Y-121759470D01*
X110931395Y-121759477D01*
X110705850Y-121942971D01*
X110705844Y-121942976D01*
X110705843Y-121942978D01*
X110605892Y-122050000D01*
X110507367Y-122155494D01*
X110339692Y-122393036D01*
X110339688Y-122393042D01*
X110205909Y-122651223D01*
X110108537Y-122925201D01*
X110108532Y-122925217D01*
X110049376Y-123209898D01*
X110049375Y-123209900D01*
X110032084Y-123462698D01*
X110007870Y-123528238D01*
X109996054Y-123541917D01*
X108074792Y-125463181D01*
X108013469Y-125496666D01*
X107987111Y-125499500D01*
X99672889Y-125499500D01*
X99605850Y-125479815D01*
X99585208Y-125463181D01*
X98536819Y-124414792D01*
X98503334Y-124353469D01*
X98500500Y-124327111D01*
X98500500Y-123672889D01*
X98520185Y-123605850D01*
X98536819Y-123585208D01*
X98622027Y-123500000D01*
X100369975Y-123500000D01*
X100390042Y-123754989D01*
X100449752Y-124003702D01*
X100547634Y-124240012D01*
X100547636Y-124240015D01*
X100681277Y-124458098D01*
X100681284Y-124458107D01*
X100684533Y-124461912D01*
X101322421Y-123824024D01*
X101335359Y-123855258D01*
X101417437Y-123978097D01*
X101521903Y-124082563D01*
X101644742Y-124164641D01*
X101675974Y-124177578D01*
X101038087Y-124815465D01*
X101041897Y-124818719D01*
X101259984Y-124952363D01*
X101259987Y-124952365D01*
X101496297Y-125050247D01*
X101745011Y-125109957D01*
X101745010Y-125109957D01*
X102000000Y-125130024D01*
X102254989Y-125109957D01*
X102503702Y-125050247D01*
X102740012Y-124952365D01*
X102740015Y-124952363D01*
X102958095Y-124818724D01*
X102958110Y-124818713D01*
X102961911Y-124815466D01*
X102961911Y-124815464D01*
X102324025Y-124177577D01*
X102355258Y-124164641D01*
X102478097Y-124082563D01*
X102582563Y-123978097D01*
X102664641Y-123855258D01*
X102677577Y-123824025D01*
X103315464Y-124461911D01*
X103315466Y-124461911D01*
X103318713Y-124458110D01*
X103318724Y-124458095D01*
X103452363Y-124240015D01*
X103452365Y-124240012D01*
X103550247Y-124003702D01*
X103609957Y-123754989D01*
X103630024Y-123500000D01*
X103609957Y-123245010D01*
X103550247Y-122996297D01*
X103452365Y-122759987D01*
X103452363Y-122759984D01*
X103318719Y-122541897D01*
X103315465Y-122538087D01*
X102677577Y-123175974D01*
X102664641Y-123144742D01*
X102582563Y-123021903D01*
X102478097Y-122917437D01*
X102355258Y-122835359D01*
X102324024Y-122822421D01*
X102961912Y-122184533D01*
X102958107Y-122181284D01*
X102958098Y-122181277D01*
X102740015Y-122047636D01*
X102740012Y-122047634D01*
X102503702Y-121949752D01*
X102254988Y-121890042D01*
X102254989Y-121890042D01*
X102000000Y-121869975D01*
X101745010Y-121890042D01*
X101496297Y-121949752D01*
X101259987Y-122047634D01*
X101259984Y-122047636D01*
X101041893Y-122181282D01*
X101038086Y-122184532D01*
X101675975Y-122822421D01*
X101644742Y-122835359D01*
X101521903Y-122917437D01*
X101417437Y-123021903D01*
X101335359Y-123144742D01*
X101322421Y-123175975D01*
X100684532Y-122538086D01*
X100681282Y-122541893D01*
X100547636Y-122759984D01*
X100547634Y-122759987D01*
X100449752Y-122996297D01*
X100390042Y-123245010D01*
X100369975Y-123500000D01*
X98622027Y-123500000D01*
X109323555Y-112798472D01*
X120144517Y-101977510D01*
X120283343Y-101786434D01*
X120390568Y-101575992D01*
X120426065Y-101466744D01*
X120457598Y-101369696D01*
X120497036Y-101312020D01*
X120561394Y-101284822D01*
X120630241Y-101296737D01*
G37*
%TD.AperFunction*%
%TD*%
D30*
X88000000Y-134000000D02*
G75*
G02*
X86000000Y-134000000I-1000000J0D01*
G01*
X86000000Y-134000000D02*
G75*
G02*
X88000000Y-134000000I1000000J0D01*
G01*
X88000000Y-68000000D02*
G75*
G02*
X86000000Y-68000000I-1000000J0D01*
G01*
X86000000Y-68000000D02*
G75*
G02*
X88000000Y-68000000I1000000J0D01*
G01*
X214000000Y-68000000D02*
G75*
G02*
X212000000Y-68000000I-1000000J0D01*
G01*
X212000000Y-68000000D02*
G75*
G02*
X214000000Y-68000000I1000000J0D01*
G01*
X214000000Y-134000000D02*
G75*
G02*
X212000000Y-134000000I-1000000J0D01*
G01*
X212000000Y-134000000D02*
G75*
G02*
X214000000Y-134000000I1000000J0D01*
G01*
X85000000Y-66000000D02*
X215000000Y-66000000D01*
X215000000Y-136000000D01*
X85000000Y-136000000D01*
X85000000Y-66000000D01*
M02*
