%TF.GenerationSoftware,KiCad,Pcbnew,8.0.6-8.0.6-0~ubuntu22.04.1*%
%TF.CreationDate,2024-11-04T12:04:03+07:00*%
%TF.ProjectId,projectGATE,70726f6a-6563-4744-9741-54452e6b6963,rev?*%
%TF.SameCoordinates,Original*%
%TF.FileFunction,Soldermask,Top*%
%TF.FilePolarity,Negative*%
%FSLAX46Y46*%
G04 Gerber Fmt 4.6, Leading zero omitted, Abs format (unit mm)*
G04 Created by KiCad (PCBNEW 8.0.6-8.0.6-0~ubuntu22.04.1) date 2024-11-04 12:04:03*
%MOMM*%
%LPD*%
G01*
G04 APERTURE LIST*
G04 Aperture macros list*
%AMRoundRect*
0 Rectangle with rounded corners*
0 $1 Rounding radius*
0 $2 $3 $4 $5 $6 $7 $8 $9 X,Y pos of 4 corners*
0 Add a 4 corners polygon primitive as box body*
4,1,4,$2,$3,$4,$5,$6,$7,$8,$9,$2,$3,0*
0 Add four circle primitives for the rounded corners*
1,1,$1+$1,$2,$3*
1,1,$1+$1,$4,$5*
1,1,$1+$1,$6,$7*
1,1,$1+$1,$8,$9*
0 Add four rect primitives between the rounded corners*
20,1,$1+$1,$2,$3,$4,$5,0*
20,1,$1+$1,$4,$5,$6,$7,0*
20,1,$1+$1,$6,$7,$8,$9,0*
20,1,$1+$1,$8,$9,$2,$3,0*%
G04 Aperture macros list end*
%ADD10R,2.200000X2.200000*%
%ADD11O,2.200000X2.200000*%
%ADD12RoundRect,0.102000X1.500000X1.500000X-1.500000X1.500000X-1.500000X-1.500000X1.500000X-1.500000X0*%
%ADD13C,3.204000*%
%ADD14C,1.404000*%
%ADD15RoundRect,0.102000X-0.825000X-0.825000X0.825000X-0.825000X0.825000X0.825000X-0.825000X0.825000X0*%
%ADD16C,1.854000*%
%ADD17C,1.712000*%
%ADD18R,1.600000X1.600000*%
%ADD19O,1.600000X1.600000*%
%ADD20RoundRect,0.102000X-0.765000X-0.765000X0.765000X-0.765000X0.765000X0.765000X-0.765000X0.765000X0*%
%ADD21C,1.734000*%
%ADD22R,1.905000X2.000000*%
%ADD23O,1.905000X2.000000*%
%ADD24RoundRect,0.102000X-1.200000X-1.200000X1.200000X-1.200000X1.200000X1.200000X-1.200000X1.200000X0*%
%ADD25C,2.604000*%
%ADD26RoundRect,0.102000X-1.500000X1.500000X-1.500000X-1.500000X1.500000X-1.500000X1.500000X1.500000X0*%
%ADD27C,2.454000*%
%ADD28RoundRect,0.102000X1.200000X1.200000X-1.200000X1.200000X-1.200000X-1.200000X1.200000X-1.200000X0*%
G04 APERTURE END LIST*
D10*
%TO.C,D4*%
X182507500Y-124080000D03*
D11*
X182507500Y-113920000D03*
%TD*%
D12*
%TO.C,J1*%
X95967500Y-88837500D03*
D13*
X90887500Y-88837500D03*
%TD*%
D14*
%TO.C,R8*%
X151507500Y-96500000D03*
X151507500Y-107500000D03*
%TD*%
D15*
%TO.C,K1*%
X190807500Y-106620000D03*
D16*
X198427500Y-106620000D03*
X203507500Y-106620000D03*
X208587500Y-106620000D03*
X208587500Y-99000000D03*
X203507500Y-99000000D03*
X198427500Y-99000000D03*
X190807500Y-99000000D03*
%TD*%
D17*
%TO.C,D1*%
X188507500Y-86000000D03*
X185967500Y-86000000D03*
%TD*%
D18*
%TO.C,U2*%
X150887500Y-85000000D03*
D19*
X150887500Y-87540000D03*
X158507500Y-87540000D03*
X158507500Y-85000000D03*
%TD*%
D14*
%TO.C,R11*%
X161507500Y-124500000D03*
X161507500Y-113500000D03*
%TD*%
D20*
%TO.C,U1*%
X118000000Y-88800000D03*
D21*
X118000000Y-91340000D03*
X118000000Y-93880000D03*
X118000000Y-96420000D03*
X118000000Y-98960000D03*
X118000000Y-101500000D03*
X118000000Y-104040000D03*
X118000000Y-106580000D03*
X118000000Y-109120000D03*
X118000000Y-111660000D03*
X118000000Y-114200000D03*
X118000000Y-116740000D03*
X118000000Y-119280000D03*
X118000000Y-121820000D03*
X118000000Y-124360000D03*
X118000000Y-126900000D03*
X118000000Y-129440000D03*
X118000000Y-131980000D03*
X118000000Y-134520000D03*
X143400000Y-134520000D03*
X143400000Y-131980000D03*
X143400000Y-129440000D03*
X143400000Y-126900000D03*
X143400000Y-124360000D03*
X143400000Y-121820000D03*
X143400000Y-119280000D03*
X143400000Y-116740000D03*
X143400000Y-114200000D03*
X143400000Y-111660000D03*
X143400000Y-109120000D03*
X143400000Y-106580000D03*
X143400000Y-104040000D03*
X143400000Y-101500000D03*
X143400000Y-98960000D03*
X143400000Y-96420000D03*
X143400000Y-93880000D03*
X143400000Y-91340000D03*
X143400000Y-88800000D03*
%TD*%
D14*
%TO.C,R10*%
X173507500Y-96500000D03*
X173507500Y-107500000D03*
%TD*%
D22*
%TO.C,Q3*%
X169967500Y-86945000D03*
D23*
X172507500Y-86945000D03*
X175047500Y-86945000D03*
%TD*%
D10*
%TO.C,D3*%
X182507500Y-107160000D03*
D11*
X182507500Y-97000000D03*
%TD*%
D17*
%TO.C,D2*%
X189507500Y-135000000D03*
X186967500Y-135000000D03*
%TD*%
D22*
%TO.C,Q2*%
X169967500Y-135945000D03*
D23*
X172507500Y-135945000D03*
X175047500Y-135945000D03*
%TD*%
D14*
%TO.C,R7*%
X151507500Y-113500000D03*
X151507500Y-124500000D03*
%TD*%
D18*
%TO.C,U3*%
X150807500Y-132000000D03*
D19*
X150807500Y-134540000D03*
X158427500Y-134540000D03*
X158427500Y-132000000D03*
%TD*%
D24*
%TO.C,J3*%
X196840000Y-131000000D03*
D25*
X201920000Y-131000000D03*
X207000000Y-131000000D03*
%TD*%
D14*
%TO.C,R12*%
X173507500Y-124500000D03*
X173507500Y-113500000D03*
%TD*%
D15*
%TO.C,K2*%
X190807500Y-121810000D03*
D16*
X198427500Y-121810000D03*
X203507500Y-121810000D03*
X208587500Y-121810000D03*
X208587500Y-114190000D03*
X203507500Y-114190000D03*
X198427500Y-114190000D03*
X190807500Y-114190000D03*
%TD*%
D26*
%TO.C,PS1*%
X109587500Y-100500000D03*
D13*
X89267500Y-100500000D03*
D27*
X99427500Y-133500000D03*
X109587500Y-133500000D03*
%TD*%
D28*
%TO.C,J2*%
X207000000Y-89000000D03*
D25*
X201920000Y-89000000D03*
X196840000Y-89000000D03*
%TD*%
D14*
%TO.C,R9*%
X161507500Y-96500000D03*
X161507500Y-107500000D03*
%TD*%
M02*
